<?xml version="1.0" encoding="UTF-8"?>
<svg width="32px" height="24px" viewBox="0 0 32 24" version="1.1" xmlns="http://www.w3.org/2000/svg" xmlns:xlink="http://www.w3.org/1999/xlink">
    <title>BB</title>
    <defs>
        <rect id="path-1" x="0" y="0" width="32" height="24" rx="2"></rect>
        <rect id="path-3" x="0" y="0" width="32" height="24"></rect>
        <linearGradient x1="50%" y1="100%" x2="50%" y2="0%" id="linearGradient-5">
            <stop stop-color="#000000" stop-opacity="0.3" offset="2.42052023%"></stop>
            <stop stop-color="#FFFFFF" stop-opacity="0.7" offset="100%"></stop>
        </linearGradient>
        <rect id="path-6" x="0" y="0" width="32" height="24" rx="2"></rect>
    </defs>
    <g id="Flagpack" stroke="none" stroke-width="1" fill="none" fill-rule="evenodd">
        <g id="Flagpack---L-(32×24)" transform="translate(-432.000000, -88.000000)">
            <g id="BB" transform="translate(432.000000, 88.000000)">
                <mask id="mask-2" fill="white">
                    <use xlink:href="#path-1"></use>
                </mask>
                <g id="drop-shadow"></g>
                <g id="Group" mask="url(#mask-2)">
                    <g id="flag">
                        <mask id="mask-4" fill="white">
                            <use xlink:href="#path-3"></use>
                        </mask>
                        <g id="mask"></g>
                        <g id="contents" mask="url(#mask-4)">
                            <polygon id="right" fill="#2E42A5" points="22 0 32 0 32 24 22 24"></polygon>
                            <polygon id="middle" fill="#FECA00" points="10 0 22 0 22 24 10 24"></polygon>
                            <polygon id="left" fill="#2E42A5" points="0 0 10 0 10 24 0 24"></polygon>
                            <path d="M18.611979,15.6677755 C18.8000534,14.3782208 20.132819,11.5753478 20.132819,11.5753478 L20.750907,9.93073767 L18.3012,10.7256163 L18.880925,11.0273149 L17.746463,14.2257773 L16.889498,14.0212082 L16.889498,7.85250631 L17.56742,7.80301144 L15.89537,5.37152145 L14.262788,7.85250631 L15.050513,7.85250631 L15.050513,14.0212082 L14.085245,14.1826264 L13.396762,10.9478743 L13.7942,10.6146998 L11.128929,10.123338 L11.924645,11.5916036 C11.924645,11.5916036 12.995582,14.1082229 13.396762,15.6677755 L15.050513,15.5403536 L15.050513,17.937472 L16.889498,17.937472 L16.889498,15.5403536 L18.611979,15.6677755 Z" id="mark" fill="#000000"></path>
                        </g>
                    </g>
                </g>
                <g id="overlay" mask="url(#mask-2)">
                    <use fill="url(#linearGradient-5)" fill-rule="evenodd" style="mix-blend-mode: overlay;" xlink:href="#path-6"></use>
                    <rect stroke-opacity="0.1" stroke="#000000" stroke-width="1" stroke-linejoin="square" x="0.5" y="0.5" width="31" height="23" rx="2"></rect>
                </g>
            </g>
        </g>
    </g>
</svg>