<?xml version="1.0" encoding="UTF-8"?>
<svg width="32px" height="24px" viewBox="0 0 32 24" version="1.1" xmlns="http://www.w3.org/2000/svg" xmlns:xlink="http://www.w3.org/1999/xlink">
    <title>CA</title>
    <defs>
        <rect id="path-1" x="0" y="0" width="32" height="24" rx="2"></rect>
        <rect id="path-3" x="0" y="0" width="32" height="24"></rect>
        <linearGradient x1="50%" y1="100%" x2="50%" y2="0%" id="linearGradient-5">
            <stop stop-color="#000000" stop-opacity="0.3" offset="2.42052023%"></stop>
            <stop stop-color="#FFFFFF" stop-opacity="0.7" offset="100%"></stop>
        </linearGradient>
        <rect id="path-6" x="0" y="0" width="32" height="24" rx="2"></rect>
    </defs>
    <g id="Flagpack" stroke="none" stroke-width="1" fill="none" fill-rule="evenodd">
        <g id="Flagpack---L-(32×24)" transform="translate(-320.000000, -184.000000)">
            <g id="CA" transform="translate(320.000000, 184.000000)">
                <mask id="mask-2" fill="white">
                    <use xlink:href="#path-1"></use>
                </mask>
                <g id="drop-shadow"></g>
                <g id="Group" mask="url(#mask-2)">
                    <g>
                        <mask id="mask-4" fill="white">
                            <use xlink:href="#path-3"></use>
                        </mask>
                        <g id="mask"></g>
                        <g id="contents" mask="url(#mask-4)">
                            <polygon id="middle" fill="#F7FCFF" points="8 0 24 0 24 24 8 24"></polygon>
                            <path d="M15.9764017,7 L16,19 L15.4004926,19 L15.7683205,16.0303381 C13.0781917,16.5143822 11.8443248,16.6343271 12.06672,16.3901727 C12.2891151,16.1460182 12.4643616,15.7999847 12.5924594,15.3520721 L9,12.9553071 C9.3777876,12.9505685 9.7203539,12.8568042 10.0276989,12.6740141 C10.3350439,12.4912241 10.1813714,11.8577967 9.56668139,10.7737321 L11.3804657,11.0376108 L12.06672,10.2918202 L13.4351905,11.7240508 L14.0503292,11.7240508 L13.4351905,8.44342541 L14.5378188,9.05932009 L15.9764017,7 Z M15.9764017,7 L17.4621812,9.05932009 L18.5648095,8.44342541 L17.9496708,11.7240508 L18.5648095,11.7240508 L19.93328,10.2918202 L20.6195343,11.0376108 L22.4333186,10.7737321 C21.8186286,11.8577967 21.6649561,12.4912241 21.9723011,12.6740141 C22.2796461,12.8568042 22.6222124,12.9505685 23,12.9553071 L19.4075406,15.3520721 C19.5356384,15.7999847 19.7108849,16.1460182 19.93328,16.3901727 C20.1556752,16.6343271 18.9218083,16.5143822 16.2316795,16.0303381 L16.5995074,19 L16,19 L15.9764017,7 Z" id="Shape" fill="#E31D1C"></path>
                            <rect id="right" fill="#E31D1C" x="24" y="0" width="8" height="24"></rect>
                            <rect id="right" fill="#E31D1C" x="0" y="0" width="8" height="24"></rect>
                        </g>
                    </g>
                </g>
                <g id="overlay" mask="url(#mask-2)">
                    <use fill="url(#linearGradient-5)" fill-rule="evenodd" style="mix-blend-mode: overlay;" xlink:href="#path-6"></use>
                    <rect stroke-opacity="0.1" stroke="#000000" stroke-width="1" stroke-linejoin="square" x="0.5" y="0.5" width="31" height="23" rx="2"></rect>
                </g>
            </g>
        </g>
    </g>
</svg>