<?xml version="1.0" encoding="UTF-8"?>
<svg width="32px" height="24px" viewBox="0 0 32 24" version="1.1" xmlns="http://www.w3.org/2000/svg" xmlns:xlink="http://www.w3.org/1999/xlink">
    <title>CF</title>
    <defs>
        <rect id="path-1" x="0" y="0" width="32" height="24" rx="2"></rect>
        <rect id="path-3" x="0" y="0" width="32" height="24"></rect>
        <linearGradient x1="50%" y1="100%" x2="50%" y2="0%" id="linearGradient-5">
            <stop stop-color="#000000" stop-opacity="0.3" offset="2.42052023%"></stop>
            <stop stop-color="#FFFFFF" stop-opacity="0.7" offset="100%"></stop>
        </linearGradient>
        <rect id="path-6" x="0" y="0" width="32" height="24" rx="2"></rect>
    </defs>
    <g id="Flagpack" stroke="none" stroke-width="1" fill="none" fill-rule="evenodd">
        <g id="Flagpack---L-(32×24)" transform="translate(-488.000000, -184.000000)">
            <g id="CF" transform="translate(488.000000, 184.000000)">
                <mask id="mask-2" fill="white">
                    <use xlink:href="#path-1"></use>
                </mask>
                <g id="drop-shadow"></g>
                <g id="Group" mask="url(#mask-2)">
                    <g id="flag">
                        <mask id="mask-4" fill="white">
                            <use xlink:href="#path-3"></use>
                        </mask>
                        <g id="mask"></g>
                        <g id="contents" mask="url(#mask-4)">
                            <g transform="translate(0.000000, -2.000000)">
                                <polygon id="4" fill="#3D58DB" points="0 2 32 2 32 8 0 8"></polygon>
                                <polygon id="3" fill="#F7FCFF" points="0 8 32 8 32 14 0 14"></polygon>
                                <polygon id="2" fill="#73BE4A" points="0 14 32 14 32 20 0 20"></polygon>
                                <polygon id="1" fill="#FFD018" points="0 20 32 20 32 26 0 26"></polygon>
                                <g id="mark" stroke-width="1" fill="none">
                                    <polygon id="Star-5" fill="#FECA00" points="4.52945018 7.41610767 2.1049115 9.09781403 2.87964092 6.21745107 1.09977825 4.37747301 3.50981198 4.27798396 4.52945018 1.42973281 5.54908838 4.27798396 7.95502176 4.27798396 6.17925945 6.21745107 7.06858946 8.92780789"></polygon>
                                </g>
                                <rect id="middle" fill="#E11C1B" x="12" y="2" width="8" height="24"></rect>
                            </g>
                        </g>
                    </g>
                </g>
                <g id="overlay" mask="url(#mask-2)">
                    <use fill="url(#linearGradient-5)" fill-rule="evenodd" style="mix-blend-mode: overlay;" xlink:href="#path-6"></use>
                    <rect stroke-opacity="0.1" stroke="#000000" stroke-width="1" stroke-linejoin="square" x="0.5" y="0.5" width="31" height="23" rx="2"></rect>
                </g>
            </g>
        </g>
    </g>
</svg>