<?xml version="1.0" encoding="UTF-8"?>
<svg width="32px" height="24px" viewBox="0 0 32 24" version="1.1" xmlns="http://www.w3.org/2000/svg" xmlns:xlink="http://www.w3.org/1999/xlink">
    <title>CV</title>
    <defs>
        <rect id="path-1" x="0" y="0" width="32" height="24" rx="2"></rect>
        <rect id="path-3" x="0" y="0" width="32" height="24"></rect>
        <rect id="path-5" x="0" y="0" width="32" height="24"></rect>
        <path d="M10.5207194,20.0408592 L10.8518906,20.7799266 L11.5697468,20.7799266 L11.0057104,21.3538386 L11.2240719,22.2594485 L10.5217339,21.7505609 L9.79585438,22.2594485 L10.0409193,21.3538386 L9.39620284,20.7799266 L10.2382901,20.7799266 L10.5207194,20.0408592 Z M13.5207194,18.440859 L13.8518906,19.1799264 L14.5697468,19.1799264 L14.0057104,19.7538384 L14.2240719,20.6594483 L13.5217339,20.1505607 L12.7958544,20.6594483 L13.0409193,19.7538384 L12.3962028,19.1799264 L13.2382901,19.1799264 L13.5207194,18.440859 Z M7.5207194,18.440859 L7.85189056,19.1799264 L8.56974683,19.1799264 L8.0057104,19.7538384 L8.22407189,20.6594483 L7.52173386,20.1505607 L6.79585438,20.6594483 L7.04091932,19.7538384 L6.39620284,19.1799264 L7.23829014,19.1799264 L7.5207194,18.440859 Z M15.9207196,16.0408592 L16.2518907,16.7799266 L16.969747,16.7799266 L16.4057106,17.3538386 L16.624072,18.2594485 L15.921734,17.7505609 L15.1958545,18.2594485 L15.4409195,17.3538386 L14.796203,16.7799266 L15.6382903,16.7799266 L15.9207196,16.0408592 Z M5.12071956,16.0408592 L5.45189072,16.7799266 L6.16974699,16.7799266 L5.60571056,17.3538386 L5.82407205,18.2594485 L5.12173402,17.7505609 L4.39585454,18.2594485 L4.64091947,17.3538386 L3.996203,16.7799266 L4.8382903,16.7799266 L5.12071956,16.0408592 Z M15.9207196,12.0408592 L16.2518907,12.7799266 L16.969747,12.7799266 L16.4057106,13.3538386 L16.624072,14.2594485 L15.921734,13.7505609 L15.1958545,14.2594485 L15.4409195,13.3538386 L14.796203,12.7799266 L15.6382903,12.7799266 L15.9207196,12.0408592 Z M5.12071956,12.0408592 L5.45189072,12.7799266 L6.16974699,12.7799266 L5.60571056,13.3538386 L5.82407205,14.2594485 L5.12173402,13.7505609 L4.39585454,14.2594485 L4.64091947,13.3538386 L3.996203,12.7799266 L4.8382903,12.7799266 L5.12071956,12.0408592 Z M13.5207194,9.640859 L13.8518906,10.3799264 L14.5697468,10.3799264 L14.0057104,10.9538384 L14.2240719,11.8594483 L13.5217339,11.3505607 L12.7958544,11.8594483 L13.0409193,10.9538384 L12.3962028,10.3799264 L13.2382901,10.3799264 L13.5207194,9.640859 Z M7.5207194,9.640859 L7.85189056,10.3799264 L8.56974683,10.3799264 L8.0057104,10.9538384 L8.22407189,11.8594483 L7.52173386,11.3505607 L6.79585438,11.8594483 L7.04091932,10.9538384 L6.39620284,10.3799264 L7.23829014,10.3799264 L7.5207194,9.640859 Z M10.5207194,8.04085923 L10.8518906,8.77992662 L11.5697468,8.77992662 L11.0057104,9.35383858 L11.2240719,10.2594485 L10.5217339,9.75056088 L9.79585438,10.2594485 L10.0409193,9.35383858 L9.39620284,8.77992662 L10.2382901,8.77992662 L10.5207194,8.04085923 Z" id="path-7"></path>
        <filter x="-46.2%" y="-42.2%" width="192.5%" height="184.4%" filterUnits="objectBoundingBox" id="filter-8">
            <feOffset dx="0" dy="0" in="SourceAlpha" result="shadowOffsetOuter1"></feOffset>
            <feGaussianBlur stdDeviation="2" in="shadowOffsetOuter1" result="shadowBlurOuter1"></feGaussianBlur>
            <feColorMatrix values="0 0 0 0 0   0 0 0 0 0   0 0 0 0 0  0 0 0 0.24 0" type="matrix" in="shadowBlurOuter1"></feColorMatrix>
        </filter>
        <linearGradient x1="50%" y1="100%" x2="50%" y2="0%" id="linearGradient-9">
            <stop stop-color="#000000" stop-opacity="0.3" offset="2.42052023%"></stop>
            <stop stop-color="#FFFFFF" stop-opacity="0.7" offset="100%"></stop>
        </linearGradient>
        <rect id="path-10" x="0" y="0" width="32" height="24" rx="2"></rect>
    </defs>
    <g id="Flagpack" stroke="none" stroke-width="1" fill="none" fill-rule="evenodd">
        <g id="Flagpack---L-(32×24)" transform="translate(-544.000000, -232.000000)">
            <g id="CV" transform="translate(544.000000, 232.000000)">
                <mask id="mask-2" fill="white">
                    <use xlink:href="#path-1"></use>
                </mask>
                <g id="drop-shadow"></g>
                <g id="Group" mask="url(#mask-2)">
                    <g id="flag">
                        <mask id="mask-4" fill="white">
                            <use xlink:href="#path-3"></use>
                        </mask>
                        <g id="mask"></g>
                        <g id="contents" mask="url(#mask-4)">
                            <mask id="mask-6" fill="white">
                                <use xlink:href="#path-5"></use>
                            </mask>
                            <use id="background" fill="#4141DB" xlink:href="#path-5"></use>
                            <rect id="bottom" stroke="#F7FCFF" stroke-width="2" fill="#F90000" mask="url(#mask-6)" x="-1" y="13" width="34" height="4"></rect>
                            <g id="Combined-shape-1335" mask="url(#mask-6)">
                                <use fill="black" fill-opacity="1" filter="url(#filter-8)" xlink:href="#path-7"></use>
                                <use fill="#FFDE00" fill-rule="evenodd" xlink:href="#path-7"></use>
                            </g>
                        </g>
                    </g>
                </g>
                <g id="overlay" mask="url(#mask-2)">
                    <use fill="url(#linearGradient-9)" fill-rule="evenodd" style="mix-blend-mode: overlay;" xlink:href="#path-10"></use>
                    <rect stroke-opacity="0.1" stroke="#000000" stroke-width="1" stroke-linejoin="square" x="0.5" y="0.5" width="31" height="23" rx="2"></rect>
                </g>
            </g>
        </g>
    </g>
</svg>