<?xml version="1.0" encoding="UTF-8"?>
<svg width="32px" height="24px" viewBox="0 0 32 24" version="1.1" xmlns="http://www.w3.org/2000/svg" xmlns:xlink="http://www.w3.org/1999/xlink">
    <title>DZ</title>
    <defs>
        <rect id="path-1" x="0" y="0" width="32" height="24" rx="2"></rect>
        <rect id="path-3" x="0" y="0" width="32" height="24"></rect>
        <linearGradient x1="50%" y1="100%" x2="50%" y2="0%" id="linearGradient-5">
            <stop stop-color="#000000" stop-opacity="0.3" offset="2.42052023%"></stop>
            <stop stop-color="#FFFFFF" stop-opacity="0.7" offset="100%"></stop>
        </linearGradient>
        <rect id="path-6" x="0" y="0" width="32" height="24" rx="2"></rect>
    </defs>
    <g id="Flagpack" stroke="none" stroke-width="1" fill="none" fill-rule="evenodd">
        <g id="Flagpack---L-(32×24)" transform="translate(-544.000000, -280.000000)">
            <g id="DZ" transform="translate(544.000000, 280.000000)">
                <mask id="mask-2" fill="white">
                    <use xlink:href="#path-1"></use>
                </mask>
                <g id="drop-shadow"></g>
                <g id="Group" mask="url(#mask-2)">
                    <g id="flag">
                        <mask id="mask-4" fill="white">
                            <use xlink:href="#path-3"></use>
                        </mask>
                        <g id="mask"></g>
                        <g id="contents" mask="url(#mask-4)">
                            <polygon id="bottom" fill="#F7FCFF" points="16 0 32 0 32 24 16 24"></polygon>
                            <polygon id="middle" fill="#36A400" points="0 0 16 0 16 24 0 24"></polygon>
                            <g id="mark" transform="translate(10.000000, 6.000000)" fill="#FF0000">
                                <path d="M5.522688,0.0177141118 C7.74890089,0.0177141118 9.89613559,1.90232156 10.6859274,2.67833639 L10.8385723,2.83131913 C10.9462897,2.94157011 11.004208,3.0062 11.004208,3.0062 C11.004208,3.0062 8.099296,1.53344531 6,1.90157037 C3.900704,2.26969542 2.98787139,4.218729 2.98787139,5.80868 C2.98787139,7.398631 3.53978644,9.53547822 6,9.99789534 C8.31110971,10.4322872 10.5521634,8.42911922 10.8153173,8.18471542 L10.84104,8.1605 L10.84104,8.1605 C10.84104,8.1605 9.08305053,11.9183656 5.522688,11.9183656 C1.96232547,11.9183656 0.041168,9.49610566 0.041168,5.80868 C0.041168,2.12125434 2.71930881,0.0177141118 5.522688,0.0177141118 Z M8.02912,2.77114 L9.033472,4.54174 L10.735984,4.54372 L9.073616,5.80868 L10.161088,7.85792 L8.099296,6.70586 L6.276064,7.80658 L6.888816,5.79168 L5.137552,4.54372 L6.935632,4.55674 L8.02912,2.77114 Z" id="Combined-shape-1695"></path>
                            </g>
                        </g>
                    </g>
                </g>
                <g id="overlay" mask="url(#mask-2)">
                    <use fill="url(#linearGradient-5)" fill-rule="evenodd" style="mix-blend-mode: overlay;" xlink:href="#path-6"></use>
                    <rect stroke-opacity="0.1" stroke="#000000" stroke-width="1" stroke-linejoin="square" x="0.5" y="0.5" width="31" height="23" rx="2"></rect>
                </g>
            </g>
        </g>
    </g>
</svg>