<?xml version="1.0" encoding="UTF-8"?>
<svg width="32px" height="24px" viewBox="0 0 32 24" version="1.1" xmlns="http://www.w3.org/2000/svg" xmlns:xlink="http://www.w3.org/1999/xlink">
    <title>GB-UKM</title>
    <defs>
        <rect id="path-1" x="0" y="0" width="32" height="24" rx="2"></rect>
        <rect id="path-3" x="0" y="0" width="32" height="24"></rect>
        <rect id="path-5" x="0" y="0" width="32" height="24"></rect>
        <rect id="path-7" x="0" y="0" width="32" height="24"></rect>
        <linearGradient x1="50%" y1="100%" x2="50%" y2="0%" id="linearGradient-9">
            <stop stop-color="#000000" stop-opacity="0.3" offset="2.42052023%"></stop>
            <stop stop-color="#FFFFFF" stop-opacity="0.7" offset="100%"></stop>
        </linearGradient>
        <rect id="path-10" x="0" y="0" width="32" height="24" rx="2"></rect>
    </defs>
    <g id="Flagpack" stroke="none" stroke-width="1" fill="none" fill-rule="evenodd">
        <g id="Flagpack---L-(32×24)" transform="translate(-40.000000, -1097.000000)">
            <g id="GB-UKM" transform="translate(40.000000, 1097.000000)">
                <mask id="mask-2" fill="white">
                    <use xlink:href="#path-1"></use>
                </mask>
                <g id="drop-shadow"></g>
                <g id="Group" mask="url(#mask-2)">
                    <g id="flag">
                        <mask id="mask-4" fill="white">
                            <use xlink:href="#path-3"></use>
                        </mask>
                        <g id="mask"></g>
                        <g id="contents" mask="url(#mask-4)">
                            <mask id="mask-6" fill="white">
                                <use xlink:href="#path-5"></use>
                            </mask>
                            <use id="background" fill="#2E42A5" xlink:href="#path-5"></use>
                            <g id="mark-1" mask="url(#mask-6)">
                                <mask id="mask-8" fill="white">
                                    <use xlink:href="#path-7"></use>
                                </mask>
                                <g id="mask"></g>
                                <g id="contents" mask="url(#mask-8)">
                                    <g transform="translate(-5.111111, -3.428571)">
                                        <g id="stripe">
                                            <polygon id="white" fill="#FFFFFF" fill-rule="nonzero" transform="translate(21.266600, 14.968809) scale(1, -1) translate(-21.266600, -14.968809) " points="1.5479711 4.22363824 8.58966077 1.24558034 37.2708984 23.2711993 40.9852288 27.696682 33.4551548 28.6920367 21.7567635 19.2005673 12.3407609 12.8055347"></polygon>
                                            <polygon id="red" fill="#F50100" fill-rule="nonzero" transform="translate(21.081714, 15.679225) scale(1, -1) translate(-21.081714, -15.679225) " points="2.511989 3.55797153 6.09940474 1.82975435 39.6514385 29.5286952 34.6142893 29.5286952"></polygon>
                                        </g>
                                        <g id="stripe" transform="translate(21.222222, 15.000000) scale(-1, 1) translate(-21.222222, -15.000000) translate(0.222222, 0.000000)">
                                            <polygon id="white" fill="#FFFFFF" fill-rule="nonzero" transform="translate(21.266600, 14.968809) scale(1, -1) translate(-21.266600, -14.968809) " points="1.5479711 4.22363824 8.58966077 1.24558034 37.2708984 23.2711993 40.9852288 27.696682 33.4551548 28.6920367 21.7567635 19.2005673 12.3407609 12.8055347"></polygon>
                                            <polygon id="red" fill="#F50100" fill-rule="nonzero" transform="translate(21.565435, 15.597875) scale(1, -1) translate(-21.565435, -15.597875) " points="1.788242 3.98430704 5.37565774 2.25608986 19.6624614 14.1154454 23.898192 15.4404627 41.342629 28.9396602 36.3054797 28.9396602 18.8708438 15.7608764 14.2398187 14.1720387"></polygon>
                                        </g>
                                        <g id="cross" transform="translate(3.111111, 1.428571)">
                                            <path d="M20.7777535,1 L20.7775108,11 L35.0275351,11 L35.0275351,17 L20.7775108,17 L20.7777535,27 L15.2221535,27 L15.2214664,17 L1.02753508,17 L1.02753508,11 L15.2214664,11 L15.2221535,1 L20.7777535,1 Z" id="red" stroke="#FFFFFF" stroke-width="2" fill="#F50100"></path>
                                        </g>
                                    </g>
                                </g>
                            </g>
                        </g>
                    </g>
                </g>
                <g id="overlay" mask="url(#mask-2)">
                    <use fill="url(#linearGradient-9)" fill-rule="evenodd" style="mix-blend-mode: overlay;" xlink:href="#path-10"></use>
                    <rect stroke-opacity="0.1" stroke="#000000" stroke-width="1" stroke-linejoin="square" x="0.5" y="0.5" width="31" height="23" rx="2"></rect>
                </g>
            </g>
        </g>
    </g>
</svg>