<?xml version="1.0" encoding="UTF-8"?>
<svg width="32px" height="24px" viewBox="0 0 32 24" version="1.1" xmlns="http://www.w3.org/2000/svg" xmlns:xlink="http://www.w3.org/1999/xlink">
    <title>GR</title>
    <defs>
        <rect id="path-1" x="0" y="0" width="32" height="24" rx="2"></rect>
        <rect id="path-3" x="0" y="0" width="32" height="24"></rect>
        <linearGradient x1="50%" y1="100%" x2="50%" y2="0%" id="linearGradient-5">
            <stop stop-color="#000000" stop-opacity="0.3" offset="2.42052023%"></stop>
            <stop stop-color="#FFFFFF" stop-opacity="0.7" offset="100%"></stop>
        </linearGradient>
        <rect id="path-6" x="0" y="0" width="32" height="24" rx="2"></rect>
    </defs>
    <g id="Flagpack" stroke="none" stroke-width="1" fill="none" fill-rule="evenodd">
        <g id="Flagpack---L-(32×24)" transform="translate(-264.000000, -424.000000)">
            <g id="GR" transform="translate(264.000000, 424.000000)">
                <mask id="mask-2" fill="white">
                    <use xlink:href="#path-1"></use>
                </mask>
                <g id="drop-shadow"></g>
                <g id="Group" mask="url(#mask-2)">
                    <g id="flag">
                        <mask id="mask-4" fill="white">
                            <use xlink:href="#path-3"></use>
                        </mask>
                        <g id="mask"></g>
                        <g id="contents" mask="url(#mask-4)">
                            <polygon id="bottom" fill="#F7FCFF" points="0 0 32 0 32 24 0 24"></polygon>
                            <path d="M32,15.943165 L32,18.9 L0,18.9 L0,15.943165 L32,15.943165 Z M32,10.815108 L32,13.7719425 L0,13.7719425 L0,10.815108 L32,10.815108 Z M32,5.5 L32,8.45683453 L0,8.45683453 L0,5.5 L32,5.5 Z" id="Combined-Shape" fill="#4564F9"></path>
                            <polygon id="lines" fill="#4564F9" points="0 0 32 0 32 3 0 3"></polygon>
                            <rect id="lines" fill="#4564F9" x="0" y="21" width="32" height="3"></rect>
                            <rect id="square" fill="#4564F9" x="0" y="0" width="15" height="13.8"></rect>
                            <polygon id="cross" fill="#F7FCFF" points="6 0 9 0 9 5.50386419 15 5.50386419 15 8.4386666 9 8.4386666 9 14.5 6 14.5 6 8.4386666 0 8.4386666 0 5.50386419 6 5.50386419"></polygon>
                        </g>
                    </g>
                </g>
                <g id="overlay" mask="url(#mask-2)">
                    <use fill="url(#linearGradient-5)" fill-rule="evenodd" style="mix-blend-mode: overlay;" xlink:href="#path-6"></use>
                    <rect stroke-opacity="0.1" stroke="#000000" stroke-width="1" stroke-linejoin="square" x="0.5" y="0.5" width="31" height="23" rx="2"></rect>
                </g>
            </g>
        </g>
    </g>
</svg>