<?xml version="1.0" encoding="UTF-8"?>
<svg width="32px" height="24px" viewBox="0 0 32 24" version="1.1" xmlns="http://www.w3.org/2000/svg" xmlns:xlink="http://www.w3.org/1999/xlink">
    <title>GS</title>
    <defs>
        <rect id="path-1" x="0" y="0" width="32" height="24"></rect>
        <rect id="path-3" x="0" y="0" width="18" height="14"></rect>
        <linearGradient x1="50.7173017%" y1="29.7324006%" x2="54.7558258%" y2="27.3854172%" id="linearGradient-5">
            <stop stop-color="#D5DFFF" offset="0%"></stop>
            <stop stop-color="#FFFFFF" offset="100%"></stop>
        </linearGradient>
    </defs>
    <g id="Page-1" stroke="none" stroke-width="1" fill="none" fill-rule="evenodd">
        <g id="GS">
            <g id="contents-Clipped">
                <mask id="mask-2" fill="white">
                    <use xlink:href="#path-1"></use>
                </mask>
                <g id="path-1"></g>
                <g id="contents" mask="url(#mask-2)">
                    <g transform="translate(0.000000, 0.100000)" id="Group-2">
                        <g transform="translate(0.000000, 0.000000)">
                            <polygon id="bg" fill="#2B409A" fill-rule="nonzero" points="0 0 32 0 32 24 0 24"></polygon>
                        </g>
                    </g>
                </g>
            </g>
            <g id="flag">
                <g id="mask" fill="#2B409A" fill-rule="nonzero">
                    <rect id="path-3" x="0" y="0" width="18" height="14"></rect>
                </g>
                <g id="contents-Clipped">
                    <mask id="mask-4" fill="white">
                        <use xlink:href="#path-3"></use>
                    </mask>
                    <g id="path-3"></g>
                    <g id="contents" mask="url(#mask-4)">
                        <g transform="translate(-2.380229, -1.273411)" id="Group">
                            <g id="stripe" transform="translate(0.375963, 0.000000)" fill-rule="nonzero">
                                <polygon id="white" fill="#F7FCFF" transform="translate(11.091729, 8.005216) scale(-1, 1) rotate(-180.000000) translate(-11.091729, -8.005216) " points="0 1.73720044 3.96095044 1.77635684e-15 20.0941467 12.8482778 22.1834575 15.4298093 17.9477909 16.0104329 11.3674458 10.4737424 6.07094426 6.74330671"></polygon>
                                <polygon id="red" fill="#F50100" transform="translate(10.987730, 8.419625) scale(-1, 1) rotate(-180.000000) translate(-10.987730, -8.419625) " points="0.542260067 1.34889389 2.56018143 0.3407672 21.4332004 16.4984827 18.599804 16.4984827"></polygon>
                            </g>
                            <g id="stripe" transform="translate(11.192248, 8.077439) scale(-1, 1) translate(-11.192248, -8.077439) " fill-rule="nonzero">
                                <polygon id="white" fill="#F7FCFF" transform="translate(11.091729, 8.005216) scale(-1, 1) rotate(-180.000000) translate(-11.091729, -8.005216) " points="0 1.73720044 3.96095044 1.77635684e-15 20.0941467 12.8482778 22.1834575 15.4298093 17.9477909 16.0104329 11.3674458 10.4737424 6.07094426 6.74330671"></polygon>
                                <polygon id="red" fill="#F50100" transform="translate(11.259824, 8.372171) scale(-1, 1) rotate(-180.000000) translate(-11.259824, -8.372171) " points="0.135152377 1.59758969 2.15307374 0.589463 10.1894008 7.5074204 12.5719993 8.28034717 22.3844951 16.154879 19.5510987 16.154879 9.74411586 8.46725514 7.13916426 7.54043313"></polygon>
                            </g>
                            <g id="cross" transform="translate(1.630229, 0.523411)" fill="#F50100" fill-rule="nonzero" stroke="#F7FCFF" stroke-width="1.5">
                                <polygon id="red" points="11.4845755 0 11.4840639 6 19.5 6 19.5 9.5 11.4840639 9.5 11.4845755 15.5 7.98457546 15.5 7.98406394 9.5 0 9.5 0 6 7.98406394 6 7.98457546 0"></polygon>
                            </g>
                        </g>
                    </g>
                </g>
            </g>
            <g id="Group-21" transform="translate(19.909495, 6.100000)">
                <path d="M4.40848975,12.4514446 C4.34703327,12.4514446 4.12405244,12.3313322 4.12405244,12.3313322 C4.12405244,12.3313322 3.96252809,12.5869641 3.87790477,12.6017423 C3.79328146,12.6168349 3.35504208,12.4442127 3.35504208,12.4442127 C3.35504208,12.4442127 3.04750229,12.6844375 2.97829135,12.6693448 C2.93215073,12.6594927 2.67328275,12.6044674 2.20168741,12.5042689 L1.81721441,12.2637296 C1.81721441,12.2637296 1.60192368,12.6092886 1.59423358,12.6017423 C1.58910685,12.5967114 1.37381612,12.5541585 0.948361403,12.4740836 C0.948361403,12.4740836 1.14058182,12.2112198 1.14058182,12.2036734 C1.14058182,12.1961271 1.04830058,12.1659418 1.04830058,12.1659418 L0.909910893,12.2788223 L0.340907573,12.3313322 L0.479329443,11.9404952 L0.702310263,11.6100289 L3.43194311,9.01755039 L4.77755037,11.4446385 L4.57773638,12.1734881 C4.57773638,12.1734881 4.46994622,12.4514446 4.40848975,12.4514446 Z" id="Path" fill="#6A4C2D" fill-rule="nonzero"></path>
                <path d="M1.80092417,11.9608755 C1.89598166,12.075852 3.14847109,13.3561318 3.3515027,13.9618372 C3.4868571,14.3656407 2.93784591,14.3096449 1.70446912,13.7938498 C3.25751145,12.7850801 4.42194231,12.2806952 5.19776169,12.2806952 C5.97358108,12.2806952 7.12388214,12.7850801 8.64866488,13.7938498 C7.62546615,14.5144315 7.11912056,14.6475424 7.12962809,14.1931825 C7.14538939,13.5116426 7.85004537,12.1690822 8.69105426,11.9608755" id="Path-453" stroke="#FFBB00" stroke-width="0.5" stroke-linecap="round" stroke-linejoin="round"></path>
                <path d="M9.63229025,12.0599787 L9.24971565,11.9175418 L8.91090063,11.4688496 L7.5080198,11.3657165 C7.5080198,11.3657165 7.0816856,11.2493772 6.22901721,11.0166987 L5.68974467,11.3764071 L5.98012221,11.7556101 L6.68974467,12.0166987 L9.63229025,12.0599787 Z" id="Path" fill="#F7FCFF" fill-rule="nonzero"></path>
                <path d="M4.02930598,3.76611028 C4.04232498,3.79887366 4.32837109,3.74077976 4.38918405,3.91214432 C4.69710995,3.45747799 5.0584483,3.89107748 5.0584483,3.89107748 L5.36251306,3.5310547 C5.36251306,3.5310547 5.70583275,3.85617571 5.70583275,3.85617571 L6.02083741,3.83165014 C6.02083741,3.83165014 6.34999959,4.60420558 6.34999959,4.60420558 L3.75241773,4.55546887 C3.92833057,4.00738756 4.02062665,3.74426803 4.02930598,3.76611028 Z" id="Path" fill="#656263" fill-rule="nonzero"></path>
                <path d="M6.72195607,7.05393267 C6.70104156,6.80930583 6.4841742,6.78069267 6.36319182,6.78886786 C6.24188767,6.79704305 6.133454,6.89891849 6.133454,6.89891849 L5.73286073,6.65020406 C5.73286073,6.65020406 5.93331824,5.41449267 6.1460027,5.3371428 C6.34806902,5.19470583 6.38378457,5.13307748 6.38378457,5.10069115 C6.38378457,5.06799039 6.3088141,4.93560558 6.3088141,4.93560558 L5.00246177,4.784679 L3.76721876,4.92743039 C3.76721876,4.92743039 3.67133379,5.1208147 3.68388249,5.17804102 C3.6964312,5.23495292 3.7006141,5.29626685 3.92166436,5.46354381 C4.16652498,5.64748558 4.33480633,6.7033428 4.33480633,6.7033428 C4.33480633,6.7033428 3.98859078,6.87030533 3.96767628,6.84986735 C3.94676177,6.82974381 3.84251099,6.80930583 3.78813327,6.81748102 C3.73407731,6.82565621 3.55453431,6.91526887 3.55453431,7.14763292 C3.55453431,7.3803114 3.73407731,7.51488761 3.73407731,7.51488761 C3.73407731,7.51488761 4.9149426,8.3803114 5.0903027,8.69820052 C5.2614799,8.31490989 6.38378457,7.44948609 6.51731565,7.38408457 C6.57169337,7.35169824 6.74287058,7.29855951 6.72195607,7.05393267 Z" id="Path" fill="#656263" fill-rule="nonzero"></path>
                <path d="M7.90056902,5.90154533 C7.99870633,5.83771596 8.65220425,5.80564406 8.80922394,5.90154533 C8.96592187,5.99744659 9.02480425,6.47003546 9.02480425,6.47003546 C9.02480425,6.47003546 9.12294155,6.6360547 9.12937675,6.75742482 C9.13581205,6.87879495 9.14900425,6.96180457 9.14900425,6.96180457 C9.14900425,6.96180457 9.67186695,7.62619596 9.67830215,8.22644356 C9.73718455,8.63520305 9.72399235,9.72721976 9.56085915,10.1422679 C9.55410215,10.6598203 9.33208665,10.9981474 9.33208665,10.9981474 C9.33208665,10.9981474 9.38421205,11.0874456 9.37777675,11.1833468 C9.37101975,11.2792481 9.31889445,11.3685463 9.31889445,11.3685463 C8.99219907,11.5089919 8.8288514,11.5792147 8.8288514,11.5792147 L8.28636125,11.4899165 L7.67179648,9.69514786 L7.81562394,6.66152356 L7.85487887,6.50839596 L7.78956125,6.09963647 C7.78956125,6.09963647 7.80275348,5.9653747 7.90056902,5.90154533 Z" id="Path" fill="#000000" fill-rule="nonzero"></path>
                <path d="M4.35250322,7.4941352 C4.35250322,7.4941352 5.01372343,7.4941352 5.08515451,7.70386027 C5.2103198,7.42433166 5.78209026,7.44193976 5.78209026,7.44193976 C6.12766229,7.43030583 6.47323431,7.41867191 6.81848457,7.40703799 C6.82459804,8.22204153 6.83038975,9.03704508 6.83650322,9.85204862 C6.63411514,10.8006851 5.93106591,11.4704218 5.1565856,11.7556101 C4.23312964,11.4644476 3.649454,10.7019539 3.45897109,9.83444052 C3.42293379,9.06031292 3.38721824,8.2858709 3.3515027,7.5117433 C3.68516954,7.50576913 4.01883638,7.50010938 4.35250322,7.4941352 Z" id="Path" fill="#F7FCFF" fill-rule="nonzero"></path>
                <path d="M3.70801462,7.50262482 L5.16591669,11.2990572 L6.48288716,7.41992963 C6.07424985,7.44571292 5.19777109,7.35704356 5.08901565,7.72115394 C4.92041254,7.39540406 3.99824363,7.52683596 3.70801462,7.50262482 L3.70801462,7.50262482 Z" id="Path" fill="#006B00" fill-rule="nonzero"></path>
                <path d="M3.35743814,9.85793572 C3.58805327,9.76954924 3.76043995,9.76954924 3.87459817,9.85793572 C4.0458355,9.99051543 4.1861301,9.84695085 4.1861301,9.76697523 C4.1861301,9.6869996 4.45803206,9.41245046 4.45803206,9.63519309 C4.45803206,9.85793572 4.37339854,9.98369973 4.61238747,9.98369973 C4.85137639,9.98369973 5.92756541,9.67601474 6.18563046,9.76697523 C6.44369551,9.85793572 6.64117371,9.83531342 6.57557154,9.70480016 C6.50996937,9.5742869 6.34137404,9.49271612 6.01672167,9.5639546 C5.6920693,9.63519309 5.76868726,9.70480016 5.48809805,9.70480016 C5.20750884,9.70480016 4.89521566,9.63519309 4.89521566,9.63519309 C4.89521566,9.63519309 4.98294762,9.51815041 5.30328048,9.60140442 C5.62361333,9.68465843 6.06545946,9.49829977 6.18563046,9.49829977 C6.30580145,9.49829977 6.63652824,9.49271612 6.66930909,9.5639546 C6.70208994,9.63519309 6.9017866,9.70056328 6.74956886,9.76697523 C6.59735113,9.83338718 6.3463511,9.87498721 6.5190502,9.96007523 C6.69174931,10.0451632 7.08889063,10.0287649 7.10802611,10.1172728 C7.1271616,10.2057808 7.31538497,10.3379494 7.23984244,10.3379494 C7.1642999,10.3379494 7.02777966,10.4625984 6.90065393,10.4246449 C6.7735282,10.3866913 6.75857693,10.353366 6.88047905,10.3226191 C7.00238117,10.2918722 7.00119519,10.1625733 6.90065393,10.1625733 C6.80011267,10.1625733 6.84917734,10.2078738 6.62025774,10.1625733 C6.39133815,10.1172728 6.08835516,10.0669126 6.10657118,10.1625733 C6.12478721,10.258234 6.27383346,10.4050747 5.99884745,10.4246449 C5.72386143,10.444215 5.59514442,10.5227869 5.54162124,10.459513 C5.48809805,10.396239 5.29679094,10.3119278 5.44722305,10.2848921 C5.59765517,10.2578564 5.74141118,10.3767876 5.79559286,10.3573685 C5.84977454,10.3379494 5.97258279,10.3271394 5.86972289,10.2448564 C5.76686298,10.1625733 5.59728205,10.1141307 5.75449687,10.0525425 C5.91171169,9.99095433 5.78764859,9.98968933 5.48809805,10.1172728 C5.18854751,10.2448564 5.02193818,10.3532797 4.75895848,10.3379494 C4.49597879,10.3226191 4.39747633,10.3433004 4.31295238,10.3226191 C4.22842843,10.3019377 3.81676226,10.551128 3.69821819,10.4878864 C3.57967411,10.4246449 3.19697769,10.4003818 3.26587077,10.3226191 C3.33476386,10.2448564 3.42725649,10.2048206 3.5302763,10.2448564 C3.63329612,10.2848921 3.73565995,10.3249278 3.80512906,10.2848921 C3.87459817,10.2448564 4.0752246,10.107477 4.02476075,10.0800097 C3.9742969,10.0525425 4.02310838,9.96007523 3.73738197,9.96007523 C3.45165557,9.96007523 3.35120758,10.0631283 3.28338054,9.99819723 C3.23816252,9.95490983 3.26284838,9.90815593 3.35743814,9.85793572 Z" id="lion" fill="#FFD100" fill-rule="nonzero" transform="translate(5.257638, 9.998197) rotate(90.000000) translate(-5.257638, -9.998197) "></path>
                <g id="Group" transform="translate(3.407346, 7.415843)" fill="#1E5AA6" fill-rule="nonzero">
                    <path d="M3.08390699,0.0047164557 L3.28050337,0 L2.9294614,0.434542785 L3.35064741,0.914992405 L2.52211114,1.93500455 L3.30399197,2.85439899 C3.21808161,3.06035088 3.11833549,3.24775139 2.98544793,3.41722936 L2.53626865,2.93206329 L3.35064741,1.93972101 L2.68138316,1.19860861 L3.08390699,0.0047164557 L3.08390699,0.0047164557 Z" id="Path"></path>
                    <path d="M0.0644956,0.0962156963 L0.45768834,0.512207088 L0.04132876,1.02001215 L0.90718938,1.93972101 L0.19094793,2.8773524 C0.27685829,3.0833043 0.400093,3.31189519 0.53265881,3.48105873 L0.95867124,2.95501671 L0.08347953,2.00355038 L0.72475052,1.20772709 L0.27524948,0.0914992403 L0.0644956,0.0962156963 Z" id="Path"></path>
                    <path d="M1.24890026,2.5616643 L0.94000907,2.96413519 L2.04461684,4.21305266 C2.2396044,4.11683696 2.39276295,4.00710076 2.55975725,3.87472557 L1.98380389,3.2251124 L2.21804637,2.55254582 L2.55493083,2.93206329 L1.50180492,4.24512455 C1.32547953,4.17186228 1.13049197,4.05740962 0.95416658,3.91560152 L1.51113601,3.2251124 L1.24890026,2.5616643 L1.24890026,2.5616643 Z" id="Path"></path>
                </g>
                <path d="M8.47587887,6.75113621 C8.47587887,6.81496558 8.54542726,10.5832134 8.62175526,10.5472487 C8.81127287,10.457636 8.8549141,10.6532172 8.8549141,10.6532172 C8.8549141,10.6532172 8.92023172,11.2729595 8.75677679,11.3559691 C8.56071669,11.4580542 8.41981417,11.5203529 8.33406923,11.5428652 L8.05115348,11.3367889 C8.05115348,11.3367889 7.76349855,10.934318 7.69818094,10.7554071 C7.63286332,10.5768106 7.55435348,9.77847191 7.58041617,9.60584963 C7.60647887,9.43354178 7.62610633,8.42422027 7.61323586,8.37328254 C7.60004363,8.32203039 7.54791824,7.47904254 7.58041617,7.35138381 C7.61323586,7.22372508 7.81562394,6.66152356 7.80918871,6.66152356 C7.80918871,6.66152356 8.47587887,6.68730685 8.47587887,6.75113621 Z" id="Path" fill="url(#linearGradient-5)" fill-rule="nonzero"></path>
                <path d="M7.82238094,6.10592508 C7.9594514,6.10592508 8.06402394,6.22100659 8.09684363,6.32319647 C8.10327887,6.36784558 8.0836514,6.39991748 8.09008664,6.4829271 C8.09684363,6.56593672 7.0968084,6.50179292 7.09037317,6.49550432 C7.09037317,6.49550432 7.55435348,6.05498735 7.82238094,6.10592508 Z" id="Path" fill="#FF7000" fill-rule="nonzero"></path>
                <path d="M8.92023172,11.5666375 C8.92023172,11.5666375 9.23394935,11.4962051 9.31889445,11.3877266 C9.37134155,11.3493661 9.64580425,11.7901975 8.92023172,11.5666375 Z" id="Path" stroke="#000000" stroke-width="0.5" fill="#FFFFFF" fill-rule="nonzero" stroke-linejoin="round"></path>
                <path d="M8.39941351,6.36035387 C8.39941351,6.38796818 8.37702743,6.41035387 8.34941351,6.41035387 C8.32179959,6.41035387 8.29941351,6.38796818 8.29941351,6.36035387 C8.29941351,6.33273957 8.32179959,6.31035387 8.34941351,6.31035387 C8.37702743,6.31035387 8.39941351,6.33273957 8.39941351,6.36035387 Z" id="Path" fill="#000000" fill-rule="nonzero"></path>
                <path d="M5.91111669,5.80878837 C5.91111669,5.80878837 6.43172705,6.35935596 6.76861151,6.35338178 C6.82974622,6.514999 6.61545296,6.66529672 6.52986436,6.73698685 C6.35836539,6.68321925 6.20327628,6.74673419 5.8052571,6.26817115 C5.83003275,5.96285925 5.91723016,5.82073672 5.91111669,5.80878837 Z" id="Path" fill="#F7FCFF" fill-rule="nonzero"></path>
                <path d="M7.98100944,3.03802786 C8.02991721,3.39113318 7.97807106,3.47312051 7.9550651,3.62139617 C7.93205914,3.76967183 8.85947246,3.82441824 9.09821965,3.5310547 C9.07376572,3.66280102 8.79538819,4.19890482 7.53376073,4.19293064 C8.01157679,4.63596305 7.38092394,4.98906837 7.11128767,4.88121875 C7.60744415,4.5101909 6.97067783,4.28883191 6.61545296,4.52811343 C6.68270115,4.32467697 7.17885762,3.30152052 7.98100944,3.03802786 Z" id="Path" fill="#F7FCFF" fill-rule="nonzero"></path>
                <path d="M6.63379337,4.51616508 C6.63379337,4.51616508 6.93367524,4.32467697 7.20942498,4.5101909 C7.00030878,4.6810314 7.04608111,5.12787031 7.14074406,5.51678493 C7.18837603,5.37644997 7.41151314,4.81398898 7.91955296,4.80355444 C7.9364526,5.56749624 7.3755109,5.93410257 7.26940451,5.99653626 C7.18549138,6.87075035 6.52342912,6.73635799 6.52342912,6.73635799 C6.50508871,6.74233216 6.82974622,6.52097318 6.78695192,6.37727849 C6.68270115,5.79684001 6.26634156,5.9043752 6.2357742,6.018199 C6.17791323,5.9644314 5.84998197,5.25292111 6.63379337,5.45635757 C6.30302239,4.85799656 6.61545296,4.55798432 6.63379337,4.51616508 Z" id="Combined-Shape" fill="#0000FF" fill-rule="nonzero"></path>
                <path d="M4.1781084,5.9644314 C4.1781084,5.9644314 3.67004674,6.39520102 3.38207006,6.25748052 C3.16777679,6.38325267 2.91673835,6.16189368 2.91673835,6.16189368 C2.91673835,6.16189368 3.21057109,7.2208952 4.26401876,6.4549428 C4.24567835,6.22163546 4.19033534,5.98235394 4.1781084,5.9644314 L4.1781084,5.9644314 Z" id="Path" fill="#F7FCFF" fill-rule="nonzero"></path>
                <path d="M3.37595659,6.23955799 C3.41875089,6.018199 3.59636332,5.91034938 3.73729493,6.11976001 C3.92713431,6.15591951 4.11697368,5.39594128 3.44320477,5.521399 C3.63304415,4.52811343 3.0636869,4.15708558 3.0636869,4.15708558 C3.0636869,4.15708558 2.86162058,5.25822077 2.95345135,5.46165723 C3.04531431,5.66509368 2.81876192,5.0846552 2.09003612,4.92303799 C2.077777,5.75502077 2.90447923,6.14397115 2.90447923,6.14397115 C2.90447923,6.14397115 3.13720944,6.35338178 3.37595659,6.23955799 L3.37595659,6.23955799 Z" id="Path" fill="#0000FF" fill-rule="nonzero"></path>
                <path d="M2.68703785,5.03885196 C2.47271241,5.10456791 1.95152941,4.79034837 2.28220387,4.38316102 C1.19831755,4.35926432 0.608208673,3.44355469 0.969459733,3.61816406 C1.33071078,3.79277344 1.58883488,3.42070178 1.85827809,3.61816406 C1.52760363,3.31914077 1.9736871,3.0798471 1.9736871,3.0798471 C1.9736871,3.0798471 2.89836576,3.34931394 3.0636869,4.1511114 C3.00856912,4.30675444 2.98408306,4.58188102 2.97182394,4.56993267 C2.97182394,4.56395849 2.39925423,4.55997449 2.68703785,5.03885196 Z" id="Path" fill="#F7FCFF" fill-rule="nonzero"></path>
                <path d="M4.41749907,1.33124801 C4.4223255,1.30379824 5.11507835,1.06585693 5.16173379,0.672516366 C5.19283741,0.410289322 5.18972705,0.367589676 5.1524027,0.54441743 C5.1524027,0.54441743 5.34449441,0.366041075 5.27435037,0.269951151 C5.20388457,0.173905247 5.22737317,0.393490847 5.11507835,0.388900164 C5.00278353,0.38430948 5.06359648,0.151033582 5.06359648,0.151033582 C5.06359648,0.151033582 5.05426539,0.123583809 5.02144571,0.109862068 C4.9744685,0.11443703 4.86700011,0.0137972981 4.86700011,0.0137972981 C4.86700011,0.0137972981 4.79685607,-0.0776893651 4.73572135,0.210498655 C4.76854104,0.516999101 4.96996384,0.457508873 4.96996384,0.65881349 C4.96996384,0.860080377 4.79202964,1.01559764 4.74054778,1.02018833 C4.68906591,1.02474757 4.70772809,0.850930453 4.70772809,0.850930453 C4.70772809,0.850930453 4.67973482,0.768581136 4.66107265,0.768581136 C4.64241047,0.768581136 4.76403638,0.750281288 4.7453742,0.52156463 C4.70322343,0.247098351 4.67040374,0.585614098 4.59543327,0.57187349 C4.5204628,0.558164326 4.57677109,0.320297744 4.60476436,0.292847971 C4.63275762,0.265398199 4.57194467,0.15103987 4.40816798,0.443805997 C4.39401047,0.585614098 4.3753483,0.407206301 4.34252861,0.416356225 C4.28654208,0.530714554 4.29587317,0.61306387 4.3753483,0.718272275 C4.49246954,0.82348068 4.56744001,0.92868909 4.56261358,0.98358863 C4.55810892,1.03848817 4.4969742,1.16199643 4.41299441,1.16199643 C4.32869286,1.16199643 4.41749907,1.0110384 4.41299441,0.9606981 C4.40816798,0.91038924 4.2678799,0.727422199 4.2678799,0.727422199 C4.2678799,0.727422199 4.16942083,0.57187349 4.17875192,0.56731425 C4.18808301,0.562723566 3.95416229,0.791440225 4.09445037,0.91038924 C3.98698197,0.896680073 3.97765089,0.93783901 3.97765089,0.93783901 C3.97765089,0.99273855 4.12276539,1.01559764 4.14142757,1.11165612 C4.16008975,1.20774605 3.99148664,1.26261415 3.99148664,1.26261415 C3.99148664,1.26261415 4.06195244,1.35867263 4.25822705,1.17114635 C4.26305348,1.29006392 4.18357835,1.37241324 4.18357835,1.37241324 C4.24889596,1.40137228 4.30037783,1.3983223 4.30970892,1.4730624 C4.30970892,1.4730624 4.41299441,1.35866634 4.41749907,1.33124801 Z" id="Path" fill="#CDAD56" fill-rule="nonzero"></path>
                <path d="M3.66747265,1.47305611 C3.66747265,1.47305611 3.57995348,1.34612057 3.57609234,1.32112335 C3.57190944,1.29615758 3.14557524,1.35269216 2.94389503,0.844509784 C2.81268063,0.603090139 2.94389503,0.744615253 2.94389503,0.744615253 L2.95184254,0.628055911 C2.95184254,0.628055911 2.81223016,0.461156265 2.8718526,0.37374462 C2.93147503,0.286332974 2.90692462,0.486122037 2.9836326,0.486530797 C3.07897058,0.482380316 3.02736001,0.270076923 3.02736001,0.270076923 C3.02736001,0.270076923 3.03527534,0.245111151 3.0631399,0.232628265 C3.10278094,0.236778746 3.11919078,0.362016366 3.15490633,0.370348771 C3.19062187,0.378681177 3.26462705,0.222975253 3.28779389,0.190953663 C3.32061358,0.186372412 3.31932653,0.0619648881 3.37113016,0.324190392 C3.34345866,0.603090139 3.10696384,0.54897667 3.10696384,0.732132366 C3.10696384,0.91525662 3.25787006,1.05678173 3.30162964,1.06096366 C3.34538923,1.06511414 3.32962291,0.90695566 3.32962291,0.90695566 C3.32962291,0.90695566 3.35343327,0.832026898 3.36919959,0.832026898 C3.38528767,0.832026898 3.23019855,0.861111708 3.24628664,0.65299024 C3.28200218,0.458137734 3.36115555,0.665536012 3.42486436,0.653021683 C3.48857317,0.640538797 3.41746384,0.446975455 3.43580425,0.417418999 C3.43998716,0.387862544 3.5336198,0.260926999 3.56997887,0.541053025 C3.58188405,0.670095253 3.65395866,0.429996215 3.68163016,0.43832862 C3.72957265,0.542373632 3.66071565,0.68135186 3.59314571,0.777095911 C3.49372135,0.872808518 3.44867472,0.97770249 3.45285762,1.02766548 C3.45671876,1.07759702 3.48020736,1.13966558 3.55196021,1.13966558 C3.6233913,1.13966558 3.57609234,1.05263125 3.57995348,1.00685019 C3.58381462,0.96106913 3.70318819,0.812846645 3.70318819,0.812846645 C3.72667679,0.776278392 3.70704933,0.707921227 3.73182498,0.676320974 C3.77075814,0.676729734 3.78684622,0.62390543 3.82642291,0.769581025 C3.86632135,0.91525662 3.91394208,0.673836974 3.91394208,0.673836974 C3.91394208,0.673836974 3.96960685,0.852842189 3.85023327,0.96106913 C3.94161358,0.94858624 3.94965762,0.9860349 3.94965762,0.9860349 C3.94965762,1.03599789 3.9062198,1.05678173 3.89013172,1.14419338 C3.87404363,1.23160502 3.93775244,1.28156801 3.93775244,1.28156801 C3.93775244,1.28156801 3.87822653,1.36897966 3.71123223,1.19830685 C3.70704933,1.30653378 3.77494104,1.38146254 3.77494104,1.38146254 C3.71895451,1.40784325 3.67551669,1.40504482 3.66747265,1.47305611 L3.66747265,1.47305611 Z" id="Path" fill="#CDAD56" fill-rule="nonzero"></path>
                <path d="M4.76596695,1.37453394 C4.66364674,1.6734629 4.29458612,1.56004786 4.29458612,1.56004786 C4.29458612,1.56004786 4.30681306,1.70965383 4.27013223,1.78143829 C4.30035384,1.80371057 4.51851556,1.97154772 4.74762653,2.01483996 C5.07711197,2.07709871 5.75184467,1.90677503 5.97836488,2.15844032 C6.12937835,2.32621718 6.20091669,2.47781454 6.1929799,2.61323242 C5.99646361,2.63567562 5.92551105,2.68149654 5.98012221,2.75069517 C6.03331319,2.81809427 6.17998888,2.86817932 6.1929799,2.93783993 C6.23433034,3.15956965 6.05469379,3.55852352 6.11929648,3.70839343 C6.01729804,3.71751191 6.009254,3.8219028 6.009254,3.8219028 C6.00539286,3.90092963 5.90532498,3.91696558 5.70905037,3.87001064 C5.83153431,3.56270735 5.89685192,3.37321064 5.90500322,3.30152052 C5.91723016,3.1936709 5.77629855,3.0021828 5.66625607,3.0021828 C5.55589182,3.0021828 5.47641669,3.34333976 5.47641669,3.34333976 C5.47641669,3.34333976 5.42139545,3.60054381 5.43973586,3.62444052 C5.45807628,3.64833723 5.36605244,3.54080204 5.36605244,3.54080204 C5.36605244,3.54080204 5.33714475,3.6452753 5.28975878,3.70839343 C5.23646002,3.77938739 5.16398612,3.80995444 5.16398612,3.80995444 C5.16398612,3.80995444 5.10896488,3.6543114 5.12730529,3.59456963 C5.14564571,3.53482786 5.42750892,3.30152052 5.40305503,3.13392913 C5.39212078,3.05996594 5.38242221,2.93086705 5.28975878,2.88802997 C5.17245837,2.83380354 4.95738878,2.87335607 4.82742343,2.84660264 C4.75599234,2.96822432 4.72317265,3.63638887 4.77208042,3.67852254 C4.82130995,3.72034178 4.64981099,3.80995444 4.64981099,3.80995444 L4.44774467,3.81592862 C4.44452705,3.72537267 4.56679648,3.47791596 4.56679648,3.26850533 C4.56679648,3.0590947 4.58224104,2.83465429 4.58224104,2.83465429 C4.58224104,2.83465429 4.44642149,2.86884221 4.37406125,3.0021828 C4.31338762,3.11398807 4.31346358,3.32531661 4.31904001,3.35528811 C4.33126695,3.42100406 4.39240166,3.60651799 4.37406125,3.66060001 C4.35572083,3.71436761 4.03749855,3.78605773 4.03749855,3.78605773 L4.02494985,3.61249216 C4.02494985,3.61249216 4.15976798,3.52885368 4.15976798,3.31944305 C4.15976798,3.11003242 4.17199493,2.8106947 4.16588146,2.79277216 C4.16221394,2.78200145 4.05560153,2.32373867 3.91530765,2.01483996 C3.82174204,1.80882743 3.67738462,1.7144308 3.67004674,1.69767404 C3.65170633,1.65579191 3.65170633,1.60790416 3.65170633,1.60790416 C3.65170633,1.60790416 3.44931824,1.75153596 3.21057109,1.44634983 C3.42936902,1.26388589 3.66393327,1.39846209 3.66393327,1.39846209 C3.66393327,1.39846209 3.72506798,1.23090214 4.00660944,1.24288194 C4.28847265,1.25486173 4.34349389,1.41044189 4.33126695,1.39248791 C4.33126695,1.39248791 4.53944674,1.21294816 4.76596695,1.37453394 Z" id="Path" fill="#923F00" fill-rule="nonzero"></path>
                <path d="M5.87186177,4.48786634 C5.87668819,4.48786634 6.39182861,4.502959 6.39697679,4.7721114 C6.40212498,5.04094938 6.23899182,4.97146027 6.23384363,4.97146027 C6.22869545,4.97146027 5.85641721,4.92649672 5.85641721,4.92649672 L5.87186177,4.48786634 Z" id="Path" fill="#0000FF" fill-rule="nonzero"></path>
                <path d="M5.37184415,4.41302668 C5.37184415,4.41302668 6.01440218,4.40831546 5.97868664,4.68218432 C5.94297109,4.95636761 5.77983793,4.90165672 5.77983793,4.90165672 L5.46869441,4.87650229 L5.37184415,4.41302668 L5.37184415,4.41302668 Z" id="Path" fill="#F7FCFF" fill-rule="nonzero"></path>
                <path d="M5.00986229,4.38316102 L5.38214052,4.41303191 C5.38214052,4.41303191 5.6064084,4.4429028 5.59643379,4.65231343 C5.58613741,4.86172406 5.36669596,4.86675495 5.36669596,4.86675495 L5.0047141,4.8466314 L5.00986229,4.38316102 Z" id="Path" fill="#0000FF" fill-rule="nonzero"></path>
                <path d="M4.13788819,4.48786634 C4.13274001,4.48786634 3.61759959,4.502959 3.6124514,4.7721114 C3.60762498,5.04094938 3.77075814,4.97146027 3.77590633,4.97146027 C3.78105451,4.97146027 4.15333275,4.92649672 4.15333275,4.92649672 L4.13788819,4.48786634 Z" id="Path" fill="#F7FCFF" fill-rule="nonzero"></path>
                <path d="M4.63758405,4.41302668 C4.63758405,4.41302668 3.99502602,4.40831546 4.03074156,4.68218432 C4.0664571,4.95636761 4.22959026,4.90165672 4.22959026,4.90165672 L4.54073379,4.87650229 L4.63758405,4.41302668 L4.63758405,4.41302668 Z" id="Path" fill="#0000FF" fill-rule="nonzero"></path>
                <path d="M4.99988767,4.38316102 L4.62760944,4.41303191 C4.62760944,4.41303191 4.4030198,4.4429028 4.41331617,4.65231343 C4.42361254,4.86172406 4.64273223,4.86675495 4.64273223,4.86675495 L5.0047141,4.8466314 L4.99988767,4.38316102 Z" id="Path" fill="#F7FCFF" fill-rule="nonzero"></path>
                <path d="M6.37734933,7.0646233 C6.4758084,7.0966952 6.40083793,7.39508963 6.35386073,7.42275951 L5.99670529,7.40892457 C5.99670529,7.40892457 6.26441099,7.02343292 6.37734933,7.0646233 Z" id="Path" fill="#5E0043" fill-rule="nonzero"></path>
                <path d="M4.16169855,7.47778482 C4.077397,7.36301773 3.95512757,7.04638634 3.84251099,7.13348356 C3.74373016,7.16555546 3.81902239,7.46394989 3.86599959,7.49161976 L4.16169855,7.47778482 Z" id="Path" fill="#5E0043" fill-rule="nonzero"></path>
                <path d="M3.71831099,5.26356609 L5.00664467,6.08737368 L6.16691721,5.32488001 C6.16691721,5.32488001 6.40888197,5.1943914 6.38796747,5.10069115 C6.36737472,5.00667647 6.28371669,5.04346482 6.24188767,5.0598152 C6.20038042,5.07616558 5.02755918,5.88771039 5.02755918,5.88771039 L3.77976747,5.1167271 C3.77976747,5.1167271 3.68806539,5.08842837 3.67133379,5.14534027 C3.65460218,5.20256659 3.70576229,5.23495292 3.71831099,5.26356609 L3.71831099,5.26356609 Z" id="Path" fill="#B4B6B9" fill-rule="nonzero"></path>
                <path d="M8.03731773,11.327356 C8.03731773,11.327356 7.47419151,11.497357 7.63110835,11.5021793 C7.70851662,11.5045581 7.93369125,11.5045581 8.30663223,11.5021793 L8.03731773,11.327356 Z" id="Path" fill="#FF7000" fill-rule="nonzero"></path>
                <path d="M8.26544674,11.5134987 L7.76542912,11.5276481 C7.76542912,11.5276481 7.63962032,11.6392709 7.63157628,11.6659975 C7.623854,11.6930385 7.71426902,11.7005848 7.71426902,11.7005848 C8.05812498,11.7879965 8.36015192,11.8034036 8.62034985,11.7468061 C8.81726798,11.679518 8.85169648,11.5987094 8.71366073,11.5496582 C8.57594674,11.5006071 8.26930788,11.5153853 8.26544674,11.5134987 Z" id="Path" fill="#FF7000" fill-rule="nonzero"></path>
                <path d="M2.48116959,6.88980001 C2.48116959,6.88980001 2.41604503,7.08977773 2.48116959,7.18976659 C2.54626197,7.28975546 2.9555428,8.09878482 2.9555428,8.09878482 C2.9555428,8.09878482 3.23470322,7.76234432 3.33702343,7.75322583 C3.43934363,7.74442178 3.39268819,8.62608457 3.39268819,8.62608457 C3.39268819,8.62608457 3.22537213,8.78046989 3.12305192,8.7713514 C3.02066736,8.76223292 3.37402602,9.11691039 3.36469493,9.41687697 C3.35536384,9.71684356 2.89974933,11.207558 2.73230457,11.234599 C2.56489197,11.2619544 2.42035946,10.9539059 2.42035946,10.6876531 C2.42035946,10.4214003 2.59278871,9.9985732 2.5834898,9.88034735 C2.57419089,9.76212153 1.7514457,11.1473048 1.70165124,11.363578 C1.69221125,11.4045789 1.74633032,11.5528025 1.74633032,11.5528025 C1.74633032,11.5528025 1.42392514,11.5792147 1.49519534,11.9892319 C0.546416743,11.6619099 0.0813424438,11.0984506 0.0906413528,10.5258729 C0.0942078628,10.3063734 -0.115073386,9.79001203 0.0906413528,9.21991794 C0.421840483,8.30207092 1.22900551,7.25446558 1.23476146,7.1536071 C1.24406037,6.98978887 1.30915275,6.91715546 1.31845166,6.82628508 C1.32775058,6.7354147 1.29055493,6.27162989 1.38357622,6.18987799 C1.47659752,6.10812609 1.96026964,5.90814837 2.08118767,5.91726685 C2.20210571,5.92638533 2.30442591,6.00813723 2.30442591,6.00813723 C2.30442591,6.00813723 2.76023348,6.00813723 2.78813021,6.18075951 C2.81602695,6.35369621 2.69510892,6.41721115 2.69510892,6.41721115 C2.69510892,6.41721115 2.76023348,6.66278128 2.48116959,6.88980001 Z" id="Path" fill="#8A9396" fill-rule="nonzero"></path>
                <path d="M2.9629755,8.12110938 C2.9629755,8.12110938 3.26880995,7.74599394 3.33991928,7.75982887 C3.41102861,7.77366381 3.38947058,8.62828558 3.38947058,8.62828558 C3.38947058,8.62828558 3.16198508,8.79493368 3.11243379,8.78801621 C3.06252855,8.78109875 3.36823431,9.19111596 3.36115555,9.34392913 C3.35407679,9.49674229 3.34699804,9.49674229 3.34699804,9.49674229 C3.34699804,9.49674229 3.34699804,9.40650077 3.27588871,9.26060508 C3.20477938,9.11470938 3.24725192,8.94774685 2.78523436,8.57954887 C2.67145944,8.35032913 3.01275203,8.7185271 3.083797,8.66287292 C3.15490633,8.60753318 2.95586457,8.12802685 2.9629755,8.12110938 L2.9629755,8.12110938 Z" id="Path"></path>
                <path d="M2.78169498,6.18516153 C2.78169498,6.18516153 2.42531177,6.0823428 2.30262405,6.25370735 C2.17993633,6.42475748 2.20915229,6.52191647 2.27340809,6.53889571" id="Path"></path>
                <path d="M2.75244685,12.0455149 C2.85491721,12.1163666 3.02446415,12.1727544 3.26108767,12.2146785 C2.67979306,12.3712648 2.09384363,12.2975833 1.50323938,11.9936339 C1.42218762,11.638642 1.69327182,11.5594056 1.76035912,11.5565757 C1.91683182,11.5156998 2.5987413,11.938923 2.75244685,12.0455149 Z" id="Path" fill="#2B2B2B" fill-rule="nonzero"></path>
            </g>
            <path d="M23.7292592,18.1079013 C24.6833249,18.6121644 24.7854018,18.2726975 25.4427334,17.7933877 C25.4883546,17.7601219 25.7052881,18.5631965 26.6264404,18.1079013 C27.9299794,17.463605 25.5089597,16.3897705 25.1667752,16.4130383 C24.8245907,16.436935 22.7751935,17.6036383 23.7292592,18.1079013 Z" id="Path" fill="#00713D" fill-rule="nonzero"></path>
        </g>
    </g>
</svg>