<?xml version="1.0" encoding="UTF-8"?>
<svg width="32px" height="24px" viewBox="0 0 32 24" version="1.1" xmlns="http://www.w3.org/2000/svg" xmlns:xlink="http://www.w3.org/1999/xlink">
    <title>KN</title>
    <defs>
        <rect id="path-1" x="0" y="0" width="32" height="24" rx="2"></rect>
        <rect id="path-3" x="0" y="0" width="32" height="24"></rect>
        <polygon id="path-5" points="4 4 4 28 36 4"></polygon>
        <linearGradient x1="50%" y1="100%" x2="50%" y2="0%" id="linearGradient-7">
            <stop stop-color="#000000" stop-opacity="0.3" offset="2.42052023%"></stop>
            <stop stop-color="#FFFFFF" stop-opacity="0.7" offset="100%"></stop>
        </linearGradient>
        <rect id="path-8" x="0" y="0" width="32" height="24" rx="2"></rect>
    </defs>
    <g id="Flagpack" stroke="none" stroke-width="1" fill="none" fill-rule="evenodd">
        <g id="Flagpack---L-(32×24)" transform="translate(-96.000000, -568.000000)">
            <g id="KN" transform="translate(96.000000, 568.000000)">
                <mask id="mask-2" fill="white">
                    <use xlink:href="#path-1"></use>
                </mask>
                <g id="drop-shadow"></g>
                <g id="Group" mask="url(#mask-2)">
                    <g id="flag">
                        <mask id="mask-4" fill="white">
                            <use xlink:href="#path-3"></use>
                        </mask>
                        <g id="mask"></g>
                        <g id="contents" mask="url(#mask-4)">
                            <g transform="translate(-4.000000, -4.000000)">
                                <rect id="background" stroke="none" fill="#C51918" fill-rule="evenodd" x="4" y="4" width="32" height="24"></rect>
                                <mask id="mask-6" fill="white">
                                    <use xlink:href="#path-5"></use>
                                </mask>
                                <use id="left" stroke="none" fill="#5EAA22" fill-rule="evenodd" xlink:href="#path-5"></use>
                                <path d="M36.7142321,-0.662718617 L43.7207729,7.15347764 L5.35927388,32.7590424 L-1.64726692,24.9428462 L36.7142321,-0.662718617 Z" id="Path-14" stroke="#FFD018" stroke-width="2.5" fill="#272727" fill-rule="nonzero"></path>
                                <polygon id="Star-5" stroke="none" fill="#F7FCFF" fill-rule="evenodd" transform="translate(15.180128, 19.283041) rotate(-29.000000) translate(-15.180128, -19.283041) " points="15.1819222 21.1537195 13.3112508 22.2830411 13.7379391 20.0792828 12.1801278 18.4299864 14.2894916 18.3408076 15.1819222 16.2830411 16.0743528 18.3408076 18.1801278 18.3408076 16.6259052 20.0792828 17.0938183 22.2830411"></polygon>
                                <polygon id="Star-5" stroke="none" fill="#F7FCFF" fill-rule="evenodd" transform="translate(25.180128, 12.729879) rotate(-29.000000) translate(-25.180128, -12.729879) " points="25.1819222 14.6005573 23.3112508 15.729879 23.7379391 13.5261206 22.1801278 11.8768242 24.2894916 11.7876455 25.1819222 9.72987895 26.0743528 11.7876455 28.1801278 11.7876455 26.6259052 13.5261206 27.0938183 15.729879"></polygon>
                            </g>
                        </g>
                    </g>
                </g>
                <g id="overlay" mask="url(#mask-2)">
                    <use fill="url(#linearGradient-7)" fill-rule="evenodd" style="mix-blend-mode: overlay;" xlink:href="#path-8"></use>
                    <rect stroke-opacity="0.1" stroke="#000000" stroke-width="1" stroke-linejoin="square" x="0.5" y="0.5" width="31" height="23" rx="2"></rect>
                </g>
            </g>
        </g>
    </g>
</svg>