<?xml version="1.0" encoding="UTF-8"?>
<svg width="32px" height="24px" viewBox="0 0 32 24" version="1.1" xmlns="http://www.w3.org/2000/svg" xmlns:xlink="http://www.w3.org/1999/xlink">
    <title>LR</title>
    <defs>
        <rect id="path-1" x="0" y="0" width="32" height="24" rx="2"></rect>
        <rect id="path-3" x="0" y="0" width="32" height="24"></rect>
        <linearGradient x1="50%" y1="100%" x2="50%" y2="0%" id="linearGradient-5">
            <stop stop-color="#000000" stop-opacity="0.3" offset="2.42052023%"></stop>
            <stop stop-color="#FFFFFF" stop-opacity="0.7" offset="100%"></stop>
        </linearGradient>
        <rect id="path-6" x="0" y="0" width="32" height="24" rx="2"></rect>
    </defs>
    <g id="Flagpack" stroke="none" stroke-width="1" fill="none" fill-rule="evenodd">
        <g id="Flagpack---L-(32×24)" transform="translate(-96.000000, -616.000000)">
            <g id="LR" transform="translate(96.000000, 616.000000)">
                <mask id="mask-2" fill="white">
                    <use xlink:href="#path-1"></use>
                </mask>
                <g id="drop-shadow"></g>
                <g id="Group" mask="url(#mask-2)">
                    <g id="flag">
                        <mask id="mask-4" fill="white">
                            <use xlink:href="#path-3"></use>
                        </mask>
                        <g id="mask"></g>
                        <g id="contents" mask="url(#mask-4)">
                            <g transform="translate(-2.000000, 0.000000)">
                                <polygon id="background" fill="#F7FCFF" points="2 0 34 0 34 24 2 24"></polygon>
                                <g id="mark" stroke-width="1" fill="none">
                                    <rect id="lines" fill="#E31D1C" x="2.02715843" y="5.5" width="32" height="3"></rect>
                                    <rect id="lines" fill="#E31D1C" x="2" y="0" width="32" height="3"></rect>
                                    <rect id="lines" fill="#E31D1C" x="1.94112869" y="11" width="32" height="3"></rect>
                                    <rect id="lines" fill="#E31D1C" x="2.11166423" y="16.3999939" width="32" height="3"></rect>
                                    <rect id="lines" fill="#E31D1C" x="2.10147254" y="21.5" width="32" height="3"></rect>
                                    <polygon id="square" fill="#3D58DB" points="2 0 18 0 18 14 2 14"></polygon>
                                    <polygon id="Star-5" fill="#F7FCFF" points="10.1324704 9.21308552 7.21110225 11.2394023 8.14458699 7.76880368 6 5.55178262 8.90389089 5.43190657 10.1324704 2 11.3610499 5.43190657 14.2600002 5.43190657 12.1203538 7.76880368 13.1919228 11.034559"></polygon>
                                </g>
                            </g>
                        </g>
                    </g>
                </g>
                <g id="overlay" mask="url(#mask-2)">
                    <use fill="url(#linearGradient-5)" fill-rule="evenodd" style="mix-blend-mode: overlay;" xlink:href="#path-6"></use>
                    <rect stroke-opacity="0.1" stroke="#000000" stroke-width="1" stroke-linejoin="square" x="0.5" y="0.5" width="31" height="23" rx="2"></rect>
                </g>
            </g>
        </g>
    </g>
</svg>