<?xml version="1.0" encoding="UTF-8"?>
<svg width="32px" height="24px" viewBox="0 0 32 24" version="1.1" xmlns="http://www.w3.org/2000/svg" xmlns:xlink="http://www.w3.org/1999/xlink">
    <title>MK</title>
    <defs>
        <rect id="path-1" x="0" y="0" width="32" height="24" rx="2"></rect>
        <rect id="path-3" x="0" y="0" width="32" height="24"></rect>
        <rect id="path-5" x="0" y="0" width="32" height="24"></rect>
        <linearGradient x1="50%" y1="100%" x2="50%" y2="0%" id="linearGradient-7">
            <stop stop-color="#000000" stop-opacity="0.3" offset="2.42052023%"></stop>
            <stop stop-color="#FFFFFF" stop-opacity="0.7" offset="100%"></stop>
        </linearGradient>
        <rect id="path-8" x="0" y="0" width="32" height="24" rx="2"></rect>
    </defs>
    <g id="Flagpack" stroke="none" stroke-width="1" fill="none" fill-rule="evenodd">
        <g id="Flagpack---L-(32×24)" transform="translate(-264.000000, -664.000000)">
            <g id="MK" transform="translate(264.000000, 664.000000)">
                <mask id="mask-2" fill="white">
                    <use xlink:href="#path-1"></use>
                </mask>
                <g id="drop-shadow"></g>
                <g id="Group" mask="url(#mask-2)">
                    <g id="flag">
                        <mask id="mask-4" fill="white">
                            <use xlink:href="#path-3"></use>
                        </mask>
                        <g id="mask"></g>
                        <g id="contents" mask="url(#mask-4)">
                            <mask id="mask-6" fill="white">
                                <use xlink:href="#path-5"></use>
                            </mask>
                            <use id="background" fill="#F50100" xlink:href="#path-5"></use>
                            <path d="M18,14.0243767 L32,19.9756233 L32,24.0595436 L28.7447669,24.0595436 L18,14.0243767 Z M14,14 L3.25523308,24.0351669 L-1.28785871e-13,24.0351669 L-7.99360578e-15,19.9512465 L14,14 Z M16,12 L19,24 L13,24 L16,12 Z M32,9 L32,15 L20,12 L32,9 Z M1.08571771e-13,9 L12,12 L1.07469589e-13,15 L1.08571771e-13,9 Z M19,1.99146255e-15 L16,12 L13,1.99146255e-15 L19,1.99146255e-15 Z M32,-0.0175834353 L32,4.06633689 L18,10.0175834 L28.7447669,-0.0175834353 L32,-0.0175834353 Z M3.25523308,-0.0419601627 L14,9.99320671 L-7.99360578e-15,4.04196016 L-1.28785871e-13,-0.0419601627 L3.25523308,-0.0419601627 Z" id="Combined-Shape" fill="#FFD018" mask="url(#mask-6)"></path>
                            <circle id="Oval-2" stroke="#F50100" stroke-width="2" fill="#FFD018" mask="url(#mask-6)" cx="16" cy="12" r="5"></circle>
                        </g>
                    </g>
                </g>
                <g id="overlay" mask="url(#mask-2)">
                    <use fill="url(#linearGradient-7)" fill-rule="evenodd" style="mix-blend-mode: overlay;" xlink:href="#path-8"></use>
                    <rect stroke-opacity="0.1" stroke="#000000" stroke-width="1" stroke-linejoin="square" x="0.5" y="0.5" width="31" height="23" rx="2"></rect>
                </g>
            </g>
        </g>
    </g>
</svg>