<?xml version="1.0" encoding="UTF-8"?>
<svg width="32px" height="24px" viewBox="0 0 32 24" version="1.1" xmlns="http://www.w3.org/2000/svg" xmlns:xlink="http://www.w3.org/1999/xlink">
    <title>MT</title>
    <defs>
        <rect id="path-1" x="0" y="0" width="32" height="24" rx="2"></rect>
        <rect id="path-3" x="0" y="0" width="32" height="24"></rect>
        <rect id="path-5" x="0" y="0" width="16" height="24"></rect>
        <linearGradient x1="50%" y1="100%" x2="50%" y2="0%" id="linearGradient-7">
            <stop stop-color="#000000" stop-opacity="0.3" offset="2.42052023%"></stop>
            <stop stop-color="#FFFFFF" stop-opacity="0.7" offset="100%"></stop>
        </linearGradient>
        <rect id="path-8" x="0" y="0" width="32" height="24" rx="2"></rect>
    </defs>
    <g id="Flagpack" stroke="none" stroke-width="1" fill="none" fill-rule="evenodd">
        <g id="Flagpack---L-(32×24)" transform="translate(-208.000000, -712.000000)">
            <g id="MT" transform="translate(208.000000, 712.000000)">
                <mask id="mask-2" fill="white">
                    <use xlink:href="#path-1"></use>
                </mask>
                <g id="drop-shadow"></g>
                <g id="Group" mask="url(#mask-2)">
                    <g id="flag">
                        <mask id="mask-4" fill="white">
                            <use xlink:href="#path-3"></use>
                        </mask>
                        <use id="mask" fill="#F7FCFF" xlink:href="#path-3"></use>
                        <path d="M6.50005784,4.5 L9.50018891,4.5 L9.50128544,7.40177128 L13.5,8.49459476 L13.5,11.5000723 L10.3280648,11.500531 C10.3794655,11.9119654 9.92865803,12.2457229 9.50132009,11.9568486 L9.50132009,11.9568486 L9.50016323,15.5 L6.50005001,15.5 L6.50040061,11.9943233 C6.09249488,12.2133603 5.6864395,11.8923386 5.73523093,11.5005298 L5.73523093,11.5005298 L2.5,11.5000709 L2.5,8.5 L5.91467231,8.5 C5.68476561,8.18725509 5.68772271,7.85937454 5.84152484,7.65742827 L5.84152484,7.65742827 L6.50005784,4.5 Z" id="Combined-Shape" stroke="#FECA00" fill="#A0A0A0" mask="url(#mask-4)"></path>
                        <g id="contents" mask="url(#mask-4)">
                            <g transform="translate(16.000000, 0.000000)">
                                <mask id="mask-6" fill="white">
                                    <use xlink:href="#path-5"></use>
                                </mask>
                                <use id="background" stroke="none" fill="#E31D1C" fill-rule="evenodd" xlink:href="#path-5"></use>
                                <rect id="right" stroke="none" fill="#FFFFFF" fill-rule="evenodd" mask="url(#mask-6)" x="-16" y="0" width="12" height="24"></rect>
                            </g>
                        </g>
                    </g>
                </g>
                <g id="overlay" mask="url(#mask-2)">
                    <use fill="url(#linearGradient-7)" fill-rule="evenodd" style="mix-blend-mode: overlay;" xlink:href="#path-8"></use>
                    <rect stroke-opacity="0.1" stroke="#000000" stroke-width="1" stroke-linejoin="square" x="0.5" y="0.5" width="31" height="23" rx="2"></rect>
                </g>
            </g>
        </g>
    </g>
</svg>