<?xml version="1.0" encoding="UTF-8"?>
<svg width="32px" height="24px" viewBox="0 0 32 24" version="1.1" xmlns="http://www.w3.org/2000/svg" xmlns:xlink="http://www.w3.org/1999/xlink">
    <title>PY</title>
    <defs>
        <rect id="path-1" x="0" y="0" width="32" height="24" rx="2"></rect>
        <rect id="path-3" x="0" y="0" width="32" height="24"></rect>
        <rect id="path-5" x="0" y="0" width="32" height="24"></rect>
        <linearGradient x1="50%" y1="100%" x2="50%" y2="0%" id="linearGradient-7">
            <stop stop-color="#000000" stop-opacity="0.3" offset="2.42052023%"></stop>
            <stop stop-color="#FFFFFF" stop-opacity="0.7" offset="100%"></stop>
        </linearGradient>
        <rect id="path-8" x="0" y="0" width="32" height="24" rx="2"></rect>
    </defs>
    <g id="Flagpack" stroke="none" stroke-width="1" fill="none" fill-rule="evenodd">
        <g id="Flagpack---L-(32×24)" transform="translate(-320.000000, -856.000000)">
            <g id="PY" transform="translate(320.000000, 856.000000)">
                <mask id="mask-2" fill="white">
                    <use xlink:href="#path-1"></use>
                </mask>
                <g id="drop-shadow"></g>
                <g id="Group" mask="url(#mask-2)">
                    <g id="flag">
                        <mask id="mask-4" fill="white">
                            <use xlink:href="#path-3"></use>
                        </mask>
                        <g id="mask"></g>
                        <g id="contents" mask="url(#mask-4)">
                            <mask id="mask-6" fill="white">
                                <use xlink:href="#path-5"></use>
                            </mask>
                            <use id="background" fill="#F7FCFF" xlink:href="#path-5"></use>
                            <g id="mark" mask="url(#mask-6)">
                                <g transform="translate(12.000000, 8.000000)" id="Oval-23">
                                    <circle stroke="#272727" stroke-width="0.35" fill="none" cx="4" cy="4" r="3.825"></circle>
                                    <path d="M4,6.65 C5.46355459,6.65 6.65,5.46355459 6.65,4 C6.65,3.24376888 6.33323367,2.56152249 5.82514834,2.07870816 C5.34992235,1.62711883 4.70732346,1.35 4,1.35 C3.43050034,1.35 2.90295918,1.52964571 2.47095349,1.83536017 C1.79274973,2.31529989 1.35,3.10594508 1.35,4 C1.35,5.46355459 2.53644541,6.65 4,6.65 Z M4,7 C2.34314575,7 1,5.65685425 1,4 C1,2.99191935 1.49721599,2.09996972 2.25978425,1.55601483 C2.75055268,1.20594008 3.3512264,1 4,1 C4.77120811,1 5.47444879,1.29100316 6.00590665,1.7691941 C6.61622649,2.31834283 7,3.11435386 7,4 C7,5.65685425 5.65685425,7 4,7 Z" stroke="none" fill="#272727" fill-rule="nonzero"></path>
                                </g>
                            </g>
                            <rect id="top" fill="#F05234" mask="url(#mask-6)" x="0" y="0" width="32" height="8"></rect>
                            <rect id="bottom" fill="#3D58DB" mask="url(#mask-6)" x="0" y="16" width="32" height="8"></rect>
                            <path d="M15.2061177,10.0896746 L15.3746218,10.5604254 C14.618991,10.8309015 14.191676,11.2716849 14.191676,12.2138732 C14.191676,13.147018 14.6231601,13.7258222 15.5256247,14.0015458 L15.3795297,14.4797259 C14.2674593,14.139963 13.6325254,13.4768127 13.6325254,12.3230938 C13.6325254,11.1784183 14.2422597,10.434685 15.2061177,10.0896746 Z" id="Path-198" fill="#73BE4A" fill-rule="nonzero" mask="url(#mask-6)" transform="translate(14.579075, 12.284700) rotate(-15.000000) translate(-14.579075, -12.284700) "></path>
                            <polygon id="Star" fill="#FBCD17" mask="url(#mask-6)" points="16 12.315 15.1183221 12.9135255 15.4151002 11.8900455 14.5734152 11.2364745 15.6385121 11.2024545 16 10.2 16.3614879 11.2024545 17.4265848 11.2364745 16.5848998 11.8900455 16.8816779 12.9135255"></polygon>
                            <path d="M17.2124341,10.1818059 C16.3526897,10.4895492 15.9228175,11.1651367 15.9228175,12.2085686 C15.9228175,13.2520005 16.4264513,13.9275881 17.4337188,14.2353313" id="Path-198" stroke="#73BE4A" stroke-width="0.5" mask="url(#mask-6)" transform="translate(16.922818, 12.208569) scale(-1, 1) rotate(-15.000000) translate(-16.922818, -12.208569) "></path>
                            <line x1="14.564132" y1="9.04372387" x2="15.0309181" y2="9.7619466" id="Path-2" fill="#F7FCFF" fill-rule="nonzero" mask="url(#mask-6)"></line>
                        </g>
                    </g>
                </g>
                <g id="overlay" mask="url(#mask-2)">
                    <use fill="url(#linearGradient-7)" fill-rule="evenodd" style="mix-blend-mode: overlay;" xlink:href="#path-8"></use>
                    <rect stroke-opacity="0.1" stroke="#000000" stroke-width="1" stroke-linejoin="square" x="0.5" y="0.5" width="31" height="23" rx="2"></rect>
                </g>
            </g>
        </g>
    </g>
</svg>