<?xml version="1.0" encoding="UTF-8"?>
<svg width="32px" height="24px" viewBox="0 0 32 24" version="1.1" xmlns="http://www.w3.org/2000/svg" xmlns:xlink="http://www.w3.org/1999/xlink">
    <title>TG</title>
    <defs>
        <rect id="path-1" x="0" y="0" width="32" height="24" rx="2"></rect>
        <rect id="path-3" x="0" y="0" width="32" height="24"></rect>
        <linearGradient x1="50%" y1="100%" x2="50%" y2="0%" id="linearGradient-5">
            <stop stop-color="#000000" stop-opacity="0.3" offset="2.42052023%"></stop>
            <stop stop-color="#FFFFFF" stop-opacity="0.7" offset="100%"></stop>
        </linearGradient>
        <rect id="path-6" x="0" y="0" width="32" height="24" rx="2"></rect>
    </defs>
    <g id="Flagpack" stroke="none" stroke-width="1" fill="none" fill-rule="evenodd">
        <g id="Flagpack---L-(32×24)" transform="translate(-320.000000, -1000.000000)">
            <g id="TG" transform="translate(320.000000, 1000.000000)">
                <mask id="mask-2" fill="white">
                    <use xlink:href="#path-1"></use>
                </mask>
                <g id="drop-shadow"></g>
                <g id="Group" mask="url(#mask-2)">
                    <g id="flag">
                        <mask id="mask-4" fill="white">
                            <use xlink:href="#path-3"></use>
                        </mask>
                        <g id="mask"></g>
                        <g id="contents" mask="url(#mask-4)">
                            <path d="M33,-1 L33,25 L-1,25 L-1,-1 L33,-1 Z" id="middle" stroke="#F7FCFF" stroke-width="2" fill="#5EAA22" fill-rule="nonzero"></path>
                            <rect id="stripe" fill="#FECA00" x="0" y="6" width="32" height="4"></rect>
                            <rect id="stripe" fill="#FECA00" x="0" y="14" width="32" height="4"></rect>
                            <rect id="Rectangle-82" fill="#F50101" x="0" y="0" width="16" height="14"></rect>
                            <polygon id="Star-5" fill="#F7FCFF" points="8.25 10.1441584 4.53067866 12.445614 5.97462576 8.58204623 3 5.97916125 6.64778287 5.97916125 8.25 2.1298045 9.47269715 5.97916125 13.076591 5.97916125 10.5454331 8.58204623 11.7910849 12.2560816"></polygon>
                        </g>
                    </g>
                </g>
                <g id="overlay" mask="url(#mask-2)">
                    <use fill="url(#linearGradient-5)" fill-rule="evenodd" style="mix-blend-mode: overlay;" xlink:href="#path-6"></use>
                    <rect stroke-opacity="0.1" stroke="#000000" stroke-width="1" stroke-linejoin="square" x="0.5" y="0.5" width="31" height="23" rx="2"></rect>
                </g>
            </g>
        </g>
    </g>
</svg>