<?xml version="1.0" encoding="UTF-8"?>
<svg width="32px" height="24px" viewBox="0 0 32 24" version="1.1" xmlns="http://www.w3.org/2000/svg" xmlns:xlink="http://www.w3.org/1999/xlink">
    <title>TL</title>
    <defs>
        <rect id="path-1" x="0" y="0" width="32" height="24" rx="2"></rect>
        <rect id="path-3" x="0" y="0" width="32" height="24"></rect>
        <linearGradient x1="50%" y1="100%" x2="50%" y2="0%" id="linearGradient-5">
            <stop stop-color="#000000" stop-opacity="0.3" offset="2.42052023%"></stop>
            <stop stop-color="#FFFFFF" stop-opacity="0.7" offset="100%"></stop>
        </linearGradient>
        <rect id="path-6" x="0" y="0" width="32" height="24" rx="2"></rect>
    </defs>
    <g id="Flagpack" stroke="none" stroke-width="1" fill="none" fill-rule="evenodd">
        <g id="Flagpack---L-(32×24)" transform="translate(-544.000000, -1000.000000)">
            <g id="TL" transform="translate(544.000000, 1000.000000)">
                <mask id="mask-2" fill="white">
                    <use xlink:href="#path-1"></use>
                </mask>
                <g id="drop-shadow"></g>
                <g id="Group" mask="url(#mask-2)">
                    <g id="flag">
                        <mask id="mask-4" fill="white">
                            <use xlink:href="#path-3"></use>
                        </mask>
                        <g id="mask"></g>
                        <g id="contents" mask="url(#mask-4)">
                            <path d="M33,-1 L33,25 L-1,25 L-1,-1 L33,-1 Z" id="middle" stroke="#F7FCFF" stroke-width="2" fill="#E31D1C" fill-rule="nonzero"></path>
                            <polygon id="triangle-wide" fill="#FECA00" points="0 0 24 12 0 24"></polygon>
                            <polygon id="triangle" fill="#272727" points="0 0 16 12 0 24"></polygon>
                            <polygon id="Star-5" fill="#F7FCFF" transform="translate(6.000000, 12.000000) rotate(-15.000000) translate(-6.000000, -12.000000) " points="6.00239253 14.4942379 3.50816403 16 4.07708177 13.0616556 2 10.8625937 4.81248504 10.7436887 6.00239253 8 7.19230002 10.7436887 10 10.7436887 7.9277033 13.0616556 8.5515874 16"></polygon>
                        </g>
                    </g>
                </g>
                <g id="overlay" mask="url(#mask-2)">
                    <use fill="url(#linearGradient-5)" fill-rule="evenodd" style="mix-blend-mode: overlay;" xlink:href="#path-6"></use>
                    <rect stroke-opacity="0.1" stroke="#000000" stroke-width="1" stroke-linejoin="square" x="0.5" y="0.5" width="31" height="23" rx="2"></rect>
                </g>
            </g>
        </g>
    </g>
</svg>
