<?xml version="1.0" encoding="UTF-8"?>
<svg width="32px" height="24px" viewBox="0 0 32 24" version="1.1" xmlns="http://www.w3.org/2000/svg" xmlns:xlink="http://www.w3.org/1999/xlink">
    <title>TN</title>
    <defs>
        <rect id="path-1" x="0" y="0" width="32" height="24" rx="2"></rect>
        <rect id="path-3" x="0" y="0" width="32" height="24"></rect>
        <rect id="path-5" x="0" y="0" width="32" height="24"></rect>
        <linearGradient x1="50%" y1="100%" x2="50%" y2="0%" id="linearGradient-7">
            <stop stop-color="#000000" stop-opacity="0.3" offset="2.42052023%"></stop>
            <stop stop-color="#FFFFFF" stop-opacity="0.7" offset="100%"></stop>
        </linearGradient>
        <rect id="path-8" x="0" y="0" width="32" height="24" rx="2"></rect>
    </defs>
    <g id="Flagpack" stroke="none" stroke-width="1" fill="none" fill-rule="evenodd">
        <g id="Flagpack---L-(32×24)" transform="translate(-96.000000, -1048.000000)">
            <g id="TN" transform="translate(96.000000, 1048.000000)">
                <mask id="mask-2" fill="white">
                    <use xlink:href="#path-1"></use>
                </mask>
                <g id="drop-shadow"></g>
                <g id="Group" mask="url(#mask-2)">
                    <g id="flag">
                        <mask id="mask-4" fill="white">
                            <use xlink:href="#path-3"></use>
                        </mask>
                        <g id="mask"></g>
                        <g id="contents" mask="url(#mask-4)">
                            <mask id="mask-6" fill="white">
                                <use xlink:href="#path-5"></use>
                            </mask>
                            <use id="background" fill="#E31D1C" xlink:href="#path-5"></use>
                            <circle id="Oval-59" fill="#F7FCFF" mask="url(#mask-6)" cx="16" cy="12" r="8"></circle>
                            <path d="M17.5027323,6.22671815 C17.5027323,6.22671815 13.2651961,7.4018801 13.1861894,11.9281681 C13.1071828,16.4544561 17.3028456,17.6782162 17.3028456,17.6782162 C15.6894688,18.3634544 10.4625894,17.2967874 10.5571,11.8822772 C10.6516107,6.46776688 15.771268,5.5215978 17.5027323,6.22671815 Z M17.196128,8.93909531 L18.491822,10.6178764 L20.415004,10.0077063 L19.4027898,11.9054272 L21.0048719,13.2597451 L18.7519323,13.0602545 L17.3553297,14.6714037 L17.3163764,12.5654691 L15.0821435,11.7404577 L17.1870186,11.0127628 L17.196128,8.93909531 Z" id="Combined-shape-1695" fill="#E31D1C" mask="url(#mask-6)" transform="translate(15.780353, 11.942937) rotate(-1.000000) translate(-15.780353, -11.942937) "></path>
                        </g>
                    </g>
                </g>
                <g id="overlay" mask="url(#mask-2)">
                    <use fill="url(#linearGradient-7)" fill-rule="evenodd" style="mix-blend-mode: overlay;" xlink:href="#path-8"></use>
                    <rect stroke-opacity="0.1" stroke="#000000" stroke-width="1" stroke-linejoin="square" x="0.5" y="0.5" width="31" height="23" rx="2"></rect>
                </g>
            </g>
        </g>
    </g>
</svg>