<svg xmlns="http://www.w3.org/2000/svg" width="30" height="30" viewBox="0 0 30 30">
  <path fill="#2C2825" d="M1503,223.390513 C1503.35543,223.390513 1503.66042,223.26114 1503.91499,223.002396 C1504.16955,222.743651 1504.29683,222.441782 1504.29683,222.09679 L1504.29683,219.293723 C1504.29683,218.94873 1504.16955,218.646862 1503.91499,218.388117 C1503.66042,218.129372 1503.35543,218 1503,218 C1502.65418,218 1502.35399,218.129372 1502.09942,218.388117 C1501.84486,218.646862 1501.71758,218.94873 1501.71758,219.293723 L1501.71758,222.09679 C1501.71758,222.441782 1501.84486,222.743651 1502.09942,223.002396 C1502.35399,223.26114 1502.65418,223.390513 1503,223.390513 Z M1510.70893,226.596071 C1511.07397,226.596071 1511.38136,226.47149 1511.63112,226.222329 L1513.63401,224.23862 C1513.87416,223.989459 1513.99424,223.682798 1513.99424,223.318639 C1513.99424,222.95448 1513.86936,222.64782 1513.6196,222.398658 C1513.37944,222.149497 1513.07685,222.027312 1512.71182,222.032103 C1512.34678,222.036895 1512.04419,222.163872 1511.80403,222.413033 L1509.78674,224.411116 C1509.54659,224.660278 1509.42651,224.962147 1509.42651,225.316723 C1509.42651,225.671299 1509.54659,225.977959 1509.78674,226.236703 C1510.0365,226.476282 1510.3439,226.596071 1510.70893,226.596071 Z M1495.28386,226.596071 C1495.64409,226.596071 1495.94909,226.476282 1496.19885,226.236703 C1496.44861,225.987542 1496.57349,225.680882 1496.57349,225.316723 C1496.57349,224.952563 1496.45341,224.650695 1496.21326,224.411116 L1494.22478,222.413033 C1493.98463,222.173455 1493.67963,222.048874 1493.3098,222.039291 C1492.93996,222.029708 1492.63977,222.149497 1492.40922,222.398658 C1492.14986,222.64782 1492.02017,222.95448 1492.02017,223.318639 C1492.02017,223.682798 1492.14025,223.984667 1492.3804,224.224245 L1494.38329,226.222329 C1494.62344,226.47149 1494.92363,226.596071 1495.28386,226.596071 Z M1503,240.065165 C1503.96061,240.065165 1504.8684,239.878294 1505.72334,239.504552 C1506.57829,239.13081 1507.32997,238.620508 1507.97839,237.973646 C1508.6268,237.326785 1509.13833,236.576905 1509.51297,235.724006 C1509.88761,234.871107 1510.07493,233.960709 1510.07493,232.992813 C1510.07493,232.024916 1509.88761,231.114518 1509.51297,230.26162 C1509.13833,229.408721 1508.6268,228.65884 1507.97839,228.011979 C1507.32997,227.365117 1506.57829,226.857211 1505.72334,226.488261 C1504.8684,226.11931 1503.96061,225.934835 1503,225.934835 C1502.02978,225.934835 1501.1196,226.11931 1500.26945,226.488261 C1499.41931,226.857211 1498.66763,227.365117 1498.01441,228.011979 C1497.36119,228.65884 1496.84966,229.408721 1496.47983,230.26162 C1496.10999,231.114518 1495.92507,232.024916 1495.92507,232.992813 C1495.92507,233.960709 1496.10999,234.871107 1496.47983,235.724006 C1496.84966,236.576905 1497.36119,237.326785 1498.01441,237.973646 C1498.66763,238.620508 1499.41931,239.13081 1500.26945,239.504552 C1501.1196,239.878294 1502.02978,240.065165 1503,240.065165 Z M1516.71758,234.286536 C1517.0634,234.286536 1517.36359,234.159559 1517.61816,233.905606 C1517.87272,233.651653 1518,233.347389 1518,232.992813 C1518,232.64782 1517.87272,232.348347 1517.61816,232.094394 C1517.36359,231.840441 1517.0634,231.713464 1516.71758,231.713464 L1513.90778,231.713464 C1513.55235,231.713464 1513.24736,231.840441 1512.9928,232.094394 C1512.73823,232.348347 1512.61095,232.64782 1512.61095,232.992813 C1512.61095,233.347389 1512.73823,233.651653 1512.9928,233.905606 C1513.24736,234.159559 1513.55235,234.286536 1513.90778,234.286536 L1516.71758,234.286536 Z M1492.10663,234.286536 C1492.45245,234.286536 1492.75264,234.159559 1493.0072,233.905606 C1493.26177,233.651653 1493.38905,233.347389 1493.38905,232.992813 C1493.38905,232.64782 1493.26177,232.348347 1493.0072,232.094394 C1492.75264,231.840441 1492.45245,231.713464 1492.10663,231.713464 L1489.29683,231.713464 C1488.9414,231.713464 1488.63641,231.840441 1488.38184,232.094394 C1488.12728,232.348347 1488,232.64782 1488,232.992813 C1488,233.347389 1488.12728,233.651653 1488.38184,233.905606 C1488.63641,234.159559 1488.9414,234.286536 1489.29683,234.286536 L1492.10663,234.286536 Z M1512.71902,243.960709 C1513.07925,243.960709 1513.38425,243.836128 1513.63401,243.586967 C1513.87416,243.337805 1513.99424,243.033541 1513.99424,242.674173 C1513.99424,242.314806 1513.87416,242.015333 1513.63401,241.775755 L1511.61671,239.777671 C1511.36695,239.538093 1511.06196,239.418304 1510.70173,239.418304 C1510.3415,239.418304 1510.0365,239.538093 1509.78674,239.777671 C1509.54659,240.026833 1509.42651,240.331097 1509.42651,240.690465 C1509.42651,241.049832 1509.54659,241.354097 1509.78674,241.603258 L1511.81844,243.601342 C1512.0586,243.84092 1512.35879,243.960709 1512.71902,243.960709 Z M1493.27378,243.953522 C1493.63881,243.958313 1493.94621,243.836128 1494.19597,243.586967 L1496.19885,241.603258 C1496.44861,241.354097 1496.57349,241.049832 1496.57349,240.690465 C1496.57349,240.331097 1496.45341,240.031624 1496.21326,239.792046 C1495.9635,239.542885 1495.6561,239.418304 1495.29107,239.418304 C1494.92603,239.418304 1494.62344,239.538093 1494.38329,239.777671 L1492.36599,241.76138 C1492.12584,242.000958 1492.00336,242.300431 1491.99856,242.659799 C1491.99376,243.019166 1492.11623,243.323431 1492.36599,243.572592 C1492.60615,243.821754 1492.90874,243.94873 1493.27378,243.953522 Z M1503,248 C1503.35543,248 1503.66042,247.870628 1503.91499,247.611883 C1504.16955,247.353138 1504.29683,247.046478 1504.29683,246.691902 L1504.29683,243.90321 C1504.29683,243.548634 1504.16955,243.24437 1503.91499,242.990417 C1503.66042,242.736464 1503.35543,242.609487 1503,242.609487 C1502.65418,242.609487 1502.35399,242.736464 1502.09942,242.990417 C1501.84486,243.24437 1501.71758,243.548634 1501.71758,243.90321 L1501.71758,246.691902 C1501.71758,247.046478 1501.84486,247.353138 1502.09942,247.611883 C1502.35399,247.870628 1502.65418,248 1503,248 Z" transform="translate(-1488 -218)"/>
</svg>
