<?xml version="1.0" encoding="utf-8"?><svg xmlns="http://www.w3.org/2000/svg" xmlns:xlink="http://www.w3.org/1999/xlink"><symbol viewBox="0 0 26 26" id="accept" xmlns="http://www.w3.org/2000/svg"><g fill="none" fill-rule="evenodd"><path fill="currentColor" d="M1.403 19.276c.296 2.766 2.52 4.99 5.285 5.299C8.742 24.803 10.85 25 13 25c2.15 0 4.258-.197 6.312-.425 2.764-.309 4.99-2.533 5.285-5.3.218-2.041.403-4.138.403-6.275 0-2.137-.185-4.234-.403-6.276-.296-2.766-2.52-4.99-5.285-5.299C17.258 1.197 15.15 1 13 1c-2.15 0-4.258.197-6.312.425-2.764.309-4.99 2.533-5.285 5.3C1.184 8.765 1 10.862 1 13c0 2.137.184 4.234.403 6.276z" opacity=".3"/><path stroke="currentColor" stroke-width="inherit" d="M1.403 19.276c.296 2.766 2.52 4.99 5.285 5.299C8.742 24.803 10.85 25 13 25c2.15 0 4.258-.197 6.312-.425 2.764-.309 4.99-2.533 5.285-5.3.218-2.041.403-4.138.403-6.275 0-2.137-.185-4.234-.403-6.276-.296-2.766-2.52-4.99-5.285-5.299C17.258 1.197 15.15 1 13 1c-2.15 0-4.258.197-6.312.425-2.764.309-4.99 2.533-5.285 5.3C1.184 8.765 1 10.862 1 13c0 2.137.184 4.234.403 6.276z"/><path stroke="currentColor" stroke-linecap="round" stroke-linejoin="round" stroke-width="inherit" d="M8.2 14.2l3.49 3.6c1.644-4.719 3.012-6.79 6.11-9.6"/></g></symbol><symbol viewBox="0 0 24 24" id="accommodation" xmlns="http://www.w3.org/2000/svg"><path fill="currentColor" fill-rule="evenodd" d="M12.089 0c2.935 0 5.628 1.04 7.723 2.768.676.558.611 1.372.31 1.9-.291.507-.876.932-1.587.932-3.56 0-6.447 2.866-6.447 6.4 0 3.41 2.686 6.197 6.073 6.39-.126.474-.086.987.132 1.448.319.676.968 1.132 1.704 1.215a1.599 1.599 0 01-.186.18A12.097 12.097 0 0112.09 24C5.412 24 0 18.627 0 12S5.412 0 12.089 0zm10.836 14.933c.313 0 .598.18.73.461a.795.795 0 01-.11.851l-1.585 1.888h1.234c.445 0 .806.359.806.8 0 .442-.36.8-.806.8H20.24a.806.806 0 01-.73-.46.795.795 0 01.111-.852l1.585-1.888H19.97a.803.803 0 01-.805-.8c0-.441.36-.8.805-.8h2.955zM20.15 7.467c.312 0 .597.18.73.46a.795.795 0 01-.111.852l-2.48 2.954h2.219c.445 0 .806.359.806.8 0 .442-.361.8-.806.8h-3.94a.806.806 0 01-.73-.46.795.795 0 01.11-.852l2.48-2.954H16.21a.803.803 0 01-.806-.8c0-.442.36-.8.806-.8h3.94z"/></symbol><symbol viewBox="0 0 24 23" id="activity" xmlns="http://www.w3.org/2000/svg"><path fill="currentColor" fill-rule="evenodd" d="M7.149 0C5.445 0 4.426.603 3.893 1.09c-.352.322-.546.721-.668 1.062-.497 1.395-1.182 4.36-1.796 7.421C.908 12.17.427 14.887.142 16.871A4.4 4.4 0 000 17.987c0 2.74 2.488 4.813 5.362 4.813 2.864 0 5.345-2.06 5.361-4.786.158-2.266.267-4.661.343-6.89-1.221.117-2.368.46-3.259 1.007a.77.77 0 01-1.054-.247.757.757 0 01.248-1.046C8.413 9.971 10.228 9.56 12 9.56c1.772 0 3.587.41 4.999 1.278.36.221.47.69.248 1.046a.77.77 0 01-1.054.247c-.89-.547-2.038-.89-3.259-1.007.076 2.229.185 4.624.343 6.89.016 2.727 2.497 4.786 5.361 4.786 2.874 0 5.362-2.073 5.362-4.813a4.4 4.4 0 00-.143-1.116c-.284-1.984-.765-4.702-1.286-7.298-.614-3.06-1.299-6.026-1.796-7.42-.122-.342-.316-.741-.668-1.063C19.574.603 18.555 0 16.85 0c-1.235 0-2.165.316-2.812.665-.976.526-1.274 1.57-1.268 2.418.003.406.007.913.015 1.503a11.408 11.408 0 00-1.572 0c.008-.59.012-1.097.015-1.503.006-.848-.292-1.892-1.268-2.418C9.314.316 8.384 0 7.149 0zm11.49 20.773c-1.693 0-3.065-1.247-3.065-2.786 0-1.54 1.372-2.787 3.064-2.787s3.064 1.248 3.064 2.787-1.372 2.786-3.064 2.786zM8.425 17.987c0 1.539-1.372 2.786-3.064 2.786s-3.064-1.247-3.064-2.786c0-1.54 1.372-2.787 3.064-2.787s3.064 1.248 3.064 2.787z"/></symbol><symbol viewBox="0 0 26 26" id="add-after" xmlns="http://www.w3.org/2000/svg"><g fill="none" fill-rule="evenodd"><path fill="currentColor" d="M24.899 11.146c-.219 2.78-2.516 5.067-5.313 5.296-.793.065-1.597.107-2.41.107-.813 0-1.617-.042-2.41-.107-2.797-.23-5.094-2.516-5.312-5.296a30.232 30.232 0 01-.102-2.371c0-.8.04-1.59.102-2.371.218-2.78 2.515-5.067 5.312-5.296A29.514 29.514 0 0117.176 1c.813 0 1.617.043 2.41.108 2.797.229 5.094 2.516 5.313 5.296.06.78.101 1.571.101 2.37 0 .8-.04 1.591-.101 2.372z" opacity=".2"/><path fill="#FFF" stroke="currentColor" stroke-linejoin="round" stroke-width="inherit" d="M16.638 16.544c-1.181-.026-2.343-.134-3.48-.26-1.859-.203-3.356-1.692-3.553-3.54a41.435 41.435 0 01-.243-3.287 24.265 24.265 0 00-.538-.006c-1.368 0-2.71.121-4.017.265-1.86.204-3.357 1.692-3.555 3.54C1.114 14.55 1 15.876 1 17.227c0 1.35.114 2.676.252 3.968.198 1.849 1.695 3.337 3.555 3.541 1.307.144 2.65.265 4.017.265 1.367 0 2.71-.121 4.017-.265 1.86-.204 3.357-1.692 3.554-3.541.138-1.292.253-2.618.253-3.969 0-.228-.004-.455-.01-.681z"/><path stroke="currentColor" stroke-linecap="round" stroke-width="inherit" d="M13.404 1.238l-.245.027c-1.86.204-3.357 1.693-3.554 3.541l-.025.234m11.352-3.802c.081.01.163.018.245.027 1.859.204 3.357 1.693 3.554 3.541l.024.234m-3.823 11.268l.245-.026c1.859-.204 3.357-1.693 3.554-3.542l.024-.233"/></g></symbol><symbol viewBox="0 0 26 26" id="add-notification" xmlns="http://www.w3.org/2000/svg"><g fill="none" fill-rule="evenodd"><path fill="currentColor" fill-opacity=".2" d="M6.8 4.371a6.735 6.735 0 014.738-1.943c1.777 0 3.482.7 4.738 1.943a6.602 6.602 0 011.963 4.692c0 1.517.27 2.71.671 3.642.402.935 1.508 1.254 2.333 1.859 1.23.903.993 2.834-.031 3.584 0 0-1.654 1.417-9.674 1.417s-9.674-1.417-9.674-1.417c-1.024-.75-1.262-2.681-.03-3.584.824-.605 1.93-.924 2.332-1.86.4-.931.671-2.124.671-3.641 0-1.76.706-3.447 1.963-4.692z"/><path stroke="currentColor" stroke-linecap="round" stroke-linejoin="round" stroke-width="inherit" d="M11.538 2.428A6.735 6.735 0 006.8 4.371a6.602 6.602 0 00-1.963 4.692c0 1.517-.27 2.71-.671 3.642-.402.935-1.508 1.254-2.333 1.859-1.231.903-.993 2.834.031 3.584 0 0 1.654 1.417 9.674 1.417s9.674-1.417 9.674-1.417c1.032-.756 1.266-2.714 0-3.606M9.164 23.294a2.889 2.889 0 002.544 1.508c1.1 0 2.058-.61 2.544-1.508M20.192 1v9.521M15.384 5.76H25"/></g></symbol><symbol viewBox="0 0 26 25" id="affiliate-details" xmlns="http://www.w3.org/2000/svg"><g fill="none" fill-rule="evenodd" stroke="currentColor" stroke-linecap="round" stroke-linejoin="round" stroke-width="inherit"><path d="M12.966 13.677c.797 0 1.444-.64 1.444-1.427 0-.789-.647-1.428-1.444-1.428-.798 0-1.444.64-1.444 1.428 0 .788.646 1.427 1.444 1.427zm3.848-6.832a6.578 6.578 0 012.837 5.404 6.578 6.578 0 01-2.837 5.405M9.117 6.845a6.578 6.578 0 00-2.838 5.404 6.578 6.578 0 002.838 5.405"/><path d="M16.883 1C21.606 2.606 25 7.036 25 12.25s-3.394 9.644-8.117 11.25M9.117 1C4.394 2.606 1 7.036 1 12.25s3.394 9.644 8.117 11.25"/></g></symbol><symbol viewBox="0 0 26 26" id="attachment" xmlns="http://www.w3.org/2000/svg"><path fill="none" stroke="currentColor" stroke-linecap="round" stroke-linejoin="round" stroke-width="inherit" d="M12.753 9.292L7.71 14.219a2.939 2.939 0 000 4.224 3.107 3.107 0 004.322 0l8.285-8.095a5.387 5.387 0 000-7.744c-2.188-2.139-5.736-2.139-7.924 0l-9.006 8.8a7.837 7.837 0 000 11.263c3.183 3.11 8.344 3.11 11.527 0L25 12.811"/></symbol><symbol viewBox="0 0 26 26" id="bin" xmlns="http://www.w3.org/2000/svg"><g fill="none" fill-rule="evenodd" stroke="currentColor" stroke-linecap="round" stroke-width="inherit"><path d="M1 6.75h24"/><path fill="currentColor" fill-opacity=".2" stroke-linejoin="round" d="M21.62 6.75H4.373l-.123 2.233a62.895 62.895 0 00.599 12.803A3.774 3.774 0 008.58 25h8.836a3.774 3.774 0 003.732-3.214c.634-4.236.836-8.525.6-12.803l-.123-2.233h-.004z"/><path stroke-linejoin="round" d="M8.204 6.75v-.958a4.792 4.792 0 019.584 0v.96M10.12 11.884v7.945M15.87 11.884v7.945"/></g></symbol><symbol viewBox="0 0 26 26" id="brush" xmlns="http://www.w3.org/2000/svg"><g fill="none" stroke="currentColor" stroke-linecap="round" stroke-linejoin="round" stroke-width="inherit"><path fill="currentColor" fill-opacity=".2" d="M17.785 2.532L9.24 13.294l3.551 3.585 10.686-8.61a4.096 4.096 0 001.422-4.097 4.065 4.065 0 00-3.046-3.07 4.034 4.034 0 00-4.067 1.432v-.002z"/><path fill="#FFF" d="M3.134 13.715c2.843-2.864 6.398-2.147 8.53 0 2.132 2.148 2.843 5.731 0 8.595C8.821 25.175 4.642 25.5 1 24.457c2.8-2.82-.965-7.622 2.132-10.742h.002z"/></g></symbol><symbol viewBox="0 0 24 26" id="building" xmlns="http://www.w3.org/2000/svg"><g fill="none" fill-rule="evenodd" stroke="currentColor" stroke-linecap="round" stroke-linejoin="round" stroke-width="inherit"><path fill="currentColor" fill-opacity=".2" d="M1.983 4.212C.988 9.927.728 18.095 1.296 23.39A1.8 1.8 0 003.095 25h17.41a1.8 1.8 0 001.798-1.61c.57-5.295.309-13.463-.686-19.178-.242-1.397-1.304-2.453-2.672-2.652C17.008 1.278 14.268 1 11.8 1s-5.208.278-7.145.56c-1.368.199-2.43 1.255-2.672 2.652z"/><path d="M14.606 13.96h1.871"/><path fill="#FFF" d="M8.994 21.64V25h5.612v-3.36c0-1.59-1.256-2.88-2.806-2.88s-2.806 1.29-2.806 2.88z"/><path d="M7.123 8.2h1.871M14.606 8.2h1.871M7.123 13.96h1.871"/></g></symbol><symbol viewBox="0 0 25 26" id="calendar" xmlns="http://www.w3.org/2000/svg"><g fill="none" fill-rule="evenodd" stroke="currentColor"><path stroke-linecap="round" stroke-width="inherit" d="M8.268 1v4.877M16.719 1v4.877"/><path stroke-width="inherit" d="M6.605 24.86c1.883.092 3.806.14 5.895.14 2.089 0 4.012-.048 5.895-.14 2.725-.135 4.929-2.33 5.232-5.092.205-1.862.373-3.769.373-5.714 0-1.943-.17-3.851-.373-5.712-.303-2.765-2.507-4.957-5.232-5.092a119.41 119.41 0 00-5.895-.14c-2.089 0-4.012.048-5.895.14-2.725.135-4.929 2.33-5.232 5.092C1.168 10.204 1 12.111 1 14.054c0 1.945.17 3.854.373 5.714.303 2.765 2.507 4.957 5.232 5.092z"/><path stroke-width="inherit" d="M7.108 11.38a.475.475 0 01-.471-.48c0-.266.21-.48.47-.48m0 .96c.26 0 .472-.215.472-.48 0-.266-.211-.48-.471-.48"/><path stroke-width="2.4" d="M7.107 17.65a.475.475 0 01-.47-.48c0-.265.21-.48.47-.48m0 .96c.26 0 .471-.215.471-.48s-.21-.48-.47-.48M12.5 11.38a.475.475 0 01-.47-.48c0-.265.21-.48.47-.48m0 .96c.26 0 .471-.215.471-.48s-.21-.48-.47-.48M17.892 11.38a.475.475 0 01-.47-.48c0-.265.21-.48.47-.48m0 .96c.26 0 .471-.215.471-.48s-.21-.48-.47-.48"/></g></symbol><symbol viewBox="0 0 26 26" id="categories" xmlns="http://www.w3.org/2000/svg"><g fill="none" fill-rule="evenodd" stroke="currentColor" stroke-linecap="round" stroke-linejoin="round" stroke-width="inherit"><path d="M5.86 10.673a4.833 4.833 0 004.83-4.837A4.833 4.833 0 005.86 1a4.833 4.833 0 00-4.83 4.836 4.833 4.833 0 004.83 4.837z"/><path fill="currentColor" fill-opacity=".3" d="M5.83 25a4.833 4.833 0 004.83-4.836 4.833 4.833 0 00-4.83-4.837A4.833 4.833 0 001 20.164 4.833 4.833 0 005.83 25zm14.34-14.327A4.833 4.833 0 0025 5.836 4.833 4.833 0 0020.17 1a4.833 4.833 0 00-4.83 4.836 4.833 4.833 0 004.83 4.837z"/><path d="M20.14 25a4.833 4.833 0 004.83-4.836 4.833 4.833 0 00-4.83-4.837 4.833 4.833 0 00-4.83 4.837A4.833 4.833 0 0020.14 25z"/></g></symbol><symbol viewBox="0 0 26 25" id="chat" xmlns="http://www.w3.org/2000/svg"><defs><path id="ama" d="M20.218 8.87a7.86 7.86 0 00-3.94-1.056 7.88 7.88 0 00-3.334.736 7.634 7.634 0 00-2.672 2.067 7.331 7.331 0 00-1.48 2.985 7.199 7.199 0 00.008 3.312c.26 1.089.77 2.107 1.493 2.979a7.636 7.636 0 002.682 2.055 7.882 7.882 0 006.144.192l4.03.65c.542.088.987-.413.813-.916l-1.022-2.953a7.256 7.256 0 00.998-3.325 7.235 7.235 0 00-.9-3.861 7.536 7.536 0 00-2.82-2.865z"/></defs><g fill="none" fill-rule="evenodd" stroke-linecap="round" stroke-linejoin="round"><path stroke="currentColor" stroke-width="inherit" d="M6.043 2.408A10.481 10.481 0 0111.295 1c1.54 0 3.06.335 4.446.982a10.178 10.178 0 013.563 2.755 9.772 9.772 0 011.972 3.98 9.596 9.596 0 01-.01 4.416 9.776 9.776 0 01-1.99 3.972 10.182 10.182 0 01-3.575 2.74 10.52 10.52 0 01-8.193.256l-5.374.867c-.723.116-1.315-.55-1.083-1.221l1.362-3.938a9.672 9.672 0 01-1.33-4.434 9.647 9.647 0 011.2-5.147 10.05 10.05 0 013.76-3.82z"/><g transform="translate(1 1)"><use xlink:href="#ama" fill="#FFF"/><use xlink:href="#ama" fill="currentColor" fill-opacity=".2" stroke="currentColor" stroke-width="inherit"/></g></g></symbol><symbol viewBox="0 0 26 26" id="clients" xmlns="http://www.w3.org/2000/svg"><g fill="none" stroke="currentColor" stroke-linecap="round" stroke-linejoin="round" stroke-width="inherit"><path fill="#FFF" d="M5.615 8.385c2.363 0 3.693-1.33 3.693-3.693S7.978 1 5.615 1 1.923 2.33 1.923 4.692c0 2.363 1.33 3.693 3.692 3.693zm14.77 0c2.363 0 3.692-1.33 3.692-3.693S22.747 1 20.385 1c-2.364 0-3.693 1.33-3.693 3.692 0 2.363 1.33 3.693 3.693 3.693z"/><path fill="currentColor" fill-opacity=".2" d="M5.615 25C1 25 1 18.723 1 13c3.687-1.11 5.704-1.065 9.23 0 0 5.723 0 12-4.615 12zm14.77-12.923c-4.616 0-4.616 6.48-4.616 12.203 3.605.904 5.626.923 9.231 0 0-5.723 0-12.203-4.615-12.203z"/></g></symbol><symbol viewBox="0 0 25 26" id="cog" xmlns="http://www.w3.org/2000/svg"><path fill="currentColor" fill-opacity=".2" stroke="currentColor" stroke-width="inherit" d="M21.773 14.663a.424.424 0 01-.095-.268v-2.79c0-.097.034-.192.095-.268l1.315-1.613a1.813 1.813 0 00.16-2.074l-.768-1.3a1.87 1.87 0 00-.814-.74 1.92 1.92 0 00-1.1-.163l-2.083.31a.46.46 0 01-.285-.053l-2.469-1.395a.441.441 0 01-.19-.223l-.768-1.913a1.85 1.85 0 00-.69-.851A1.91 1.91 0 0013.02 1h-1.538a1.91 1.91 0 00-1.06.322 1.85 1.85 0 00-.69.85L8.96 4.087a.441.441 0 01-.189.216L6.297 5.704a.458.458 0 01-.285.053l-2.079-.31a1.92 1.92 0 00-1.099.162c-.341.161-.625.42-.814.741l-.767 1.3a1.813 1.813 0 00.16 2.074l1.314 1.613c.062.076.095.17.095.268v2.79a.423.423 0 01-.095.268l-1.315 1.613a1.813 1.813 0 00-.16 2.074l.768 1.3c.189.321.473.58.814.74.341.162.725.219 1.1.163l2.083-.31a.458.458 0 01.285.053l2.469 1.395a.44.44 0 01.19.216l.768 1.92c.137.345.378.642.69.851.313.21.682.322 1.06.322h1.534a1.91 1.91 0 001.06-.322 1.85 1.85 0 00.691-.85l.769-1.92a.44.44 0 01.189-.217l2.469-1.395a.46.46 0 01.285-.053l2.084.31c.374.056.758-.001 1.099-.162.341-.161.625-.42.814-.741l.767-1.3a1.813 1.813 0 00-.16-2.074l-1.307-1.613zm-9.523 2.194a4 4 0 01-2.189-.65 3.876 3.876 0 01-1.45-1.73 3.782 3.782 0 01-.225-2.23 3.833 3.833 0 011.078-1.974 3.966 3.966 0 012.017-1.056 4.018 4.018 0 012.277.22c.72.291 1.335.786 1.768 1.42A3.8 3.8 0 0116.189 13a3.817 3.817 0 01-1.153 2.727 3.983 3.983 0 01-2.786 1.13z"/></symbol><symbol viewBox="0 0 26 26" id="connect" xmlns="http://www.w3.org/2000/svg"><g fill="none" fill-rule="evenodd" stroke="currentColor" stroke-linecap="round" stroke-linejoin="round" stroke-width="inherit"><path d="M24.575 6.22c.57 5.223.564 8.264 0 13.538a.956.956 0 01-.16.519.897.897 0 01-.41.336L13.309 24.91l-.32.09-.322-.09-10.696-4.296a.898.898 0 01-.41-.336.957.957 0 01-.16-.519c-.54-5.21-.53-8.362 0-13.611a.93.93 0 01.017-.164.967.967 0 00.143.347c.101.152.244.27.41.336l10.696 4.296h.642l10.696-4.296a.9.9 0 00.41-.336.954.954 0 00.143-.349.853.853 0 01.017.24z"/><path fill="currentColor" fill-opacity=".2" d="M24.56 5.976a.91.91 0 00-.18-.388.842.842 0 00-.375-.297L13.309 1.07a.774.774 0 00-.642 0L1.971 5.365a.83.83 0 00-.374.223.91.91 0 00-.179.392.951.951 0 00.143.35c.101.152.244.27.41.336l10.696 4.296h.642l10.696-4.296a.9.9 0 00.41-.336.954.954 0 00.144-.354z"/><path d="M12.989 25V10.962"/></g></symbol><symbol viewBox="0 0 26 26" id="copy" xmlns="http://www.w3.org/2000/svg"><g fill="none" fill-rule="evenodd"><path fill="currentColor" fill-opacity=".2" d="M1.303 17.084a4.035 4.035 0 003.506 3.582c1.39.17 2.817.315 4.272.315s2.882-.146 4.272-.315a4.035 4.035 0 003.506-3.582c.16-1.602.303-3.25.303-4.933 0-1.683-.142-3.331-.303-4.933a4.035 4.035 0 00-3.506-3.582c-1.39-.17-2.817-.315-4.272-.315s-2.883.146-4.272.315a4.035 4.035 0 00-3.506 3.582C1.143 8.82 1 10.468 1 12.151c0 1.683.142 3.331.303 4.933z"/><path stroke="currentColor" stroke-linecap="round" stroke-width="inherit" d="M16.715 6.484a4.04 4.04 0 00-3.362-2.848c-1.39-.17-2.817-.315-4.272-.315s-2.883.146-4.272.315a4.035 4.035 0 00-3.506 3.582C1.143 8.82 1 10.468 1 12.151c0 1.683.142 3.331.303 4.933a4.035 4.035 0 003.506 3.582 53.36 53.36 0 002.047.216"/><path fill="#FFF" stroke="currentColor" stroke-width="inherit" d="M4.83 3.516c0 1.366 1.3 2.392 2.663 2.467.52.03 1.05.05 1.588.05.537 0 1.067-.02 1.588-.05 1.364-.075 2.663-1.101 2.663-2.467h0c0-1.365-1.3-2.39-2.663-2.467C10.148 1.021 9.619 1 9.08 1c-.537 0-1.067.02-1.588.05-1.364.075-2.664 1.101-2.664 2.466h0zm6.98 17.706c.175 1.854 1.654 3.371 3.505 3.581.978.111 1.976.197 2.991.197 1.015 0 2.014-.086 2.99-.197 1.852-.21 3.331-1.727 3.507-3.58.11-1.154.197-2.335.197-3.538 0-1.202-.088-2.383-.197-3.537-.176-1.854-1.655-3.37-3.506-3.58-.977-.112-1.976-.197-2.99-.197-1.016 0-2.014.085-2.992.196-1.85.21-3.33 1.727-3.506 3.581-.11 1.154-.197 2.335-.197 3.537 0 1.203.088 2.384.197 3.537z"/><path stroke="currentColor" stroke-linecap="round" stroke-width="inherit" d="M20.33 15.611h-4.047M20.33 20.165h-4.047"/></g></symbol><symbol viewBox="0 0 26 26" id="date" xmlns="http://www.w3.org/2000/svg"><g fill="none" fill-rule="evenodd"><path fill="#FFF" d="M1.39 19.768a5.777 5.777 0 005.459 5.092c1.965.092 3.972.14 6.151.14 2.18 0 4.186-.048 6.151-.14a5.779 5.779 0 005.46-5.092c.214-1.862.389-3.769.389-5.712 0-1.945-.177-3.853-.39-5.714a5.777 5.777 0 00-5.459-5.092c-1.965-.092-3.972-.14-6.151-.14-2.18 0-4.186.048-6.151.14a5.779 5.779 0 00-5.46 5.092C1.175 10.204 1 12.111 1 14.056c0 1.943.177 3.852.39 5.712z"/><path stroke="currentColor" stroke-linecap="round" stroke-width="inherit" d="M8.584 1v4.877M17.402 1v4.877"/><path fill="currentColor" fill-opacity=".2" d="M24.139 12.242H1.861l.31-7.748 10.695-.758 11.271.758v7.748z"/><path stroke="currentColor" stroke-width="inherit" d="M1.39 19.768a5.777 5.777 0 005.459 5.092c1.965.092 3.972.14 6.151.14 2.18 0 4.186-.048 6.151-.14a5.779 5.779 0 005.46-5.092c.214-1.862.389-3.769.389-5.712 0-1.945-.177-3.853-.39-5.714a5.777 5.777 0 00-5.459-5.092c-1.965-.092-3.972-.14-6.151-.14-2.18 0-4.186.048-6.151.14a5.779 5.779 0 00-5.46 5.092C1.175 10.204 1 12.111 1 14.056c0 1.943.177 3.852.39 5.712h0zM1.574 11.512h22.97"/></g></symbol><symbol viewBox="0 0 26 26" id="directions" xmlns="http://www.w3.org/2000/svg"><g fill="none" fill-rule="evenodd" stroke="currentColor" stroke-linejoin="round" stroke-width="inherit"><path fill="currentColor" fill-opacity=".2" d="M13 1c-2.251 0-4.184.108-6.132.216-.77.043-1.543.086-2.338.122-.452.021-.887.195-1.214.516C2.252 2.895 1 4.382 1 5.658 1 6.927 2.195 8.22 3.278 9.362c.355.375.838.596 1.347.62.762.036 1.503.077 2.243.118 1.948.108 3.88.216 6.132.216M13 1v9.316"/><path fill="#FFF" d="M13 9.468c2.251 0 4.184.107 6.132.216.77.043 1.543.086 2.338.122.452.021.887.195 1.214.516C23.747 11.363 25 12.85 25 14.126c0 1.269-1.195 2.562-2.278 3.704a1.985 1.985 0 01-1.347.62c-.762.036-1.503.077-2.243.118-1.948.108-3.88.216-6.132.216m0-9.316v9.316"/><path stroke-linecap="round" d="M13 1.091V25"/></g></symbol><symbol viewBox="0 0 25 26" id="document" xmlns="http://www.w3.org/2000/svg"><g fill="none" fill-rule="evenodd" stroke="currentColor" stroke-width="inherit"><path fill="currentColor" fill-opacity=".2" d="M23.24 21.168c.245-3.84.317-7.688.215-11.534a3.765 3.765 0 00-.75-2.166c-1.8-2.396-3.232-3.886-5.594-5.668a3.897 3.897 0 00-2.265-.774A121.45 121.45 0 0012.25 1c-2.775 0-5.015.08-7.33.238-1.97.13-3.536 1.667-3.661 3.594C1.085 7.552.998 10.275 1 13c0 2.8.088 5.532.258 8.168.122 1.928 1.69 3.462 3.66 3.594 2.316.158 4.556.238 7.331.238 2.775 0 5.015-.08 7.33-.238 1.97-.13 3.536-1.667 3.661-3.594z"/><path stroke-linecap="round" d="M8.351 13.032h7.796"/><path stroke-linecap="round" stroke-linejoin="round" d="M8.35 18.844h7.773M8.35 7h4.704"/></g></symbol><symbol viewBox="0 0 26 26" id="down-arrow-circle" xmlns="http://www.w3.org/2000/svg"><g fill="none" fill-rule="evenodd" stroke="currentColor" stroke-linecap="round" stroke-linejoin="round" stroke-width="inherit"><path fill="currentColor" fill-opacity=".2" d="M13 1c6.627 0 12 5.373 12 12s-5.373 12-12 12S1 19.627 1 13 6.373 1 13 1z"/><path d="M13 7.595v10.81M17.522 14.524c-1.375 1.736-2.31 2.544-3.706 3.6a1.33 1.33 0 01-1.632 0c-1.396-1.056-2.33-1.864-3.706-3.6"/></g></symbol><symbol viewBox="0 0 26 26" id="earth" xmlns="http://www.w3.org/2000/svg"><g fill="none" stroke="currentColor" stroke-linecap="round" stroke-linejoin="round" stroke-width="inherit"><path fill="currentColor" fill-opacity=".2" d="M13 25c6.627 0 12-5.373 12-12S19.627 1 13 1 1 6.373 1 13s5.373 12 12 12z"/><path fill="#FFF" d="M5.154 17.615a3.23 3.23 0 003.23-3.23v-2.77a3.23 3.23 0 013.231-3.23 3.23 3.23 0 003.231-3.231V1.14A12.092 12.092 0 0013 1C6.373 1 1 6.373 1 13c0 1.636.327 3.195.92 4.615h3.234zm19.845-4.8a6.572 6.572 0 00-2.99-.738h-3.932a3.23 3.23 0 000 6.461 2.307 2.307 0 012.307 2.308v1.606h.01A11.979 11.979 0 0025 13.072v-.143l-.001-.114z"/></g></symbol><symbol viewBox="0 0 26 26" id="edit" xmlns="http://www.w3.org/2000/svg"><defs><clipPath id="awa"><path d="M2387 0v1000H0V0h2387z"/></clipPath><clipPath id="awb"><path d="M8.115.984C9.26-.312 11.358-.33 12.8.944c1.479 1.306 1.692 3.452.47 4.735l-7.353 7.725-4.564 1.433c-.721.226-1.49-.472-1.333-1.208l.975-4.58z"/></clipPath></defs><g clip-path="url(#awa)" transform="translate(-2306 -376)"><path fill="none" stroke="currentColor" stroke-linecap="round" stroke-miterlimit="10" stroke-width="inherit" d="M2315.934 380.12c-1.68.076-3.327.26-4.933.445a4.042 4.042 0 00-3.543 3.545c-.233 2.081-.458 4.232-.458 6.432s.225 4.35.458 6.432a4.042 4.042 0 003.543 3.545c2.095.242 4.26.48 6.474.48 2.214 0 4.379-.238 6.473-.48a4.042 4.042 0 003.544-3.545c.167-1.497.33-3.03.409-4.592"/><g clip-path="url(#awb)" transform="translate(2316.935 377)"><path fill="#FFF" d="M0 0h14.065v14.88H0V0z"/></g><path fill="none" stroke="currentColor" stroke-linecap="round" stroke-linejoin="round" stroke-width="inherit" d="M2325.05 377.984l-7.12 8.065-.974 4.58c-.157.736.612 1.434 1.333 1.208l4.564-1.433 7.354-7.725c1.22-1.283 1.008-3.429-.47-4.734-1.444-1.275-3.542-1.257-4.687.04z"/></g></symbol><symbol viewBox="0 0 26 26" id="files" xmlns="http://www.w3.org/2000/svg"><g fill="none" stroke="currentColor" stroke-width="inherit"><path fill="currentColor" fill-opacity=".2" d="M18.082 21.991c.187-2.992.242-5.992.164-8.99a2.99 2.99 0 00-.58-1.7c-1.38-1.868-2.478-3.032-4.289-4.422a2.98 2.98 0 00-1.748-.607c-.63-.013-1.288-.019-1.989-.019-2.127 0-3.841.062-5.617.183a3.028 3.028 0 00-2.826 2.822c-.132 2.12-.198 4.244-.197 6.369 0 2.18.068 4.31.197 6.364a3.025 3.025 0 002.826 2.823c1.776.123 3.49.186 5.617.186 2.124 0 3.842-.063 5.616-.184a3.028 3.028 0 002.826-2.823v-.002z"/><path fill="#FFF" d="M24.801 16.74c.188-2.993.243-5.993.164-8.991a2.99 2.99 0 00-.579-1.701c-1.38-1.868-2.478-3.03-4.289-4.42a2.966 2.966 0 00-1.749-.607A92.758 92.758 0 0016.36 1c-2.127 0-3.842.063-5.617.184a3.028 3.028 0 00-2.827 2.823c-.132 2.12-.197 4.243-.196 6.366 0 2.183.067 4.313.196 6.367a3.026 3.026 0 002.827 2.823c1.775.122 3.49.186 5.617.186 2.123 0 3.841-.064 5.615-.185a3.028 3.028 0 002.826-2.822v-.002z"/></g></symbol><symbol viewBox="0 0 26 26" id="flight" xmlns="http://www.w3.org/2000/svg"><g fill="none" fill-rule="evenodd"><path fill="currentColor" fill-opacity=".2" d="M12.805 12.261c.515.912 1.598 1.455 2.613 1.33 1.16-.141 1.868-1.107 1.606-2.217-.103-.435-.22-.921-.347-1.44l.566.132c1.042 1.342 1.636 3.117 1.739 5.28h-5.176c-.642 0-1.259.255-1.713.708a2.409 2.409 0 000 3.412c.454.453 1.07.707 1.713.707.46 0 .9.182 1.224.505.324.324.507.762.507 1.22v1.199l.21.336C14.287 24.46 12.354 25 10 25c-4.457 0-7.405-1.933-8.51-5.465l-.006-.018.21-.033h2.422c.643 0 1.259-.254 1.713-.707.455-.453.71-1.066.71-1.706v-2.069c0-.64.255-1.254.71-1.707a2.428 2.428 0 011.713-.706c.642 0 1.258-.255 1.713-.707.454-.453.71-1.067.71-1.707v-.51c.516.977 1.017 1.883 1.42 2.596z"/><path stroke="currentColor" stroke-linecap="round" stroke-linejoin="round" stroke-width="inherit" d="M1.692 19.484h2.423c.643 0 1.259-.254 1.713-.707.455-.453.71-1.066.71-1.706v-2.069c0-.64.255-1.254.71-1.707m4.135 4.465c0 .64.256 1.254.71 1.706.454.453 1.07.707 1.713.707.46 0 .9.182 1.224.505.324.323.507.762.507 1.22v1.199l.21.336"/><path fill="currentColor" fill-opacity=".2" stroke="currentColor" stroke-linejoin="round" stroke-width="inherit" d="M3.672 4.144c-.174 1.356.793 2.638 2.1 3.02 1.512.44 3.24.9 5.015 1.348a97.142 97.142 0 002.018 3.749c.515.912 1.598 1.455 2.613 1.33 1.16-.141 1.868-1.107 1.606-2.217-.103-.435-.22-.921-.347-1.44 1.883.438 3.572.816 4.81 1.089 1.12.246 2.16-.442 2.404-1.546.029-.069.054-.14.075-.214.4-1.427.753-3.133.995-4.407.205-1.078-.42-2.161-1.443-2.549-1.022-.387-2.138.037-2.604 1.016-.32.673-.696 1.485-1.056 2.32-2.944-1.305-6.926-3.01-10.403-4.298-2.567-.95-5.436.086-5.783 2.799z"/><path stroke="currentColor" stroke-linecap="round" stroke-linejoin="round" stroke-width="inherit" d="M18.998 16.036c0 5.737-3.24 8.964-9 8.964C4.24 25 1 21.773 1 16.036c0-2.178.467-3.994 1.361-5.41"/></g></symbol><symbol viewBox="0 0 24 24" id="food" xmlns="http://www.w3.org/2000/svg"><path fill="currentColor" fill-rule="evenodd" d="M5.845 0c.711 0 1.288.583 1.288 1.302v8.257A3.31 3.31 0 009.12 6.515V1.492c0-.72.577-1.302 1.288-1.302.711 0 1.288.583 1.288 1.302v5.023a5.907 5.907 0 01-4.134 5.654v10.095c0 .959-.769 1.736-1.717 1.736a1.726 1.726 0 01-1.717-1.736V12.167A5.907 5.907 0 010 6.515V1.492C0 .772.576.19 1.288.19c.71 0 1.287.583 1.287 1.302v5.023a3.31 3.31 0 001.983 3.041V1.302C4.558.582 5.134 0 5.845 0zM24 1.462a.872.872 0 00-.269-.63.853.853 0 00-.637-.237c-3.173.18-5.75 1.255-7.53 3.223-1.775 1.963-2.657 4.707-2.657 8.032s.882 6.07 2.657 8.033c1.78 1.968 4.357 3.043 7.53 3.222a.853.853 0 00.637-.236.872.872 0 00.269-.63v-1.631a.694.694 0 00-.69-.699c-.035 0-.068-.001-.102-.004-2.17-.21-3.98-1.01-5.24-2.44-1.259-1.429-1.86-3.36-1.86-5.614 0-2.256.601-4.186 1.86-5.614 1.26-1.431 3.07-2.232 5.24-2.44.034-.003.067-.005.101-.005.382 0 .691-.313.691-.698V1.462zm0 15.632a.642.642 0 01-.638.646c-1.741-.177-2.98-.797-3.792-1.719-.822-.933-1.316-2.3-1.316-4.17s.494-3.238 1.316-4.171c.812-.921 2.051-1.542 3.792-1.719.352 0 .638.29.638.646v10.487z"/></symbol><symbol viewBox="0 0 26 26" id="grid" xmlns="http://www.w3.org/2000/svg"><path fill="currentColor" fill-opacity=".2" stroke="currentColor" stroke-width="inherit" d="M15.821 8.03a2.325 2.325 0 002.059 2.036c.796.089 1.617.165 2.454.165.835 0 1.656-.076 2.454-.165 1.076-.117 1.942-.973 2.057-2.037.083-.787.155-1.592.155-2.413 0-.822-.072-1.628-.155-2.414-.117-1.063-.98-1.92-2.057-2.039A22.36 22.36 0 0020.334 1c-.837 0-1.656.077-2.456.163-1.076.12-1.942.976-2.057 2.04-.083.785-.155 1.59-.155 2.413 0 .821.072 1.628.155 2.413h0zm-14.666 0a2.325 2.325 0 002.059 2.036c.796.089 1.617.165 2.452.165.837 0 1.656-.076 2.456-.165 1.076-.117 1.942-.973 2.057-2.037.083-.787.155-1.592.155-2.413 0-.822-.072-1.628-.155-2.414-.117-1.063-.98-1.92-2.059-2.039-.813-.1-1.632-.154-2.452-.163-.835 0-1.656.077-2.454.163-1.078.12-1.942.976-2.059 2.04C1.072 3.987 1 4.792 1 5.615c0 .821.072 1.628.155 2.413zm0 14.768c.117 1.063.98 1.92 2.059 2.039.813.1 1.632.154 2.452.163.837 0 1.656-.077 2.456-.163 1.076-.12 1.942-.976 2.057-2.04.083-.785.155-1.59.155-2.413 0-.821-.072-1.628-.155-2.413a2.325 2.325 0 00-2.059-2.037c-.814-.1-1.633-.155-2.454-.165-.835 0-1.656.076-2.454.165-1.076.117-1.942.973-2.057 2.037-.083.785-.155 1.592-.155 2.413 0 .822.072 1.628.155 2.414zm14.666 0c.117 1.063.98 1.92 2.059 2.039.814.1 1.633.154 2.454.163.835 0 1.656-.077 2.454-.163 1.076-.12 1.942-.976 2.057-2.04.083-.785.155-1.59.155-2.413 0-.821-.072-1.628-.155-2.413a2.325 2.325 0 00-2.057-2.037c-.814-.1-1.633-.155-2.454-.165-.837 0-1.656.076-2.456.165-1.076.117-1.942.973-2.057 2.037-.083.785-.155 1.592-.155 2.413 0 .822.072 1.628.155 2.414h0z"/></symbol><symbol viewBox="0 0 26 26" id="hide-eye" xmlns="http://www.w3.org/2000/svg"><g fill="none" fill-rule="evenodd"><path fill="currentColor" fill-opacity=".2" d="M25 13.5c0 2.1-5.373 9.5-12 9.5S1 15.6 1 13.5C1 11.4 6.373 4 13 4s12 7.4 12 9.5z"/><path stroke="currentColor" stroke-linejoin="round" stroke-width="inherit" d="M19.853 6.559C17.91 5.093 15.548 4 13 4 6.373 4 1 11.4 1 13.5c0 1.337 2.176 4.82 5.467 7.176"/><path stroke="currentColor" stroke-linecap="round" stroke-linejoin="round" stroke-width="inherit" d="M23.17 9.85C24.33 11.355 25 12.758 25 13.5c0 2.1-5.373 9.5-12 9.5-.841 0-1.663-.12-2.455-.332"/><path fill="currentColor" d="M13.158 8.25c-2.869 0-5.195 2.423-5.195 5.412 0 1.679.734 3.179 1.885 4.171l7.292-7.648c-.953-1.183-2.383-1.935-3.982-1.935z"/><path stroke="currentColor" stroke-linecap="round" stroke-linejoin="round" stroke-width="inherit" d="M24.04 1C16.25 11.395 11.193 16.606 1 25"/></g></symbol><symbol viewBox="0 0 26 26" id="image" xmlns="http://www.w3.org/2000/svg"><g fill="none" fill-rule="evenodd"><path fill="currentColor" fill-opacity=".2" stroke="currentColor" stroke-width="inherit" d="M10.211 1c2.383 0 4.7.263 6.92.472a1.99 1.99 0 011.785 1.713c.187 1.4.395 3.594.474 5.388a43.874 43.874 0 00-3.601-.166c-2.383 0-4.7.263-6.92.471a1.99 1.99 0 00-1.785 1.713c-.236 1.772-.507 3.617-.507 5.512 0 .446.015.888.041 1.327-1.129-.091-2.24-.206-3.326-.308a1.99 1.99 0 01-1.785-1.713C1.27 13.637 1 11.792 1 9.897c0-1.896.27-4.94.507-6.712a1.99 1.99 0 011.785-1.713C5.512 1.263 7.828 1 10.212 1z"/><path fill="currentColor" d="M12.04 16.291c1.06 0 1.92-.855 1.92-1.91 0-1.054-.86-1.91-1.92-1.91s-1.92.856-1.92 1.91c0 1.055.86 1.91 1.92 1.91z"/><path stroke="currentColor" stroke-width="inherit" d="M7.084 22.815a1.99 1.99 0 001.785 1.713c2.22.209 4.537.472 6.92.472s4.7-.263 6.919-.472a1.99 1.99 0 001.785-1.713c.236-1.772.507-3.616.507-5.512 0-1.895-.27-4.94-.507-6.712a1.99 1.99 0 00-1.785-1.713c-2.22-.208-4.536-.471-6.92-.471-2.382 0-4.7.263-6.919.471a1.99 1.99 0 00-1.785 1.713c-.236 1.772-.507 4.817-.507 6.712 0 1.896.27 3.74.507 5.512z"/><path fill="currentColor" fill-opacity=".2" stroke="currentColor" stroke-linecap="round" stroke-linejoin="round" stroke-width="inherit" d="M24.89 19.55c-1.521-1.367-3.197-2.304-4.908-2.304-3.516 0-6.887 3.96-9.067 7.478 1.586.148 3.214.276 4.874.276 2.042 0 4.036-.193 5.961-.38l.958-.092a1.99 1.99 0 001.785-1.713l.059-.437c.124-.924.251-1.868.338-2.827z"/></g></symbol><symbol viewBox="0 0 26 26" id="layout" xmlns="http://www.w3.org/2000/svg"><g fill="none" fill-rule="evenodd"><path fill="#FFF" d="M1.403 19.276c.296 2.766 2.52 4.99 5.285 5.299C8.742 24.803 10.85 25 13 25c2.15 0 4.258-.197 6.312-.425 2.764-.309 4.99-2.533 5.285-5.3.218-2.041.403-4.138.403-6.275 0-2.137-.185-4.234-.403-6.276-.296-2.766-2.52-4.99-5.285-5.299C17.258 1.197 15.15 1 13 1c-2.15 0-4.258.197-6.312.425-2.764.309-4.99 2.533-5.285 5.3C1.184 8.765 1 10.862 1 13c0 2.137.184 4.234.403 6.276z"/><path fill="currentColor" fill-opacity=".2" stroke="currentColor" stroke-width="inherit" d="M5.936 10.995c.094.922.84 1.668 1.761 1.766.543.058 1.099.104 1.664.104s1.12-.046 1.663-.104a1.995 1.995 0 001.762-1.766c.055-.54.098-1.092.098-1.653 0-.562-.043-1.114-.098-1.653a1.995 1.995 0 00-1.762-1.766 15.646 15.646 0 00-1.663-.105c-.565 0-1.12.047-1.664.105a1.995 1.995 0 00-1.761 1.766c-.055.54-.099 1.091-.099 1.653 0 .561.044 1.113.099 1.653z"/><path stroke="currentColor" stroke-linecap="round" stroke-width="inherit" d="M18.786 1.368c.712.077 1.417.159 2.116.24a4.016 4.016 0 013.52 3.525c.077.694.156 1.395.229 2.103m-5.865 17.392c.712-.077 1.417-.16 2.116-.24a4.016 4.016 0 003.52-3.525c.077-.695.156-1.396.229-2.103M7.24 1.368c-.712.077-1.418.159-2.116.24a4.016 4.016 0 00-3.52 3.525c-.077.694-.156 1.395-.229 2.103M7.24 24.628c-.712-.077-1.418-.16-2.116-.24a4.016 4.016 0 01-3.52-3.525 237.22 237.22 0 01-.229-2.103"/><path stroke="currentColor" stroke-linecap="round" stroke-linejoin="round" stroke-width="inherit" d="M6.481 17.248v2.934h2.88M20.11 20.182v-2.934h-2.88M20.163 12.955h-2.88M12.884 20.154v-2.879M20.11 9.342V6.408h-2.88"/></g></symbol><symbol viewBox="0 0 26 21" id="list" xmlns="http://www.w3.org/2000/svg"><g fill="none" fill-rule="evenodd" stroke="currentColor" stroke-linecap="round" stroke-linejoin="round" stroke-width="inherit"><path d="M11.8 1.975H25M11.8 10.75H25M11.8 19.525H25M1 1.975h4.8M1 10.75h4.8M1 19.525h4.8"/></g></symbol><symbol viewBox="0 0 24 24" id="location" xmlns="http://www.w3.org/2000/svg"><path fill="currentColor" d="M12.917 23.985a1.78 1.78 0 00.878-.343c.3-.23.536-.533.684-.88l9.235-20.04c.233-.495.324-.939.271-1.337a1.512 1.512 0 00-.477-.96 1.704 1.704 0 00-1.015-.42 2.53 2.53 0 00-1.323.278L1.124 9.595c-.324.14-.603.363-.81.648-.178.25-.285.544-.309.85-.022.293.029.588.149.857.12.273.317.492.588.662.271.168.612.257 1.027.264l9.094.04c.172 0 .256.082.256.246l.017 9.08c-.011.354.078.704.257 1.009.319.525.917.814 1.526.737l-.002-.003z"/></symbol><symbol viewBox="0 0 26 22" id="logout" xmlns="http://www.w3.org/2000/svg"><g fill="none" fill-rule="evenodd"><path fill="currentColor" fill-opacity=".2" d="M1.338 18.418c.105.914.857 1.64 1.803 1.745 4.082.45 7.893.45 11.976 0 .945-.104 1.698-.83 1.803-1.745.45-3.92.45-11.416 0-15.336-.105-.914-.858-1.64-1.803-1.745a53.323 53.323 0 00-11.976 0c-.946.104-1.698.83-1.803 1.745-.45 3.92-.45 11.416 0 15.336z"/><path stroke="currentColor" stroke-linecap="round" stroke-width="inherit" d="M16.92 3.082c-.105-.914-.858-1.64-1.803-1.745a53.323 53.323 0 00-11.976 0c-.946.104-1.698.83-1.803 1.745-.45 3.92-.45 11.416 0 15.336.105.914.857 1.64 1.803 1.745 4.082.45 7.893.45 11.976 0 .945-.104 1.698-.83 1.803-1.745"/><path stroke="currentColor" stroke-linecap="round" stroke-linejoin="round" stroke-width="inherit" d="M10.321 10.75H25M21.016 15.236c1.782-1.363 2.611-2.292 3.696-3.675a1.285 1.285 0 000-1.621c-1.085-1.384-1.914-2.312-3.696-3.675"/></g></symbol><symbol viewBox="0 0 26 26" id="luggage" xmlns="http://www.w3.org/2000/svg"><g fill="none" fill-rule="evenodd" stroke="currentColor" stroke-linejoin="round" stroke-width="inherit"><path fill="currentColor" fill-opacity=".2" d="M1.39 21.478c.249 1.687 1.693 2.907 3.391 3.05C7.43 24.753 10.18 25 13 25c2.862 0 5.632-.158 8.32-.406 1.652-.153 3.01-1.385 3.256-3.026.26-1.733.424-3.516.424-5.347 0-1.85-.15-3.667-.415-5.417-.243-1.609-1.578-2.806-3.198-2.958A89.178 89.178 0 0013 7.442c-2.898 0-5.732.14-8.444.4-1.592.151-2.906 1.323-3.147 2.904A36.414 36.414 0 001 16.221c0 1.8.139 3.552.39 5.257z"/><path stroke-linecap="round" d="M8.385 24.814V7.601M17.615 24.859V7.601M18.48 7.571v-1.09a5.482 5.482 0 00-9.355-3.875 5.482 5.482 0 00-1.606 3.876v1.09"/></g></symbol><symbol viewBox="0 0 26 26" id="money" xmlns="http://www.w3.org/2000/svg"><g fill="none" fill-rule="evenodd"><path fill="currentColor" fill-opacity=".2" d="M8.309 1c3.49 0 5.814.734 6.726 2.08.285.423.432.902.432 1.442 0 1.531-1.192 2.607-3.394 3.14l-.002 10.676c-1.224.18-2.483.332-3.764.332-.723 0-1.438-.048-2.145-.122-.44-.048-.878-.103-1.315-.166a4.187 4.187 0 01-3.556-3.778C1.14 12.784 1 10.912 1 8.996c0-1.305.064-2.936.154-4.28a2.6 2.6 0 01-.007-.194C1.147 2.268 3.725 1 8.309 1z"/><path stroke="currentColor" stroke-linecap="round" stroke-linejoin="round" stroke-width="inherit" d="M1.19 4.194A70.126 70.126 0 001 8.996c0 1.916.14 3.79.291 5.608a4.187 4.187 0 003.554 3.78c.36.048.719.096 1.082.138"/><path stroke="currentColor" stroke-linecap="round" stroke-width="inherit" d="M5.357 13.406C3.057 13.23 1.21 11.84 1 10.15"/><path stroke="currentColor" stroke-linecap="round" stroke-linejoin="round" stroke-width="inherit" d="M5.755 7.886c-2.976-.402-4.608-1.572-4.608-3.364C1.147 2.268 3.725 1 8.309 1c3.49 0 5.814.734 6.726 2.08"/><path stroke="currentColor" stroke-linejoin="round" stroke-width="inherit" d="M10.578 10.524a70.126 70.126 0 00-.191 4.802c0 1.916.14 3.79.29 5.608a4.187 4.187 0 003.555 3.78v-.002c1.13.16 2.287.288 3.461.288 1.177 0 2.332-.128 3.462-.288a4.187 4.187 0 003.554-3.778c.152-1.82.291-3.692.291-5.608 0-1.634-.1-3.238-.225-4.802"/><path stroke="currentColor" stroke-linecap="round" stroke-width="inherit" d="M25 16.48c-.207 1.69-2.056 3.08-4.357 3.256a38.54 38.54 0 01-2.95.128c-.998 0-1.983-.054-2.95-.128-2.298-.176-4.147-1.566-4.356-3.256"/><path fill="currentColor" fill-opacity=".3" stroke="currentColor" stroke-linecap="round" stroke-linejoin="round" stroke-width="inherit" d="M17.693 14.372c4.582 0 7.16-1.268 7.16-3.52 0-2.254-2.578-3.52-7.16-3.52-4.582 0-7.16 1.266-7.16 3.52 0 2.252 2.578 3.52 7.16 3.52z"/></g></symbol><symbol viewBox="0 0 26 26" id="new-notification" xmlns="http://www.w3.org/2000/svg"><g fill="none" fill-rule="evenodd" transform="translate(1 1)"><path fill="currentColor" fill-opacity=".2" d="M5.868 2.52A6.717 6.717 0 0110.663.495c1.798 0 3.522.728 4.794 2.023a6.976 6.976 0 011.986 4.886c0 1.58.274 2.821.679 3.792.406.974 1.525 1.306 2.36 1.936 1.246.94 1.005 2.951-.031 3.732 0 0-1.674 1.476-9.788 1.476-8.115 0-9.788-1.476-9.788-1.476-1.037-.781-1.278-2.792-.032-3.732.835-.63 1.954-.962 2.36-1.936.405-.97.68-2.213.68-3.792 0-1.833.714-3.59 1.985-4.886z"/><path stroke="currentColor" stroke-linecap="round" stroke-linejoin="round" stroke-width="inherit" d="M9.935.536a6.73 6.73 0 00-4.067 1.983 6.976 6.976 0 00-1.986 4.886c0 1.58-.274 2.821-.679 3.792-.406.974-1.525 1.306-2.36 1.936-1.246.94-1.005 2.951.032 3.732 0 0 1.673 1.476 9.788 1.476 8.114 0 9.788-1.476 9.788-1.476.41-.31.696-.812.814-1.365M8.26 22.223a2.912 2.912 0 002.574 1.57 2.912 2.912 0 002.573-1.57"/><ellipse cx="19.135" cy="4.957" fill="#FFF" stroke="currentColor" stroke-width="inherit" rx="4.865" ry="4.957"/></g></symbol><symbol viewBox="0 0 24 24" id="notes" xmlns="http://www.w3.org/2000/svg"><path fill="currentColor" d="M22.612 3C23.382 3 24 2.332 24 1.5S23.382 0 22.612 0H1.388C.618 0 0 .668 0 1.5S.618 3 1.388 3h21.224zm-8.085 7a1.5 1.5 0 001.515-1.5c0-.844-.67-1.5-1.515-1.5H1.503A1.49 1.49 0 000 8.5C0 9.332.67 10 1.503 10h13.024zm8.085 7c.77 0 1.388-.668 1.388-1.5s-.618-1.5-1.388-1.5H1.388C.618 14 0 14.668 0 15.5S.618 17 1.388 17h21.224zm-8.085 7a1.5 1.5 0 001.515-1.506c0-.829-.67-1.494-1.515-1.494H1.503C.67 21 0 21.665 0 22.494 0 23.334.67 24 1.503 24h13.024z"/></symbol><symbol viewBox="0 0 27 26" id="notification" xmlns="http://www.w3.org/2000/svg"><g fill="none" fill-rule="evenodd" stroke="currentColor" stroke-linecap="round" stroke-linejoin="round" stroke-width="inherit"><path fill="currentColor" fill-opacity=".2" d="M7.604 3.16A7.769 7.769 0 0113 1c2.024 0 3.965.777 5.396 2.16a7.248 7.248 0 012.235 5.212c0 1.686.308 3.01.764 4.047.457 1.039 1.716 1.393 2.656 2.065 1.402 1.003 1.131 3.15-.035 3.982 0 0-1.884 1.575-11.016 1.575-9.133 0-11.016-1.575-11.016-1.575-1.166-.833-1.437-2.979-.035-3.982.94-.672 2.199-1.026 2.656-2.065.456-1.036.764-2.361.764-4.047 0-1.955.804-3.83 2.235-5.213z"/><path d="M10.393 23.294A2.972 2.972 0 0013 24.802c1.128 0 2.109-.61 2.607-1.508"/></g></symbol><symbol viewBox="0 0 24 24" id="other" xmlns="http://www.w3.org/2000/svg"><path fill="currentColor" fill-rule="evenodd" d="M12.412 21.409a1.291 1.291 0 11.111 2.58 12.267 12.267 0 01-1.046 0 1.291 1.291 0 01.11-2.58 9.625 9.625 0 00.825 0zm-7.356-3.047c.186.202.38.396.582.582a1.291 1.291 0 01-1.745 1.903 12.083 12.083 0 01-.74-.74 1.291 1.291 0 111.903-1.745zm15.712-.079c.526.482.561 1.299.08 1.824-.237.258-.483.504-.74.74a1.291 1.291 0 11-1.746-1.903 9.45 9.45 0 00.582-.582 1.291 1.291 0 011.824-.079zM12 6a6 6 0 110 12 6 6 0 010-12zm0 2.4a3.6 3.6 0 100 7.2 3.6 3.6 0 000-7.2zm10.643 1.842a1.291 1.291 0 011.346 1.235 12.272 12.272 0 010 1.046 1.291 1.291 0 01-2.58-.11 9.63 9.63 0 000-.825 1.291 1.291 0 011.234-1.346zm-21.286 0c.712.031 1.265.633 1.234 1.346a9.58 9.58 0 000 .824 1.291 1.291 0 01-2.58.111 12.19 12.19 0 010-1.046 1.291 1.291 0 011.346-1.235zm4.36-7.01a1.291 1.291 0 01-.08 1.824c-.201.186-.395.38-.58.582a1.291 1.291 0 01-1.904-1.745c.236-.258.482-.504.74-.74a1.291 1.291 0 011.824.079zm14.39-.08c.258.237.504.483.74.74a1.291 1.291 0 01-1.903 1.746 9.466 9.466 0 00-.582-.582 1.291 1.291 0 111.745-1.903zM12 0c.175 0 .35.004.523.011a1.291 1.291 0 11-.11 2.58 9.596 9.596 0 00-.825 0 1.291 1.291 0 11-.111-2.58C11.651.004 11.825 0 12 0z"/></symbol><symbol viewBox="0 0 25 26" id="paste" xmlns="http://www.w3.org/2000/svg"><g fill="none" stroke="currentColor" stroke-linejoin="round" stroke-width="inherit"><path fill="#FFF" d="M1.068 22.074c.675-2.751.871-5.749.871-6.674h19.686c1.116 1.713 1.609 5.3 1.789 7.684A1.78 1.78 0 0121.625 25h-3.75v-3.84C15.63 25 12.252 25 12.252 25H3.098c-1.393 0-2.37-1.542-2.03-2.926h0z"/><path fill="currentColor" fill-opacity=".2" stroke-linecap="round" d="M9.214 10.12C8.82 8.33 8.5 6.39 8.5 4.84c0-3.072 2.5-3.84 3.75-3.84s3.75.768 3.75 3.84c0 1.55-.319 3.49-.713 5.28h4.462c3 0 3.75 2.56 3.75 3.84 0 1.06-.84 1.92-1.875 1.92H2.877c-1.036 0-1.875-.86-1.875-1.92 0-1.28.75-3.84 3.75-3.84h4.462z"/></g></symbol><symbol viewBox="0 0 23 26" id="payments" xmlns="http://www.w3.org/2000/svg"><g fill="none" fill-rule="evenodd" stroke="currentColor" stroke-width="inherit"><path stroke-linecap="round" d="M11.5 25c2.24 0 4.428-.279 6.545-.559a4.011 4.011 0 003.449-3.574c.249-2.539.506-5.17.506-7.867 0-1.586-.089-3.149-.213-4.684-.298-3.693-3.232-6.778-6.9-7.135A34.958 34.958 0 0011.5 1c-2.24 0-4.428.279-6.545.559a4.011 4.011 0 00-3.449 3.574"/><path fill="currentColor" fill-opacity=".2" stroke-linejoin="round" d="M13.497 4.84v4.194h4.685c2.084 0 3.778 1.678 3.817 3.765a59.017 59.017 0 00-.212-4.483c-.298-3.693-3.232-6.778-6.9-7.135A34.958 34.958 0 0011.5 1c-.447 0-.891.011-1.333.031a3.833 3.833 0 013.33 3.809z"/><path stroke-linecap="round" stroke-linejoin="round" d="M13.051 19.399h3.779M13.051 14.719h3.779M7.205 13.051s-1.167-1.341-3.058-1.173c-1.892.167-2.804 1.366-2.804 2.568 0 3.506 5.862 1.076 5.862 4.672 0 1.853-3.889 3.161-6.205.98"/><path stroke-linecap="round" d="M4.378 9.52v2.343M4.378 21.217v2.343"/></g></symbol><symbol viewBox="0 0 26 24" id="people" xmlns="http://www.w3.org/2000/svg"><g fill="none" fill-rule="evenodd" stroke="currentColor" stroke-width="inherit"><path stroke-linecap="round" stroke-linejoin="round" d="M17.608 12.016c2.226.001 4.136-1.604 4.538-3.815.402-2.211-.818-4.397-2.9-5.194"/><path fill="currentColor" fill-opacity=".2" stroke-linecap="round" stroke-linejoin="round" d="M14.845 6.046c0-2.787-2.238-5.046-5-5.046-2.76 0-4.998 2.26-4.998 5.046 0 2.787 2.238 5.047 4.999 5.047 2.76 0 4.999-2.26 4.999-5.047z"/><path fill="currentColor" fill-opacity=".2" stroke-linejoin="round" d="M17.506 18.185c2.445 1.644.794 4.813-2.146 4.813H4.328c-2.938 0-4.59-3.17-2.144-4.813a13.682 13.682 0 017.662-2.335c2.832 0 5.468.86 7.662 2.335h-.002z"/><path stroke-linecap="round" d="M14.935 23h6.995c2.71 0 4.233-2.927 1.978-4.445a12.69 12.69 0 00-1.98-1.087"/></g></symbol><symbol viewBox="0 0 26 26" id="phone" xmlns="http://www.w3.org/2000/svg"><g fill="none" fill-rule="evenodd" stroke="currentColor" stroke-width="inherit"><path fill="currentColor" fill-opacity=".2" stroke-linejoin="round" d="M7.268 7.156c-1.37-1.213-3.379-.996-4.459.49-.162.223-.356.483-.609.804-1.602 2.035-1.602 4.982.009 7.01 1.189 1.497 2.435 3.007 3.829 4.423 1.393 1.415 2.88 2.681 4.354 3.889a5.477 5.477 0 006.9.009c.356-.288.634-.502.87-.676 1.417-1.052 1.658-3.023.51-4.373a51.9 51.9 0 00-1.624-1.794c-.755-.807-2.05-.897-2.877-.167-.146.129-.33.298-.585.541-2.292-1.383-3.68-2.811-5.018-5.097.244-.264.413-.453.54-.602.718-.84.63-2.152-.17-2.911a65.22 65.22 0 00-1.67-1.546z"/><path stroke-linecap="round" d="M18.943 11.234a5.079 5.079 0 00-1.727-2.926 4.937 4.937 0 00-3.295-1.157M25 10.217a11.461 11.461 0 00-3.898-6.603 11.142 11.142 0 00-7.434-2.61"/></g></symbol><symbol viewBox="0 0 26 26" id="plus-square" xmlns="http://www.w3.org/2000/svg"><g fill="none" fill-rule="evenodd" stroke="currentColor" stroke-width="inherit"><path d="M1.403 19.275a6.013 6.013 0 005.286 5.299c2.054.23 4.16.426 6.311.426 2.15 0 4.259-.196 6.311-.426a6.013 6.013 0 005.286-5.3c.219-2.04.403-4.137.403-6.274 0-2.137-.184-4.234-.403-6.276a6.013 6.013 0 00-5.286-5.3C17.257 1.198 15.151 1 13 1c-2.15 0-4.259.196-6.311.426a6.013 6.013 0 00-5.286 5.3C1.184 8.763 1 10.86 1 13c0 2.139.184 4.234.403 6.275z"/><path stroke-linecap="round" d="M13 8.2v9.6M17.8 13H8.2"/></g></symbol><symbol viewBox="0 0 26 26" id="question-mark-square" xmlns="http://www.w3.org/2000/svg"><g fill="none" fill-rule="evenodd" transform="translate(1 1)"><path fill="currentColor" fill-opacity=".2" stroke="currentColor" stroke-width="inherit" d="M.403 18.276c.296 2.766 2.52 4.99 5.285 5.299C7.742 23.803 9.85 24 12 24c2.15 0 4.258-.197 6.312-.425 2.764-.309 4.99-2.533 5.285-5.3.218-2.041.403-4.138.403-6.275 0-2.137-.185-4.234-.403-6.276-.296-2.766-2.52-4.99-5.285-5.299C16.258.197 14.15 0 12 0 9.85 0 7.742.197 5.688.425 2.924.734.698 2.958.403 5.725.184 7.765 0 9.862 0 12c0 2.137.184 4.234.403 6.276z"/><path stroke="currentColor" stroke-linecap="round" stroke-linejoin="round" stroke-width="inherit" d="M9.607 9.394c0-1.486 1.403-2.637 2.861-2.347a2.439 2.439 0 011.881 1.88c.185.93-.23 1.612-1.018 2.138-.849.567-1.33.93-1.33 1.521"/><circle cx="12" cy="16.338" r="1.62" fill="currentColor"/></g></symbol><symbol viewBox="0 0 26 26" id="reject" xmlns="http://www.w3.org/2000/svg"><g fill="none" fill-rule="evenodd"><path fill="currentColor" d="M1.403 18.855c.296 2.713 2.52 4.895 5.285 5.197a57.39 57.39 0 0012.624 0c2.764-.302 4.99-2.484 5.285-5.197.218-2.003.403-4.059.403-6.155s-.185-4.152-.403-6.155c-.296-2.713-2.52-4.895-5.285-5.197a57.38 57.38 0 00-12.624 0c-2.764.302-4.99 2.484-5.285 5.197C1.184 8.548 1 10.604 1 12.7s.184 4.152.403 6.155z" opacity=".2"/><path stroke="currentColor" stroke-width="inherit" d="M1.403 18.855c.296 2.713 2.52 4.895 5.285 5.197a57.39 57.39 0 0012.624 0c2.764-.302 4.99-2.484 5.285-5.197.218-2.003.403-4.059.403-6.155s-.185-4.152-.403-6.155c-.296-2.713-2.52-4.895-5.285-5.197a57.38 57.38 0 00-12.624 0c-2.764.302-4.99 2.484-5.285 5.197C1.184 8.548 1 10.604 1 12.7s.184 4.152.403 6.155z"/><path stroke="currentColor" stroke-linecap="round" stroke-width="inherit" d="M17.325 8.459l-8.648 8.482M17.325 16.941L8.677 8.459"/></g></symbol><symbol viewBox="0 0 26 26" id="search" xmlns="http://www.w3.org/2000/svg"><g fill="none" fill-rule="evenodd" stroke="currentColor" stroke-linecap="round" stroke-linejoin="round" stroke-width="inherit"><path fill="currentColor" fill-opacity=".2" d="M11.113 21.328c5.586 0 10.114-4.55 10.114-10.164C21.227 5.55 16.699 1 11.113 1 5.528 1 1 5.55 1 11.164c0 5.613 4.528 10.164 10.113 10.164z"/><path d="M25 25l-6.728-6.642"/></g></symbol><symbol viewBox="0 0 26 26" id="server" xmlns="http://www.w3.org/2000/svg"><g fill="none" fill-rule="evenodd" stroke="currentColor" stroke-width="inherit" transform="translate(1 1)"><path fill="currentColor" fill-opacity=".2" d="M.552 19.633c.222 1.978 1.76 3.552 3.68 3.775C6.74 23.698 9.337 24 12 24s5.26-.301 7.769-.592c1.92-.223 3.457-1.797 3.679-3.775.276-2.467.552-5.02.552-7.633 0-2.614-.276-5.166-.552-7.633-.222-1.978-1.76-3.552-3.679-3.775C17.259.302 14.662 0 12 0S6.74.301 4.231.592C2.311.815.774 2.39.552 4.367.276 6.834 0 9.387 0 12c0 2.614.276 5.166.552 7.633z"/><path stroke-linecap="round" stroke-linejoin="round" d="M0 12.374h24M13.851 17.847h4.32M13.851 6.401h4.32"/><ellipse cx="7.596" cy="6.401" fill="#FFF" rx="1.912" ry="1.972"/><ellipse cx="7.596" cy="17.847" fill="#FFF" rx="1.912" ry="1.972"/></g></symbol><symbol viewBox="0 0 25 26" id="share" xmlns="http://www.w3.org/2000/svg"><g fill="none" fill-rule="evenodd" stroke="currentColor" stroke-linecap="round" stroke-linejoin="round" stroke-width="inherit"><path fill="currentColor" fill-opacity=".2" d="M5.204 17.105c2.321 0 4.203-1.838 4.203-4.105 0-2.267-1.882-4.105-4.203-4.105C2.882 8.895 1 10.733 1 13c0 2.267 1.882 4.105 4.204 4.105zM19.796 9.21c1.502 0 2.89-.782 3.64-2.053.752-1.27.752-2.834 0-4.105A4.223 4.223 0 0019.797 1c-2.321 0-4.203 1.838-4.203 4.105 0 2.267 1.882 4.105 4.203 4.105h0zm0 15.79C22.118 25 24 23.162 24 20.895c0-2.267-1.882-4.105-4.204-4.105-2.321 0-4.203 1.838-4.203 4.105 0 2.267 1.882 4.105 4.203 4.105z"/><path d="M7.152 9.406c3.84-2.112 4.072-2.131 8.44-3.335m-8.44 10.523c3.84 2.112 4.072 2.131 8.44 3.335"/></g></symbol><symbol viewBox="0 0 26 26" id="sliders" xmlns="http://www.w3.org/2000/svg"><g fill="none" fill-rule="evenodd" stroke="currentColor" stroke-width="inherit"><path fill="currentColor" fill-opacity=".2" d="M1.403 19.275a6.013 6.013 0 005.286 5.299c2.054.23 4.16.426 6.311.426 2.15 0 4.259-.196 6.311-.426a6.013 6.013 0 005.286-5.3c.219-2.04.403-4.137.403-6.274 0-2.137-.184-4.234-.403-6.276a6.013 6.013 0 00-5.286-5.3C17.257 1.198 15.151 1 13 1c-2.15 0-4.259.196-6.311.426a6.013 6.013 0 00-5.286 5.3C1.184 8.763 1 10.86 1 13c0 2.139.184 4.234.403 6.275z"/><path stroke-linecap="round" stroke-linejoin="round" d="M7.24 8.2h7.68M18.76 17.8h-7.68"/><path fill="#FFF" stroke-linecap="round" stroke-linejoin="round" d="M15.88 11.08a2.88 2.88 0 100-5.76 2.88 2.88 0 000 5.76zm-5.76 9.6a2.88 2.88 0 110-5.76 2.88 2.88 0 010 5.76z"/></g></symbol><symbol viewBox="0 0 26 25" id="star" xmlns="http://www.w3.org/2000/svg"><path fill="currentColor" fill-opacity=".2" stroke="currentColor" stroke-linejoin="round" stroke-width="inherit" d="M12.11 1.577c.326-.77 1.454-.77 1.78 0l2.77 6.53 7.46.632c.86.072 1.193 1.116.527 1.645l-5.087 4.039a.913.913 0 00-.33.915l1.592 7.121c.182.817-.757 1.434-1.476.97L13 19.325l-6.347 4.102c-.718.465-1.657-.152-1.475-.969l1.592-7.121a.913.913 0 00-.33-.915l-5.087-4.04c-.666-.528-.332-1.572.526-1.644l7.46-.632 2.77-6.53z"/></symbol><symbol viewBox="0 0 25 24" id="star-empty" xmlns="http://www.w3.org/2000/svg"><path fill="currentColor" d="M5.123 23.265c.251.194.533.263.845.207.312-.056.646-.213 1.003-.471l5.545-4.078 5.55 4.078c.358.258.693.415 1.005.471a1.03 1.03 0 00.845-.207c.25-.187.402-.436.455-.747.052-.312.006-.675-.14-1.092l-2.191-6.515 5.594-4.02c.364-.257.618-.525.76-.805.142-.28.164-.57.064-.87a1.117 1.117 0 00-.566-.658c-.279-.145-.641-.214-1.087-.206l-6.861.044-2.085-6.55c-.139-.427-.318-.75-.54-.972a1.095 1.095 0 00-.803-.332c-.31 0-.575.11-.796.332-.222.221-.402.545-.54.971L9.095 8.396l-6.863-.044c-.445-.008-.807.061-1.085.206a1.117 1.117 0 00-.566.656c-.1.3-.078.59.065.87.143.281.396.55.758.807L7 14.91l-2.192 6.515c-.145.417-.191.78-.138 1.092.053.31.205.56.454.747zM7 20.685c-.014-.015-.014-.045-.002-.09l2.025-5.72c.062-.171.095-.324.096-.461a.655.655 0 00-.11-.376 1.257 1.257 0 00-.348-.332l-5.006-3.428c-.045-.026-.063-.052-.051-.08.006-.02.037-.03.092-.03l6.06.143c.277.009.492-.039.648-.143.155-.104.27-.292.346-.564l1.715-5.81c.013-.053.03-.08.051-.08.026 0 .045.027.058.08l1.715 5.81c.075.272.191.46.347.564.156.104.372.152.648.143l6.063-.142c.054 0 .084.01.09.03.011.025-.006.052-.052.079l-5.007 3.43a1.243 1.243 0 00-.348.332.663.663 0 00-.11.375c.001.136.033.289.096.46l2.024 5.72c.009.045.008.075-.002.09-.013.018-.042.011-.088-.02l-4.804-3.702c-.218-.17-.426-.256-.627-.256-.2 0-.409.085-.626.256l-4.804 3.702c-.046.031-.076.038-.089.02z"/></symbol><symbol viewBox="0 0 25 24" id="star-full" xmlns="http://www.w3.org/2000/svg"><path fill="currentColor" d="M5.26 23.265c.252.194.534.263.845.207.312-.056.647-.213 1.004-.471l5.544-4.078 5.55 4.078c.358.258.693.415 1.005.471a1.03 1.03 0 00.845-.207c.25-.187.402-.436.455-.747.053-.312.006-.675-.14-1.092l-2.19-6.515 5.594-4.02c.364-.257.617-.525.76-.805.142-.28.163-.57.063-.87a1.117 1.117 0 00-.565-.658c-.279-.145-.642-.214-1.088-.206l-6.86.044-2.086-6.55c-.138-.427-.318-.75-.54-.972a1.095 1.095 0 00-.803-.332c-.309 0-.574.11-.796.332-.221.221-.401.545-.54.971L9.233 8.396l-6.864-.044c-.444-.008-.806.061-1.085.206a1.117 1.117 0 00-.566.656c-.1.3-.078.59.065.87.143.281.396.55.759.807l5.594 4.02-2.191 6.515c-.146.417-.192.78-.138 1.092.053.31.204.56.453.747z"/></symbol><symbol viewBox="0 0 25 24" id="star-half" xmlns="http://www.w3.org/2000/svg"><path fill="currentColor" d="M5.192 23.265c.251.194.533.263.845.207.311-.056.646-.213 1.003-.471l5.545-4.078 5.55 4.078c.358.258.693.415 1.005.471a1.03 1.03 0 00.845-.207c.25-.187.402-.436.454-.747.053-.312.007-.675-.139-1.092l-2.191-6.515 5.594-4.02c.364-.257.617-.525.76-.805.142-.28.163-.57.064-.87a1.117 1.117 0 00-.566-.658c-.279-.145-.641-.214-1.087-.206l-6.862.044-2.084-6.55c-.139-.427-.319-.75-.54-.972a1.095 1.095 0 00-.803-.332c-.31 0-.575.11-.796.332-.222.221-.402.545-.54.971L9.164 8.396 2.3 8.352c-.445-.008-.807.061-1.086.206a1.117 1.117 0 00-.565.656c-.1.3-.078.59.065.87.142.281.395.55.758.807l5.594 4.02-2.191 6.515c-.145.417-.192.78-.138 1.092.053.31.204.56.454.747zm7.393-6.551v-13c.026 0 .045.027.058.08l1.714 5.81c.076.272.192.46.348.564.156.104.372.152.648.143l6.062-.142c.055 0 .085.01.09.03.012.025-.005.052-.05.079l-5.008 3.43a1.243 1.243 0 00-.348.332.663.663 0 00-.11.375c.001.136.033.289.096.46l2.024 5.72c.008.045.008.075-.002.09-.013.018-.042.011-.088-.02l-4.804-3.702c-.224-.178-.434-.26-.63-.249z"/></symbol><symbol viewBox="0 0 26 26" id="star-square" xmlns="http://www.w3.org/2000/svg"><g fill="currentColor"><path fill-opacity=".2" stroke="currentColor" stroke-width="inherit" d="M1.403 19.276c.296 2.766 2.52 4.99 5.285 5.299C8.742 24.803 10.85 25 13 25c2.15 0 4.258-.197 6.312-.425 2.764-.309 4.99-2.533 5.285-5.3.218-2.041.403-4.138.403-6.275 0-2.137-.185-4.234-.403-6.276-.296-2.766-2.52-4.99-5.285-5.299C17.258 1.197 15.15 1 13 1c-2.15 0-4.258.197-6.312.425-2.764.309-4.99 2.533-5.285 5.3C1.184 8.765 1 10.862 1 13c0 2.137.184 4.234.403 6.276z"/><path d="M12.212 7.54a.844.844 0 011.576 0l1.196 2.985 3.238.29c.76.068 1.055 1.045.466 1.54l-1.977 1.662a.882.882 0 00-.292.857l.648 3.068c.161.766-.67 1.344-1.305.908L13 16.96l-2.762 1.89c-.636.436-1.466-.142-1.305-.908l.648-3.068a.882.882 0 00-.292-.857l-1.977-1.661c-.59-.496-.294-1.473.466-1.54l3.238-.291 1.196-2.985z"/></g></symbol><symbol viewBox="0 0 26 26" id="tick-circle" xmlns="http://www.w3.org/2000/svg"><g fill="none" fill-rule="evenodd" stroke="currentColor" stroke-linecap="round" stroke-linejoin="round" stroke-width="1.903"><path fill="currentColor" fill-opacity=".2" d="M13 25c6.627 0 12-5.373 12-12S19.627 1 13 1 1 6.373 1 13s5.373 12 12 12z"/><path d="M8.2 14.2l3.49 3.6c1.644-4.72 3.011-6.79 6.11-9.6"/></g></symbol><symbol viewBox="0 0 24 24" id="travel" xmlns="http://www.w3.org/2000/svg"><path fill="currentColor" fill-rule="evenodd" d="M12 24C5.373 24 0 18.628 0 12 0 5.373 5.373 0 12 0c6.628 0 12 5.373 12 12 0 6.628-5.372 12-12 12zm3.138-8.118c-.91.78-2.272.106-2.272-1.05v-1.447H6.462a1.385 1.385 0 110-2.77h6.404V9.17c0-1.157 1.361-1.831 2.272-1.05 1.252 1.073 2.053 1.918 3.174 3.3a.923.923 0 010 1.163c-1.12 1.38-1.922 2.226-3.174 3.3z"/></symbol><symbol viewBox="0 0 21 24" id="travel-boat" xmlns="http://www.w3.org/2000/svg"><path fill="currentColor" fill-rule="evenodd" d="M7.71.152A.89.89 0 007.32.9C7.4 6.95 5.251 11.154 1.378 13.943a.891.891 0 00.516 1.612h6.976v2.183H1.793c-.585 0-1.065.304-1.366.677-.3.37-.485.885-.41 1.428.324 2.36 2.506 3.774 4.62 3.913C6.51 23.879 8.431 24 10.2 24c1.982 0 3.801-.116 5.567-.238 2.11-.145 4.292-1.56 4.616-3.92a1.884 1.884 0 00-.41-1.427c-.3-.373-.78-.677-1.366-.677h-7.079v-2.183h5.488a.884.884 0 00.886-.889c0-5.315-2.34-8.975-4.669-11.288A17.688 17.688 0 0010.043.87a14.83 14.83 0 00-1.37-.744 5.894 5.894 0 00-.086-.04l-.025-.01-.008-.004L8.55.07S8.549.07 8.205.889l.344-.82a.883.883 0 00-.839.083z"/></symbol><symbol viewBox="0 0 24 18" id="travel-cycle" xmlns="http://www.w3.org/2000/svg"><path fill="currentColor" fill-rule="evenodd" d="M16.074 0c-.33 0-.642.14-.85.382a.996.996 0 00-.225.865l.622 2.86-3.552 2.59-1.863-2.598h.13c.606 0 1.097-.465 1.097-1.038s-.491-1.038-1.097-1.038h-4.02c-.606 0-1.097.465-1.097 1.038S5.71 4.1 6.317 4.1h1.237l2.773 3.868-1.43 1.043a5.565 5.565 0 00-3.498-1.216C2.417 7.794 0 10.078 0 12.897 0 15.715 2.417 18 5.399 18c2.981 0 5.398-2.285 5.398-5.103 0-.808-.198-1.571-.551-2.25l2.016-1.47a1.125 1.125 0 00.444-.323l3.408-2.485.396 1.822c-1.943.772-3.307 2.588-3.307 4.706C13.203 15.715 15.62 18 18.6 18 21.583 18 24 15.715 24 12.897c0-2.798-2.383-5.07-5.335-5.103l-1.244-5.719H19.179c.735 0 1.005.244 1.131.415.17.232.221.547.202.75-.053.571.393 1.075.997 1.125.604.05 1.137-.371 1.19-.942a3.156 3.156 0 00-.586-2.118C21.536.521 20.558 0 19.179 0H16.074zM5.4 9.87c.621 0 1.201.166 1.692.456l-2.284 1.666a1 1 0 00-.2 1.456 1.14 1.14 0 001.54.187l2.298-1.675c.102.295.157.61.157.937 0 1.672-1.434 3.028-3.203 3.028-1.77 0-3.203-1.356-3.203-3.028S3.63 9.869 5.399 9.869zm11.569.422l.6 2.76c.123.562.703.924 1.297.808.594-.115.976-.664.854-1.225l-.593-2.725c1.52.236 2.678 1.484 2.678 2.987 0 1.672-1.434 3.028-3.203 3.028s-3.203-1.356-3.203-3.028c0-1.108.63-2.077 1.57-2.605z"/></symbol><symbol viewBox="0 0 24 23" id="travel-drive" xmlns="http://www.w3.org/2000/svg"><path fill="currentColor" fill-rule="evenodd" d="M7.413.252C8.87.122 10.413 0 12 0c1.586 0 3.129.121 4.586.252 2.343.21 4.305 2.058 4.609 4.469.12.962.22 1.984.22 3.041 0 .335-.01.666-.028.992-.01.18.083.348.234.443a4.637 4.637 0 012.097 3.076c.157.852.282 1.756.282 2.693 0 1.164-.194 2.286-.404 3.318a.907.907 0 01-.832.73l-.346.02h-.012l-1.843.107v2.283c0 .76-.606 1.376-1.353 1.376a1.365 1.365 0 01-1.353-1.376v-2.142c-1.92.089-3.877.151-5.862.151-1.985 0-3.943-.062-5.863-.152v2.143c0 .76-.606 1.376-1.353 1.376a1.365 1.365 0 01-1.353-1.376V19.14l-1.842-.107h-.012l-.336-.02a.907.907 0 01-.832-.73C.194 17.252 0 16.131 0 14.966c0-.937.125-1.841.282-2.693A4.637 4.637 0 012.38 9.198a.496.496 0 00.233-.443 18.75 18.75 0 01-.027-.993c0-1.057.099-2.079.22-3.041C3.109 2.31 5.07.462 7.413.252zm11.296 7.51l-.002.21a.444.444 0 01-.47.439c-2.012-.12-4.101-.23-6.237-.23s-4.225.11-6.237.23a.444.444 0 01-.47-.438 14.65 14.65 0 01-.002-.21c0-.89.083-1.782.198-2.692A2.416 2.416 0 017.65 2.994c1.445-.13 2.888-.241 4.349-.241 1.46 0 2.903.111 4.348.24 1.114.1 2.025.988 2.163 2.078.115.91.198 1.802.198 2.691zM8.612 13.81c0 .633-.504 1.146-1.127 1.146H5.681a1.137 1.137 0 01-1.127-1.146c0-.634.504-1.147 1.127-1.147h1.804c.623 0 1.127.513 1.127 1.147zm9.696 1.146c.623 0 1.128-.513 1.128-1.146 0-.634-.505-1.147-1.128-1.147h-1.804c-.622 0-1.127.513-1.127 1.147 0 .633.505 1.146 1.127 1.146h1.804z"/></symbol><symbol viewBox="0 0 24 21" id="travel-flight" xmlns="http://www.w3.org/2000/svg"><path fill="currentColor" fill-rule="evenodd" d="M21.078.432c-1.24-.562-2.77-.577-4.194-.038-3.45 1.305-7.374 3.014-10.376 4.368a78.333 78.333 0 00-.918-2.043C5.003 1.459 3.596.922 2.327 1.413 1.068 1.9.297 3.26.55 4.623c.26 1.4.647 3.307 1.086 4.869.018.067.04.132.065.196.367 1.314 1.632 2.124 2.984 1.82 1.124-.254 2.607-.592 4.27-.984l-.187.802c-.336 1.456.595 2.725 2.046 2.906 1.234.154 2.53-.513 3.152-1.638.556-1.005 1.293-2.37 2.005-3.797 1.77-.459 3.492-.928 5.006-1.38 1.537-.457 2.706-2.004 2.495-3.691C23.272 2.12 22.33.999 21.078.432zM1.352 20.4A1.365 1.365 0 010 19.023c0-.76.605-1.376 1.352-1.376h21.296c.747 0 1.352.616 1.352 1.376 0 .76-.605 1.377-1.352 1.377H1.352z"/></symbol><symbol viewBox="0 0 24 24" id="travel-public-transport" xmlns="http://www.w3.org/2000/svg"><path fill="currentColor" fill-rule="evenodd" d="M5.069 1.321C6.779.441 9.15 0 11.999 0c2.85 0 5.222.44 6.932 1.321 1.743.897 2.926 2.342 2.926 4.25V9h.857a1.286 1.286 0 010 2.571h-.857v6a4.704 4.704 0 01-1.714 3.637v1.506a1.286 1.286 0 01-2.572 0v-.448c-.14.013-.284.02-.428.02H6.857c-.144 0-.287-.007-.428-.02v.448a1.286 1.286 0 01-2.572 0v-1.506a4.705 4.705 0 01-1.714-3.637v-6h-.857a1.286 1.286 0 010-2.571h.857V5.57c0-1.908 1.182-3.353 2.926-4.25zM6.857 16.5a1.071 1.071 0 100 2.143h.857a1.071 1.071 0 100-2.143h-.857zm8.357 1.071c0-.591.48-1.071 1.072-1.071h.857a1.071 1.071 0 110 2.143h-.857c-.592 0-1.072-.48-1.072-1.072zM18.428 6.43c.474 0 .858.383.858.857v6a.857.857 0 01-.858.857H5.571a.857.857 0 01-.857-.857v-6c0-.474.384-.857.857-.857h12.857z"/></symbol><symbol viewBox="0 0 24 24" id="travel-taxi" xmlns="http://www.w3.org/2000/svg"><path fill="currentColor" fill-rule="evenodd" d="M2.631 11.015c.296.02.635.036 1.021.047V21.89H1.043A1.05 1.05 0 000 22.945 1.05 1.05 0 001.043 24h21.914A1.05 1.05 0 0024 22.945a1.05 1.05 0 00-1.043-1.055h-1.311a46.307 46.307 0 00.002-1.443l.206-.013c.7-.044 1.672-.447 1.834-1.512.154-1.016-.058-2.36-.41-3.295-.248-.66-.778-1.041-1.34-1.203l-.725-3.21c-.255-1.127-1.168-2.028-2.371-2.127a38.894 38.894 0 00-3.19-.12c-1.364 0-2.428.057-3.19.12-1.202.1-2.116 1-2.37 2.128l-.725 3.209c-.562.162-1.093.542-1.341 1.203-.352.935-.564 2.279-.41 3.295.162 1.065 1.135 1.468 1.835 1.512l.206.013a46.94 46.94 0 00.002 1.443h-3.92V11.062c.386-.01.726-.028 1.021-.047 1.3-.086 2.243-1.13 2.305-2.403.035-.736.065-1.75.065-3.074 0-1.323-.03-2.337-.065-3.073C9.003 1.191 8.059.148 6.76.062A31.339 31.339 0 004.696 0C3.852 0 3.169.027 2.63.062 1.331.148.388 1.192.327 2.465.29 3.201.26 4.215.26 5.538c0 1.324.03 2.338.066 3.074.061 1.274 1.005 2.317 2.304 2.403zM12.776 21.89h5.752a46.307 46.307 0 01-.003-1.34c-.808.013-1.759.021-2.873.021-1.114 0-2.064-.008-2.873-.021a46.631 46.631 0 01-.003 1.34zm2.876-11.34c-1.196 0-2.098.055-2.574.092a1.292 1.292 0 00-1.144.968l-.43 1.638a.798.798 0 00.143.693.78.78 0 00.634.3 70.812 70.812 0 011.867-.004 305.578 305.578 0 003.008 0 70.824 70.824 0 011.867.004.78.78 0 00.634-.3.798.798 0 00.143-.693l-.43-1.638a1.292 1.292 0 00-1.143-.968 33.343 33.343 0 00-2.575-.093zm-5.478 7.12c0-.437.35-.79.783-.79H12c.432 0 .783.353.783.79 0 .437-.35.792-.783.792h-1.043a.787.787 0 01-.783-.792zm10.174-.79c.432 0 .782.353.782.79 0 .437-.35.792-.782.792h-1.044a.787.787 0 01-.782-.792c0-.437.35-.79.782-.79h1.044z"/></symbol><symbol viewBox="0 0 17 24" id="travel-walk" xmlns="http://www.w3.org/2000/svg"><path fill="currentColor" fill-rule="evenodd" d="M6.871 4.412A3.172 3.172 0 018.564.252a3.185 3.185 0 014.17 1.688 3.172 3.172 0 01-1.693 4.16 3.185 3.185 0 01-4.17-1.688zm4.186 4.539a1.356 1.356 0 00-.259-.25 3.393 3.393 0 00-1.89-1.046 1.36 1.36 0 00-.276-.04 3.416 3.416 0 00-.755.006C3.801 7.77.751 9.721.042 12.523a1.355 1.355 0 002.628.662c.185-.731.877-1.614 2.187-2.206l-.481 3.86a2.702 2.702 0 001.089 2.518c.173.174.396.304.654.364l.111.026c.086.027.173.05.263.07l.536.116 3.636.846a.321.321 0 01.218.187l1.772 4.205a1.356 1.356 0 001.774.723 1.35 1.35 0 00.724-1.77l-1.771-4.206a3.03 3.03 0 00-2.083-1.768l-.01-.003-.222-.051c.022-.096.04-.194.053-.294l.36-2.895c1.15.68 2.54 1.1 4.141.89a1.353 1.353 0 10-.352-2.682c-1.671.219-3.132-.8-4.212-2.164zM5.813 20.875a1.35 1.35 0 00-.673-1.791 1.356 1.356 0 00-1.794.67c-.226.495-.597.978-1.247 1.249a1.351 1.351 0 00-.729 1.769 1.356 1.356 0 001.773.726c1.455-.606 2.25-1.703 2.67-2.623z"/></symbol><symbol viewBox="0 0 28 26" id="warning" xmlns="http://www.w3.org/2000/svg"><g fill="none" fill-rule="evenodd" stroke="currentColor" stroke-linejoin="round" stroke-width="inherit"><path d="M2.362 20.442l8-16.192c1.482-3 5.795-3 7.278 0l8 16.192c.35.71.63 1.505-.084 2.07-3.357 2.65-19.754 2.65-23.11 0-.715-.565-.438-1.353-.084-2.07z"/><path stroke-linecap="round" d="M14.001 9.437v5.021M14.001 18.977v.502"/></g></symbol></svg>