<svg xmlns="http://www.w3.org/2000/svg" width="139" height="25" viewBox="0 0 139 25"><g fill="none" fill-rule="evenodd" transform="translate(1 1.344)"><polyline stroke="#A28366" stroke-linecap="square" stroke-width="1.355" points="3.786 0 13.424 22.336 3.786 22.336"/><ellipse cx="8.433" cy="10.481" stroke="#A28366" stroke-width="1.355" rx="8.433" ry="8.419"/><g fill="#FFF" fill-rule="nonzero" transform="translate(26.548 4.078)"><polygon points="4.926 14.578 6.348 14.578 6.348 1.902 11.134 1.902 11.134 .561 0 .561 0 1.902 4.926 1.902"/><path d="M12.8760695 14.5781937 14.2778189 14.5781937 14.2778189 9.25154602C14.2778189 6.34792227 16.280318 4.82602292 18.7634169 5.40674767L18.7634169 3.92489831C16.5406429 3.58447346 14.9386436 4.52564805 14.2778189 6.20774733L14.2778189 3.96494829 12.8760695 3.96494829 12.8760695 14.5781937ZM21.3866908 2.1026241C21.9874405 2.1026241 22.4480153 1.64204929 22.4480153 1.06132454 22.4480153.460574802 21.9874405 0 21.3866908 0 20.8059661 0 20.3253663.460574802 20.3253663 1.06132454 20.3253663 1.64204929 20.8059661 2.1026241 21.3866908 2.1026241ZM20.6657911 14.5781937 22.0675405 14.5781937 22.0675405 3.96494829 20.6657911 3.96494829 20.6657911 14.5781937ZM24.5306144 18.7834419 25.9323638 18.7834419 25.9323638 12.3754447C26.7533885 13.7771941 28.2752878 14.7383937 30.117587 14.7383937 33.0812858 14.7383937 35.4642597 12.3153697 35.4642597 9.25154602 35.4642597 6.2678223 33.0812858 3.78472337 30.117587 3.78472337 28.2552628 3.78472337 26.7533885 4.74592296 25.9323638 6.12764736L25.9323638 3.96494829 24.5306144 3.96494829 24.5306144 18.7834419ZM29.9974371 13.4567942C27.6945631 13.4567942 25.8722889 11.55442 25.8722889 9.25154602 25.8722889 6.968697 27.7145881 5.06632282 29.9974371 5.06632282 32.3203361 5.06632282 34.1025603 6.94867201 34.1025603 9.25154602 34.1025603 11.59447 32.2802861 13.4567942 29.9974371 13.4567942Z"/><polygon points="37.507 14.578 38.909 14.578 38.909 1.222 43.675 14.578 46.338 14.578 51.144 1.161 51.144 14.578 52.546 14.578 52.546 .561 49.862 .561 45.016 14.078 40.17 .561 37.507 .561"/><path d="M58.6131498 14.7383937C61.3565736 14.7383937 62.6181481 12.7559195 62.9585729 12.1151198L62.9585729 14.5781937 64.3002473 14.5781937 64.3002473 7.22902189C64.3002473 5.1063728 62.1575733 3.78472337 59.5743494 3.78472337 57.2714754 3.78472337 55.2289262 4.86607291 55.0887513 6.92864702L56.4504507 6.92864702C56.7107756 5.44679766 58.21265 4.96619786 59.6143994 4.96619786 61.3966236 4.96619786 62.9585729 5.76719752 62.9585729 7.38922182L62.9585729 8.25029645 59.4341744 8.27032144C55.9498259 8.27032144 54.6882515 9.83227077 54.7483265 11.654545 54.8084014 13.7571691 56.6306756 14.7383937 58.6131498 14.7383937ZM58.7132747 13.5368942C57.4316753 13.5368942 56.2502008 12.8960945 56.1500759 11.694595 56.0299259 10.6132454 56.8509505 9.35167098 59.6344244 9.33164599L62.9585729 9.33164599C62.9585729 11.63452 60.9160238 13.5368942 58.7132747 13.5368942ZM66.5430464 18.7834419 67.9447958 18.7834419 67.9447958 12.3754447C68.7658204 13.7771941 70.2877198 14.7383937 72.130019 14.7383937 75.0937177 14.7383937 77.4766917 12.3153697 77.4766917 9.25154602 77.4766917 6.2678223 75.0937177 3.78472337 72.130019 3.78472337 70.2676948 3.78472337 68.7658204 4.74592296 67.9447958 6.12764736L67.9447958 3.96494829 66.5430464 3.96494829 66.5430464 18.7834419ZM72.009869 13.4567942C69.706995 13.4567942 67.8847208 11.55442 67.8847208 9.25154602 67.8847208 6.968697 69.72702 5.06632282 72.009869 5.06632282 74.332768 5.06632282 76.1149923 6.94867201 76.1149923 9.25154602 76.1149923 11.59447 74.292718 13.4567942 72.009869 13.4567942ZM79.4191158 18.7834419 80.8208652 18.7834419 80.8208652 12.3754447C81.6418899 13.7771941 83.1637892 14.7383937 85.0060884 14.7383937 87.9697872 14.7383937 90.3527611 12.3153697 90.3527611 9.25154602 90.3527611 6.2678223 87.9697872 3.78472337 85.0060884 3.78472337 83.1437642 3.78472337 81.6418899 4.74592296 80.8208652 6.12764736L80.8208652 3.96494829 79.4191158 3.96494829 79.4191158 18.7834419ZM84.8859385 13.4567942C82.5830645 13.4567942 80.7607903 11.55442 80.7607903 9.25154602 80.7607903 6.968697 82.6030895 5.06632282 84.8859385 5.06632282 87.2088375 5.06632282 88.9910617 6.94867201 88.9910617 9.25154602 88.9910617 11.59447 87.1687875 13.4567942 84.8859385 13.4567942ZM97.4416081 14.7383937C99.5041822 14.7383937 101.486656 13.5769442 102.347731 11.8147449L101.046107 11.55442C100.285157 12.6958445 98.9234575 13.4567942 97.4416081 13.4567942 95.318959 13.4567942 93.5767848 11.9549199 93.4165848 9.75217081L102.788281 9.75217081C102.848356 9.41174595 102.828331 8.99122113 102.768256 8.57069631 102.427831 5.92739745 100.225082 3.78472337 97.4416081 3.78472337 94.4178344 3.78472337 91.9948104 6.20774733 91.9948104 9.25154602 91.9948104 12.2552947 94.3777844 14.7383937 97.4416081 14.7383937ZM93.4165848 8.63077129C93.6168347 6.64829714 95.258884 5.04629783 97.4215831 5.04629783 99.5642572 5.04629783 101.166256 6.64829714 101.386531 8.63077129L93.4165848 8.63077129ZM104.71068 14.5781937 106.112429 14.5781937 106.112429 9.25154602C106.112429 6.34792227 108.114929 4.82602292 110.598027 5.40674767L110.598027 3.92489831C108.375253 3.58447346 106.773254 4.52564805 106.112429 6.20774733L106.112429 3.96494829 104.71068 3.96494829 104.71068 14.5781937Z"/></g></g></svg>