<svg xmlns="http://www.w3.org/2000/svg" width="30" height="31" viewBox="0 0 30 31">
  <path fill="#2C2825" d="M1505.18522,336.153846 C1505.37253,336.153846 1505.48699,336.055778 1505.52862,335.85964 C1505.63267,335.250583 1505.72893,334.775724 1505.81738,334.435065 C1505.90583,334.094406 1506.0385,333.83375 1506.2154,333.653097 C1506.3923,333.472444 1506.65765,333.330503 1507.01145,333.227273 C1507.36524,333.124043 1507.85952,333.015651 1508.49428,332.902098 C1508.70239,332.860806 1508.80645,332.752414 1508.80645,332.576923 C1508.80645,332.401432 1508.7076,332.29304 1508.50989,332.251748 C1507.86472,332.127872 1507.36785,332.011738 1507.01925,331.903347 C1506.67066,331.794955 1506.41051,331.650433 1506.23881,331.46978 C1506.06712,331.289128 1505.93444,331.031052 1505.84079,330.695554 C1505.74714,330.360057 1505.64308,329.887779 1505.52862,329.278721 C1505.48699,329.092907 1505.37253,329 1505.18522,329 C1505.00832,329 1504.89906,329.092907 1504.85744,329.278721 C1504.74298,329.887779 1504.63892,330.362637 1504.54527,330.703297 C1504.45161,331.043956 1504.31894,331.304612 1504.14724,331.485265 C1503.97555,331.665917 1503.7154,331.807859 1503.36681,331.911089 C1503.01821,332.014319 1502.52133,332.127872 1501.87617,332.251748 C1501.67846,332.29304 1501.5796,332.401432 1501.5796,332.576923 C1501.5796,332.752414 1501.67846,332.860806 1501.87617,332.902098 C1502.52133,333.025974 1503.02081,333.139527 1503.37461,333.242757 C1503.72841,333.345987 1503.99376,333.487929 1504.17066,333.668581 C1504.34755,333.849234 1504.47763,334.107309 1504.56087,334.442807 C1504.64412,334.778305 1504.74298,335.250583 1504.85744,335.85964 C1504.89906,336.055778 1505.00832,336.153846 1505.18522,336.153846 Z M1512.27159,346.172328 C1512.59417,346.172328 1512.77107,346.001998 1512.80229,345.661339 C1512.92716,344.690976 1513.05463,343.929654 1513.1847,343.377373 C1513.31478,342.825092 1513.52549,342.40701 1513.81686,342.123127 C1514.10822,341.839244 1514.54006,341.627622 1515.11238,341.488262 C1515.6847,341.348901 1516.46514,341.196637 1517.45369,341.031469 C1517.8179,340.979853 1518,340.804362 1518,340.504995 C1518,340.215951 1517.84391,340.035298 1517.53174,339.963037 C1516.52237,339.777223 1515.72633,339.609474 1515.1436,339.45979 C1514.56087,339.310107 1514.12123,339.098485 1513.82466,338.824925 C1513.5281,338.551365 1513.31478,338.143606 1513.1847,337.601648 C1513.05463,337.05969 1512.92716,336.308691 1512.80229,335.348651 C1512.77107,335.007992 1512.59417,334.837662 1512.27159,334.837662 C1511.95942,334.837662 1511.78252,335.002831 1511.74089,335.333167 C1511.60562,336.313853 1511.47555,337.085498 1511.35068,337.648102 C1511.22581,338.210706 1511.01769,338.633949 1510.72633,338.917832 C1510.43496,339.201715 1509.99792,339.413337 1509.41519,339.552697 C1508.83247,339.692058 1508.03642,339.828838 1507.02706,339.963037 C1506.89178,339.983683 1506.77732,340.04304 1506.68366,340.141109 C1506.59001,340.239177 1506.54318,340.360473 1506.54318,340.504995 C1506.54318,340.794039 1506.70447,340.96953 1507.02706,341.031469 C1508.03642,341.227606 1508.83247,341.403097 1509.41519,341.557942 C1509.99792,341.712787 1510.43236,341.92699 1510.71852,342.200549 C1511.00468,342.474109 1511.2128,342.881868 1511.34287,343.423826 C1511.47294,343.965784 1511.60562,344.721945 1511.74089,345.692308 C1511.7513,345.826507 1511.80593,345.94006 1511.90479,346.032967 C1512.00364,346.125874 1512.12591,346.172328 1512.27159,346.172328 Z M1501.00208,360 C1502.80229,360 1504.48023,359.708375 1506.0359,359.125125 C1507.59157,358.541875 1508.95213,357.697969 1510.11759,356.593407 C1511.28304,355.488844 1512.20395,354.162338 1512.88033,352.613886 C1513.13007,352.004829 1513.09886,351.545455 1512.78668,351.235764 C1512.51613,350.967366 1512.12071,350.936397 1511.60042,351.142857 C1510.98647,351.400932 1510.3205,351.591908 1509.6025,351.715784 C1508.8845,351.83966 1508.11967,351.901598 1507.30801,351.901598 C1505.09157,351.901598 1503.16129,351.465451 1501.51717,350.593157 C1499.87305,349.720862 1498.59834,348.489843 1497.69303,346.9001 C1496.78772,345.310356 1496.33507,343.43673 1496.33507,341.279221 C1496.33507,340.432734 1496.41051,339.583666 1496.56139,338.732018 C1496.71228,337.88037 1496.91779,337.186147 1497.17794,336.649351 C1497.4693,336.071262 1497.47971,335.627373 1497.20916,335.317682 C1496.91779,334.977023 1496.44433,334.940892 1495.78876,335.209291 C1494.23829,335.808025 1492.87773,336.711289 1491.70708,337.919081 C1490.53642,339.126873 1489.62591,340.533383 1488.97555,342.138611 C1488.32518,343.743839 1488,345.46004 1488,347.287213 C1488,349.09374 1488.31738,350.77381 1488.95213,352.327423 C1489.58689,353.881036 1490.48699,355.230769 1491.65245,356.376623 C1492.8179,357.522478 1494.19147,358.412837 1495.77315,359.047702 C1497.35484,359.682567 1499.09781,360 1501.00208,360 Z" transform="translate(-1488 -329)"/>
</svg>
