<svg xmlns="http://www.w3.org/2000/svg" width="8" height="8" viewBox="0 0 8 8"><path fill="#FF4F4F" d="M1764.23023,431.764767 C1764.54814,432.077524 1765.08807,432.067435 1765.3757,431.774856 L1767.99968,429.156774 L1770.61861,431.774856 C1770.92138,432.077524 1771.45122,432.077524 1771.76408,431.759722 C1772.07694,431.446965 1772.07694,430.92234 1771.77417,430.614627 L1769.16028,427.996546 L1771.77417,425.383509 C1772.07694,425.075796 1772.07694,424.551171 1771.76408,424.238413 C1771.44617,423.925656 1770.92138,423.920612 1770.61861,424.22328 L1767.99968,426.841361 L1765.3757,424.22328 C1765.08807,423.930701 1764.54309,423.920612 1764.23023,424.233369 C1763.91737,424.546126 1763.93251,425.090929 1764.22014,425.378464 L1766.84412,427.996546 L1764.22014,430.619672 C1763.93251,430.912251 1763.91737,431.45201 1764.23023,431.764767 Z" transform="translate(-1764 -424)"/></svg>