<svg xmlns="http://www.w3.org/2000/svg" width="32" height="32" viewBox="0 0 32 32"><g fill="none" fill-rule="evenodd"><rect width="32" height="32" fill="#FF4F4F" fill-opacity=".16" rx="8"/><g stroke="#FF4F4F" stroke-linecap="round" stroke-width="2" opacity=".5" transform="translate(8 8)"><line x2="16" y1="3.834" y2="3.834"/><path stroke-linejoin="round" d="M13.748096,3.8338304 L2.2464768,3.8338304 C2.0608128,7.1906816 2.0637056,10.5216384 2.5640704,13.857408 C2.7488,15.088896 3.8067072,16 5.0519936,16 L10.9425536,16 C12.187904,16 13.245696,15.088896 13.430528,13.857408 C13.93088,10.5216384 13.933696,7.1906816 13.748096,3.8338304 Z"/><path stroke-linejoin="round" d="M4.8023808,3.8338688 L4.8023808,3.1948928 C4.8023808,2.3475456 5.1389824,1.5349248 5.7381504,0.9357568 C6.3373056,0.3366016 7.1499392,0 7.9972736,0 C8.844608,0 9.6572416,0.3366016 10.2563968,0.9357568 C10.855552,1.5349248 11.1921664,2.3475456 11.1921664,3.1948928 L11.1921664,3.8338688"/><line x1="6.08" x2="6.08" y1="7.256" y2="12.552" stroke-linejoin="round"/><line x1="9.914" x2="9.914" y1="7.256" y2="12.552" stroke-linejoin="round"/></g></g></svg>