<svg xmlns="http://www.w3.org/2000/svg" width="32" height="32" viewBox="0 0 32 32"><g fill="none" fill-rule="evenodd"><rect width="32" height="32" fill="#EAEAEA" rx="8"/><path fill="#2C2825" fill-rule="nonzero" d="M10.3453493,21.6471503 C10.8222069,22.1162862 11.632108,22.1011528 12.0635506,21.6622837 L15.9995183,17.7351616 L19.9279168,21.6622837 C20.3820669,22.1162862 21.1768296,22.1162862 21.6461181,21.6395836 C22.1154066,21.1704476 22.1154066,20.3835098 21.6612564,19.9219406 L17.7404271,15.9948184 L21.6612564,12.075263 C22.1154066,11.6136938 22.1154066,10.826756 21.6461181,10.35762 C21.1692605,9.88848407 20.3820669,9.88091736 19.9279168,10.3349199 L15.9995183,14.262042 L12.0635506,10.3349199 C11.632108,9.89605078 10.8146377,9.88091736 10.3453493,10.3500533 C9.87606083,10.8191893 9.89876833,11.6363939 10.3302109,12.0676963 L14.2661787,15.9948184 L10.3302109,19.9295073 C9.89876833,20.3683764 9.87606083,21.1780143 10.3453493,21.6471503 Z" opacity=".4"/></g></svg>