<svg xmlns="http://www.w3.org/2000/svg" width="32" height="32" viewBox="0 0 32 32"><g fill="none" fill-rule="evenodd"><rect width="32" height="32" fill="#EAEAEA" rx="8"/><g opacity=".5" transform="translate(8 8)"><path d="M0.305063041,13.3160973 C0.443171892,14.5505485 1.43150732,15.5368236 2.66732587,15.679557 C4.06376695,15.8408072 5.50674234,15.9998714 6.98312763,15.9998714 C8.45951291,15.9998714 9.90247542,15.8408072 11.2989165,15.679557 C12.5347737,15.5368236 13.5230318,14.5505485 13.6612308,13.3160973 C13.816431,11.9286255 13.9662218,10.4948875 13.9662218,9.02803798 C13.9662218,7.56120129 13.816431,6.1275019 13.6612308,4.73992727 C13.5230318,3.50555318 12.5347737,2.51929093 11.2989165,2.37657037 C9.90247542,2.21529445 8.45951291,2.05620455 6.98312763,2.05620455 C5.50674234,2.05620455 4.06376695,2.21529445 2.66732587,2.37657037 C1.43150732,2.51929093 0.443171892,3.50555318 0.305063041,4.73992727 C0.149810043,6.1275019 0,7.56120129 0,9.02803798 C0,10.4948875 0.149810043,11.9286255 0.305063041,13.3160973 Z"/><path stroke="#2C2825" stroke-linecap="round" stroke-opacity=".6" stroke-width="2" d="M5.95597283,2.08022491 C4.83634191,2.13056738 3.73815566,2.25295808 2.66733875,2.3766218 C1.43150732,2.51934237 0.443171892,3.50560462 0.305063041,4.73997871 C0.149810043,6.12755334 0,7.56125273 0,9.02808942 C0,10.494939 0.149810043,11.9286255 0.305063041,13.3162258 C0.443171892,14.5505485 1.43150732,15.5368236 2.66732587,15.679557 C4.06376695,15.8408072 5.50674234,16 6.98312763,16 C8.45951291,16 9.90247542,15.8408072 11.2989165,15.679557 C12.5347737,15.5368236 13.5230318,14.5506771 13.6612308,13.3162258 C13.7728977,12.3181206 13.881731,11.2961107 13.9340226,10.2550697"/><path fill="#FFF" fill-rule="nonzero" stroke="#2C2825" stroke-linecap="round" stroke-linejoin="round" stroke-width="2" d="M12.0332388,0.6561311 L7.28724272,6.03262918 L6.63705052,9.08573572 C6.53242885,9.57699588 7.0453365,10.0418311 7.52567143,9.89107371 L10.5688831,8.9359042 L15.471084,3.78604365 C16.2852089,2.93071039 16.1431459,1.50010998 15.1575925,0.629808999 C14.1952225,-0.220110682 12.7963601,-0.208324244 12.0332388,0.6561311 Z"/></g></g></svg>