<svg xmlns="http://www.w3.org/2000/svg" width="8" height="12" viewBox="0 0 8 12"><path fill="#2C2825" d="M6.71022043,7.49383984 C7.00512403,7.20057664 7.4834262,7.20040874 7.77853822,7.49346484 C8.07365024,7.78652094 8.07381919,8.26182664 7.77891558,8.55508984 L4.53358425,11.7800898 C4.23886299,12.0728763 3.76111981,12.0728763 3.46639855,11.7800898 L0.221067213,8.55508984 C-0.0738363927,8.26161953 -0.0734984894,7.78614594 0.221821942,7.49308984 C0.517142372,7.20003374 0.995613492,7.20036953 1.2905171,7.49383984 L3.9999914,10.1870898 L6.71022043,7.49383984 Z M6.71022043,4.50583984 L4,1.81258984 L1.28976237,4.50583984 C0.994858762,4.79910303 0.516556603,4.79927092 0.221444589,4.50621483 C-0.0736674254,4.21315874 -0.0738363821,3.73785304 0.221067213,3.44458984 L3.46639855,0.21958984 C3.76111981,-0.0731966134 4.23886299,-0.0731966134 4.53358425,0.21958984 L7.77891558,3.44458984 C7.96968477,3.63429787 8.04411669,3.91073187 7.97417357,4.16976183 C7.90423044,4.42879179 7.7005383,4.6310649 7.43982599,4.70038683 C7.17911368,4.76970876 6.90098961,4.69554787 6.71022043,4.50583984 L6.71022043,4.50583984 Z"/></svg>