<svg xmlns="http://www.w3.org/2000/svg" width="18" height="18" viewBox="0 0 18 18"><path fill="#2C2825" d="M3.30448012,16.265625 C3.76541762,16.6171875 4.32791762,16.515625 4.93729262,16.0703125 L8.60916762,13.375 L12.2732301,16.0703125 C12.8826051,16.515625 13.4451051,16.6171875 13.9060426,16.265625 C14.3591676,15.921875 14.4529176,15.3515625 14.2107301,14.65625 L12.7576051,10.3515625 L16.4607301,7.703125 C17.0701051,7.2734375 17.3357301,6.7578125 17.1482301,6.2109375 C16.9685426,5.671875 16.4529176,5.4140625 15.7107301,5.421875 L11.1794801,5.453125 L9.80448012,1.1171875 C9.57010512,0.40625 9.17166762,0 8.60916762,0 C8.03885512,0 7.64041762,0.40625 7.40604262,1.1171875 L6.03104262,5.453125 L1.49198012,5.421875 C0.757605118,5.4140625 0.241980118,5.671875 0.0622926176,6.2109375 C-0.133019882,6.7578125 0.140417618,7.2734375 0.749792618,7.703125 L4.45291762,10.3515625 L2.99979262,14.65625 C2.75760512,15.3515625 2.85135512,15.921875 3.30448012,16.265625 Z" transform="translate(.508 .805)"/></svg>
