<svg xmlns="http://www.w3.org/2000/svg" width="24" height="24" viewBox="0 0 24 24"><path fill="#2C2825" fill-rule="evenodd" d="M2512.08868,376 C2515.0243,376 2517.71744,377.039755 2519.81157,378.767669 C2520.48784,379.32568 2520.42336,380.140165 2520.12131,380.66784 C2519.83102,381.17504 2519.2462,381.600267 2518.53538,381.600267 C2514.97465,381.600267 2512.08809,384.465653 2512.08809,388.000267 C2512.08809,391.410133 2514.77446,394.19712 2518.1609,394.389653 C2518.03507,394.864 2518.07515,395.376747 2518.29286,395.838187 C2518.61194,396.514453 2519.2606,396.970347 2519.99677,397.05312 C2519.94234,397.115253 2519.88072,397.175253 2519.81125,397.232587 C2517.71717,398.96032 2515.02419,400 2512.08868,400 C2505.4123,400 2500,394.627413 2500,388 C2500,381.372587 2505.4123,376 2512.08868,376 Z M2522.92545,390.933333 C2523.23815,390.933333 2523.52263,391.112907 2523.65528,391.394027 C2523.78794,391.675093 2523.74474,392.00704 2523.54455,392.245493 L2521.95975,394.133333 L2523.19409,394.133333 C2523.63917,394.133333 2524,394.49152 2524,394.933333 C2524,395.375147 2523.63917,395.733333 2523.19409,395.733333 L2520.23908,395.733333 C2519.92639,395.733333 2519.6419,395.55376 2519.50925,395.27264 C2519.37659,394.991573 2519.41979,394.659627 2519.61998,394.421173 L2521.20478,392.533333 L2519.97044,392.533333 C2519.52536,392.533333 2519.16453,392.175147 2519.16453,391.733333 C2519.16453,391.29152 2519.52536,390.933333 2519.97044,390.933333 L2522.92545,390.933333 Z M2520.14952,383.466667 C2520.46226,383.466667 2520.7467,383.64624 2520.87935,383.92736 C2521.012,384.208427 2520.96886,384.540373 2520.76867,384.778827 L2518.28834,387.733333 L2520.50772,387.733333 C2520.9528,387.733333 2521.31363,388.09152 2521.31363,388.533333 C2521.31363,388.975147 2520.9528,389.333333 2520.50772,389.333333 L2516.56772,389.333333 C2516.25498,389.333333 2515.97054,389.15376 2515.83789,388.87264 C2515.70524,388.591573 2515.74838,388.259627 2515.94857,388.021173 L2518.4289,385.066667 L2516.20952,385.066667 C2515.76444,385.066667 2515.40361,384.70848 2515.40361,384.266667 C2515.40361,383.824853 2515.76444,383.466667 2516.20952,383.466667 L2520.14952,383.466667 Z" transform="translate(-2500 -376)"/></svg>