<svg xmlns="http://www.w3.org/2000/svg" width="24" height="23" viewBox="0 0 24 23"><path fill="#2C2825" fill-rule="evenodd" d="M2555.14894,377 C2553.44509,377 2552.42647,377.603121 2551.89329,378.089972 C2551.54089,378.411741 2551.34701,378.811045 2551.22524,379.152234 C2550.72751,380.546809 2550.04296,383.512288 2549.42861,386.573264 C2548.90764,389.168867 2548.4267,391.886829 2548.1425,393.871291 C2548.04947,394.227173 2548,394.600283 2548,394.986667 C2548,397.726669 2550.48782,399.8 2553.3617,399.8 C2556.22592,399.8 2558.70671,397.740552 2558.7233,395.014229 C2558.88119,392.748416 2558.99026,390.352997 2559.06563,388.124475 C2557.845,388.240501 2556.69765,388.583768 2555.8074,389.130563 C2555.44771,389.35152 2554.97563,389.241269 2554.75299,388.884373 C2554.53035,388.527528 2554.64141,388.059115 2555.00111,387.838157 C2556.41312,386.970845 2558.22768,386.560344 2560,386.560344 C2561.77232,386.560344 2563.58688,386.970845 2564.99889,387.838157 C2565.35859,388.059115 2565.46965,388.527528 2565.24701,388.884373 C2565.02437,389.241269 2564.55224,389.35152 2564.1926,389.130563 C2563.30235,388.583768 2562.155,388.240501 2560.93437,388.124475 C2561.00974,390.352997 2561.11881,392.748416 2561.2767,395.014229 C2561.29329,397.740552 2563.77408,399.8 2566.6383,399.8 C2569.51217,399.8 2572,397.726669 2572,394.986667 C2572,394.600283 2571.95052,394.227173 2571.85748,393.871291 C2571.57331,391.886829 2571.09234,389.168867 2570.57139,386.573264 C2569.95704,383.512288 2569.27248,380.546809 2568.77476,379.152234 C2568.65297,378.811045 2568.45913,378.411741 2568.10669,378.089972 C2567.57353,377.603121 2566.55491,377 2564.85106,377 C2563.61649,377 2562.6856,377.316464 2562.03944,377.664726 C2561.0631,378.190971 2560.76489,379.235489 2560.77091,380.083067 C2560.77382,380.488663 2560.77842,380.996308 2560.78572,381.586448 C2560.53765,381.569323 2560.2759,381.56 2560,381.56 C2559.72415,381.56 2559.46235,381.569323 2559.21428,381.586448 C2559.22158,380.996308 2559.22618,380.488663 2559.22909,380.083067 C2559.23511,379.235489 2558.9369,378.190971 2557.96056,377.664726 C2557.3144,377.316464 2556.38351,377 2555.14894,377 Z M2566.6383,397.773333 C2564.9462,397.773333 2563.57447,396.525717 2563.57447,394.986667 C2563.57447,393.447616 2564.9462,392.2 2566.6383,392.2 C2568.3304,392.2 2569.70213,393.447616 2569.70213,394.986667 C2569.70213,396.525717 2568.3304,397.773333 2566.6383,397.773333 Z M2556.42553,394.986667 C2556.42553,396.525717 2555.0538,397.773333 2553.3617,397.773333 C2551.66959,397.773333 2550.29787,396.525717 2550.29787,394.986667 C2550.29787,393.447616 2551.66959,392.2 2553.3617,392.2 C2555.0538,392.2 2556.42553,393.447616 2556.42553,394.986667 Z" transform="translate(-2548 -377)"/></svg>