<svg xmlns="http://www.w3.org/2000/svg" width="26" height="26" viewBox="0 0 26 26"><g fill="none" fill-rule="evenodd" transform="translate(1 1)"><path fill="#2C2825" fill-opacity=".2" fill-rule="nonzero" d="M5.79963596,3.37141157 C7.05631563,2.12714485 8.76076135,1.42811239 10.5379789,1.42811239 C12.3152157,1.42811239 14.0196422,2.12714485 15.2763219,3.37141157 C16.5330208,4.61569734 17.2390268,6.30328823 17.2390268,8.06297024 C17.2390268,9.5799493 17.5098442,10.7725374 17.9101663,11.7048092 C18.3119115,12.6401085 19.417528,12.9591869 20.2425576,13.5639068 C21.4739479,14.4665691 21.2358624,16.3979864 20.211595,17.1478787 C20.211595,17.1478787 18.5578818,18.5654611 10.5379789,18.5654611 C2.51811447,18.5654611 0.864343646,17.1478787 0.864343646,17.1478787 C-0.159937306,16.3979864 -0.398018919,14.4665691 0.833438691,13.5639068 C1.65842981,12.9591869 2.76408483,12.6401085 3.16575308,11.7048092 C3.56613281,10.7725374 3.83695022,9.5799493 3.83695022,8.06297024 C3.83695022,6.30328823 4.54293706,4.61569734 5.79963596,3.37141157 Z"/><path stroke="#2C2825" stroke-linecap="round" stroke-linejoin="round" stroke-width="2" d="M10.5379789 1.42811239C8.76076135 1.42811239 7.05631563 2.12714485 5.79963596 3.37141157 4.54293706 4.61569734 3.83695022 6.30328823 3.83695022 8.06297024 3.83695022 9.5799493 3.56613281 10.7725374 3.16575308 11.7048092 2.76408483 12.6401085 1.65842981 12.9591869.833438691 13.5639068-.398018919 14.4665691-.159937306 16.3979864.864343646 17.1478787.864343646 17.1478787 2.51811447 18.5654611 10.5379789 18.5654611 18.5578818 18.5654611 20.211595 17.1478787 20.211595 17.1478787 21.2443243 16.3917788 21.4777942 14.4344842 20.211595 13.5416854M8.16408612 22.2937865C8.65035355 23.1914028 9.60715708 23.8020636 10.7079465 23.8020636 11.8087552 23.8020636 12.7655395 23.1914028 13.251807 22.2937865"/><line x1="19.192" x2="19.192" y2="9.521" stroke="#2C2825" stroke-linecap="round" stroke-linejoin="round" stroke-width="2"/><line x1="14.384" x2="24" y1="4.76" y2="4.76" stroke="#2C2825" stroke-linecap="round" stroke-linejoin="round" stroke-width="2"/></g></svg>