<svg xmlns="http://www.w3.org/2000/svg" width="26" height="26" viewBox="0 0 26 26"><g fill="none" fill-rule="evenodd" transform="matrix(-1 0 0 1 25 1)"><path fill="#2C2825" fill-rule="nonzero" d="M0.10144448,10.1455004 C0.319943859,12.9255422 2.61703827,15.2125951 5.41370482,15.441566 C6.20687291,15.5065023 7.01082884,15.5493634 7.82382952,15.5493634 C8.63683019,15.5493634 9.44078612,15.5065023 10.2339348,15.441566 C13.0306014,15.2125951 15.3277152,12.9255422 15.5462029,10.1455004 C15.6075406,9.36518638 15.6476513,8.57434477 15.6476513,7.77466919 C15.6476513,6.97501286 15.6075406,6.18417125 15.5462029,5.40385726 C15.3277152,2.62381543 13.0306014,0.336766384 10.2339348,0.107795498 C9.44078612,0.0428572219 8.63683019,0 7.82382952,0 C7.01082884,0 6.20687291,0.0428572219 5.41370482,0.107795498 C2.61703827,0.336766384 0.319943859,2.62381543 0.10144448,5.40385726 C0.0401145151,6.18417125 0,6.97501286 0,7.77466919 C0,8.57434477 0.0401145151,9.36518638 0.10144448,10.1455004 Z" opacity=".2"/><path fill="#FFF" fill-rule="nonzero" stroke="#2C2825" stroke-linejoin="round" stroke-width="2" d="M8.36169172,15.5437628 C9.54343528,15.5175688 10.7050557,15.4096944 11.8411107,15.2849412 C13.7005518,15.0807593 15.1981836,13.5923812 15.3953668,11.7437353 C15.5099271,10.6695718 15.6083541,9.57235143 15.638316,8.45677033 C15.8171386,8.45280563 15.9964454,8.4507078 16.1761782,8.4507078 C17.5436199,8.4507078 18.8855543,8.57195825 20.1934594,8.71559192 C22.0529586,8.91977382 23.5504742,10.4081519 23.747638,12.2567979 C23.8855365,13.5490197 24,14.8746143 24,16.2253828 C24,17.5761705 23.8855365,18.9017073 23.747638,20.1938907 C23.5504742,22.0426713 22.0529586,23.5309725 20.1934594,23.7351736 C18.8855543,23.8787496 17.5436199,24 16.1761782,24 C14.8087172,24 13.4668603,23.8787496 12.158897,23.7351736 C10.299456,23.5309725 8.80180482,22.0426713 8.60464097,20.1938907 C8.46680058,18.9017073 8.35235646,17.5761705 8.35235646,16.2253828 C8.35235646,15.9974512 8.35561024,15.7702317 8.36169172,15.5437628 Z"/><path stroke="#2C2825" stroke-linecap="round" stroke-width="2" d="M11.596186.238463064C11.6779567.247214267 11.7595724.256077097 11.841072.265026535 13.700513.469214214 15.1982223 1.95766932 15.3954055 3.80631524 15.4036949 3.88416573 15.4119262 3.96215093 15.4200413 4.04025162M4.06836175.238463064C3.98661042.247214267 3.90497529.256077097 3.82347573.265026535 1.96405407.469214214.466344796 1.95766932.269159642 3.80631524.260854745 3.88416573.252635065 3.96215093.244519972 4.04025162M4.06836175 15.308306C3.98661042 15.2995682 3.90497529 15.2906958 3.82347573 15.2817463 1.96405407 15.0775644.466344796 13.5891093.269159642 11.7404634.260854745 11.6625937.252635065 11.5846277.244519972 11.506527"/></g></svg>