<svg xmlns="http://www.w3.org/2000/svg" width="26" height="25" viewBox="0 0 26 25"><g fill="none" fill-rule="evenodd" stroke="#2C2825" stroke-linecap="round" stroke-linejoin="round" stroke-width="2" transform="translate(1 1)"><path d="M11.9657785 12.6768881C12.7633297 12.6768881 13.4098851 12.0378415 13.4098851 11.2495528 13.4098851 10.461264 12.7633297 9.82221746 11.9657785 9.82221746 11.1682273 9.82221746 10.5216719 10.461264 10.5216719 11.2495528 10.5216719 12.0378415 11.1682273 12.6768881 11.9657785 12.6768881ZM15.8139182 5.84501422C17.5303063 7.04112121 18.6514143 9.01584913 18.6514143 11.2493815 18.6514143 13.4829329 17.5303063 15.4576418 15.8139182 16.6537678M8.11671462 5.84501422C6.40030731 7.04112121 5.27916072 9.01584913 5.27916072 11.2493815 5.27916072 13.4829329 6.40030731 15.4576418 8.11671462 16.6537678"/><path d="M15.8832546 0C20.6063495 1.60636122 24 6.03646747 24 11.2500095 24 16.4635325 20.6063495 20.8935817 15.8832546 22.5M8.11671462 0C3.39365816 1.60636122 0 6.03646747 0 11.2500095 0 16.4635325 3.39365816 20.8935817 8.11671462 22.5"/></g></svg>