<svg xmlns="http://www.w3.org/2000/svg" width="26" height="26" viewBox="0 0 26 26"><g fill="none" fill-rule="evenodd" stroke="#2C2825" stroke-linecap="round" stroke-width="2" transform="translate(1 1)"><line x2="24" y1="5.75" y2="5.75"/><path fill="#2C2825" fill-opacity=".2" fill-rule="nonzero" stroke-linejoin="round" d="M20.6208,5.7504 L3.37152,5.7504 L3.24864,7.98336 C3.01185556,12.2601448 3.21257743,16.5499314 3.84768,20.78592 C4.12416,22.63296 5.712,24 7.58016,24 L16.416,24 C18.28416,24 19.872,22.63296 20.14848,20.78592 C20.78208,16.5504 20.98368,12.26112 20.74752,7.98336 L20.62464,5.7504 L20.6208,5.7504 Z"/><path stroke-linejoin="round" d="M7.20384,5.7504 L7.20384,4.79232 C7.20384,2.14559475 9.34943475,0 11.99616,0 C14.6428853,0 16.78848,2.14559475 16.78848,4.79232 L16.78848,5.75232"/><line x1="9.12" x2="9.12" y1="10.884" y2="18.829" stroke-linejoin="round"/><line x1="14.87" x2="14.87" y1="10.884" y2="18.829" stroke-linejoin="round"/></g></svg>