<svg xmlns="http://www.w3.org/2000/svg" width="26" height="26" viewBox="0 0 26 26"><g fill="none" stroke="#2C2825" stroke-linecap="round" stroke-linejoin="round" stroke-width="2" transform="translate(1 1)"><path fill="#2C2825" fill-opacity=".2" d="M16.7852895,1.53175831 L8.23880807,12.294052 L11.7901225,15.8794576 L22.4762406,7.26840726 C23.6917293,6.29119525 24.244378,4.69920176 23.8982988,3.17194004 C23.5522196,1.64467833 22.3685426,0.45191781 20.8524986,0.102766474 C19.3364546,-0.246384863 17.7558315,0.30974568 16.7852895,1.53378397 L16.7852895,1.53175831 Z"/><path fill="#FFF" d="M2.13360395,12.7153878 C4.97706858,9.85111467 8.53240485,10.5681958 10.6639979,12.7153878 C12.7955909,14.8625799 13.5074625,18.4459598 10.6639979,21.310233 C7.82053322,24.1745062 3.64180655,24.4986106 0,23.457425 C2.79922403,20.6377162 -0.965249665,15.8348933 2.13159301,12.7153878 L2.13360395,12.7153878 Z"/></g></svg>