<svg xmlns="http://www.w3.org/2000/svg" width="24" height="26" viewBox="0 0 24 26"><g fill="none" fill-rule="evenodd" stroke="#2C2825" stroke-linecap="round" stroke-linejoin="round" stroke-width="2" transform="translate(1 1)"><path fill="#2C2825" fill-opacity=".2" fill-rule="nonzero" d="M0.982653898,3.2115456 C-0.011529298,8.927136 -0.272296821,17.0952 0.296478718,22.390848 C0.396684691,23.323776 1.18033431,24 2.09491026,24 L19.5051742,24 C20.4196753,24 21.2033998,23.323776 21.3034935,22.390848 C21.8722503,17.0952 21.6116325,8.927136 20.6174306,3.2115456 C20.3745864,1.815456 19.3132188,0.758688 17.9448347,0.5599104 C16.0079184,0.27848448 13.2682878,0 10.8000142,0 C8.3317405,0 5.59210994,0.27848448 3.65513747,0.5599104 C2.28686569,0.758688 1.2254981,1.815456 0.982653898,3.2115456 Z"/><line x1="13.606" x2="15.477" y1="12.96" y2="12.96"/><path fill="#FFF" fill-rule="nonzero" d="M7.99364824,20.64 L7.99364824,24 L13.6063801,24 L13.6063801,20.64 C13.6063801,19.049472 12.3499327,17.76 10.8000142,17.76 C9.25009568,17.76 7.99364824,19.049472 7.99364824,20.64 Z"/><line x1="6.123" x2="7.994" y1="7.2" y2="7.2"/><line x1="13.606" x2="15.477" y1="7.2" y2="7.2"/><line x1="6.123" x2="7.994" y1="12.96" y2="12.96"/></g></svg>