<svg xmlns="http://www.w3.org/2000/svg" width="25" height="26" viewBox="0 0 25 26"><g fill="none" fill-rule="evenodd" stroke="#2C2825" transform="translate(1 1)"><line x1="7.268" x2="7.268" y2="4.877" stroke-linecap="round" stroke-width="2"/><line x1="15.719" x2="15.719" y2="4.877" stroke-linecap="round" stroke-width="2"/><path stroke-width="2" d="M5.60497871,23.85984 C7.48837209,23.952 9.41131674,24 11.5,24 C13.5886833,24 15.5116279,23.952 17.3950213,23.85984 C20.1202915,23.72544 22.3238618,21.53088 22.6270881,18.768 C22.832378,16.9056 23,14.99904 23,13.05408 C23,11.11104 22.8304946,9.20256 22.6270881,7.34208 C22.3238618,4.57728 20.1202915,2.38464 17.3950213,2.25024 C15.5116279,2.15808 13.5886833,2.11008 11.5,2.11008 C9.41131674,2.11008 7.48837209,2.15808 5.60497871,2.25024 C2.87970848,2.38464 0.676138225,4.5792 0.37291189,7.34208 C0.167622011,9.20448 0,11.11104 0,13.05408 C0,14.99904 0.169505405,16.90752 0.37291189,18.768 C0.676138225,21.5328 2.87970848,23.72544 5.60497871,23.85984 Z"/><path stroke-width="2" d="M6.10784474 10.37952C5.84780238 10.37952 5.6369964 10.1646167 5.6369964 9.89952 5.6369964 9.63442332 5.84780238 9.41952 6.10784474 9.41952M6.10784474 10.37952C6.3678871 10.37952 6.57869309 10.1646167 6.57869309 9.89952 6.57869309 9.63442332 6.3678871 9.41952 6.10784474 9.41952"/><path stroke-width="2.4" d="M1.17712086 1.44C.917078504 1.44.706272519 1.22509668.706272519.96.706272519.69490332.917078504.48 1.17712086.48M1.17712086 1.44C1.43716323 1.44 1.64796921 1.22509668 1.64796921.96 1.64796921.69490332 1.43716323.48 1.17712086.48" transform="translate(4.93 15.21)"/><path stroke-width="2.4" d="M1.17712086 1.44C.917078504 1.44.706272519 1.22509668.706272519.96.706272519.69490332.917078504.48 1.17712086.48M1.17712086 1.44C1.43716323 1.44 1.64796921 1.22509668 1.64796921.96 1.64796921.69490332 1.43716323.48 1.17712086.48" transform="translate(10.323 8.94)"/><path stroke-width="2.4" d="M1.17712086 1.44C.917078504 1.44.706272519 1.22509668.706272519.96.706272519.69490332.917078504.48 1.17712086.48M1.17712086 1.44C1.43716323 1.44 1.64796921 1.22509668 1.64796921.96 1.64796921.69490332 1.43716323.48 1.17712086.48" transform="translate(15.715 8.94)"/></g></svg>