<svg xmlns="http://www.w3.org/2000/svg" width="26" height="26" viewBox="0 0 26 26"><g fill="none" fill-rule="evenodd" stroke="#2C2825" stroke-linecap="round" stroke-linejoin="round" stroke-width="2" transform="translate(1 1)"><path d="M4.86035779,9.67252416 C7.52798298,9.67252416 9.69052703,7.50725354 9.69052703,4.83626498 C9.69052703,2.16525707 7.52798298,0 4.86035779,0 C2.19273261,0 0.0301885577,2.16525707 0.0301885577,4.83626498 C0.0301885577,7.50725354 2.19273261,9.67252416 4.86035779,9.67252416 Z"/><path fill="#2C2825" fill-opacity=".3" d="M4.8301789 24C7.49780408 24 9.66034813 21.83471 9.66034813 19.1637408 9.66034813 16.4926749 7.49780408 14.3274236 4.8301789 14.3274236 2.16253439 14.3274236 0 16.4926749 0 19.1637408 0 21.83471 2.16253439 24 4.8301789 24ZM19.1698308 9.67252416C21.8374366 9.67252416 24 7.50725354 24 4.83626498 24 2.16525707 21.8374366 0 19.1698308 0 16.502109 0 14.3395649 2.16525707 14.3395649 4.83626498 14.3395649 7.50725354 16.502109 9.67252416 19.1698308 9.67252416Z"/><path d="M19.1394973,24 C21.8071032,24 23.9696665,21.83471 23.9696665,19.1637408 C23.9696665,16.4926749 21.8071032,14.3274236 19.1394973,14.3274236 C16.4719108,14.3274236 14.3093667,16.4926749 14.3093667,19.1637408 C14.3093667,21.83471 16.4719108,24 19.1394973,24 Z"/></g></svg>