<svg xmlns="http://www.w3.org/2000/svg" xmlns:xlink="http://www.w3.org/1999/xlink" width="26" height="25" viewBox="0 0 26 25"><defs><path id="a" d="M20.2177259,8.8699057 C19.0274524,8.17946018 17.665992,7.8146095 16.2784616,7.81419579 C15.1240247,7.81354094 13.9843544,8.0651983 12.9443534,8.55044108 C11.9043525,9.03568386 10.9908691,9.74198918 10.2719774,10.6166785 C9.55310516,11.4913865 9.04738484,12.5119261 8.7925208,13.6022414 C8.53763729,14.6925566 8.54018593,15.8245086 8.79997216,16.9137365 C9.0597584,18.0029645 9.57007015,19.0212919 10.2928724,19.8930192 C11.0156941,20.7647465 11.9323486,21.4670025 12.9745286,21.9478586 C14.0166891,22.4287146 15.1575072,22.6756102 16.3119246,22.6701737 C17.2754275,22.665487 18.2276463,22.4851425 19.1192813,22.140201 L23.1490516,22.7899659 C23.6914645,22.8775135 24.1356284,22.3771608 23.9616983,21.874371 L22.9399074,18.9211839 C23.5373788,17.9064183 23.8803752,16.7672488 23.9381574,15.5957036 C24.0041107,14.2536185 23.693021,12.9192946 23.0377674,11.734889 C22.3827085,10.5504834 21.4079994,9.56033246 20.2177259,8.8699057 Z"/></defs><g fill="none" fill-rule="evenodd" stroke-linecap="round" stroke-linejoin="round" transform="translate(1 1)"><path stroke="#2C2825" stroke-width="2" d="M5.04292589,1.40762009 C6.63002852,0.487038569 8.44526366,0.000562246035 10.2953043,0 C11.8345275,-0.000875635334 13.3541203,0.334683133 14.7407753,0.981673509 C16.1274498,1.62866388 17.3454275,2.57039182 18.3039109,3.73665046 C19.2624721,4.90292785 19.9367918,6.2636473 20.2764808,7.71738848 C20.6163644,9.17114841 20.613057,10.6804177 20.2665587,12.1327154 C19.9202548,13.585013 19.239904,14.942883 18.2760899,16.1050923 C17.3123147,17.2673391 16.0901151,18.2039304 14.7005418,18.8450718 C13.310988,19.4860257 11.7898971,19.8152199 10.2506739,19.8079086 C8.96600345,19.8017222 7.69637192,19.5612004 6.50751868,19.1013409 L1.13447869,19.967819 C0.411170628,20.0844243 -0.18084743,19.4172248 0.0510944189,18.7468384 L1.41344782,14.8092931 C0.616851752,13.4563161 0.1593202,11.9374109 0.0824602067,10.3753694 C-0.00558851293,8.58589132 0.409244556,6.80681776 1.28278622,5.22760409 C2.15630843,3.64839042 3.45584271,2.32818286 5.04292589,1.40762009 Z"/><g fill-rule="nonzero"><use xlink:href="#a" fill="#FFF"/><use xlink:href="#a" fill="#2C2825" fill-opacity=".2" stroke="#2C2825" stroke-width="2"/></g></g></svg>