<svg xmlns="http://www.w3.org/2000/svg" width="26" height="26" viewBox="0 0 26 26"><g fill="none" stroke="#2C2825" stroke-linecap="round" stroke-linejoin="round" stroke-width="2" transform="translate(1 1)"><path fill="#FFF" d="M4.615392 7.384608C6.9784704 7.384608 8.3077056 6.055392 8.3077056 3.6923136 8.3077056 1.3292352 6.9784704 0 4.615392 0 2.2523136 0 .9230784 1.3292352.9230784 3.6923136.9230784 6.055392 2.2523136 7.384608 4.615392 7.384608ZM19.384512 7.384608C21.747648 7.384608 23.076864 6.055392 23.076864 3.6923136 23.076864 1.3292352 21.747648 0 19.384512 0 17.0214528 0 15.6922176 1.3292352 15.6922176 3.6923136 15.6922176 6.055392 17.0214528 7.384608 19.384512 7.384608Z"/><path fill="#2C2825" fill-opacity=".2" d="M4.6154112 24C0 24 0 17.7230784 0 11.9999808 3.6865152 10.8892032 5.7042816 10.9345152 9.2307648 11.9999808 9.2307648 17.7230784 9.2307648 24 4.6154112 24ZM19.384512 11.076864C14.7691392 11.076864 14.7691392 17.5573056 14.7691392 23.280384 18.3744 24.183744 20.395008 24.203328 24 23.280384 24 17.5573056 24 11.076864 19.384512 11.076864Z"/></g></svg>