<svg xmlns="http://www.w3.org/2000/svg" width="25" height="26" viewBox="0 0 25 26"><path fill="#2C2825" fill-opacity=".2" stroke="#2C2825" stroke-width="2" d="M1418.77295,389.662854 C1418.71157,389.586765 1418.67823,389.492474 1418.67843,389.395437 L1418.67843,386.604563 C1418.67823,386.507526 1418.71157,386.413235 1418.77295,386.337146 L1420.08798,384.724 C1420.32448,384.434061 1420.46626,384.081011 1420.49469,383.71095 C1420.52313,383.34089 1420.43684,382.97104 1420.24722,382.649709 L1419.48047,381.350291 C1419.29124,381.028691 1419.00748,380.770432 1418.66608,380.609248 C1418.32467,380.448083 1417.94149,380.391482 1417.56675,380.446854 L1415.48321,380.757146 C1415.38457,380.770682 1415.28436,380.752 1415.19769,380.704 L1412.72901,379.308563 C1412.64202,379.257395 1412.57537,379.17881 1412.53991,379.085709 L1411.77128,377.172563 C1411.63364,376.827443 1411.39295,376.530957 1411.08063,376.321782 C1410.76828,376.112612 1410.39881,376.000472 1410.0204,376 L1408.48313,376 C1408.10472,376.000472 1407.73525,376.112612 1407.42291,376.321782 C1407.11058,376.530957 1406.86989,376.827443 1406.73225,377.172563 L1405.96011,379.085709 C1405.92334,379.176275 1405.85681,379.252269 1405.77103,379.301709 L1403.29704,380.704 C1403.21052,380.752115 1403.11016,380.770816 1403.01164,380.757146 L1400.93335,380.446854 C1400.55857,380.391482 1400.17543,380.448083 1399.83402,380.609248 C1399.49262,380.770432 1399.20878,381.028691 1399.01965,381.350291 L1398.25277,382.649709 C1398.06312,382.97104 1397.97688,383.34089 1398.00531,383.71095 C1398.03372,384.081011 1398.1755,384.434061 1398.4121,384.724 L1399.72699,386.337146 C1399.78853,386.413235 1399.82186,386.507526 1399.82155,386.604563 L1399.82155,389.395437 C1399.82186,389.492474 1399.78853,389.586765 1399.72699,389.662854 L1398.4121,391.276 C1398.1755,391.565939 1398.03372,391.918989 1398.00531,392.28905 C1397.97688,392.65911 1398.06312,393.028979 1398.25277,393.350291 L1399.01965,394.649728 C1399.20878,394.971328 1399.49262,395.229568 1399.83402,395.390656 C1400.17543,395.551936 1400.55857,395.608576 1400.93335,395.553088 L1403.01689,395.242816 C1403.11541,395.229184 1403.21578,395.247808 1403.30229,395.296 L1405.77103,396.691456 C1405.85681,396.7408 1405.92334,396.816832 1405.96011,396.907456 L1406.72876,398.827456 C1406.86638,399.17248 1407.10707,399.46912 1407.41941,399.678208 C1407.73174,399.887296 1408.10123,399.999616 1408.47964,400 L1410.0134,400 C1410.39181,399.999616 1410.76128,399.887296 1411.07363,399.678208 C1411.38595,399.46912 1411.62664,399.17248 1411.76428,398.827456 L1412.53291,396.907456 C1412.5697,396.816832 1412.63623,396.7408 1412.72201,396.691456 L1415.19082,395.296 C1415.2773,395.248 1415.37771,395.229376 1415.47615,395.242816 L1417.55969,395.553088 C1417.93443,395.608576 1418.31761,395.551936 1418.65902,395.390656 C1419.00042,395.229568 1419.28418,394.971328 1419.47341,394.649728 L1420.24035,393.350291 C1420.42998,393.028979 1420.51607,392.65911 1420.48763,392.28905 C1420.45939,391.918989 1420.31762,391.565939 1420.08093,391.276 L1418.77295,389.662854 Z M1409.25001,391.857146 C1408.47085,391.857146 1407.70921,391.630931 1407.06136,391.207091 C1406.41353,390.78327 1405.9086,390.18087 1405.61041,389.476058 C1405.31224,388.771264 1405.23423,387.995718 1405.38623,387.247514 C1405.53824,386.49929 1405.91344,385.812026 1406.4644,385.272582 C1407.01533,384.733158 1407.71729,384.365805 1408.48146,384.216966 C1409.24564,384.068147 1410.03774,384.144525 1410.75759,384.436461 C1411.47743,384.728397 1412.09269,385.222778 1412.52558,385.857088 C1412.95844,386.491398 1413.18949,387.237126 1413.18949,388 C1413.18949,389.022976 1412.77444,390.004058 1412.03564,390.727418 C1411.29684,391.450758 1410.29482,391.857146 1409.25001,391.857146 Z" transform="translate(-1397 -375)"/></svg>