<svg xmlns="http://www.w3.org/2000/svg" width="26" height="26" viewBox="0 0 26 26"><g fill="none" fill-rule="evenodd" stroke="#2C2825" stroke-linecap="round" stroke-linejoin="round" stroke-width="2" transform="translate(1 1)"><path d="M23.5752934,5.22094987 C24.1444622,10.4431948 24.1386681,13.4843424 23.5752934,18.7580505 C23.5729758,18.9437402 23.5173529,19.124449 23.4155708,19.276866 C23.3139818,19.429283 23.1708688,19.5466341 23.0047727,19.6133788 L12.3089775,23.908749 L11.988103,23.9998008 L11.6672286,23.908749 L0.971452629,19.6133788 C0.805356555,19.5466341 0.662243543,19.429283 0.560577296,19.276866 C0.458891734,19.124449 0.403326804,18.9437402 0.401013047,18.7580505 C-0.138542322,13.5471023 -0.128777418,10.3955769 0.401013047,5.14657435 C0.401657662,5.09116619 0.407239067,5.03627463 0.417526068,4.98255733 C0.44179929,5.10503325 0.490121659,5.22429706 0.560596609,5.32997285 C0.662262857,5.48242971 0.805375869,5.59962145 0.971491256,5.66646577 L11.6672672,9.96189575 L12.3090161,9.96189575 L23.0047727,5.66646577 C23.1708688,5.59962145 23.3139818,5.48242971 23.4157639,5.32997285 C23.4858823,5.22465601 23.5341952,5.10586187 23.5581064,4.98124288 C23.5752449,5.05876039 23.5806345,5.13967982 23.5752934,5.22094987 Z"/><path fill="#2C2825" fill-opacity=".2" fill-rule="nonzero" d="M23.5590701,4.97614624 C23.5304861,4.83470724 23.4692623,4.70135731 23.3790683,4.58842926 C23.284239,4.45398351 23.1542592,4.35073843 23.0047727,4.29090728 L12.3090161,0.069852813 C12.207794,0.023789007 12.0985569,0 11.9881416,0 C11.8777071,0 11.7684699,0.023789007 11.6672672,0.069852813 L0.971491256,4.36528279 C0.830174399,4.40433342 0.701121612,4.48125918 0.597137745,4.58842926 C0.506943715,4.70223396 0.44577787,4.83687894 0.418005061,4.97993176 C0.44179929,5.10503325 0.490121659,5.22429706 0.560596609,5.32997285 C0.662262857,5.48242971 0.805375869,5.59962145 0.971491256,5.66646577 L11.6672672,9.96189575 L12.3090161,9.96189575 L23.0047727,5.66646577 C23.1708688,5.59962145 23.3139818,5.48242971 23.4157639,5.32997285 C23.4868376,5.22322118 23.5355076,5.10262247 23.5590701,4.97614624 Z"/><line x1="11.989" x2="11.989" y1="24" y2="9.962"/></g></svg>