<svg xmlns="http://www.w3.org/2000/svg" width="26" height="26" viewBox="0 0 26 26"><g fill="none" fill-rule="evenodd" transform="translate(1 1)"><path fill="#2C2825" fill-opacity=".2" fill-rule="nonzero" d="M0.302545731,16.0839136 C0.487990991,17.936682 1.95944183,19.4399744 3.80874195,19.6656418 C5.19848626,19.8351817 6.62568743,19.9813834 8.08092819,19.9813834 C9.53614965,19.9813834 10.9633315,19.8351817 12.3530951,19.6656418 C14.2023952,19.4399744 15.6738461,17.936682 15.8592971,16.0839136 C16.0196033,14.4821761 16.1618274,12.8337815 16.1618274,11.1509387 C16.1618274,9.46811531 16.0196033,7.81972064 15.8592971,6.21798319 C15.6738461,4.36513766 14.2023952,2.86196095 12.3530951,2.63633207 C10.9633315,2.46675359 9.53614965,2.32057123 8.08092819,2.32057123 C6.62568743,2.32057123 5.19848626,2.46675359 3.80874195,2.63633207 C1.95944183,2.86196095 0.487990991,4.36513766 0.302545731,6.21798319 C0.142233815,7.81972064 0,9.46811531 0,11.1509387 C0,12.8337815 0.142233815,14.4821761 0.302545731,16.0839136 Z"/><path stroke="#2C2825" stroke-linecap="round" stroke-width="2" d="M15.7147379,5.48437108 C15.266973,3.9802107 13.9511004,2.83131261 12.3530951,2.63633207 C10.9633315,2.46675359 9.53614965,2.32057123 8.08092819,2.32057123 C6.62568743,2.32057123 5.19848626,2.46675359 3.80874195,2.63633207 C1.95944183,2.86196095 0.487990991,4.36513766 0.302545731,6.21798319 C0.142233815,7.81972064 0,9.46811531 0,11.1509387 C0,12.8337815 0.142233815,14.4821761 0.302545731,16.0839136 C0.487990991,17.936682 1.95944183,19.4399744 3.80874195,19.6656418 C4.48277257,19.7478079 5.16560295,19.8245734 5.85617171,19.8818583"/><path fill="#FFF" fill-rule="nonzero" stroke="#2C2825" stroke-width="2" d="M3.8293905 2.51645829C3.8293905 3.88157281 5.12918816 4.90774252 6.49289985 4.98348577 7.01384169 5.01239821 7.54373767 5.03292045 8.08090889 5.03292045 8.61808011 5.03292045 9.14799539 5.01239821 9.66893723 4.98348577 11.0326489 4.90774252 12.3324466 3.88157281 12.3324466 2.51645829L12.3324466 2.51645829 12.3324466 2.51645829C12.3324466 1.15134378 11.0326489.125164429 9.66893723.0494366029 9.14799539.0205068067 8.61809941 0 8.08090889 0 7.54373767 0 7.01384169.0205068067 6.49289985.0494366029 5.12918816.125164429 3.8293905 1.15134378 3.8293905 2.51645829L3.8293905 2.51645829 3.8293905 2.51645829ZM10.8092007 20.2224811C10.9849064 22.0762332 12.4642693 23.5930271 14.3154027 23.8032643 15.2927355 23.9141692 16.29118 24 17.3061048 24 18.3210682 24 19.319532 23.9141692 20.2967683 23.8032643 22.1479982 23.5930271 23.6273611 22.0762332 23.8029703 20.2224811 23.9123884 19.0690697 24 17.8878838 24 16.685327 24 15.4828666 23.9123884 14.3016422 23.8029703 13.1481343 23.6273611 11.2943437 22.1479982 9.77760762 20.2967683 9.56742828 19.319532 9.45644618 18.3210682 9.3706154 17.3061048 9.3706154 16.29118 9.3706154 15.2927355 9.45644618 14.3154027 9.56742828 12.4642693 9.77760762 10.9849064 11.2943437 10.8092007 13.1481343 10.6998791 14.3016422 10.6122096 15.4828666 10.6122096 16.685327 10.6122096 17.8878838 10.6998791 19.0690697 10.8092007 20.2224811Z"/><line x1="19.33" x2="15.283" y1="14.611" y2="14.611" stroke="#2C2825" stroke-linecap="round" stroke-width="2"/><line x1="19.33" x2="15.283" y1="19.165" y2="19.165" stroke="#2C2825" stroke-linecap="round" stroke-width="2"/></g></svg>