<svg xmlns="http://www.w3.org/2000/svg" width="26" height="26" viewBox="0 0 26 26"><g fill="none" fill-rule="evenodd" transform="translate(1 1)"><path fill="#FFF" d="M4.0751531,0 L20.0273798,0 L20.0273798,0.0720961866 C18.4797648,0.418322494 17.3753941,1.96198993 17.3664185,3.62063224 C17.3593079,4.93789123 17.3810864,6.24038191 17.4059734,7.24589149 C17.4077802,7.31957736 17.4137639,7.39217361 17.4236332,7.4634662 C17.527086,12.1209308 17.2718053,17.9340981 16.9751823,22.5593605 C16.9184727,23.4435131 15.8377067,23.8363617 15.2280055,23.1942614 L12.7373479,20.5717682 L10.0558903,23.3952583 C9.29008706,24.2015806 8.00628159,24.2015806 7.24049778,23.3952583 L4.55904019,20.5717682 L2.06836316,23.1942614 C1.45868136,23.8363617 0.377911465,23.4435131 0.321207677,22.5593605 C-0.0836084515,16.246931 -0.0996693765,9.91652275 0.23848624,3.60331499 C0.347406005,1.56982232 2.0418637,0 4.0751531,0 Z"/><path stroke="#2C2825" stroke-linecap="round" stroke-linejoin="round" stroke-width="2" d="M20.0273798,0 L4.0751531,0 C2.0418637,0 0.347406005,1.56982232 0.23848624,3.60331499 C-0.0996693765,9.91652275 -0.0836084515,16.246931 0.321207677,22.5593605 L0.321207677,22.5593605 C0.377911465,23.4435131 1.45868136,23.8363617 2.06838259,23.1942614 L4.55904019,20.5717682 L7.24049778,23.3952583 C8.00628159,24.2015806 9.29008706,24.2015806 10.0558903,23.3952583 L12.7373479,20.5717682 L15.2280055,23.1942614 C15.8377067,23.8363617 16.9184727,23.4435131 16.9751823,22.5593605 L16.9751823,22.5593605 C17.2751857,17.8811735 17.5329143,11.9877437 17.4199419,7.30405021"/><path fill="#2C2825" fill-opacity=".2" stroke="#2C2825" stroke-width="2" d="M17.4058957,7.24589149 C17.4316957,8.28846777 18.2866529,9.11051178 19.3279806,9.11051178 L22.0369867,9.11051178 C23.0783144,9.11051178 23.9333299,8.28846777 23.9591688,7.24589149 C23.9840363,6.24038191 24.0057954,4.93789123 23.9986072,3.62063224 C23.9885047,1.73610684 22.5640617,0 20.6824837,0 L20.6824837,0 L20.6824837,0 C18.8009056,0 17.3765403,1.73610684 17.3663408,3.62063224 C17.3592302,4.93789123 17.3810087,6.24038191 17.4058957,7.24589149 Z"/><path stroke="#2C2825" stroke-linecap="round" stroke-linejoin="round" stroke-width="2" d="M11.3653404,7.67895894 C11.3653404,7.67895894 10.3665207,6.56384479 8.74653733,6.70320001 C7.12653457,6.84255523 6.34565539,7.83936727 6.34565539,8.83890336 C6.34565539,11.7541943 11.3653404,9.73387441 11.3653404,12.723396 C11.3653404,14.2646313 8.03557864,15.3525437 6.05173288,13.5393498"/><line x1="8.945" x2="8.945" y1="4.743" y2="6.691" stroke="#2C2825" stroke-linecap="round" stroke-width="2"/><line x1="8.945" x2="8.945" y1="14.469" y2="16.417" stroke="#2C2825" stroke-linecap="round" stroke-width="2"/></g></svg>