<svg xmlns="http://www.w3.org/2000/svg" width="25" height="26" viewBox="0 0 25 26"><g fill="none" fill-rule="evenodd" stroke="#2C2825" stroke-linecap="round" stroke-linejoin="round" stroke-width="1.5" transform="translate(1 1)"><path d="M18.4,3.2 L16.3218222,3.2 C15.6649199,3.20047876 15.1005394,3.68681926 14.9758841,4.35982793 C14.8512287,5.0328366 15.2012895,5.70359913 15.8107111,5.95946667 L17.9205778,6.84053333 C18.5299994,7.09640087 18.8800602,7.7671634 18.7554048,8.44017207 C18.6307495,9.11318074 18.066369,9.59952124 17.4094667,9.6 L15.3333333,9.6"/><line x1="16.867" x2="16.867" y1="3.2" y2="2.4"/><line x1="16.867" x2="16.867" y1="10.4" y2="9.6"/><path d="M10.7333333 6.4C10.7333333 9.9346224 13.4793202 12.8 16.8666667 12.8 20.2540131 12.8 23 9.9346224 23 6.4 23 2.8653776 20.2540131 0 16.8666667 0 13.4793202 0 10.7333333 2.8653776 10.7333333 6.4ZM0 17.6C0 21.1346224 2.74598687 24 6.13333333 24 9.5206798 24 12.2666667 21.1346224 12.2666667 17.6 12.2666667 14.0653776 9.5206798 11.2 6.13333333 11.2 2.74598687 11.2 0 14.0653776 0 17.6Z"/><path d="M7.66666667,20.8 C5.97299343,20.8 4.6,19.3673112 4.6,17.6 C4.6,15.8326888 5.97299343,14.4 7.66666667,14.4"/><line x1="3.833" x2="7.667" y1="17.6" y2="17.6"/><polyline points="0 4 2.3 8 6.133 5.6"/><path d="M7.60431111,0.16 C4.68733516,1.26994149 2.83964633,4.27568459 3.08915556,7.50506667"/><polyline points="23 20 20.7 16 16.867 18.4"/><path d="M15.3956889,23.84 C18.3118843,22.7302705 20.1593959,19.7256886 19.9108444,16.4970667"/></g></svg>