<svg xmlns="http://www.w3.org/2000/svg" width="26" height="26" viewBox="0 0 26 26"><g fill="none" fill-rule="evenodd" transform="translate(1 1)"><path fill="#FFF" fill-rule="nonzero" d="M0.38912545,18.768 C0.705535539,21.5328 3.0049132,23.72544 5.84867344,23.85984 C7.81395349,23.952 9.82050442,24 12,24 C14.1794956,24 16.1860465,23.952 18.1513266,23.85984 C20.9950868,23.72544 23.2944645,21.53088 23.6108745,18.768 C23.8250901,16.9056 24,14.99904 24,13.056 C24,11.11104 23.8231248,9.20256 23.6108745,7.34208 C23.2944645,4.57728 20.9950868,2.38464 18.1513266,2.25024 C16.1860465,2.15808 14.1794956,2.11008 12,2.11008 C9.82050442,2.11008 7.81395349,2.15808 5.84867344,2.25024 C3.0049132,2.38464 0.705535539,4.5792 0.38912545,7.34208 C0.174909925,9.20448 0,11.11104 0,13.056 C0,14.99904 0.176875205,16.90752 0.38912545,18.768 L0.38912545,18.768 Z"/><line x1="7.584" x2="7.584" y2="4.877" stroke="#2C2825" stroke-linecap="round" stroke-width="2"/><line x1="16.402" x2="16.402" y2="4.877" stroke="#2C2825" stroke-linecap="round" stroke-width="2"/><polygon fill="#2C2825" fill-opacity=".2" fill-rule="nonzero" points="23.139 11.242 .861 11.242 1.171 3.494 11.866 2.736 23.137 3.494 23.137 11.242"/><path stroke="#2C2825" stroke-width="2" d="M0.38912545,18.768 C0.705535539,21.5328 3.0049132,23.72544 5.84867344,23.85984 C7.81395349,23.952 9.82050442,24 12,24 C14.1794956,24 16.1860465,23.952 18.1513266,23.85984 C20.9950868,23.72544 23.2944645,21.53088 23.6108745,18.768 C23.8250901,16.9056 24,14.99904 24,13.056 C24,11.11104 23.8231248,9.20256 23.6108745,7.34208 C23.2944645,4.57728 20.9950868,2.38464 18.1513266,2.25024 C16.1860465,2.15808 14.1794956,2.11008 12,2.11008 C9.82050442,2.11008 7.81395349,2.15808 5.84867344,2.25024 C3.0049132,2.38464 0.705535539,4.5792 0.38912545,7.34208 C0.174909925,9.20448 0,11.11104 0,13.056 C0,14.99904 0.176875205,16.90752 0.38912545,18.768 L0.38912545,18.768 Z"/><line x1=".574" x2="23.544" y1="10.512" y2="10.512" stroke="#2C2825" stroke-width="2"/></g></svg>