<svg xmlns="http://www.w3.org/2000/svg" width="26" height="26" viewBox="0 0 26 26"><g fill="none" fill-rule="evenodd" stroke="#2C2825" stroke-linejoin="round" stroke-width="2" transform="translate(1 1)"><path fill="#2C2825" fill-opacity=".2" d="M11.9999697,0 C9.74875004,0 7.81566043,0.107559606 5.86752413,0.215979689 C5.09756339,0.258823431 4.32525771,0.30178724 3.52999116,0.338307479 C3.07788691,0.35907899 2.64299841,0.533375579 2.3159185,0.853713099 C1.25248863,1.89517024 0,3.38169402 0,4.65802132 C0,5.92688448 1.19519395,7.22030125 2.2781259,8.36201395 C2.63334508,8.73652149 3.11575767,8.95836443 3.6250589,8.98211759 C4.38685144,9.0176773 5.12828209,9.05894016 5.86752413,9.10006295 C7.81566043,9.20848303 9.74867187,9.31604264 11.9999697,9.31604264 M11.9999697,0 L11.9998915,9.31604264"/><path fill="#FFF" d="M11.9999697,8.46787261 C14.2511894,8.46787261 16.1842985,8.57545223 18.1323762,8.6838523 C18.9022979,8.72669604 19.6747599,8.76967986 20.4698896,8.8062001 C20.9220721,8.82697161 21.3568628,9.0012682 21.6839818,9.32158571 C22.7474117,10.3630629 24,11.8495666 24,13.1259139 C24,14.3947571 22.8046673,15.6881939 21.7218917,16.8299066 C21.3666334,17.2044141 20.8841622,17.4262571 20.3749196,17.4500102 C19.6130098,17.4855699 18.8716182,17.5268128 18.1323762,17.5679556 C16.1842985,17.6763757 14.2512675,17.7839353 11.9999697,17.7839353 M11.9999697,8.46787261 L12.0000479,17.7839353"/><line x1="12" x2="12" y1=".091" y2="24" stroke-linecap="round"/></g></svg>