<svg xmlns="http://www.w3.org/2000/svg" width="25" height="26" viewBox="0 0 25 26"><g fill="none" fill-rule="evenodd" stroke="#2C2825" stroke-width="2" transform="translate(1 1)"><path fill="#2C2825" fill-opacity=".2" fill-rule="nonzero" d="M22.2402429,20.1680048 C22.4854456,16.3283097 22.5570998,12.4798977 22.4549959,8.63401914 C22.436867,7.85400403 22.1749204,7.098121 21.7043831,6.46802184 C19.9045484,4.07202482 18.4728617,2.58202668 16.1105787,0.8000289 C15.4597104,0.312318513 14.6663121,0.0410907822 13.8464685,0.0260298642 C12.980762,0.00808901842 12.1148805,-0.000578157415 11.2489799,0 C8.47355302,0 6.23398603,0.0800297969 3.91874417,0.2380296 C1.94890342,0.367687795 0.382620567,1.9052927 0.257716846,3.83202512 C0.0847155815,6.5513936 -0.00122767029,9.27538972 0,12.0000149 C0,14.8000115 0.0879597132,17.5320081 0.257716846,20.1680048 C0.380432846,22.0960024 1.94710711,23.6300005 3.91874417,23.7620003 C6.23398603,23.9200001 8.47355302,24 11.2489799,24 C14.0244067,24 16.2639737,23.9200001 18.5792156,23.7620003 C20.5490563,23.6323421 22.1153392,22.0947372 22.2402429,20.1680048 Z"/><line x1="7.351" x2="15.147" y1="12.032" y2="12.032" stroke-linecap="round"/><path stroke-linecap="round" stroke-linejoin="round" d="M7.35070163,17.8440089 L15.1227149,17.8440089 M7.35070163,6.00002367 L12.0548149,6.00002367"/></g></svg>