<svg xmlns="http://www.w3.org/2000/svg" width="26" height="26" viewBox="0 0 26 26"><g fill="none" stroke="#2C2825" stroke-linecap="round" stroke-linejoin="round" stroke-width="2" transform="translate(1 1)"><path fill="#2C2825" fill-opacity=".2" d="M12.0000174,24 C18.6273562,24 24,18.6273562 24,12.0000174 C24,5.37258178 18.6273562,0 12.0000174,0 C5.37258178,0 0,5.37258178 0,12.0000174 C0,18.6273562 5.37258178,24 12.0000174,24 Z"/><path fill="#FFF" d="M4.15375728 16.6154088C5.0106222 16.6154088 5.83237193 16.2750257 6.4382591 15.6691386 7.04414627 15.0632514 7.38452927 14.2414823 7.38452927 13.3846368L7.38452927 10.6153981C7.38452927 9.75853318 7.72493164 8.93678345 8.33081881 8.33089628 8.93670598 7.72500912 9.75845571 7.38462611 10.6153206 7.38462611 11.4721662 7.38462611 12.2939159 7.04424311 12.8998224 6.43835594 13.5057096 5.83246877 13.8460926 5.01069967 13.8460926 4.15385412L13.8460926.141123173C13.2443309.0482083359 12.6277911 0 12.0000174 0 5.37258178 0 0 5.37258178 0 12.0000174 0 13.6355177.32719108 15.194609.91969264 16.6154088L4.15375728 16.6154088ZM23.9986442 11.8147959C23.0745704 11.3355791 22.0499738 11.0826839 21.0091076 11.0769508L17.076729 11.0769508C16.2198835 11.0769508 15.3981144 11.4173338 14.7922272 12.023221 14.18634 12.6291081 13.845957 13.4508772 13.845957 14.3077228 13.845957 15.1645877 14.18634 15.9863374 14.7922272 16.5922246 15.3981144 17.1981118 16.2198835 17.5384948 17.076729 17.5384948 17.6887754 17.5384948 18.275817 17.7816282 18.7085105 18.2144186 19.1413977 18.6471122 19.3844731 19.2341731 19.3844731 19.8462195L19.3844731 21.4522601 19.39377 21.4522601C22.1805178 19.2694239 23.9777262 15.8807013 23.9998063 12.0714099L23.9998063 11.9286637C23.9996126 11.8906626 23.9992253 11.8527196 23.9986442 11.8147959Z"/></g></svg>