<svg xmlns="http://www.w3.org/2000/svg" width="26" height="26" viewBox="0 0 26 26"><defs><clipPath id="a"><path d="M2387,0 L2387,1000 L0,1000 L0,0 L2387,0 Z"/></clipPath><clipPath id="b"><path d="M8.11485938,0.984196649 C9.25954129,-0.312486367 11.357835,-0.330166023 12.80139,0.944713498 C14.2797201,2.25016498 14.4928144,4.39606558 13.2716272,5.67906547 L5.91832589,13.4038563 L1.35350832,14.8366106 C0.633005923,15.0627466 -0.136355555,14.3654938 0.0205769531,13.6286036 L0.995865257,9.04894377 Z"/></clipPath></defs><g clip-path="url(#a)" transform="translate(-2306 -376)"><g transform="translate(2307 377)"><path fill="none" stroke="#2C2824" stroke-linecap="round" stroke-miterlimit="10" stroke-width="2" d="M8.93395925,0 C7.25451287,0.0755136971 5.6072335,0.259099743 4.00100812,0.44459533 C2.14726097,0.65867618 0.664757837,2.13806955 0.457594562,3.98963069 C0.224715065,6.07099264 0,8.22154172 0,10.4217968 C0,12.6220711 0.224715065,14.7726009 0.457594562,16.8540014 C0.664757837,18.7054854 2.14726097,20.184898 4.0009888,20.3989982 C6.09565043,20.6408735 8.26011351,20.8796626 10.4746914,20.8796626 C12.6892694,20.8796626 14.8537131,20.6408735 16.9483748,20.3989982 C18.8021605,20.184898 20.2845478,18.7056783 20.4918463,16.8540014 C20.6593466,15.3568435 20.8225966,13.8238286 20.9010338,12.2622671" transform="translate(0 3.12)"/><g transform="translate(9.935)"><g clip-path="url(#b)"><polygon fill="#FFF" points="0 0 14.065 0 14.065 14.88 0 14.88 0 0"/></g><path fill="none" stroke="#2C2824" stroke-linecap="round" stroke-linejoin="round" stroke-width="2" d="M8.11485938,0.984196649 L0.995865257,9.04894377 L0.0205769531,13.6286036 C-0.136355555,14.3654938 0.633005923,15.0627466 1.35350832,14.8366106 L5.91832589,13.4038563 L13.2716272,5.67906547 C14.4928144,4.39606558 14.2797201,2.25016498 12.80139,0.944713498 C11.357835,-0.330166023 9.25954129,-0.312486367 8.11485938,0.984196649 Z"/></g></g></g></svg>