<svg xmlns="http://www.w3.org/2000/svg" width="24" height="6" viewBox="0 0 24 6"><path fill="#2C2825" d="M2354.12831,290.545069 C2354.12831,289.840933 2353.87805,289.240721 2353.37752,288.744433 C2352.87699,288.248144 2352.26617,288 2351.54507,288 C2351.07847,288 2350.65217,288.114528 2350.26617,288.343584 C2349.88017,288.572641 2349.57264,288.88017 2349.34358,289.266172 C2349.11453,289.652174 2349,290.078473 2349,290.545069 C2349,291.020148 2349.11453,291.448568 2349.34358,291.830329 C2349.57264,292.212089 2349.88017,292.517497 2350.26617,292.746554 C2350.65217,292.97561 2351.07847,293.090138 2351.54507,293.090138 C2352.02863,293.090138 2352.46341,292.97561 2352.84942,292.746554 C2353.23542,292.517497 2353.54507,292.212089 2353.77837,291.830329 C2354.01166,291.448568 2354.12831,291.020148 2354.12831,290.545069 Z M2363.54507,290.545069 C2363.54507,289.840933 2363.29692,289.240721 2362.80064,288.744433 C2362.30435,288.248144 2361.70414,288 2361,288 C2360.5334,288 2360.1071,288.114528 2359.7211,288.343584 C2359.3351,288.572641 2359.02969,288.88017 2358.80488,289.266172 C2358.58006,289.652174 2358.46766,290.078473 2358.46766,290.545069 C2358.46766,291.020148 2358.58006,291.448568 2358.80488,291.830329 C2359.02969,292.212089 2359.3351,292.517497 2359.7211,292.746554 C2360.1071,292.97561 2360.5334,293.090138 2361,293.090138 C2361.47508,293.090138 2361.9035,292.97561 2362.28526,292.746554 C2362.66702,292.517497 2362.97243,292.212089 2363.20148,291.830329 C2363.43054,291.448568 2363.54507,291.020148 2363.54507,290.545069 Z M2373,290.545069 C2373,289.840933 2372.75186,289.240721 2372.25557,288.744433 C2371.75928,288.248144 2371.15907,288 2370.45493,288 C2369.97985,288 2369.54719,288.114528 2369.15695,288.343584 C2368.7667,288.572641 2368.45705,288.88017 2368.228,289.266172 C2367.99894,289.652174 2367.88441,290.078473 2367.88441,290.545069 C2367.88441,291.020148 2367.99894,291.448568 2368.228,291.830329 C2368.45705,292.212089 2368.7667,292.517497 2369.15695,292.746554 C2369.54719,292.97561 2369.97985,293.090138 2370.45493,293.090138 C2370.92153,293.090138 2371.34783,292.97561 2371.73383,292.746554 C2372.11983,292.517497 2372.42736,292.212089 2372.65642,291.830329 C2372.88547,291.448568 2373,291.020148 2373,290.545069 Z" transform="translate(-2349 -288)"/></svg>