<svg xmlns="http://www.w3.org/2000/svg" width="26" height="26" viewBox="0 0 26 26"><g fill="none" stroke="#2C2825" stroke-width="2" transform="translate(1 1)"><path fill="#2C2825" fill-opacity=".2" d="M17.0817587,20.99136 C17.2692045,17.9987328 17.3239511,14.9993424 17.2458393,12.00192 C17.231924,11.3893753 17.0298356,10.7957438 16.6667316,10.3008 C15.2865249,8.43264 14.1881506,7.26912 12.3774739,5.87904 C11.8755806,5.49504 11.2617264,5.28576 10.6285687,5.27232 C9.99927163,5.25888 9.34101921,5.25312 8.6402989,5.25312 C6.5130433,5.25312 4.79888452,5.31456 3.02295425,5.43552 C1.5022761,5.53753521 0.293253935,6.74499775 0.196908699,8.25792 C0.0646397096,10.3782438 -0.0010244995,12.502159 0,14.62656 C0,16.80768 0.0675746465,18.93696 0.196908699,20.99136 C0.293426648,22.50816 1.50183137,23.712 3.02295425,23.81376 C4.79888452,23.93664 6.5130433,24 8.6402989,24 C10.7636938,24 12.4817133,23.93664 14.2557132,23.81568 C15.7763913,23.7136648 16.9854135,22.5062022 17.0817587,20.99328 L17.0817587,20.99136 Z"/><path fill="#FFF" d="M23.8013384,15.74016 C23.9889986,12.7469005 24.0437454,9.74686142 23.9654189,6.7488 C23.9515036,6.13625527 23.7494152,5.54262376 23.3863112,5.04768 C22.0061045,3.17952 20.9077303,2.01792 19.0970535,0.62784 C18.5951602,0.24384 17.981306,0.03264 17.3481483,0.02112 C16.7188513,0.00768 16.0605988,0 15.3598785,0 C13.2326229,0 11.5184642,0.06336 9.74253388,0.18432 C8.22185573,0.286335208 7.01283356,1.49379775 6.91648833,3.00672 C6.78426326,5.12640506 6.71859908,7.24967916 6.71958063,9.37344 C6.71958063,11.55648 6.78715428,13.68576 6.91648833,15.74016 C7.01300628,17.25504 8.221411,18.4608 9.74253388,18.56256 C11.5184642,18.68544 13.2326229,18.7488 15.3598785,18.7488 C17.4832734,18.7488 19.2012929,18.68544 20.9752928,18.56448 C22.495971,18.4624648 23.7049931,17.2550022 23.8013384,15.74208 L23.8013384,15.74016 Z"/></g></svg>