<svg xmlns="http://www.w3.org/2000/svg" width="26" height="26" viewBox="0 0 26 26"><g fill="none" fill-rule="evenodd" transform="translate(1 1)"><path fill="#2C2825" fill-opacity=".2" fill-rule="nonzero" d="M11.8045298,11.2609639 C12.3200476,12.1729896 13.4028197,12.7157047 14.417842,12.591645 C15.578365,12.4497739 16.2856137,11.4840039 16.0238953,10.3736106 C15.9214922,9.93915939 15.8048076,9.45251439 15.6772658,8.9345686 C15.8679033,8.97883811 16.0565487,9.02249883 16.2429368,9.06550351 C17.2845937,10.4081213 17.8786915,12.1828207 17.9817209,14.3459376 L12.8062045,14.346699 C12.1636314,14.346699 11.5473838,14.6009623 11.0930394,15.0535543 C10.6386755,15.5061464 10.3834169,16.1199908 10.3834169,16.7600582 C10.3834169,17.4001061 10.6386755,18.0138925 11.0930394,18.4664458 C11.5473838,18.9191929 12.1636314,19.1734755 12.8062045,19.1734755 C13.2651797,19.1734755 13.7053593,19.3550782 14.0299049,19.6783583 C14.3544505,20.0016383 14.5367642,20.4400433 14.5367642,20.8972481 L14.5367642,22.0969504 C14.6039109,22.2047104 14.6742875,22.3167343 14.7475827,22.4328283 C13.2855309,23.4610342 11.3526547,24 8.99894187,24 C4.54196307,24 1.59397917,22.0674293 0.488638455,18.5346801 L0.483102114,18.5168371 C0.555755193,18.505596 0.625567524,18.4945486 0.692286166,18.4838889 L3.11507372,18.4838889 C3.75764681,18.4838889 4.37389435,18.2296063 4.82825822,17.777053 C5.28262209,17.3244803 5.53788072,16.7106359 5.53788072,16.0705879 L5.53788072,14.0020026 C5.53788072,13.3619353 5.7931199,12.7480908 6.24748377,12.2954988 C6.70184764,11.8429261 7.31809518,11.5886629 7.96066828,11.5886629 C8.60322191,11.5886629 9.21946945,11.3343996 9.67383332,10.8818076 C10.1281972,10.4292155 10.3834558,9.81537105 10.3834558,9.1753037 L10.3841692,8.66545851 C10.8998679,9.64219857 11.4013679,10.5477027 11.8045298,11.2609639 Z"/><path stroke="#2C2925" stroke-linecap="round" stroke-linejoin="round" stroke-width="2" d="M.692227794 18.4838889 3.1150348 18.4838889C3.75758844 18.4838889 4.37383598 18.2296063 4.82819985 17.777053 5.28256372 17.3244609 5.53782235 16.7106165 5.53782235 16.0705491L5.53782235 14.0019833C5.53782235 13.3619159 5.79308099 12.7480715 6.24744486 12.2954794M10.3834169 16.7600194C10.3834169 17.4000868 10.6386755 18.0138925 11.0930394 18.4664458 11.5473838 18.9191929 12.1636314 19.1732817 12.8062045 19.1732817 13.2651797 19.1732817 13.7053593 19.3550782 14.0299049 19.6781645 14.3544505 20.0014445 14.5367642 20.4400433 14.5367642 20.8972481L14.5367642 22.0969504C14.6039109 22.2045166 14.6742875 22.3167343 14.7475827 22.4326345"/><path fill="#2C2825" fill-opacity=".2" fill-rule="nonzero" stroke="#2C2925" stroke-linejoin="round" stroke-width="2" d="M2.67189772,3.14359196 C2.49843703,4.49989516 3.46504986,5.78221995 4.77274691,6.16317873 C6.28351846,6.60330861 8.01271621,7.06311051 9.78656817,7.51165188 C10.4988174,8.91588503 11.2460312,10.272886 11.8045298,11.2609639 C12.3200476,12.1729896 13.4028197,12.7157047 14.417842,12.591645 C15.578365,12.4497739 16.2856137,11.4840039 16.0238953,10.3736106 C15.9214922,9.93915939 15.8048076,9.45251439 15.6772658,8.9345686 C17.5604087,9.37186882 19.2491744,9.74976535 20.487818,10.0227122 C21.6071891,10.2693779 22.6477586,9.5811093 22.8907787,8.47685988 C22.9199644,8.40842452 22.9452588,8.33700444 22.9660779,8.26279345 C23.3659228,6.83613614 23.7194596,5.13000052 23.9613123,3.85597093 C24.1658071,2.77811883 23.5414265,1.69495626 22.5183684,1.30748536 C21.4955049,0.920014463 20.3796361,1.34401911 19.9136369,2.32281339 C19.5933718,2.99565452 19.2176538,3.80806036 18.8578907,4.64205698 C15.9136315,3.33787009 11.9317603,1.63260663 8.45517229,0.345378374 C5.88842113,-0.604969981 3.01881909,0.431024328 2.67189772,3.14359196 Z"/><path stroke="#2C2925" stroke-linecap="round" stroke-linejoin="round" stroke-width="2" d="M17.9978837,15.0362274 C17.9978837,20.773014 14.7582647,24 8.99894187,24 C3.23961907,24 0,20.773014 0,15.0362274 C0,12.8582929 0.466913747,11.0421103 1.36132101,9.62688793"/></g></svg>