<svg xmlns="http://www.w3.org/2000/svg" width="24" height="24" viewBox="0 0 24 24"><path fill="#2C2825" fill-rule="evenodd" d="M2409.84511,376 C2410.55622,376 2411.13271,376.58281 2411.13271,377.301743 L2411.13271,385.558502 C2412.30143,385.0536 2413.12046,383.880816 2413.12046,382.514646 L2413.12046,377.491581 C2413.12046,376.772647 2413.69694,376.189838 2414.40806,376.189838 C2415.11919,376.189838 2415.69565,376.772647 2415.69565,377.491581 L2415.69565,382.514646 C2415.69565,385.176814 2413.9552,387.42803 2411.5619,388.168704 L2411.5619,398.264343 C2411.5619,399.222946 2410.79326,400 2409.84511,400 C2408.89694,400 2408.12832,399.222946 2408.12832,398.264343 L2408.12832,388.167004 C2405.73782,387.424611 2404,385.174801 2404,382.514646 L2404,377.491581 C2404,376.772647 2404.57648,376.189838 2405.2876,376.189838 C2405.99872,376.189838 2406.57518,376.772647 2406.57518,377.491581 L2406.57518,382.514646 C2406.57518,383.878699 2407.39167,385.049955 2408.55751,385.556142 L2408.55751,377.301743 C2408.55751,376.58281 2409.13398,376 2409.84511,376 Z M2428,377.46192 C2428,377.223371 2427.903,376.995343 2427.73149,376.831425 C2427.56016,376.667508 2427.32942,376.582159 2427.09388,376.595437 C2423.9209,376.774263 2421.34347,377.849878 2419.56448,379.817661 C2417.78913,381.781366 2416.90656,384.525422 2416.90656,387.850333 C2416.90656,391.175244 2417.78913,393.9193 2419.56448,395.883022 C2421.34347,397.850736 2423.9209,398.926496 2427.09388,399.105269 C2427.32942,399.11846 2427.56016,399.033239 2427.73149,398.86922 C2427.903,398.705374 2428,398.477308 2428,398.238829 L2428,396.607659 C2428,396.221996 2427.69081,395.909404 2427.30933,395.909404 C2427.27534,395.909404 2427.24152,395.907668 2427.2077,395.904544 C2425.03733,395.695745 2423.22817,394.89526 2421.96736,393.464384 C2420.70915,392.036373 2420.10752,390.10594 2420.10752,387.850611 C2420.10752,385.595263 2420.70915,383.664849 2421.96736,382.236854 C2423.22817,380.805979 2425.03733,380.005494 2427.2077,379.796746 C2427.24152,379.793501 2427.27534,379.791869 2427.30933,379.791869 C2427.69081,379.791869 2428,379.479208 2428,379.09351 L2428,377.46192 Z M2428,393.094255 C2428,393.450846 2427.71415,393.739833 2427.36152,393.739833 C2425.62104,393.563143 2424.38151,392.942524 2423.56981,392.021238 C2422.74781,391.088392 2422.25355,389.721163 2422.25355,387.850611 C2422.25355,385.980059 2422.74781,384.61283 2423.56981,383.679966 C2424.38151,382.758697 2425.62104,382.13813 2427.36152,381.96144 C2427.71415,381.96144 2428,382.250445 2428,382.606948 L2428,393.094255 Z" transform="translate(-2404 -376)"/></svg>