<svg xmlns="http://www.w3.org/2000/svg" width="26" height="26" viewBox="0 0 26 26"><path fill="#2C2825" fill-opacity=".2" stroke="#2C2825" stroke-width="2" d="M14.8213592 7.02912C14.9378641 8.0928 15.8019417 8.94912 16.8796117 9.06624 17.6757282 9.15456 18.4970874 9.23136 19.3339806 9.23136 20.168932 9.23136 20.9902913 9.15456 21.7883495 9.06624 22.8640777 8.94912 23.7300971 8.0928 23.8446602 7.02912 23.9281553 6.24192 24 5.43744 24 4.61568 24 3.79392 23.9281553 2.98752 23.8446602 2.20224 23.7281553 1.13856 22.8640777.28224 21.7883495.1632 20.9739228.0638110241 20.1545323.00932674102 19.3339806 0 18.4970874 0 17.6776699.0768 16.8776699.1632 15.8019417.28224 14.9359223 1.13856 14.8213592 2.20224 14.7378641 2.98752 14.6660194 3.79392 14.6660194 4.61568 14.6660194 5.43744 14.7378641 6.24384 14.8213592 7.02912L14.8213592 7.02912ZM.155339806 7.02912C.27184466 8.0928 1.13592233 8.94912 2.21359223 9.06624 3.00970874 9.15456 3.83106796 9.23136 4.66601942 9.23136 5.50291262 9.23136 6.3223301 9.15456 7.1223301 9.06624 8.19805825 8.94912 9.06407767 8.0928 9.17864078 7.02912 9.26213592 6.24192 9.33398058 5.43744 9.33398058 4.61568 9.33398058 3.79392 9.26213592 2.98752 9.17864078 2.20224 9.06213592 1.13856 8.19805825.28224 7.12038835.1632 6.30660573.0638741809 5.48786503.00939000117 4.66796117 0 3.83300971 0 3.01165049.0768 2.21359223.1632 1.13592233.28224.27184466 1.13856.155339806 2.20224.0718446602 2.98752 0 3.79392 0 4.61568 0 5.43744.0718446602 6.24384.155339806 7.02912ZM.155339806 21.79776C.27184466 22.86144 1.13592233 23.71776 2.21359223 23.8368 3.02738017 23.9360706 3.84611777 23.9905546 4.66601942 24 5.50291262 24 6.3223301 23.9232 7.1223301 23.8368 8.19805825 23.71776 9.06407767 22.86144 9.17864078 21.79776 9.26213592 21.01248 9.33398058 20.20608 9.33398058 19.38432 9.33398058 18.56256 9.26213592 17.75616 9.17864078 16.97088 9.06213592 15.9072 8.19805825 15.05088 7.12038835 14.93376 6.30599944 14.8337133 5.4866079 14.778588 4.66601942 14.76864 3.83106796 14.76864 3.00970874 14.84544 2.21165049 14.93376 1.13592233 15.05088.269902913 15.9072.155339806 16.97088.0718446602 17.75616 0 18.56256 0 19.38432 0 20.20608.0718446602 21.01248.155339806 21.79776ZM14.8213592 21.79776C14.9378641 22.86144 15.8019417 23.71776 16.8796117 23.8368 17.6940429 23.9361416 18.5134308 23.9906257 19.3339806 24 20.168932 24 20.9902913 23.9232 21.7883495 23.8368 22.8640777 23.71776 23.7300971 22.86144 23.8446602 21.79776 23.9281553 21.01248 24 20.20608 24 19.38432 24 18.56256 23.9281553 17.75616 23.8446602 16.97088 23.7281553 15.9072 22.8640777 15.05088 21.7883495 14.93376 20.9739598 14.8337212 20.1545687 14.7785959 19.3339806 14.76864 18.4970874 14.76864 17.6776699 14.84544 16.8776699 14.93376 15.8019417 15.05088 14.9359223 15.9072 14.8213592 16.97088 14.7378641 17.75616 14.6660194 18.56256 14.6660194 19.38432 14.6660194 20.20608 14.7378641 21.01248 14.8213592 21.79776L14.8213592 21.79776Z" transform="translate(1 1)"/></svg>