<svg xmlns="http://www.w3.org/2000/svg" width="26" height="26" viewBox="0 0 26 26"><g fill="none" fill-rule="evenodd" transform="translate(1 1)"><path fill="#2C2825" fill-opacity=".2" fill-rule="nonzero" d="M24,12.5 C24,14.6002 18.627456,22 12,22 C5.3725824,22 0,14.6002 0,12.5 C0,10.3998 5.3725824,3 12,3 C18.627456,3 24,10.3998 24,12.5 Z"/><path stroke="#2C2825" stroke-linejoin="round" stroke-width="2" d="M18.852672,5.55904 C16.9098624,4.09348 14.547648,3 12,3 C5.3725824,3 0,10.3998 0,12.5 C0,13.8367 2.1763584,17.32018 5.4674112,19.6762"/><path stroke="#2C2825" stroke-linecap="round" stroke-linejoin="round" stroke-width="2" d="M22.170048,8.84986 C23.329536,10.35468 24,11.75802 24,12.49996 C24,14.60016 18.627456,22 11.9999808,22 C11.1585408,22 10.3373376,21.8806 9.5447808,21.6682"/><path fill="#2C2825" fill-rule="nonzero" d="M12.1583616,7.25 C9.2890368,7.25 6.9629952,9.67296 6.9629952,12.66184 C6.9629952,14.34054 7.6967232,15.84072 8.8483584,16.83336 L16.1395776,9.18464 C15.1865472,8.00188 13.7567424,7.25 12.1583616,7.25 Z"/><path stroke="#2C2825" stroke-linecap="round" stroke-linejoin="round" stroke-width="2" d="M23.04,0 C15.2496,10.39506 10.1931648,15.60596 0,24"/></g></svg>