<svg xmlns="http://www.w3.org/2000/svg" width="26" height="26" viewBox="0 0 26 26"><g fill="none" fill-rule="evenodd" transform="translate(1 1)"><path fill="#2C2825" fill-opacity=".2" fill-rule="nonzero" stroke="#2C2825" stroke-width="2" d="M9.21142239,0 C11.5944156,0 13.9114182,0.262962334 16.1307119,0.471533156 C17.051872,0.55810504 17.7945486,1.27222281 17.9160848,2.18459841 C18.1026464,3.58435096 18.3106559,5.77859427 18.3897999,7.57280599 C17.2096254,7.47572313 16.007771,7.40689655 14.7886295,7.40689655 C12.4056171,7.40689655 10.0886336,7.66985889 7.86932072,7.87842971 C6.94816062,7.96500159 6.20546486,8.67911936 6.08390943,9.59149496 C5.847845,11.3633825 5.5772013,13.2083586 5.5772013,15.1034483 C5.5772013,15.5485787 5.59213313,15.99094 5.61804139,16.4302371 C4.48915424,16.3388899 3.37892045,16.2237083 2.29211366,16.1215703 C1.37097276,16.0349984 0.628257796,15.3208806 0.506721572,14.408505 C0.270653298,12.6366175 0,10.7916414 0,8.89655172 C0,7.00146207 0.270653298,3.95648594 0.506721572,2.18459841 C0.628257796,1.27222281 1.37097276,0.55810504 2.29211366,0.471533156 C4.51142654,0.262962334 6.8284292,0 9.21142239,0 Z"/><path fill="#000" fill-rule="nonzero" d="M11.0399762,15.2912467 C12.1003557,15.2912467 12.9599797,14.4362037 12.9599797,13.3814324 C12.9599797,12.3266801 12.1003557,11.471618 11.0399762,11.471618 C9.9795966,11.471618 9.11997262,12.3266801 9.11997262,13.3814324 C9.11997262,14.4362037 9.9795966,15.2912467 11.0399762,15.2912467 Z"/><path stroke="#2C2825" stroke-width="2" d="M6.08390943,21.8153634 C6.20546486,22.7278727 6.94816062,23.4419523 7.86932072,23.5284668 C10.0886336,23.7370186 12.4056171,24 14.7886295,24 C17.1716226,24 19.4885677,23.7370186 21.7078998,23.5284668 C22.6291175,23.4419523 23.3717748,22.7278727 23.4933111,21.8153634 C23.7294715,20.0434377 24,18.1985379 24,16.3034483 C24,14.4083586 23.7294715,11.3633825 23.4933111,9.59149496 C23.3717748,8.67911936 22.6291175,7.96500159 21.7078998,7.87842971 C19.4885677,7.66985889 17.1716226,7.40689655 14.7886295,7.40689655 C12.4056171,7.40689655 10.0886336,7.66985889 7.86932072,7.87842971 C6.94816062,7.96500159 6.20546486,8.67911936 6.08390943,9.59149496 C5.847845,11.3633825 5.5772013,14.4083586 5.5772013,16.3034483 C5.5772013,18.1985379 5.847845,20.0434377 6.08390943,21.8153634 Z"/><path fill="#2C2825" fill-opacity=".2" fill-rule="nonzero" stroke="#2C2825" stroke-linecap="round" stroke-linejoin="round" stroke-width="2" d="M23.8897918,18.5505358 C22.368573,17.1832233 20.6926019,16.2461538 18.9824548,16.2461538 C15.4664675,16.2461538 12.0952677,20.2069178 9.91541088,23.7244138 C11.5006426,23.8724244 13.1286136,24 14.7886103,24 C16.8309756,24 18.8248225,23.8069178 20.750394,23.6203289 C21.0714186,23.5891989 21.3907152,23.5582599 21.7078998,23.5284668 C22.6291175,23.4419523 23.3717748,22.7278727 23.4933111,21.8153634 C23.5127031,21.6702175 23.5322871,21.5243077 23.5518712,21.3782069 C23.6760954,20.4536658 23.8030076,19.5100265 23.8897918,18.5505358 Z"/></g></svg>