<svg xmlns="http://www.w3.org/2000/svg" width="26" height="26" viewBox="0 0 26 26"><g fill="none" fill-rule="evenodd" stroke="#2C2825" stroke-linecap="round" stroke-linejoin="round" stroke-width="1.5" transform="translate(1 1)"><path d="M4,8 L4,4.8 C4,3.9163444 4.7163444,3.2 5.6,3.2 C6.4836556,3.2 7.2,3.9163444 7.2,4.8 L7.2,8"/><line x1="4" x2="7.2" y1="6.4" y2="6.4"/><line x1="16.8" x2="16.8" y1="10.4" y2="12"/><line x1="13.6" x2="20" y1="12" y2="12"/><path d="M18.4,12 C18.4,12 16.8,16.8 13.6,16.8"/><path d="M16.8,14.9514667 C17.5230839,16.0296949 18.7047265,16.7122904 20,16.8"/><path d="M11.2,19.2 C10.3163444,19.2 9.6,18.4836556 9.6,17.6 L9.6,9.6 C9.6,8.7163444 10.3163444,8 11.2,8 L22.4,8 C23.2836556,8 24,8.7163444 24,9.6 L24,17.6 C24,18.4836556 23.2836556,19.2 22.4,19.2 L20.8,19.2 L20.8,24 L16,19.2 L11.2,19.2 Z"/><path d="M6.4,12.8 L3.2,16 L3.2,11.2 L1.6,11.2 C0.7163444,11.2 0,10.4836556 0,9.6 L0,1.6 C0,0.7163444 0.7163444,0 1.6,0 L12.8,0 C13.6836556,0 14.4,0.7163444 14.4,1.6 L14.4,4.8"/></g></svg>