<svg xmlns="http://www.w3.org/2000/svg" width="26" height="26" viewBox="0 0 26 26"><g fill="none" fill-rule="evenodd" transform="translate(1 1)"><path fill="#FFF" fill-rule="nonzero" d="M0.40294464,18.27552 C0.69888,21.041664 2.923584,23.266368 5.6883072,23.574528 C7.7418432,23.803392 9.8503104,24 12,24 C14.1496896,24 16.2581568,23.803392 18.311616,23.574528 C21.076416,23.266368 23.30112,21.041664 23.596992,18.27552 C23.815488,16.2336384 24,14.137248 24,12 C24,9.8627328 23.815488,7.7663616 23.596992,5.7244224 C23.30112,2.9583744 21.076416,0.7336512 18.311616,0.42548928 C16.2581568,0.19659264 14.1496896,0 12,0 C9.8503104,0 7.7418432,0.19659264 5.6883072,0.42548928 C2.923584,0.7336512 0.69888,2.9583744 0.40294464,5.7244224 C0.18447936,7.7663616 0,9.8627328 0,12 C0,14.137248 0.18448128,16.2336384 0.40294464,18.27552 Z"/><path fill="#2C2825" fill-opacity=".2" fill-rule="nonzero" stroke="#2C2825" stroke-width="2" d="M4.9359552,9.9946944 C5.0301312,10.9171776 5.7752832,11.6625984 6.6973248,11.7609984 C7.2402048,11.8189248 7.79568,11.8651968 8.3608512,11.8651968 C8.9260416,11.8651968 9.4815168,11.8189248 10.0243968,11.7609984 C10.9464384,11.6625984 11.6915712,10.9171776 11.7857664,9.9946944 C11.8408512,9.4552512 11.884224,8.9033472 11.884224,8.3418432 C11.884224,7.7803392 11.8408512,7.2284352 11.7857664,6.688992 C11.6915712,5.766528 10.9464384,5.021088 10.0243968,4.9227072 C9.4815168,4.8647616 8.9260416,4.8184896 8.3608512,4.8184896 C7.79568,4.8184896 7.2402048,4.8647616 6.6973248,4.9227072 C5.7752832,5.021088 5.0301312,5.766528 4.9359552,6.688992 C4.8808704,7.2284352 4.8374976,7.7803392 4.8374976,8.3418432 C4.8374976,8.9033472 4.8808704,9.4552512 4.9359552,9.9946944 Z"/><path stroke="#2C2825" stroke-linecap="round" stroke-width="2" d="M17.78592.36785088C18.497856.44455104 19.203456.5267712 19.902144.6077376 21.744384.8212608 23.214336 2.2902336 23.421312 4.1332032 23.499264 4.82736 23.577792 5.5284096 23.650752 6.2358144M17.78592 23.627904C18.497856 23.551296 19.203456 23.468928 19.902144 23.388096 21.744384 23.174592 23.214336 21.7056 23.421312 19.862592 23.499264 19.16832 23.577792 18.467328 23.650752 17.7599616M6.24.36785088C5.527968.44455104 4.8223488.5267712 4.1236992.6077376 2.2814784.8212608.8115264 2.2902336.6046272 4.1332032.5266944 4.82736.44811456 5.5284096.37507584 6.2358144M6.24 23.627904C5.527968 23.551296 4.8223488 23.468928 4.1236992 23.388096 2.2814784 23.174592.8115264 21.7056.6046272 19.862592.5266944 19.16832.44811456 18.467328.37507584 17.7599616"/><polyline stroke="#2C2825" stroke-linecap="round" stroke-linejoin="round" stroke-width="2" points="5.481 16.248 5.481 19.182 8.361 19.182"/><polyline stroke="#2C2825" stroke-linecap="round" stroke-linejoin="round" stroke-width="2" points="19.11 19.182 19.11 16.248 16.23 16.248"/><line x1="19.163" x2="16.283" y1="11.955" y2="11.955" stroke="#2C2825" stroke-linecap="round" stroke-linejoin="round" stroke-width="2"/><line x1="11.884" x2="11.884" y1="19.154" y2="16.275" stroke="#2C2825" stroke-linecap="round" stroke-linejoin="round" stroke-width="2"/><polyline stroke="#2C2825" stroke-linecap="round" stroke-linejoin="round" stroke-width="2" points="19.11 8.342 19.11 5.408 16.23 5.408"/></g></svg>