<svg xmlns="http://www.w3.org/2000/svg" width="24" height="24" viewBox="0 0 24 24"><path fill="#2C2825" d="M12.9168947,23.9853068 C13.2352097,23.9519247 13.5386443,23.8333697 13.7952765,23.6421139 C14.0951864,23.4121898 14.3307613,23.1088355 14.4792623,22.7613322 L23.7142711,2.72174709 C23.9470663,2.22735733 24.0382644,1.78336652 23.9854655,1.38497477 C23.9488863,1.01738307 23.7789988,0.675900572 23.5078754,0.424994645 C23.2251322,0.176756216 22.8681778,0.0290800325 22.4926964,0.00500334077 C22.0348154,-0.0238361704 21.5777119,0.0723961467 21.1703238,0.283397576 L1.12353884,9.59520477 C0.800462188,9.7343455 0.521009896,9.95823903 0.31475559,10.2431914 C0.136393973,10.4930547 0.0293740562,10.7867373 0.00516200012,11.0927738 C-0.0173115169,11.3863004 0.0338331343,11.6807946 0.153958919,11.949556 C0.273956435,12.2231504 0.47075236,12.4415458 0.741946745,12.6119423 C1.01314113,12.7799388 1.35393407,12.868737 1.76912548,12.8759368 L10.8625372,12.916736 C11.0353336,12.916736 11.1193319,12.9983343 11.1193319,13.1615309 L11.1361315,22.2429429 C11.1247874,22.5964485 11.2138232,22.9459351 11.3929262,23.250922 C11.7118622,23.7760737 12.3097191,24.0646618 12.9192946,23.9877068 L12.9168947,23.9853068 Z"/></svg>
