<svg xmlns="http://www.w3.org/2000/svg" width="26" height="22" viewBox="0 0 26 22"><g fill="none" fill-rule="evenodd" transform="translate(1 1)"><path fill="#2C2825" fill-opacity=".2" fill-rule="nonzero" d="M0.33791706,17.4180078 C0.442988144,18.3322692 1.19523876,19.0585356 2.14099677,19.1627233 C6.22345479,19.6124256 10.0341392,19.6124256 14.1165972,19.1627233 C15.0623552,19.0585356 15.8146058,18.3322692 15.9196769,17.4180078 C16.370235,13.4981121 16.370235,6.00193072 15.9196769,2.0820541 C15.8146058,1.16779273 15.0623552,0.441431107 14.1165972,0.337262451 C10.0341392,-0.112420817 6.22345479,-0.112420817 2.14099677,0.337262451 C1.19523876,0.441431107 0.442988144,1.16777368 0.33791706,2.0820541 C-0.11263902,6.00193072 -0.11263902,13.4981121 0.33791706,17.4180078 Z"/><path stroke="#2C2825" stroke-linecap="round" stroke-width="2" d="M15.9196769,2.0820541 C15.8146058,1.16779273 15.0623552,0.441431107 14.1165972,0.337262451 C10.0341392,-0.112420817 6.22345479,-0.112420817 2.14099677,0.337262451 C1.19523876,0.441431107 0.442988144,1.16777368 0.33791706,2.0820541 C-0.11263902,6.00193072 -0.11263902,13.4981121 0.33791706,17.4180078 C0.442988144,18.3322692 1.19523876,19.0585356 2.14099677,19.1627233 C6.22345479,19.6124256 10.0341392,19.6124256 14.1165972,19.1627233 C15.0623552,19.0585356 15.8146058,18.3322692 15.9196769,17.4180078"/><line x1="9.321" x2="24" y1="9.75" y2="9.75" stroke="#2C2825" stroke-linecap="round" stroke-linejoin="round" stroke-width="2"/><path stroke="#2C2825" stroke-linecap="round" stroke-linejoin="round" stroke-width="2" d="M20.0163257,14.2355782 C21.7982572,12.8726431 22.6274338,11.9443249 23.7120449,10.5608951 C24.0957879,10.0713843 24.0957879,9.42919187 23.7120449,8.93966205 C22.6274338,7.5562322 21.7982572,6.62791406 20.0163257,5.26497891"/></g></svg>