<svg xmlns="http://www.w3.org/2000/svg" width="26" height="26" viewBox="0 0 26 26"><g fill="none" fill-rule="evenodd" stroke="#2C2825" stroke-linejoin="round" stroke-width="2" transform="translate(1 1)"><path fill="#2C2825" fill-opacity=".2" fill-rule="nonzero" d="M0.390192,20.4782925 C0.6386496,22.1649252 2.0825088,23.3849158 3.7810752,23.5285571 C6.4290816,23.7522764 9.17904,24 12,24 C14.8617408,24 17.6324352,23.8423403 20.319744,23.5940406 C21.972096,23.4413737 23.329536,22.209285 23.576064,20.5679722 C23.836416,18.8348673 24,17.0522946 24,15.2208876 C24,13.3711798 23.849856,11.5542906 23.585472,9.80447872 C23.342208,8.19537005 22.006656,6.99811623 20.38656,6.84564141 C17.672256,6.59014046 14.8888512,6.44187117 12,6.44187117 C9.101952,6.44187117 6.268224,6.58172938 3.5563392,6.84112861 C1.9641216,6.9934114 0.6502848,8.16458703 0.40909248,9.74604284 C0.13969344,11.512408 0,13.3522452 0,15.2208876 C0,17.0215115 0.13898304,18.7728404 0.390192,20.4782925 Z"/><line x1="7.385" x2="7.385" y1="23.814" y2="6.601" stroke-linecap="round"/><line x1="16.615" x2="16.615" y1="23.859" y2="6.601" stroke-linecap="round"/><path stroke-linecap="round" d="M17.4807936,6.57114832 L17.4807936,5.48174067 C17.4807936,4.02789131 16.9033536,2.63359162 15.87552,1.60555797 C14.8476672,0.577543521 13.4536128,0 12.0000192,0 C10.5464448,0 9.1523904,0.577543521 8.1245376,1.60555797 C7.0966848,2.63359162 6.519264,4.02789131 6.519264,5.48174067 L6.519264,6.57114832"/></g></svg>