<svg xmlns="http://www.w3.org/2000/svg" width="25" height="26" viewBox="0 0 25 26"><g fill="none" fill-rule="evenodd" stroke="#2C2825" stroke-width="2" transform="translate(1 1)"><path fill="#2C2825" fill-opacity=".2" fill-rule="nonzero" d="M11.0769231,4.8 C8.21038154,4.8 5.21257846,4.8 2.71092923,5.2889664 C1.56873231,5.5122048 0.677446154,6.4285056 0.428787692,7.6091904 C0,9.6451776 0,11.517984 0,14.4 C0,17.282016 0,19.15488 0.428787692,21.190848 C0.677446154,22.371456 1.56873231,23.287872 2.71092923,23.510976 C5.21257846,24 8.21038154,24 11.0769231,24 C13.9434646,24 16.9412308,24 19.4429538,23.510976 C20.5851692,23.287872 21.4763077,22.371456 21.7249846,21.190848 C22.1538462,19.15488 22.1538462,17.282016 22.1538462,14.4 C22.1538462,11.517984 22.1538462,9.6451776 21.7249846,7.6091904 C21.4763077,6.4285056 20.5851692,5.5122048 19.4429538,5.2889664 C16.9412308,4.8 13.9434646,4.8 11.0769231,4.8 Z"/><path d="M6.46153846,4.8554304 L6.46153846,3.84 C6.46153846,1.7192256 8.11464,0 10.1538462,0 L12,0 C14.0392062,0 15.6923077,1.7192256 15.6923077,3.84 L15.6923077,4.8554304"/><line x1="7.385" x2="14.769" y1="17.28" y2="17.28" stroke-linecap="round" stroke-linejoin="round"/><line x1="7.385" x2="14.769" y1="11.52" y2="11.52" stroke-linecap="round" stroke-linejoin="round"/></g></svg>