<svg xmlns="http://www.w3.org/2000/svg" width="26" height="24" viewBox="0 0 26 24"><g fill="none" fill-rule="evenodd" stroke="#2C2825" stroke-width="2" transform="translate(1 1)"><path fill="#2C2825" fill-opacity=".2" fill-rule="nonzero" d="M0.5408064,17.9016344 C0.7691136,19.7707014 2.254752,21.2471434 4.0978176,21.4430656 C6.6481536,21.7139223 9.2913408,22 12,22 C14.7086592,22 17.3518464,21.7139223 19.902144,21.4430656 C21.745152,21.2471434 23.230848,19.7707014 23.459136,17.9016344 C23.731776,15.6700527 24,13.3622681 24,11.0000195 C24,8.6377514 23.731776,6.32998636 23.459136,4.09846317 C23.230848,2.22939614 21.745152,0.752876122 19.902144,0.557051445 C17.3518464,0.28609722 14.7086592,0 12,0 C9.2913408,0 6.6481344,0.28609722 4.0978176,0.557051445 C2.254752,0.752876122 0.7691136,2.22939614 0.5407872,4.09846317 C0.2682048,6.32998636 0,8.6377514 0,11.0000195 C0,13.3622681 0.2682048,15.6700527 0.5408064,17.9016344 Z"/><path stroke-linejoin="round" d="M0.5943744,3.5931633 L9.6224448,10.8279631 C11.0168256,11.9453834 12.9831744,11.9453834 14.3775552,10.8279631 L23.405568,3.5931633"/></g></svg>