<svg xmlns="http://www.w3.org/2000/svg" width="24" height="26" viewBox="0 0 24 26"><g fill="#2C2825" fill-opacity=".2" stroke="#2C2825" stroke-width="2" transform="translate(1 1)"><path stroke-linejoin="round" d="M0.301968803,22.390848 C-0.277339114,17.0952 -0.0117427933,8.927136 1.00085033,3.2115456 C1.24819142,1.815456 2.3292321,0.758688 3.72282197,0.5599104 C5.6956626,0.27848448 8.48602464,0 11,0 C13.5139852,0 16.3043663,0.27848448 18.2771497,0.5599104 C19.670873,0.758688 20.7518946,1.815456 20.9992357,3.2115456 C22.0118479,8.927136 22.2772918,17.0952 21.6980029,22.390848 C21.5960557,23.323776 20.7978185,24 19.866383,24 L13.8583381,24 L13.8583381,20.64 C13.8583381,19.049472 12.5786052,17.76 11,17.76 C9.42138559,17.76 8.14167171,19.049472 8.14167171,20.64 L8.14167171,24 L2.13370305,24 C1.20219132,24 0.404030354,23.323776 0.301968803,22.390848 Z"/><line x1="13.859" x2="15.764" y1="12.96" y2="12.96" stroke-linecap="round"/><line x1="6.236" x2="8.142" y1="7.2" y2="7.2" stroke-linecap="round"/><line x1="13.859" x2="15.764" y1="7.2" y2="7.2" stroke-linecap="round"/><line x1="6.236" x2="8.142" y1="12.96" y2="12.96" stroke-linecap="round"/></g></svg>