<svg xmlns="http://www.w3.org/2000/svg" width="22" height="26" viewBox="0 0 22 26"><g fill="none" fill-rule="evenodd" stroke="#2C2825" stroke-width="2" transform="translate(1 1)"><path fill="#2C2825" fill-opacity=".2" fill-rule="nonzero" d="M0.483422357,20.166945 C0.655484049,22.0730247 2.20464483,23.6288538 4.20575989,23.7785063 C8.15067092,24.0738312 11.8493917,24.0738312 15.7943236,23.7785063 C17.7953552,23.6288538 19.3445368,22.0730247 19.5165985,20.166945 C19.754645,17.5312495 20,14.7994341 20,11.9999567 C20,9.20047929 19.754645,6.46868381 19.5165985,3.83288884 C19.3445368,1.92692855 17.7953552,0.371139268 15.7943236,0.221407136 C11.8493917,-0.0738023786 8.15067092,-0.0738023786 4.20575989,0.221407136 C2.20464483,0.371139268 0.655484049,1.92692855 0.483422357,3.83288884 C0.24550113,6.46868381 0,9.20047929 0,11.9999567 C0,14.7994341 0.245522011,17.5312495 0.483422357,20.166945 Z"/><line x1="8.566" x2="11.434" y1="18.298" y2="18.298" stroke-linecap="round" stroke-linejoin="round"/></g></svg>