<svg xmlns="http://www.w3.org/2000/svg" width="26" height="26" viewBox="0 0 26 26"><g fill="none" fill-rule="evenodd" transform="translate(1 1)"><path fill="#2C2825" fill-opacity=".2" fill-rule="nonzero" d="M7.30862545,0 C10.7982933,0 13.1234,0.734 14.0349703,2.08 C14.3203145,2.50274538 14.4666611,2.98241925 14.4666611,3.522 C14.4666611,5.05304432 13.2750402,6.12927461 11.0728801,6.6614474 L11.0713628,17.338 C9.84656572,17.518 8.5876349,17.67 7.30661759,17.67 C6.5837865,17.67 5.86898687,17.622 5.16221869,17.548 C4.72287808,17.5004679 4.28442453,17.4451258 3.84706768,17.382 C1.92701011,17.0937915 0.456202747,15.5311302 0.2911403,13.604 C0.138542625,11.784 0,9.912 0,7.996 C0,6.69064801 0.0640398073,5.06012779 0.153545827,3.71645509 C0.148792714,3.65328365 0.146574082,3.58806452 0.146574082,3.522 C0.146574082,1.268 2.72467163,0 7.30862545,0 Z"/><path stroke="#2C2825" stroke-linecap="round" stroke-linejoin="round" stroke-width="2" d="M0.190747093,3.194 C0.0723188167,4.7920379 0.0086993948,6.39363748 0,7.996 C0,9.912 0.140550489,11.786 0.2911403,13.604 C0.455123231,15.5312655 1.925113,17.0947678 3.84505982,17.384 C4.2044675,17.432 4.56387518,17.48 4.92729859,17.522"/><path stroke="#2C2825" stroke-linecap="round" stroke-width="2" d="M4.35706517,12.406 C2.05605287,12.23 0.20881787,10.84 0,9.15"/><path stroke="#2C2825" stroke-linecap="round" stroke-linejoin="round" stroke-width="2" d="M4.75462227,6.886 C1.77896762,6.484 0.146574082,5.314 0.146574082,3.522 C0.146574082,1.268 2.72467163,0 7.30862545,0 C10.7982933,0 13.1234,0.734 14.0349703,2.08"/><path stroke="#2C2825" stroke-linejoin="round" stroke-width="2" d="M9.57751192,9.524 C9.45908365,11.1220379 9.39546422,12.7236375 9.38676483,14.326 C9.38676483,16.242 9.52731532,18.116 9.67790513,19.934 C9.84188806,21.8612655 11.3118778,23.4247678 13.2318246,23.714 L13.2318246,23.712 C14.3622522,23.872 15.5187819,24 16.6933824,24 C17.8699908,24 19.0245127,23.872 20.1549402,23.712 C22.0742099,23.4229513 23.5439948,21.860494 23.7088597,19.934 C23.8614574,18.114 24,16.242 24,14.326 C24,12.692 23.8996068,11.088 23.7751192,9.524"/><path stroke="#2C2825" stroke-linecap="round" stroke-width="2" d="M24,15.48 C23.79319,17.17 21.9439471,18.56 19.6429348,18.736 C18.6771522,18.81 17.6932988,18.864 16.6933824,18.864 C15.6954739,18.864 14.7096126,18.81 13.74383,18.736 C11.4448256,18.56 9.5955827,17.17 9.38676483,15.48"/><path fill="#2C2825" fill-opacity=".3" fill-rule="nonzero" stroke="#2C2825" stroke-linecap="round" stroke-linejoin="round" stroke-width="2" d="M16.6933824,13.372 C21.2753284,13.372 23.8534259,12.104 23.8534259,9.852 C23.8534259,7.598 21.2753284,6.332 16.6933824,6.332 C12.1114365,6.332 9.53333891,7.598 9.53333891,9.852 C9.53333891,12.104 12.1114365,13.372 16.6933824,13.372 Z"/></g></svg>