<svg xmlns="http://www.w3.org/2000/svg" width="26" height="26" viewBox="0 0 26 26"><g fill="none" fill-rule="evenodd" transform="translate(1 1)"><path fill="#2C2825" fill-opacity=".2" fill-rule="nonzero" d="M5.86818192,2.51927994 C7.13973471,1.2236123 8.86430711,0.495702671 10.6625504,0.495702671 C12.4607743,0.495702671 14.1853467,1.2236123 15.4568995,2.51927994 C16.7284328,3.81496741 17.4427837,5.57227304 17.4427837,7.40464787 C17.4427837,8.98429366 17.7168021,10.2261478 18.1218948,11.1969319 C18.5283885,12.1708687 19.6470732,12.5031283 20.4818544,13.1328293 C21.7277994,14.0727807 21.4868999,16.0839853 20.4505258,16.8648558 C20.4505258,16.8648558 18.7772661,18.3410583 10.6625504,18.3410583 C2.54789309,18.3410583 0.87455562,16.8648558 0.87455562,16.8648558 C-0.161826253,16.0839853 -0.402721933,14.0727807 0.843285376,13.1328293 C1.67802769,12.5031283 2.79675129,12.1708687 3.20316716,11.1969319 C3.6082793,10.2261478 3.8822977,8.98429366 3.8822977,7.40464787 C3.8822977,5.57227304 4.5966486,3.81496741 5.86818192,2.51927994 Z"/><path stroke="#2C2825" stroke-linecap="round" stroke-linejoin="round" stroke-width="2" d="M9.93465621.535576994C8.40406829.703937449 6.96697975 1.39960658 5.86818192 2.51926011 4.5966486 3.81492776 3.8822977 5.57225321 3.8822977 7.40460822 3.8822977 8.98427383 3.6082793 10.226128 3.20316716 11.1969121 2.79675129 12.1708291 1.67802769 12.5030886.843285376 13.1328095-.402721933 14.0727609-.161826253 16.0839654.87455562 16.8648359.87455562 16.8648359 2.54789309 18.3410583 10.6625504 18.3410583 18.7772661 18.3410583 20.4505258 16.8648359 20.4505258 16.8648359 20.8611058 16.5553985 21.1469551 16.0528155 21.2648753 15.500226M8.26061823 22.2234016C8.75263323 23.1580986 9.7207265 23.7937877 10.8345465 23.7937877 11.9483665 23.7937877 12.9164597 23.1580986 13.4084747 22.2234016"/><ellipse cx="19.135" cy="4.957" fill="#FFF" fill-rule="nonzero" stroke="#2C2825" stroke-width="2" rx="4.865" ry="4.957"/></g></svg>