<svg xmlns="http://www.w3.org/2000/svg" width="24" height="24" viewBox="0 0 24 24"><path fill="#2C2825" d="M22.612466,3 C23.382114,3 24,2.332032 24,1.5 C24,0.667968 23.382114,0 22.612466,0 L1.387534,0 C0.617886,0 0,0.667968 0,1.5 C0,2.332032 0.617886,3 1.387534,3 L22.612466,3 Z M14.526648,10 C15.372178,10 16.041554,9.332032 16.041554,8.5 C16.041554,7.65625 15.372178,7 14.526648,7 L1.503162,7 C0.669376,7 0,7.65625 0,8.5 C0,9.332032 0.669376,10 1.503162,10 L14.526648,10 Z M22.612466,17 C23.382114,17 24,16.332032 24,15.5 C24,14.667968 23.382114,14 22.612466,14 L1.387534,14 C0.617886,14 0,14.667968 0,15.5 C0,16.332032 0.617886,17 1.387534,17 L22.612466,17 Z M14.526648,24 C15.372178,24 16.041554,23.33463 16.041554,22.494164 C16.041554,21.66537 15.372178,21 14.526648,21 L1.503162,21 C0.669376,21 0,21.66537 0,22.494164 C0,23.33463 0.669376,24 1.503162,24 L14.526648,24 Z"/></svg>
