<svg xmlns="http://www.w3.org/2000/svg" width="27" height="26" viewBox="0 0 27 26"><g fill="none" fill-rule="evenodd" stroke="#2C2825" stroke-linecap="round" stroke-linejoin="round" stroke-width="2" transform="translate(1 1)"><path fill="#2C2825" fill-opacity=".2" fill-rule="nonzero" d="M6.60425868,2.15922977 C8.0352952,0.776702727 9.97619983,0 12,0 C14.0237867,0 15.9646913,0.776702727 17.3957278,2.15922977 C18.826784,3.54175682 19.6307394,5.41686839 19.6307394,7.3720685 C19.6307394,9.05760291 19.9391949,10.3827008 20.3950783,11.4185583 C20.8523415,12.4577671 22.1113919,12.8123008 23.0509494,13.4842182 C24.4532887,14.487172 24.1820843,16.633187 23.0156691,17.4664048 C23.0156691,17.4664048 21.1324151,19.0414986 12,19.0414986 C2.8674728,19.0414986 0.984258231,17.4664048 0.984258231,17.4664048 C-0.182123451,16.633187 -0.453237129,14.487172 0.949056853,13.4842182 C1.88851579,12.8123008 3.14756618,12.4577671 3.60496729,11.4185583 C4.06089017,10.3827008 4.36926685,9.05760291 4.36926685,7.3720685 C4.36926685,5.41686839 5.17322216,3.54175682 6.60425868,2.15922977 Z"/><path d="M9.39287397,22.2937865 C9.89121195,23.1914028 10.8718049,23.8020636 11.9999637,23.8020636 C13.1281422,23.8020636 14.1087154,23.1914028 14.6070731,22.2937865"/></g></svg>