<svg xmlns="http://www.w3.org/2000/svg" width="24" height="24" viewBox="0 0 24 24"><path fill="#2C2825" fill-rule="evenodd" d="M2464.41218,398.408718 C2465.12465,398.378072 2465.72705,398.9309 2465.75766,399.643326 C2465.78827,400.355752 2465.23551,400.958163 2464.52303,400.988809 C2464.34954,400.996212 2464.17519,401 2464.00003,401 C2463.82486,401 2463.65051,400.996212 2463.47702,400.988809 C2462.76454,400.958163 2462.21178,400.355752 2462.24239,399.643326 C2462.273,398.9309 2462.8754,398.378072 2463.58788,398.408718 C2463.72444,398.414571 2463.86185,398.417498 2464.00003,398.417498 C2464.13821,398.417498 2464.27561,398.414571 2464.41218,398.408718 Z M2457.05638,395.362226 C2457.24171,395.56435 2457.43575,395.758382 2457.6379,395.943634 C2458.16354,396.425528 2458.19899,397.24246 2457.71706,397.768085 C2457.23513,398.29371 2456.41833,398.329177 2455.89268,397.847282 C2455.63549,397.611413 2455.38862,397.364526 2455.15282,397.107309 C2454.67089,396.581684 2454.70634,395.764924 2455.232,395.28303 C2455.75764,394.801135 2456.57446,394.836429 2457.05638,395.362226 Z M2472.76809,395.28303 C2473.29371,395.764924 2473.32918,396.581684 2472.84728,397.107309 C2472.61141,397.364526 2472.36453,397.611413 2472.10731,397.847282 C2471.58168,398.329177 2470.76492,398.29371 2470.28303,397.768085 C2469.80113,397.24246 2469.83643,396.425528 2470.36223,395.943634 C2470.56435,395.758382 2470.75838,395.56435 2470.94363,395.362226 C2471.42553,394.836429 2472.24246,394.801135 2472.76809,395.28303 Z M2464,383 C2467.31371,383 2470,385.686292 2470,389 C2470,392.313708 2467.31371,395 2464,395 C2460.68629,395 2458,392.313708 2458,389 C2458,385.686292 2460.68629,383 2464,383 Z M2464,385.4 C2462.01177,385.4 2460.4,387.011775 2460.4,389 C2460.4,390.988225 2462.01177,392.6 2464,392.6 C2465.98823,392.6 2467.6,390.988225 2467.6,389 C2467.6,387.011775 2465.98823,385.4 2464,385.4 Z M2474.64333,387.242393 C2475.35575,387.211782 2475.95816,387.76454 2475.98881,388.477018 C2475.99621,388.650511 2476,388.824864 2476,389.000026 C2476,389.175189 2475.99621,389.349542 2475.98881,389.523017 C2475.95816,390.235513 2475.35575,390.788271 2474.64333,390.75766 C2473.9309,390.727049 2473.37807,390.124654 2473.40872,389.412177 C2473.41457,389.275614 2473.4175,389.138207 2473.4175,389.000026 C2473.4175,388.861845 2473.41457,388.724439 2473.40872,388.587876 C2473.37807,387.875381 2473.9309,387.272987 2474.64333,387.242393 Z M2453.3567,387.242393 C2454.06919,387.273004 2454.62195,387.875399 2454.59134,388.587876 C2454.58546,388.724439 2454.5825,388.861845 2454.5825,389.000026 C2454.5825,389.138207 2454.58546,389.275614 2454.59134,389.412177 C2454.62195,390.124654 2454.06919,390.727049 2453.3567,390.75766 C2452.64422,390.788271 2452.04182,390.235513 2452.01121,389.523035 C2452.00376,389.349542 2452,389.175189 2452,389.000026 C2452,388.824864 2452.00376,388.650511 2452.01121,388.477018 C2452.04182,387.76454 2452.64422,387.211782 2453.3567,387.242393 Z M2457.71706,380.232002 C2458.19899,380.757645 2458.16354,381.574456 2457.6379,382.056385 C2457.43575,382.241705 2457.24171,382.435754 2457.05638,382.637895 C2456.57446,383.163538 2455.75764,383.198987 2455.232,382.717058 C2454.70634,382.235128 2454.67089,381.418335 2455.15282,380.892675 C2455.38862,380.635492 2455.63549,380.388622 2455.89268,380.152823 C2456.41833,379.670893 2457.23513,379.706343 2457.71706,380.232002 Z M2472.10731,380.152823 C2472.36453,380.388622 2472.61141,380.635492 2472.84728,380.892675 C2473.32918,381.418335 2473.29371,382.235128 2472.76809,382.717058 C2472.24246,383.198987 2471.42553,383.163538 2470.94363,382.637895 C2470.75838,382.435754 2470.56435,382.241705 2470.36223,382.056385 C2469.83643,381.574456 2469.80113,380.757645 2470.28303,380.232002 C2470.76492,379.706343 2471.58168,379.670893 2472.10731,380.152823 Z M2464.00003,377 C2464.17519,377 2464.34954,377.003761 2464.52302,377.011215 C2465.23551,377.041824 2465.78827,377.644218 2465.75766,378.3567 C2465.72705,379.069188 2465.12465,379.621946 2464.41218,379.591335 C2464.27561,379.585464 2464.13821,379.582503 2464.00003,379.582503 C2463.86185,379.582503 2463.72444,379.585464 2463.58788,379.591335 C2462.87538,379.621946 2462.27299,379.069188 2462.24239,378.3567 C2462.21178,377.644218 2462.76454,377.041824 2463.47702,377.011215 C2463.65051,377.003761 2463.82486,377 2464.00003,377 Z" transform="translate(-2452 -377)"/></svg>