<svg xmlns="http://www.w3.org/2000/svg" width="26" height="26" viewBox="0 0 26 26"><g fill="none" fill-rule="evenodd" transform="translate(1 1)"><rect width="24" height="24" stroke="#2C2825" stroke-width="1.5" rx="4"/><path fill="#2C2825" d="M15.4630588 15 15.8329884 15C16.0890935 15 16.2960472 14.8035042 16.2960472 14.5603406L16.2960472 13.7198297 18.2983237 13.7198297C19.2342715 13.7198297 20 12.9923039 20 12.1036515L20 11.8963485C20 11.0076961 19.2342715 10.2811528 18.2983237 10.2811528L16.2960472 10.2811528 16.2960472 9.43965941C16.2960472 9.19698706 16.0890935 9 15.8329884 9L15.4630588 9C15.207471 9 15 9.19698706 15 9.43965941L15 14.5603406C15 14.8035042 15.207471 15 15.4630588 15M5.70167632 13.7197249 7.70395281 13.7197249 7.70395281 14.5607959C7.70395281 14.8034881 7.91142384 15 8.16701159 15L8.53694123 15C8.79304636 15 9 14.8034881 9 14.5607959L9 9.43920413C9 9.19651191 8.79304636 9 8.53694123 9L8.16701159 9C7.91142384 9 7.70395281 9.19651191 7.70395281 9.43920413L7.70395281 10.2807664 5.70167632 10.2807664C4.76572848 10.2807664 4 11.0073692 4 11.8960943L4 12.1039057C4 12.9926308 4.76572848 13.7197249 5.70167632 13.7197249"/></g></svg>