<svg xmlns="http://www.w3.org/2000/svg" width="25" height="26" viewBox="0 0 25 26"><g fill="none" stroke="#2C2825" stroke-linejoin="round" stroke-width="2" transform="translate(1 1)"><path fill="#FFF" d="M0.0676891108,21.07392 C0.742627006,18.32256 0.939483893,15.32544 0.939483893,14.4 L20.6251725,14.4 C21.7406949,16.11264 22.2337745,19.6992 22.4137579,22.08384 C22.4925007,23.13984 21.6600773,24 20.6251725,24 L16.8755175,24 L16.8755175,20.16 C14.6294742,24 11.2510351,24 11.2510351,24 L2.09812728,24 C0.705130457,24 -0.271654664,22.45824 0.0676891108,21.07392 L0.0676891108,21.07392 Z"/><path fill="#2C2825" fill-opacity=".2" stroke-linecap="round" d="M8.21381454,9.12 C7.82010077,7.33056 7.5013801,5.38944 7.5013801,3.84 C7.5013801,0.768 10.0005251,0 11.2510351,0 C12.501545,0 15.00069,0.768 15.00069,3.84 C15.00069,5.38944 14.6819694,7.33056 14.2882556,9.12 L18.750345,9.12 C21.750069,9.12 22.5,11.67936 22.5,12.96 C22.5,14.0203867 21.6606111,14.88 20.6251725,14.88 L1.87689764,14.88 C0.841459006,14.88 0.00207014875,14.0203867 0.00207014875,12.96 C0.00207014875,11.67936 0.752001144,9.12 3.75172512,9.12 L8.21381454,9.12 Z"/></g></svg>