<svg xmlns="http://www.w3.org/2000/svg" width="23" height="26" viewBox="0 0 23 26"><g fill="none" fill-rule="evenodd" stroke="#2C2825" stroke-width="2" transform="translate(1 1)"><path stroke-linecap="round" d="M10.5,24 C12.7394782,24 14.9278118,23.721408 17.0447455,23.44128 C18.8709818,23.199552 20.3125364,21.710976 20.4935182,19.867392 C20.7430364,17.3281728 21,14.6966208 21,12 C21,10.4144448 20.9112273,8.8514112 20.7873273,7.3163904 C20.4891273,3.623424 17.5548545,0.5378304 13.8878536,0.18105984 C12.7736891,0.07265664 11.6435073,0 10.5,0 C8.26054091,0 6.07220727,0.2786688 3.95523545,0.5587392 C2.12894182,0.8003712 0.687520909,2.2890048 0.506424545,4.1325888"/><path fill="#2C2825" fill-opacity=".2" fill-rule="nonzero" stroke-linejoin="round" d="M12.4968518,3.84 L12.4968518,8.0337216 L17.1820091,8.0337216 C19.2657818,8.0337216 20.9597182,9.7124928 20.9994273,11.7985728 C20.9923636,10.2820416 20.9058818,8.7863616 20.7871364,7.3163904 C20.4891273,3.623424 17.5546636,0.5378304 13.8877964,0.18105984 C12.7736318,0.07265664 11.64345,0 10.4999427,0 C10.0533873,0 9.60885545,0.01108032 9.16651909,0.03104256 C11.0448736,0.27196608 12.4968518,1.88544 12.4968518,3.84 Z"/><line x1="12.051" x2="15.83" y1="18.399" y2="18.399" stroke-linecap="round" stroke-linejoin="round"/><line x1="12.051" x2="15.83" y1="13.719" y2="13.719" stroke-linecap="round" stroke-linejoin="round"/><path stroke-linecap="round" stroke-linejoin="round" d="M6.20454545,12.0510528 C6.20454545,12.0510528 5.03826273,10.7100096 3.14664,10.8776064 C1.25501727,11.045184 0.343216364,12.2439552 0.343216364,13.4460288 C0.343216364,16.9519872 6.20454545,14.5223232 6.20454545,18.117504 C6.20454545,19.971072 2.31649091,21.27936 0,19.098816"/><line x1="3.378" x2="3.378" y1="8.52" y2="10.863" stroke-linecap="round"/><line x1="3.378" x2="3.378" y1="20.217" y2="22.56" stroke-linecap="round"/></g></svg>