<svg xmlns="http://www.w3.org/2000/svg" width="26" height="24" viewBox="0 0 26 24"><g fill="none" fill-rule="evenodd" stroke="#2C2825" stroke-width="2" transform="translate(1 1)"><path stroke-linecap="round" stroke-linejoin="round" d="M16.60753,11.016498 C18.8344849,11.0174622 20.7441059,9.4120304 21.1461292,7.20086524 C21.5481526,4.98970008 20.3277578,2.80432524 18.2456149,2.00688134"/><path fill="#D5D4D3" fill-rule="nonzero" stroke-linecap="round" stroke-linejoin="round" d="M8.84585338,10.0926334 C11.6066423,10.0926334 13.8447038,7.83332048 13.8447038,5.04631672 C13.8447038,2.25931295 11.6066423,0 8.84585338,0 C6.08506455,0 3.84700303,2.25931299 3.84700303,5.04631672 C3.84700303,7.83332044 6.08506455,10.0926334 8.84585338,10.0926334 L8.84585338,10.0926334 Z"/><path fill="#D5D4D3" fill-rule="nonzero" stroke-linejoin="round" d="M16.5056304,17.1846493 C18.9512219,18.828584 17.2996786,21.9980591 14.35997,21.9980591 L3.32789153,21.9980591 C0.390105561,21.9980591 -1.26143773,18.828584 1.18415373,17.1846493 C3.45283801,15.6579837 6.1193212,14.8453768 8.84585338,14.8497398 C11.6778944,14.8497398 14.3138267,15.7095721 16.507553,17.1846493 L16.5056304,17.1846493 Z"/><path stroke-linecap="round" d="M13.9350677,22 L20.9296131,22 C23.6405281,22 25.1632549,19.0731363 22.9080043,17.5553595 C22.2810408,17.13465 21.6183381,16.7709243 20.9276904,16.4684605"/></g></svg>