<svg xmlns="http://www.w3.org/2000/svg" width="26" height="26" viewBox="0 0 26 26"><g fill="none" fill-rule="evenodd" stroke="#2C2825" stroke-width="2" transform="translate(1 1)"><path fill="#2C2825" fill-opacity=".2" fill-rule="nonzero" stroke-linejoin="round" d="M6.26821415,6.15607647 C4.89708768,4.9425228 2.88912354,5.160084 1.80903538,6.64630693 C1.64732344,6.86883264 1.45251934,7.12902084 1.20010818,7.44976012 C-0.401511292,9.48487049 -0.401505404,12.4316365 1.20896023,14.4595293 C2.39782465,15.9565586 3.64433537,17.4671255 5.03777844,18.8826889 C6.43122151,20.2980728 7.91828832,21.5643221 9.39202797,22.7719542 C11.3883726,24.4078502 14.2893148,24.4078502 16.2927646,22.7809262 C16.6476712,22.4926258 16.9263244,22.2794907 17.1613652,22.105035 C18.5794409,21.0527183 18.8198792,19.0818675 17.6714477,17.7322982 C17.1486268,17.117935 16.5944411,16.5221937 16.0479689,15.9377572 C15.2931693,15.1305158 13.9974718,15.0406961 13.1705799,15.7714361 C13.0254336,15.899696 12.8409144,16.0691473 12.5856965,16.312189 C10.2940348,14.9289049 8.90512567,13.5008405 7.56821014,11.2153912 C7.81178887,10.9514746 7.9805275,10.7617266 8.10791073,10.6127515 C8.82584972,9.77323079 8.73803576,8.46100499 7.93822998,7.70167414 C7.39097275,7.18209524 6.83608038,6.65866836 6.26821415,6.15607647 Z"/><path stroke-linecap="round" d="M17.9429173 10.2339932C17.7245011 9.1250332 17.1422871 8.08276512 16.2155103 7.30814197 15.251284 6.5022165 14.0790245 6.12387693 12.9214858 6.15109202M24 9.21732524C23.5071505 6.71461381 22.1932778 4.36243271 20.1017589 2.614287 17.925645.795481746 15.2800384-.0583741881 12.6677596.00309402853"/></g></svg>