<svg xmlns="http://www.w3.org/2000/svg" width="26" height="26" viewBox="0 0 26 26"><g fill="none" fill-rule="evenodd" stroke="#2C2825" stroke-width="2" transform="translate(1 1)"><path d="M0.4032,18.27456 C0.717168229,21.0558237 2.90850255,23.2527299 5.68896,23.57376 C7.74336,23.80416 9.8496,24 12,24 C14.1504,24 16.25856,23.80416 18.31104,23.57376 C21.0914974,23.2527299 23.2828318,21.0558237 23.5968,18.27456 C23.81568,16.2336 24,14.13696 24,12 C24,9.86304 23.81568,7.7664 23.5968,5.72352 C23.2828318,2.94225628 21.0914974,0.745350091 18.31104,0.42432 C16.25664,0.19776 14.1504,0 12,0 C9.8496,0 7.74144,0.19584 5.68896,0.42624 C2.90850255,0.747270091 0.717168229,2.94417628 0.4032,5.72544 C0.18432,7.76448 0,9.86112 0,12 C0,14.13888 0.18432,16.2336 0.4032,18.27456 Z"/><line x1="12" x2="12" y1="7.2" y2="16.8" stroke-linecap="round"/><line x1="16.8" x2="7.2" y1="12" y2="12" stroke-linecap="round"/></g></svg>