<svg xmlns="http://www.w3.org/2000/svg" width="26" height="26" viewBox="0 0 26 26"><g fill="none" fill-rule="evenodd" transform="translate(1 1)"><path fill="#2C2825" fill-opacity=".2" fill-rule="nonzero" stroke="#2C2825" stroke-width="2" d="M0.40294464,18.27552 C0.69888,21.041664 2.923584,23.266368 5.6883072,23.574528 C7.7418432,23.803392 9.8503104,24 12,24 C14.1496896,24 16.2581568,23.803392 18.311616,23.574528 C21.076416,23.266368 23.30112,21.041664 23.596992,18.27552 C23.815488,16.2336384 24,14.137248 24,12 C24,9.8627328 23.815488,7.7663616 23.596992,5.7244224 C23.30112,2.9583744 21.076416,0.7336512 18.311616,0.42548928 C16.2581568,0.19659264 14.1496896,0 12,0 C9.8503104,0 7.7418432,0.19659264 5.6883072,0.42548928 C2.923584,0.7336512 0.69888,2.9583744 0.40294464,5.7244224 C0.18447936,7.7663616 0,9.8627328 0,12 C0,14.137248 0.18448128,16.2336384 0.40294464,18.27552 Z"/><path stroke="#2C2825" stroke-linecap="round" stroke-linejoin="round" stroke-width="2" d="M9.6074496,9.3944448 C9.6074496,7.908096 11.0104128,6.7566912 12.4682112,7.0466688 C13.3969152,7.231392 14.1642624,7.9987584 14.3489856,8.9274432 C14.533728,9.856128 14.118432,10.5385536 13.3311168,11.0646144 C12.4823232,11.6317632 12.0012096,11.9946048 12.0012096,12.5861376"/><circle cx="12" cy="16.338" r="1.62" fill="#2C2825" fill-rule="nonzero"/></g></svg>