<svg xmlns="http://www.w3.org/2000/svg" width="26" height="26" viewBox="0 0 26 26"><g fill="none" fill-rule="evenodd" transform="translate(1 1)"><path fill="#2C2825" fill-rule="nonzero" d="M0.40294464,17.8547993 C0.69888,20.56773 2.923584,22.7496367 5.6883072,23.0518685 C9.934944,23.5160438 14.0650368,23.5160438 18.311616,23.0518685 C21.076416,22.7496367 23.30112,20.56773 23.596992,17.8547993 C23.815488,15.8522169 24,13.7961742 24,11.7000224 C24,9.60388931 23.815488,7.5478467 23.596992,5.54517014 C23.30112,2.83235235 21.076416,0.650426893 18.311616,0.348183771 C14.0650368,-0.116061257 9.934944,-0.116061257 5.6883072,0.348183771 C2.923584,0.650426893 0.69888,2.83235235 0.40294464,5.54517014 C0.18447936,7.5478467 0,9.60388931 0,11.7000224 C0,13.7961742 0.18448128,15.8522169 0.40294464,17.8547993 Z" opacity=".2"/><path stroke="#2C2825" stroke-width="2" d="M0.40294464,17.8547993 C0.69888,20.56773 2.923584,22.7496367 5.6883072,23.0518685 C9.934944,23.5160438 14.0650368,23.5160438 18.311616,23.0518685 C21.076416,22.7496367 23.30112,20.56773 23.596992,17.8547993 C23.815488,15.8522169 24,13.7961742 24,11.7000224 C24,9.60388931 23.815488,7.5478467 23.596992,5.54517014 C23.30112,2.83235235 21.076416,0.650426893 18.311616,0.348183771 C14.0650368,-0.116061257 9.934944,-0.116061257 5.6883072,0.348183771 C2.923584,0.650426893 0.69888,2.83235235 0.40294464,5.54517014 C0.18447936,7.5478467 0,9.60388931 0,11.7000224 C0,13.7961742 0.18448128,15.8522169 0.40294464,17.8547993 Z"/><line x1="16.325" x2="7.677" y1="7.459" y2="15.941" stroke="#2C2825" stroke-linecap="round" stroke-width="2"/><line x1="16.325" x2="7.677" y1="15.941" y2="7.459" stroke="#2C2825" stroke-linecap="round" stroke-width="2"/></g></svg>