<svg xmlns="http://www.w3.org/2000/svg" width="26" height="26" viewBox="0 0 26 26"><g fill="none" fill-rule="evenodd" stroke="#2C2825" stroke-width="2" transform="translate(1 1)"><path fill="#2C2825" fill-opacity=".2" fill-rule="nonzero" d="M0.5524,19.6326365 C0.77424,21.6112211 2.3115,23.1851795 4.23108,23.4077033 C6.74018,23.6986958 9.3385,24 12,24 C14.66152,24 17.25982,23.6986958 19.769,23.4077033 C21.6886,23.1851795 23.2258,21.6112211 23.4476,19.6326365 C23.7242,17.166067 24,14.6136022 24,12.0000103 C24,9.38641846 23.7242,6.8339536 23.4476,4.3674254 C23.2258,2.3887377 21.6886,0.81482048 19.769,0.592255493 C17.25982,0.301345402 14.66152,0 12,0 C9.3385,0 6.74018,0.301345402 4.23108,0.592255493 C2.3115,0.81482048 0.77424,2.3887377 0.5524,4.3674254 C0.27588,6.8339536 0,9.38641846 0,12.0000103 C0,14.6136022 0.27588,17.166067 0.5524,19.6326365 Z"/><line x2="24" y1="12.374" y2="12.374" stroke-linecap="round" stroke-linejoin="round"/><line x1="13.851" x2="18.171" y1="17.847" y2="17.847" stroke-linecap="round" stroke-linejoin="round"/><line x1="13.851" x2="18.171" y1="6.401" y2="6.401" stroke-linecap="round" stroke-linejoin="round"/><ellipse cx="7.596" cy="6.401" fill="#FFF" fill-rule="nonzero" rx="1.912" ry="1.972"/><ellipse cx="7.596" cy="17.847" fill="#FFF" fill-rule="nonzero" rx="1.912" ry="1.972"/></g></svg>