<svg xmlns="http://www.w3.org/2000/svg" width="25" height="26" viewBox="0 0 25 26"><g fill="none" fill-rule="evenodd" stroke="#2C2825" stroke-linecap="round" stroke-linejoin="round" stroke-width="2" transform="translate(1 1)"><path fill="#2C2825" fill-opacity=".2" fill-rule="nonzero" d="M4.20362454 16.10496C6.52522226 16.10496 8.40724907 14.2671068 8.40724907 12 8.40724907 9.73289319 6.52522226 7.89504 4.20362454 7.89504 1.88202681 7.89504 0 9.73289319 0 12 0 14.2671068 1.88202681 16.10496 4.20362454 16.10496ZM18.7963754 8.20992C20.2981858 8.20992 21.6859159 7.42751908 22.4368211 6.15744002 23.1877263 4.88736097 23.1877263 3.32255903 22.4368211 2.05247998 21.6859159.782400918 20.2981858 0 18.7963754 0 16.4747777 0 14.5927509 1.83785323 14.5927509 4.10496 14.5927509 6.37206677 16.4747777 8.20992 18.7963754 8.20992L18.7963754 8.20992ZM18.7963754 24C21.1179731 24 22.9999999 22.1621468 22.9999999 19.89504 22.9999999 17.6279332 21.1179731 15.79008 18.7963754 15.79008 16.4747777 15.79008 14.5927508 17.6279332 14.5927508 19.89504 14.5927508 22.1621468 16.4747777 24 18.7963754 24Z"/><path d="M6.15207725 8.40576C9.9919644 6.29376 10.2239699 6.27456 14.5927508 5.07072M6.15207725 15.59424C9.9919644 17.70624 10.2239699 17.72544 14.5927508 18.92928"/></g></svg>