<svg xmlns="http://www.w3.org/2000/svg" width="25" height="24" viewBox="0 0 25 24"><path fill="#2C2825" d="M1214.12286,786.26479 C1214.37444,786.458836 1214.65612,786.527895 1214.9679,786.47197 C1215.27969,786.416045 1215.61407,786.25907 1215.97106,786.001047 L1221.51601,781.923432 L1227.06579,786.001047 C1227.42401,786.25907 1227.759,786.416045 1228.07079,786.47197 C1228.38257,786.527895 1228.66431,786.458836 1228.916,786.26479 C1229.16636,786.077854 1229.31789,785.8288 1229.37059,785.517628 C1229.4233,785.206455 1229.3769,784.842662 1229.23139,784.426248 L1227.03997,777.911128 L1232.6344,773.890827 C1232.9985,773.634026 1233.25169,773.365589 1233.39398,773.085518 C1233.53626,772.805446 1233.55759,772.515684 1233.45796,772.21623 C1233.35954,771.922441 1233.17097,771.703098 1232.89223,771.558203 C1232.61349,771.413308 1232.25103,771.344415 1231.80485,771.351523 L1224.94368,771.396175 L1222.85889,764.845234 C1222.72049,764.419045 1222.54053,764.09535 1222.31899,763.874147 C1222.09745,763.652944 1221.82979,763.542343 1221.51601,763.542343 C1221.20678,763.542343 1220.9414,763.652944 1220.71987,763.874147 C1220.49833,764.09535 1220.31836,764.419045 1220.17997,764.845234 L1218.09517,771.396175 L1211.23201,771.351523 C1210.78716,771.344415 1210.42534,771.413308 1210.14654,771.558203 C1209.86775,771.703098 1209.6792,771.921774 1209.5809,772.21423 C1209.48127,772.513795 1209.5029,772.803919 1209.64579,773.084601 C1209.78869,773.365284 1210.04158,773.634026 1210.40445,773.890827 L1215.99872,777.911128 L1213.8073,784.426248 C1213.66179,784.842662 1213.61572,785.206455 1213.66909,785.517628 C1213.72247,785.8288 1213.87372,786.077854 1214.12286,786.26479 Z M1216.00039,783.684334 C1215.98617,783.670116 1215.9855,783.640071 1215.99839,783.594198 L1218.0227,777.874141 C1218.08546,777.703865 1218.11767,777.550501 1218.11933,777.414047 C1218.121,777.277594 1218.08429,777.152275 1218.0092,777.038092 C1217.93412,776.923908 1217.81794,776.813112 1217.66066,776.705705 L1212.65536,773.278036 C1212.60959,773.252267 1212.59249,773.225776 1212.60404,773.198563 C1212.60982,773.178569 1212.64053,773.168573 1212.69618,773.168573 L1218.75628,773.311358 C1219.03263,773.319688 1219.24842,773.271982 1219.40365,773.16824 C1219.55887,773.064497 1219.67436,772.876339 1219.75011,772.603765 L1221.4647,766.793572 C1221.47758,766.74059 1221.49469,766.714099 1221.51601,766.714099 C1221.54178,766.714099 1221.56116,766.74059 1221.57416,766.793572 L1223.28874,772.603765 C1223.36438,772.876339 1223.48015,773.064497 1223.63604,773.16824 C1223.79193,773.271982 1224.00805,773.319688 1224.28441,773.311358 L1230.34651,773.168573 C1230.40083,773.168573 1230.43087,773.178569 1230.43665,773.198563 C1230.44831,773.224443 1230.43121,773.250934 1230.38533,773.278036 L1225.3782,776.707704 C1225.22081,776.815112 1225.1049,776.92588 1225.03048,777.040008 C1224.95607,777.154136 1224.91938,777.279121 1224.92044,777.414964 C1224.92149,777.550806 1224.9534,777.703865 1225.01616,777.874141 L1227.0403,783.594198 C1227.04874,783.640071 1227.04808,783.670116 1227.0383,783.684334 C1227.02542,783.702994 1226.99604,783.696496 1226.95017,783.66484 L1222.1458,779.962765 C1221.92832,779.792489 1221.71953,779.707351 1221.51943,779.707351 C1221.31933,779.707351 1221.11048,779.792489 1220.89289,779.962765 L1216.08852,783.66484 C1216.04265,783.696496 1216.01327,783.702994 1216.00039,783.684334 Z" transform="translate(-1209 -763)"/></svg>