<svg xmlns="http://www.w3.org/2000/svg" width="26" height="26" viewBox="0 0 26 26"><g fill="#2C2825" transform="translate(1 1)"><path fill-opacity=".2" stroke="#2C2825" stroke-width="2" d="M0.40294464,18.27552 C0.69888,21.041664 2.923584,23.266368 5.6883072,23.574528 C7.7418432,23.803392 9.8503104,24 12,24 C14.1496896,24 16.2581568,23.803392 18.311616,23.574528 C21.076416,23.266368 23.30112,21.041664 23.596992,18.27552 C23.815488,16.2336384 24,14.137248 24,12 C24,9.8627328 23.815488,7.7663616 23.596992,5.7244224 C23.30112,2.9583744 21.076416,0.7336512 18.311616,0.42548928 C16.2581568,0.19659264 14.1496896,0 12,0 C9.8503104,0 7.7418432,0.19659264 5.6883072,0.42548928 C2.923584,0.7336512 0.69888,2.9583744 0.40294464,5.7244224 C0.18447936,7.7663616 0,9.8627328 0,12 C0,14.137248 0.18448128,16.2336384 0.40294464,18.27552 Z"/><path d="M11.2124553,6.54045766 C11.5012954,5.81984745 12.4987521,5.81984745 12.7875921,6.54045766 L13.9838286,9.52477782 L17.2220005,9.8151748 C17.98164,9.88331498 18.2771877,10.8604611 17.6879649,11.3557315 L15.7108592,13.0174843 C15.4643935,13.2246221 15.3518096,13.5553423 15.419142,13.8743052 L16.0668445,16.942442 C16.2284083,17.7077474 15.397725,18.2855106 14.7615993,17.8502286 L12.0000322,15.9607497 L9.23844814,17.8502286 C8.60232241,18.2855106 7.77163909,17.7077474 7.93320294,16.942442 L8.58090542,13.8743052 C8.6482549,13.5553423 8.53565392,13.2246221 8.28920521,13.0174843 L6.31204849,11.3557315 C5.72279161,10.8604785 6.01837343,9.88331498 6.77804697,9.8151748 L10.0162189,9.52477782 L11.2124553,6.54045766 Z"/></g></svg>