<svg xmlns="http://www.w3.org/2000/svg" width="26" height="25" viewBox="0 0 26 25"><path fill="#2C2825" fill-opacity=".2" stroke="#2C2825" stroke-linejoin="round" stroke-width="2" d="M11.1098884,0.577052516 C11.4363409,-0.192350839 12.5635997,-0.192350839 12.8900523,0.577052516 L15.6604253,7.10659424 L23.1205589,7.73867255 C23.9792597,7.81142656 24.3132737,8.85475469 23.6473621,9.38354166 L18.5599978,13.4230069 C18.2815887,13.6441702 18.154217,13.9972837 18.2304091,14.3378439 L19.8215933,21.459014 C20.0041851,22.2761947 19.0654441,22.8930788 18.3464289,22.4283235 L11.9999703,18.325868 L5.65343477,22.4283235 C4.93451579,22.8930788 3.99571708,22.2761947 4.17830884,21.459014 L5.76957006,14.3378439 C5.84566599,13.9972837 5.71842897,13.6441702 5.43988514,13.4230069 L0.35265936,9.38354166 C-0.313286845,8.85473609 0.0207675699,7.81142656 0.879304791,7.73867255 L8.33951541,7.10659424 L11.1098884,0.577052516 Z" transform="translate(1 1)"/></svg>