<svg xmlns="http://www.w3.org/2000/svg" width="25" height="24" viewBox="0 0 25 24"><path fill="#2C2825" d="M1184.19158,786.26479 C1184.44316,786.458836 1184.72485,786.527895 1185.03663,786.47197 C1185.34841,786.416045 1185.6828,786.25907 1186.03979,786.001047 L1191.58474,781.923432 L1197.13452,786.001047 C1197.49273,786.25907 1197.82773,786.416045 1198.13951,786.47197 C1198.45129,786.527895 1198.73303,786.458836 1198.98472,786.26479 C1199.23508,786.077854 1199.38662,785.8288 1199.43932,785.517628 C1199.49202,785.206455 1199.44562,784.842662 1199.30012,784.426248 L1197.1087,777.911128 L1202.70313,773.890827 C1203.06723,773.634026 1203.32042,773.365589 1203.4627,773.085518 C1203.60499,772.805446 1203.62631,772.515684 1203.52668,772.21623 C1203.42827,771.922441 1203.2397,771.703098 1202.96096,771.558203 C1202.68222,771.413308 1202.31976,771.344415 1201.87358,771.351523 L1195.01241,771.396175 L1192.92762,764.845234 C1192.78922,764.419045 1192.60925,764.09535 1192.38772,763.874147 C1192.16618,763.652944 1191.89852,763.542343 1191.58474,763.542343 C1191.27551,763.542343 1191.01013,763.652944 1190.78859,763.874147 C1190.56706,764.09535 1190.38709,764.419045 1190.24869,764.845234 L1188.1639,771.396175 L1181.30073,771.351523 C1180.85588,771.344415 1180.49406,771.413308 1180.21527,771.558203 C1179.93647,771.703098 1179.74793,771.921774 1179.64963,772.21423 C1179.54999,772.513795 1179.57163,772.803919 1179.71452,773.084601 C1179.85742,773.365284 1180.1103,773.634026 1180.47318,773.890827 L1186.06745,777.911128 L1183.87602,784.426248 C1183.73052,784.842662 1183.68445,785.206455 1183.73782,785.517628 C1183.79119,785.8288 1183.94245,786.077854 1184.19158,786.26479 Z M1191.58474,779.714016 L1191.58474,766.714099 C1191.61051,766.714099 1191.62989,766.74059 1191.64289,766.793572 L1193.35747,772.603765 C1193.43311,772.876339 1193.54888,773.064497 1193.70477,773.16824 C1193.86066,773.271982 1194.07678,773.319688 1194.35313,773.311358 L1200.41524,773.168573 C1200.46955,773.168573 1200.4996,773.178569 1200.50537,773.198563 C1200.51704,773.224443 1200.49993,773.250934 1200.45406,773.278036 L1195.44693,776.707704 C1195.28954,776.815112 1195.17363,776.92588 1195.09921,777.040008 C1195.02479,777.154136 1194.98811,777.279121 1194.98917,777.414964 C1194.99022,777.550806 1195.02213,777.703865 1195.08488,777.874141 L1197.10903,783.594198 C1197.11747,783.640071 1197.1168,783.670116 1197.10703,783.684334 C1197.09414,783.702994 1197.06477,783.696496 1197.01889,783.66484 L1192.21452,779.962765 C1191.99127,779.78538 1191.78134,779.702464 1191.58474,779.714016 Z" transform="translate(-1179 -763)"/></svg>