<svg xmlns="http://www.w3.org/2000/svg" width="25" height="24" viewBox="0 0 25 24"><path fill="#2C2825" d="M1155.26031,786.26479 C1155.51189,786.458836 1155.79357,786.527895 1156.10536,786.47197 C1156.41714,786.416045 1156.75153,786.25907 1157.10852,786.001047 L1162.65347,781.923432 L1168.20325,786.001047 C1168.56146,786.25907 1168.89646,786.416045 1169.20824,786.47197 C1169.52002,786.527895 1169.80176,786.458836 1170.05345,786.26479 C1170.30381,786.077854 1170.45534,785.8288 1170.50805,785.517628 C1170.56075,785.206455 1170.51435,784.842662 1170.36884,784.426248 L1168.17742,777.911128 L1173.77185,773.890827 C1174.13595,773.634026 1174.38915,773.365589 1174.53143,773.085518 C1174.67372,772.805446 1174.69504,772.515684 1174.59541,772.21623 C1174.497,771.922441 1174.30842,771.703098 1174.02968,771.558203 C1173.75095,771.413308 1173.38848,771.344415 1172.9423,771.351523 L1166.08113,771.396175 L1163.99634,764.845234 C1163.85794,764.419045 1163.67798,764.09535 1163.45644,763.874147 C1163.23491,763.652944 1162.96725,763.542343 1162.65347,763.542343 C1162.34424,763.542343 1162.07885,763.652944 1161.85732,763.874147 C1161.63578,764.09535 1161.45582,764.419045 1161.31742,764.845234 L1159.23263,771.396175 L1152.36946,771.351523 C1151.92461,771.344415 1151.56279,771.413308 1151.28399,771.558203 C1151.0052,771.703098 1150.81665,771.921774 1150.71835,772.21423 C1150.61872,772.513795 1150.64035,772.803919 1150.78325,773.084601 C1150.92614,773.365284 1151.17903,773.634026 1151.54191,773.890827 L1157.13617,777.911128 L1154.94475,784.426248 C1154.79924,784.842662 1154.75318,785.206455 1154.80655,785.517628 C1154.85992,785.8288 1155.01117,786.077854 1155.26031,786.26479 Z" transform="translate(-1150 -763)"/></svg>