<svg xmlns="http://www.w3.org/2000/svg" width="26" height="26" viewBox="0 0 26 26"><g fill="none" fill-rule="evenodd" stroke="#2C2825" stroke-linecap="round" stroke-linejoin="round" stroke-width="1.5" transform="translate(1 1)"><path d="M9.49542365,23.7333817 C3.52801659,22.4595675 -0.533297664,16.9109667 0.0568828918,10.8383701 C0.647063448,4.76577353 5.70081065,0.10284681 11.8018492,0.00167513297 C17.9028877,-0.099496544 23.1084951,4.3933024 23.8997404,10.4429912"/><path d="M6.75215059 16.0014501C7.24481943 16.0013961 7.70998837 15.7743853 8.01313525 15.3860669 8.31628213 14.9977485 8.42359537 14.4914338 8.30404107 14.0135439L7.50409752 10.814124C7.32598252 10.1021515 6.68619745 9.60261027 5.95220705 9.60261027L.242743321 9.60261027C-.656792448 14.0209562.998046534 18.5704355 4.52617435 21.3786086L5.60129848 16.0014501 6.75215059 16.0014501ZM21.5841705 4.80348036 17.2495431 4.80348036C16.5155527 4.80356089 15.8757676 5.30302164 15.6976526 6.01499404L15.200621 7.99330204M11.2009033 17.6011601C11.2009033 21.1351418 14.0660787 24 17.6004516 24 21.1348246 24 24 21.1351418 24 17.6011601 24 14.0671784 21.1348246 11.2023202 17.6004516 11.2023202 14.0660787 11.2023202 11.2009033 14.0671784 11.2009033 17.6011601Z"/><polyline points="20.429 17.601 17.6 17.601 17.6 14.773"/></g></svg>