<svg xmlns="http://www.w3.org/2000/svg" width="24" height="23" viewBox="0 0 24 23"><path fill="#2C2825" fill-rule="evenodd" d="M2651.41331,377.251991 C2652.87042,377.121233 2654.413,377 2655.99974,377 C2657.58646,377 2659.12904,377.121233 2660.58616,377.251991 C2662.92877,377.462222 2664.89067,379.310305 2665.19462,381.720593 C2665.31584,382.683023 2665.41433,383.705369 2665.41433,384.762194 C2665.41433,385.097147 2665.40441,385.428117 2665.38709,385.754426 C2665.37771,385.93406 2665.47043,386.102426 2665.62069,386.197298 C2666.68209,386.867515 2667.47489,387.958032 2667.71769,389.272958 C2667.87499,390.124551 2668,391.029343 2668,391.965587 C2668,393.130277 2667.80608,394.251899 2667.59575,395.28375 C2667.51277,395.690397 2667.17184,395.989695 2666.76417,396.013367 L2666.418,396.033736 L2666.40646,396.034286 L2666.40628,396.034286 L2666.40574,396.034286 C2665.79621,396.069886 2665.18199,396.105854 2664.56308,396.14072 L2664.56308,398.42371 C2664.56308,399.183972 2663.95734,399.8 2663.21018,399.8 C2662.46302,399.8 2661.85727,399.183972 2661.85727,398.42371 L2661.85727,396.281652 C2659.93711,396.370652 2657.9796,396.433411 2655.9948,396.433411 C2654.00993,396.433411 2652.05235,396.370652 2650.13211,396.281468 L2650.13211,398.42371 C2650.13211,399.183972 2649.52639,399.8 2648.7792,399.8 C2648.03202,399.8 2647.4263,399.183972 2647.4263,398.42371 L2647.4263,396.14072 C2646.80739,396.105854 2646.19305,396.069886 2645.58361,396.034286 L2645.58336,396.034286 L2645.58319,396.034286 L2645.5831,396.034286 L2645.57168,396.033736 L2645.23597,396.014101 C2644.82841,395.990245 2644.48736,395.690948 2644.40446,395.2843 C2644.19405,394.252449 2644,393.130516 2644,391.965587 C2644,391.029343 2644.12504,390.124551 2644.28228,389.272958 C2644.52503,387.958234 2645.31763,386.867863 2646.37881,386.19761 C2646.52902,386.102719 2646.62184,385.934371 2646.61232,385.754756 C2646.59502,385.428355 2646.58514,385.097257 2646.58514,384.762194 C2646.58514,383.705369 2646.68356,382.683023 2646.80492,381.720593 C2647.10884,379.310305 2649.07071,377.462222 2651.41331,377.251991 Z M2662.70852,384.762194 C2662.70852,384.832348 2662.70798,384.902539 2662.70708,384.972785 C2662.70329,385.228922 2662.48755,385.425952 2662.23609,385.410867 C2660.22473,385.290213 2658.13558,385.180678 2656.00001,385.180678 C2653.86426,385.180678 2651.77491,385.290231 2649.76331,385.410904 C2649.51192,385.425988 2649.29616,385.228959 2649.29248,384.972803 C2649.29147,384.902558 2649.29094,384.832348 2649.29094,384.762194 C2649.29094,383.873166 2649.3739,382.981495 2649.48874,382.070795 C2649.62621,380.980516 2650.53783,380.093818 2651.65108,379.993918 C2653.09627,379.864234 2654.53924,379.75259 2655.99974,379.75259 C2657.46023,379.75259 2658.9032,379.864234 2660.34839,379.993918 C2661.46169,380.093818 2662.37318,380.980516 2662.51082,382.070795 C2662.62554,382.981495 2662.70852,383.873166 2662.70852,384.762194 Z M2652.61243,390.809503 C2652.61243,391.442909 2652.10767,391.956412 2651.48501,391.956412 L2649.68114,391.956412 C2649.05848,391.956412 2648.55372,391.442909 2648.55372,390.809503 C2648.55372,390.17608 2649.05848,389.662595 2649.68114,389.662595 L2651.48501,389.662595 C2652.10767,389.662595 2652.61243,390.17608 2652.61243,390.809503 Z M2662.30824,391.956412 C2662.93094,391.956412 2663.43566,391.442909 2663.43566,390.809503 C2663.43566,390.17608 2662.93094,389.662595 2662.30824,389.662595 L2660.50437,389.662595 C2659.88171,389.662595 2659.37695,390.17608 2659.37695,390.809503 C2659.37695,391.442909 2659.88171,391.956412 2660.50437,391.956412 L2662.30824,391.956412 Z" transform="translate(-2644 -377)"/></svg>