<svg xmlns="http://www.w3.org/2000/svg" width="17" height="24" viewBox="0 0 17 24"><path fill="#2C2825" fill-rule="evenodd" d="M2893.87147,380.411571 C2893.18742,378.796294 2893.94537,376.933611 2895.56439,376.251151 C2897.1834,375.568693 2899.05039,376.324895 2899.73442,377.940179 C2900.41846,379.555456 2899.6605,381.418145 2898.04149,382.100599 C2896.42249,382.783072 2894.5555,382.026866 2893.87147,380.411571 Z M2898.05723,384.950662 C2897.98055,384.853763 2897.89324,384.770169 2897.79828,384.700185 C2897.31365,384.171813 2896.66019,383.793016 2895.9087,383.654546 C2895.81975,383.632282 2895.72725,383.618797 2895.63217,383.615029 C2895.37597,383.588889 2895.12321,383.5919 2894.87733,383.621447 C2890.80135,383.769382 2887.75086,385.72046 2887.04156,388.523092 C2886.85832,389.2471 2887.29808,389.982213 2888.02376,390.165032 C2888.74944,390.34785 2889.48625,389.909111 2889.66947,389.185103 C2889.85455,388.453794 2890.54742,387.570727 2891.85746,386.979258 L2891.37577,390.839915 C2891.25073,391.841999 2891.69357,392.79321 2892.46475,393.356718 C2892.63807,393.531154 2892.86116,393.660772 2893.11868,393.720624 L2893.23004,393.746584 C2893.31571,393.774166 2893.40349,393.797783 2893.49322,393.817072 L2894.02896,393.932629 L2897.66546,394.779027 C2897.76317,394.803725 2897.84373,394.872771 2897.88288,394.965613 L2899.65461,399.171463 C2899.94461,399.859939 2900.73904,400.183355 2901.42902,399.894011 C2902.11908,399.604667 2902.44325,398.812172 2902.15323,398.123696 L2900.38156,393.917847 C2900.00837,393.03204 2899.23551,392.375708 2898.29918,392.149857 L2898.2992,392.149821 L2898.28863,392.14737 L2898.06668,392.095702 C2898.08945,391.999867 2898.10723,391.901761 2898.11972,391.801617 L2898.4804,388.907117 C2899.62924,389.587877 2901.01939,390.006064 2902.62105,389.796457 C2903.36315,389.699342 2903.88572,389.020402 2903.78832,388.280007 C2903.69111,387.53963 2903.01062,387.018162 2902.26852,387.115277 C2900.59765,387.333952 2899.13729,386.315372 2898.05723,384.950662 Z M2892.81266,396.874561 C2893.12266,396.194919 2892.82171,395.393229 2892.14046,395.083875 C2891.45923,394.77452 2890.65567,395.074861 2890.34568,395.754503 C2890.1203,396.248641 2889.74852,396.732142 2889.09861,397.002918 C2888.40795,397.290639 2888.08187,398.082593 2888.37027,398.77161 C2888.65867,399.460626 2889.45237,399.786025 2890.14301,399.498304 C2891.59781,398.892215 2892.39304,397.794511 2892.81266,396.874561 Z" transform="translate(-2887 -376)"/></svg>