<svg xmlns="http://www.w3.org/2000/svg" width="21" height="24" viewBox="0 0 21 24"><path fill="#2C2825" fill-rule="evenodd" d="M2749.71018,376.151573 C2749.46222,376.319154 2749.31519,376.600986 2749.31914,376.90105 C2749.39908,382.949672 2747.25228,387.153777 2743.37882,389.943104 C2743.06621,390.168226 2742.93408,390.570203 2743.05183,390.937889 C2743.16959,391.305594 2743.51029,391.55494 2743.89499,391.554958 L2750.87135,391.555135 L2750.87129,393.737905 L2743.79306,393.737905 C2743.20763,393.737905 2742.72752,394.042028 2742.42689,394.414624 C2742.12741,394.785619 2741.94194,395.300494 2742.01649,395.842759 C2742.34097,398.203182 2744.52323,399.616733 2746.63621,399.755812 C2748.51089,399.87924 2750.43209,400 2752.2,400 C2754.18167,400 2756.00137,399.883686 2757.76664,399.762393 C2759.87765,399.617267 2762.05915,398.202827 2762.3835,395.842759 C2762.45808,395.300494 2762.27261,394.785619 2761.97306,394.414624 C2761.67245,394.042028 2761.1924,393.737905 2760.60694,393.737905 L2753.52843,393.737905 L2753.52848,391.555206 L2759.01585,391.555349 C2759.25074,391.555349 2759.47589,391.461657 2759.64205,391.294888 C2759.80821,391.128136 2759.90156,390.901946 2759.90156,390.666099 C2759.90156,385.351411 2757.56151,381.691349 2755.23326,379.378233 C2754.07293,378.225428 2752.91394,377.404383 2752.04328,376.870304 C2751.60728,376.602844 2751.24156,376.406105 2750.98126,376.274706 C2750.85106,376.208972 2750.74705,376.159489 2750.67359,376.125595 C2750.63685,376.108644 2750.60774,376.095582 2750.58679,376.086327 L2750.56154,376.075284 L2750.55364,376.071882 L2750.55088,376.070708 C2750.55044,376.070516 2750.54895,376.069883 2750.20478,376.889254 L2750.54895,376.069883 C2750.27353,375.953276 2749.95813,375.983994 2749.71018,376.151573 Z" transform="translate(-2742 -376)"/></svg>