<svg xmlns="http://www.w3.org/2000/svg" width="24" height="18" viewBox="0 0 24 18"><path fill-rule="evenodd" d="M2852.07432,379 C2851.74436,379 2851.43191,379.140287 2851.22343,379.382024 C2851.01494,379.623777 2850.93254,379.941345 2850.99903,380.246841 L2851.62139,383.10664 L2848.06886,385.696907 L2846.20601,383.098902 L2846.33552,383.098902 C2846.94182,383.098902 2847.43333,382.634274 2847.43333,382.061155 C2847.43333,381.48802 2846.94182,381.023408 2846.33552,381.023408 L2842.31677,381.023408 C2841.71048,381.023408 2841.21896,381.48802 2841.21896,382.061155 C2841.21896,382.634274 2841.71048,383.098902 2842.31677,383.098902 L2843.55357,383.098902 L2846.32707,386.966927 L2844.89674,388.009821 C2843.95452,387.251369 2842.73309,386.793648 2841.39858,386.793648 C2838.41702,386.793648 2836,389.078435 2836,391.896774 C2836,394.715296 2838.41702,397 2841.39858,397 C2844.38012,397 2846.79714,394.715296 2846.79714,391.896774 C2846.79714,391.08949 2846.59883,390.32599 2846.24573,389.647403 L2848.26188,388.177355 C2848.32707,388.151304 2848.39053,388.118876 2848.45134,388.079923 C2848.55116,388.015965 2848.63631,387.939205 2848.70601,387.853528 L2852.1137,385.368862 L2852.51015,387.190648 C2850.56716,387.963098 2849.20285,389.779371 2849.20285,391.896774 C2849.20285,394.715296 2851.61988,397 2854.60142,397 C2857.58307,397 2860,394.715296 2860,391.896774 C2860,389.098626 2857.61749,386.826407 2854.66535,386.793997 L2853.42088,381.075494 L2853.42334,381.075494 L2853.42878,381.075494 L2853.4344,381.075494 L2853.43985,381.075494 L2853.44529,381.075494 L2853.45091,381.075494 L2853.45636,381.075494 L2853.46198,381.075494 L2853.4676,381.075494 L2853.47322,381.075494 L2853.47884,381.075494 L2853.48446,381.075494 L2853.49026,381.075494 L2853.49588,381.075494 L2853.50168,381.075494 L2853.5073,381.075494 L2853.51309,381.075494 L2853.51889,381.075494 L2853.52469,381.075494 L2853.53048,381.075494 L2853.53646,381.075494 L2853.54225,381.075494 L2853.54822,381.075494 L2853.5542,381.075494 L2853.55999,381.075494 L2853.56596,381.075494 L2853.57194,381.075494 L2853.57808,381.075494 L2853.58406,381.075494 L2853.5902,381.075494 L2853.59618,381.075494 L2853.60232,381.075494 L2853.60847,381.075494 L2853.61462,381.075494 L2853.62077,381.075494 L2853.62692,381.075494 L2853.63324,381.075494 L2853.63956,381.075494 L2853.64571,381.075494 L2853.65203,381.075494 L2853.65836,381.075494 L2853.66468,381.075494 L2853.67118,381.075494 L2853.6775,381.075494 L2853.684,381.075494 L2853.69032,381.075494 L2853.69682,381.075494 L2853.70332,381.075494 L2853.71,381.075494 L2853.7165,381.075494 L2853.723,381.075494 L2853.72967,381.075494 L2853.73634,381.075494 L2853.74302,381.075494 L2853.74969,381.075494 L2853.75637,381.075494 L2853.76304,381.075494 L2853.76989,381.075494 L2853.77674,381.075494 L2853.78359,381.075494 L2853.79044,381.075494 L2853.79729,381.075494 L2853.80415,381.075494 L2853.81117,381.075494 L2853.81802,381.075494 L2853.82505,381.075494 L2853.83207,381.075494 L2853.8391,381.075494 L2853.84613,381.075494 L2853.85333,381.075494 L2853.86035,381.075494 L2853.86755,381.075494 L2853.87476,381.075494 L2853.88196,381.075494 L2853.88934,381.075494 L2853.89654,381.075494 L2853.90391,381.075494 L2853.91112,381.075494 L2853.91849,381.075494 L2853.92587,381.075494 L2853.93342,381.075494 L2853.9408,381.075494 L2853.94835,381.075494 L2853.95591,381.075494 L2853.96346,381.075494 L2853.97101,381.075494 L2853.97857,381.075494 L2853.98629,381.075494 L2853.99385,381.075494 L2854.00158,381.075494 L2854.0093,381.075494 L2854.01721,381.075494 L2854.02494,381.075494 L2854.03284,381.075494 L2854.04057,381.075494 L2854.04847,381.075494 L2854.05638,381.075494 L2854.06446,381.075494 L2854.07236,381.075494 L2854.08044,381.075494 L2854.08852,381.075494 L2854.0966,381.075494 L2854.10468,381.075494 L2854.11294,381.075494 L2854.12102,381.075494 L2854.12927,381.075494 L2854.13753,381.075494 L2854.14578,381.075494 L2854.15421,381.075494 L2854.16247,381.075494 L2854.1709,381.075494 L2854.17933,381.075494 L2854.18776,381.075494 L2854.19619,381.075494 L2854.2048,381.075494 L2854.21341,381.075494 L2854.22202,381.075494 L2854.23062,381.075494 L2854.23923,381.075494 L2854.24801,381.075494 L2854.25679,381.075494 L2854.26558,381.075494 L2854.27436,381.075494 L2854.28314,381.075494 L2854.2921,381.075494 L2854.30088,381.075494 L2854.30984,381.075494 L2854.31897,381.075494 L2854.32793,381.075494 L2854.33707,381.075494 L2854.34602,381.075494 L2854.35516,381.075494 L2854.36447,381.075494 L2854.3736,381.075494 L2854.38291,381.075494 L2854.39222,381.075494 L2854.40153,381.075494 L2854.41084,381.075494 L2854.42015,381.075494 L2854.42963,381.075494 L2854.43912,381.075494 L2854.4486,381.075494 L2854.45826,381.075494 L2854.46775,381.075494 L2854.47741,381.075494 L2854.48707,381.075494 L2854.49673,381.075494 L2854.50657,381.075494 L2854.51623,381.075494 L2854.52606,381.075494 L2854.5359,381.075494 L2854.54591,381.075494 L2854.55575,381.075494 L2854.56576,381.075494 L2854.57577,381.075494 L2854.58578,381.075494 L2854.59597,381.075494 L2854.60616,381.075494 L2854.61617,381.075494 L2854.62654,381.075494 L2854.63672,381.075494 L2854.64709,381.075494 L2854.65745,381.075494 L2854.66781,381.075494 L2854.67818,381.075494 L2854.68872,381.075494 L2854.69908,381.075494 L2854.70962,381.075494 L2854.72033,381.075494 L2854.73087,381.075494 L2854.74159,381.075494 L2854.7523,381.075494 L2854.76302,381.075494 L2854.77391,381.075494 L2854.78462,381.075494 L2854.79551,381.075494 L2854.8064,381.075494 L2854.81747,381.075494 L2854.82836,381.075494 L2854.83942,381.075494 L2854.85066,381.075494 L2854.86173,381.075494 L2854.87297,381.075494 L2854.88421,381.075494 L2854.89545,381.075494 L2854.9067,381.075494 L2854.91811,381.075494 L2854.92953,381.075494 L2854.94095,381.075494 L2854.95236,381.075494 L2854.96396,381.075494 L2854.97555,381.075494 L2854.98714,381.075494 L2854.99874,381.075494 L2855.0105,381.075494 L2855.02227,381.075494 L2855.03404,381.075494 L2855.04599,381.075494 L2855.05775,381.075494 L2855.0697,381.075494 L2855.08182,381.075494 L2855.09376,381.075494 L2855.10588,381.075494 L2855.118,381.075494 L2855.13012,381.075494 L2855.14242,381.075494 L2855.15454,381.075494 L2855.16683,381.075494 L2855.1793,381.075494 C2855.91352,381.075494 2856.18437,381.319274 2856.31013,381.490261 C2856.48069,381.722152 2856.5311,382.03703 2856.51213,382.240113 C2856.45873,382.811023 2856.90523,383.314704 2857.50912,383.365114 C2858.113,383.415523 2858.64592,382.993567 2858.69914,382.422656 C2858.75166,381.861194 2858.64522,381.029252 2858.11282,380.305453 C2857.53564,379.520766 2856.55762,379 2855.1793,379 L2855.16683,379 L2855.15454,379 L2855.14242,379 L2855.13012,379 L2855.118,379 L2855.10588,379 L2855.09376,379 L2855.08182,379 L2855.0697,379 L2855.05775,379 L2855.04599,379 L2855.03404,379 L2855.02227,379 L2855.0105,379 L2854.99874,379 L2854.98714,379 L2854.97555,379 L2854.96396,379 L2854.95236,379 L2854.94095,379 L2854.92953,379 L2854.91811,379 L2854.9067,379 L2854.89545,379 L2854.88421,379 L2854.87297,379 L2854.86173,379 L2854.85066,379 L2854.83942,379 L2854.82836,379 L2854.81747,379 L2854.8064,379 L2854.79551,379 L2854.78462,379 L2854.77391,379 L2854.76302,379 L2854.7523,379 L2854.74159,379 L2854.73087,379 L2854.72033,379 L2854.70962,379 L2854.69908,379 L2854.68872,379 L2854.67818,379 L2854.66781,379 L2854.65745,379 L2854.64709,379 L2854.63672,379 L2854.62654,379 L2854.61617,379 L2854.60616,379 L2854.59597,379 L2854.58578,379 L2854.57577,379 L2854.56576,379 L2854.55575,379 L2854.54591,379 L2854.5359,379 L2854.52606,379 L2854.51623,379 L2854.50657,379 L2854.49673,379 L2854.48707,379 L2854.47741,379 L2854.46775,379 L2854.45826,379 L2854.4486,379 L2854.43912,379 L2854.42963,379 L2854.42015,379 L2854.41084,379 L2854.40153,379 L2854.39222,379 L2854.38291,379 L2854.3736,379 L2854.36447,379 L2854.35516,379 L2854.34602,379 L2854.33707,379 L2854.32793,379 L2854.31897,379 L2854.30984,379 L2854.30088,379 L2854.2921,379 L2854.28314,379 L2854.27436,379 L2854.26558,379 L2854.25679,379 L2854.24801,379 L2854.23923,379 L2854.23062,379 L2854.22202,379 L2854.21341,379 L2854.2048,379 L2854.19619,379 L2854.18776,379 L2854.17933,379 L2854.1709,379 L2854.16247,379 L2854.15421,379 L2854.14578,379 L2854.13753,379 L2854.12927,379 L2854.12102,379 L2854.11294,379 L2854.10468,379 L2854.0966,379 L2854.08852,379 L2854.08044,379 L2854.07236,379 L2854.06446,379 L2854.05638,379 L2854.04847,379 L2854.04057,379 L2854.03284,379 L2854.02494,379 L2854.01721,379 L2854.0093,379 L2854.00158,379 L2853.99385,379 L2853.98629,379 L2853.97857,379 L2853.97101,379 L2853.96346,379 L2853.95591,379 L2853.94835,379 L2853.9408,379 L2853.93342,379 L2853.92587,379 L2853.91849,379 L2853.91112,379 L2853.90391,379 L2853.89654,379 L2853.88934,379 L2853.88196,379 L2853.87476,379 L2853.86755,379 L2853.86035,379 L2853.85333,379 L2853.84613,379 L2853.8391,379 L2853.83207,379 L2853.82505,379 L2853.81802,379 L2853.81117,379 L2853.80415,379 L2853.79729,379 L2853.79044,379 L2853.78359,379 L2853.77674,379 L2853.76989,379 L2853.76304,379 L2853.75637,379 L2853.74969,379 L2853.74302,379 L2853.73634,379 L2853.72967,379 L2853.723,379 L2853.7165,379 L2853.71,379 L2853.70332,379 L2853.69682,379 L2853.69032,379 L2853.684,379 L2853.6775,379 L2853.67118,379 L2853.66468,379 L2853.65836,379 L2853.65203,379 L2853.64571,379 L2853.63956,379 L2853.63324,379 L2853.62692,379 L2853.62077,379 L2853.61462,379 L2853.60847,379 L2853.60232,379 L2853.59618,379 L2853.5902,379 L2853.58406,379 L2853.57808,379 L2853.57194,379 L2853.56596,379 L2853.55999,379 L2853.5542,379 L2853.54822,379 L2853.54225,379 L2853.53646,379 L2853.53048,379 L2853.52469,379 L2853.51889,379 L2853.51309,379 L2853.5073,379 L2853.50168,379 L2853.49588,379 L2853.49026,379 L2853.48446,379 L2853.47884,379 L2853.47322,379 L2853.4676,379 L2853.46198,379 L2853.45636,379 L2853.45091,379 L2853.44529,379 L2853.43985,379 L2853.4344,379 L2853.42878,379 L2853.42334,379 L2853.41789,379 L2853.41262,379 L2853.40718,379 L2853.40173,379 L2853.39646,379 L2853.39102,379 L2853.38575,379 L2853.38048,379 L2853.37521,379 L2853.36994,379 L2853.36467,379 L2853.3594,379 L2853.35431,379 L2853.34904,379 L2853.34394,379 L2853.33867,379 L2853.33358,379 L2853.32849,379 L2853.32339,379 L2853.3183,379 L2853.31321,379 L2853.30829,379 L2853.30319,379 L2853.2981,379 L2853.29318,379 L2853.28826,379 L2853.28317,379 L2853.27825,379 L2853.27333,379 L2853.26843,379 L2853.26353,379 L2853.25865,379 L2853.25377,379 L2853.24892,379 L2853.24409,379 L2853.23926,379 L2853.23444,379 L2853.22965,379 L2853.22489,379 L2853.22011,379 L2853.21537,379 L2853.21064,379 L2853.20592,379 L2853.20121,379 L2853.19652,379 L2853.19185,379 L2853.18718,379 L2853.18252,379 L2853.17789,379 L2853.17327,379 L2853.16866,379 L2853.16406,379 L2853.15948,379 L2853.15491,379 L2853.15036,379 L2853.14581,379 L2853.14128,379 L2853.13675,379 L2853.13225,379 L2853.12775,379 L2853.12328,379 L2853.1188,379 L2853.11434,379 L2853.10989,379 L2853.10545,379 L2853.10102,379 L2853.09661,379 L2853.0922,379 L2853.08781,379 L2853.08344,379 L2853.07906,379 L2853.07471,379 L2853.07035,379 L2853.06601,379 L2853.06168,379 L2853.05735,379 L2853.05305,379 L2853.04875,379 L2853.04446,379 L2853.04018,379 L2853.03591,379 L2853.03166,379 L2853.02739,379 L2853.02316,379 L2853.01892,379 L2853.01469,379 L2853.01047,379 L2853.00626,379 L2853.00206,379 L2852.99788,379 L2852.99368,379 L2852.98952,379 L2852.98534,379 L2852.98118,379 L2852.97703,379 L2852.97288,379 L2852.96874,379 L2852.96461,379 L2852.96048,379 L2852.95637,379 L2852.95226,379 L2852.94815,379 L2852.94406,379 L2852.93997,379 L2852.93589,379 L2852.9318,379 L2852.92773,379 L2852.92367,379 L2852.91961,379 L2852.91555,379 L2852.9115,379 L2852.90746,379 L2852.90342,379 L2852.89938,379 L2852.89535,379 L2852.89133,379 L2852.88731,379 L2852.8833,379 L2852.87928,379 L2852.87528,379 L2852.87127,379 L2852.86728,379 L2852.86328,379 L2852.85929,379 L2852.85531,379 L2852.85132,379 L2852.84735,379 L2852.84336,379 L2852.83939,379 L2852.83542,379 L2852.83145,379 L2852.8275,379 L2852.82353,379 L2852.81958,379 L2852.81561,379 L2852.81166,379 L2852.8077,379 L2852.80375,379 L2852.7998,379 L2852.79587,379 L2852.79191,379 L2852.78798,379 L2852.78403,379 L2852.78009,379 L2852.77614,379 L2852.77221,379 L2852.76827,379 L2852.76434,379 L2852.76038,379 L2852.75645,379 L2852.75252,379 L2852.74858,379 L2852.74465,379 L2852.74071,379 L2852.73678,379 L2852.73282,379 L2852.72889,379 L2852.72496,379 L2852.72102,379 L2852.71707,379 L2852.71313,379 L2852.7092,379 L2852.70525,379 L2852.7013,379 L2852.69736,379 L2852.69341,379 L2852.68946,379 L2852.6855,379 L2852.68155,379 L2852.6776,379 L2852.67363,379 L2852.66968,379 L2852.66571,379 L2852.66174,379 L2852.65779,379 L2852.6538,379 L2852.64983,379 L2852.64586,379 L2852.64187,379 L2852.63789,379 L2852.6339,379 L2852.62991,379 L2852.62591,379 L2852.6219,379 L2852.6179,379 L2852.61389,379 L2852.60989,379 L2852.60587,379 L2852.60184,379 L2852.59782,379 L2852.59378,379 L2852.58974,379 L2852.5857,379 L2852.58166,379 L2852.5776,379 L2852.57355,379 L2852.56947,379 L2852.56541,379 L2852.56134,379 L2852.55725,379 L2852.55315,379 L2852.54906,379 L2852.54497,379 L2852.54086,379 L2852.53675,379 L2852.53262,379 L2852.52849,379 L2852.52435,379 L2852.52022,379 L2852.51606,379 L2852.51191,379 L2852.50773,379 L2852.50357,379 L2852.49939,379 L2852.49519,379 L2852.49099,379 L2852.48679,379 L2852.48258,379 L2852.47834,379 L2852.47413,379 L2852.46988,379 L2852.46563,379 L2852.46138,379 L2852.45711,379 L2852.45282,379 L2852.44854,379 L2852.44425,379 L2852.43995,379 L2852.43563,379 L2852.43131,379 L2852.42697,379 L2852.42261,379 L2852.41825,379 L2852.4139,379 L2852.40952,379 L2852.40513,379 L2852.40072,379 L2852.39632,379 L2852.39189,379 L2852.38746,379 L2852.38302,379 L2852.37856,379 L2852.3741,379 L2852.36962,379 L2852.36512,379 L2852.36062,379 L2852.35611,379 L2852.35158,379 L2852.34705,379 L2852.34248,379 L2852.33793,379 L2852.33335,379 L2852.32874,379 L2852.32414,379 L2852.31952,379 L2852.3149,379 L2852.31025,379 L2852.30559,379 L2852.30092,379 L2852.29623,379 L2852.29154,379 L2852.28682,379 L2852.28209,379 L2852.27735,379 L2852.27259,379 L2852.26783,379 L2852.26303,379 L2852.25824,379 L2852.25341,379 L2852.24858,379 L2852.24373,379 L2852.23888,379 L2852.234,379 L2852.2291,379 L2852.2242,379 L2852.21926,379 L2852.21433,379 L2852.20935,379 L2852.20438,379 L2852.1994,379 L2852.19439,379 L2852.18937,379 L2852.18432,379 L2852.17927,379 L2852.17419,379 L2852.1691,379 L2852.16398,379 L2852.15886,379 L2852.15371,379 L2852.14854,379 L2852.14336,379 L2852.13816,379 L2852.13295,379 L2852.12771,379 L2852.12246,379 L2852.11719,379 L2852.11189,379 L2852.10658,379 L2852.10126,379 L2852.0959,379 L2852.09053,379 L2852.08515,379 L2852.07974,379 L2852.07432,379 Z M2841.39858,388.869142 C2842.02011,388.869142 2842.6003,389.036477 2843.09145,389.326116 L2840.80653,390.992191 C2840.32647,391.342202 2840.23746,391.993907 2840.60777,392.447693 C2840.97807,392.90148 2841.66744,392.985662 2842.14753,392.635484 L2844.4453,390.960145 C2844.54672,391.255031 2844.60153,391.570008 2844.60153,391.896774 C2844.60153,393.568959 2843.16752,394.924506 2841.39858,394.924506 C2839.62963,394.924506 2838.19561,393.568959 2838.19561,391.896774 C2838.19561,390.224689 2839.62963,388.869142 2841.39858,388.869142 Z M2852.96751,389.292178 L2853.56825,392.052851 C2853.6905,392.614231 2854.27085,392.975699 2854.86472,392.860136 C2855.45859,392.744738 2855.84097,392.195977 2855.7189,391.634598 L2855.12591,388.909507 C2856.64527,389.146063 2857.80438,390.393502 2857.80438,391.896774 C2857.80438,393.568959 2856.37038,394.924506 2854.60142,394.924506 C2852.83249,394.924506 2851.39847,393.568959 2851.39847,391.896774 C2851.39847,390.788958 2852.02807,389.819902 2852.96751,389.292178 Z" transform="translate(-2836 -379)"/></svg>