<svg xmlns="http://www.w3.org/2000/svg" width="24" height="24" viewBox="0 0 24 24"><path fill="#2C2825" fill-rule="evenodd" d="M2368,400 C2361.37258,400 2356,394.627508 2356,388 C2356,381.372585 2361.37258,376 2368,376 C2374.62751,376 2380,381.372585 2380,388 C2380,394.627508 2374.62751,400 2368,400 Z M2371.13817,391.881631 C2370.22738,392.662572 2368.86629,391.988228 2368.86629,390.831612 L2368.86629,389.384597 L2362.46154,389.384597 C2361.69684,389.384597 2361.07692,388.764695 2361.07692,387.999982 C2361.07692,387.235286 2361.69684,386.615366 2362.46154,386.615366 L2368.86629,386.615366 L2368.86629,385.168609 C2368.86629,384.011994 2370.22738,383.337649 2371.13817,384.118572 C2372.39019,385.192111 2373.19144,386.037483 2374.31237,387.418351 C2374.58763,387.757378 2374.58763,388.242843 2374.31237,388.581871 C2373.19144,389.962738 2372.39019,390.808111 2371.13817,391.881631 Z" transform="translate(-2356 -376)"/></svg>