<svg xmlns="http://www.w3.org/2000/svg" width="24" height="24" viewBox="0 0 24 24"><path fill="#2C2825" fill-rule="evenodd" d="M2793.06871,377.321101 C2794.77873,376.44094 2797.15071,376 2799.99991,376 C2802.84912,376 2805.22108,376.44094 2806.93106,377.321101 C2808.67448,378.218458 2809.85699,379.662991 2809.85699,381.571389 L2809.85699,384.999936 L2810.71412,384.999936 C2811.42418,384.999936 2811.99983,385.575572 2811.99983,386.285641 C2811.99983,386.99571 2811.42418,387.571346 2810.71412,387.571346 L2809.85699,387.571346 L2809.85699,393.571303 C2809.85699,395.035293 2809.18979,396.343283 2808.14271,397.207963 L2808.14271,398.714295 C2808.14271,399.424347 2807.56706,400 2806.85701,400 C2806.14696,400 2805.5713,399.424347 2805.5713,398.714295 L2805.5713,398.266355 C2805.43022,398.279041 2805.28725,398.285555 2805.14273,398.285555 L2794.85709,398.285555 C2794.71263,398.285555 2794.56968,398.279041 2794.42853,398.266355 L2794.42853,398.714295 C2794.42853,399.424347 2793.85289,400 2793.14282,400 C2792.43275,400 2791.85712,399.424347 2791.85712,398.714295 L2791.85712,397.207963 C2790.81012,396.343283 2790.14284,395.035293 2790.14284,393.571303 L2790.14284,387.571346 L2789.28571,387.571346 C2788.57563,387.571346 2788,386.99571 2788,386.285641 C2788,385.575572 2788.57563,384.999936 2789.28571,384.999936 L2790.14284,384.999936 L2790.14284,381.571389 C2790.14284,379.662991 2791.32528,378.218458 2793.06871,377.321101 Z M2794.85709,392.499882 C2794.26536,392.499882 2793.78567,392.97957 2793.78567,393.571303 C2793.78567,394.16307 2794.26536,394.642724 2794.85709,394.642724 L2795.71423,394.642724 C2796.30596,394.642724 2796.78565,394.16307 2796.78565,393.571303 C2796.78565,392.97957 2796.30596,392.499882 2795.71423,392.499882 L2794.85709,392.499882 Z M2803.21418,393.571303 C2803.21418,392.97957 2803.69387,392.499882 2804.2856,392.499882 L2805.14273,392.499882 C2805.7345,392.499882 2806.21416,392.97957 2806.21416,393.571303 C2806.21416,394.16307 2805.7345,394.642724 2805.14273,394.642724 L2804.2856,394.642724 C2803.69387,394.642724 2803.21418,394.16307 2803.21418,393.571303 Z M2806.42844,382.428526 C2806.90175,382.428526 2807.28558,382.812283 2807.28558,383.285662 L2807.28558,389.285619 C2807.28558,389.758999 2806.90175,390.142756 2806.42844,390.142756 L2793.57139,390.142756 C2793.09801,390.142756 2792.71425,389.758999 2792.71425,389.285619 L2792.71425,383.285662 C2792.71425,382.812283 2793.09801,382.428526 2793.57139,382.428526 L2806.42844,382.428526 Z" transform="translate(-2788 -376)"/></svg>