<svg xmlns="http://www.w3.org/2000/svg" width="24" height="24" viewBox="0 0 24 24"><path fill="#2C2825" fill-rule="evenodd" d="M2694.63126,387.014681 C2694.92666,387.034303 2695.26622,387.05113 2695.65217,387.062365 L2695.65217,397.89011 L2693.04348,397.89011 C2692.46718,397.89011 2692,398.362409 2692,398.945055 C2692,399.527701 2692.46718,400 2693.04348,400 L2714.95652,400 C2715.53283,400 2716,399.527701 2716,398.945055 C2716,398.362409 2715.53283,397.89011 2714.95652,397.89011 L2713.6456,397.89011 C2713.64951,397.661662 2713.65217,397.39687 2713.65217,397.098901 C2713.65217,396.859534 2713.65045,396.641635 2713.64774,396.446734 C2713.72073,396.442514 2713.78939,396.4384 2713.85388,396.434286 C2714.55311,396.390031 2715.52616,395.987464 2715.688,394.922075 C2715.84238,393.905582 2715.63019,392.562215 2715.27875,391.627112 C2715.03045,390.966347 2714.49974,390.58604 2713.93746,390.423789 L2713.21292,387.214699 C2712.95831,386.086857 2712.04501,385.186198 2710.84203,385.086611 C2710.08019,385.023525 2709.01689,384.967033 2707.65223,384.967033 C2706.28757,384.967033 2705.22431,385.023525 2704.46247,385.086611 C2703.2595,385.186198 2702.34619,386.086857 2702.09153,387.214699 L2701.36699,390.423789 C2700.80471,390.58604 2700.27405,390.966347 2700.0257,391.627112 C2699.67431,392.562215 2699.46212,393.905582 2699.6165,394.922075 C2699.77835,395.987464 2700.75139,396.390031 2701.45063,396.434286 C2701.51506,396.438347 2701.58367,396.442514 2701.65661,396.446734 C2701.6539,396.641635 2701.65217,396.859534 2701.65217,397.098901 C2701.65217,397.39687 2701.65483,397.661662 2701.65875,397.89011 L2697.73913,397.89011 L2697.73913,387.062365 C2698.12506,387.05113 2698.46466,387.034303 2698.76007,387.014681 C2700.05946,386.928545 2701.00303,385.885626 2701.06464,384.611938 C2701.10028,383.875745 2701.13043,382.861943 2701.13043,381.538462 C2701.13043,380.21497 2701.10028,379.201178 2701.06464,378.465 C2701.00303,377.191297 2700.05946,376.148367 2698.76007,376.062226 C2698.22257,376.026595 2697.53899,376 2696.69565,376 C2695.85234,376 2695.16872,376.026595 2694.63126,376.062226 C2693.33184,376.148367 2692.38829,377.191297 2692.32664,378.465 C2692.29101,379.201178 2692.26087,380.21497 2692.26087,381.538462 C2692.26087,382.861943 2692.29101,383.875745 2692.32664,384.611938 C2692.38829,385.885626 2693.33184,386.928545 2694.63126,387.014681 Z M2704.77603,397.89011 L2710.52831,397.89011 C2710.5244,397.661662 2710.52174,397.39687 2710.52174,397.098901 C2710.52174,396.900835 2710.52289,396.717486 2710.52487,396.549697 C2709.7167,396.563042 2708.76614,396.571429 2707.65223,396.571429 C2706.53826,396.571429 2705.58765,396.563042 2704.77948,396.549697 C2704.78146,396.717486 2704.78261,396.900835 2704.78261,397.098901 C2704.78261,397.39687 2704.77995,397.661662 2704.77603,397.89011 Z M2707.65217,386.549451 C2706.4564,386.549451 2705.554,386.604571 2705.0776,386.64218 C2704.52038,386.686119 2704.07216,387.084993 2703.93442,387.609723 L2703.50445,389.247578 C2703.44122,389.48858 2703.49397,389.745565 2703.64689,389.941152 C2703.79981,390.136791 2704.03496,390.248035 2704.28148,390.241495 C2704.70664,390.230154 2705.35621,390.233266 2706.14847,390.237116 C2706.60713,390.239332 2707.11379,390.241768 2707.65217,390.241768 C2708.19061,390.241768 2708.69706,390.239332 2709.15572,390.237116 C2709.94798,390.233266 2710.59776,390.230154 2711.02287,390.241495 C2711.26939,390.248035 2711.50454,390.136791 2711.65746,389.941152 C2711.81038,389.745565 2711.86318,389.48858 2711.7999,389.247578 L2711.36998,387.609723 C2711.23224,387.084993 2710.78397,386.686119 2710.22675,386.64218 C2709.7504,386.604571 2708.84795,386.549451 2707.65217,386.549451 Z M2702.17391,393.67033 C2702.17391,393.233371 2702.52431,392.879121 2702.95652,392.879121 L2704,392.879121 C2704.43221,392.879121 2704.78261,393.233371 2704.78261,393.67033 C2704.78261,394.107288 2704.43221,394.461538 2704,394.461538 L2702.95652,394.461538 C2702.52431,394.461538 2702.17391,394.107288 2702.17391,393.67033 Z M2712.34783,392.879121 C2712.78003,392.879121 2713.13043,393.233371 2713.13043,393.67033 C2713.13043,394.107288 2712.78003,394.461538 2712.34783,394.461538 L2711.30435,394.461538 C2710.87214,394.461538 2710.52174,394.107288 2710.52174,393.67033 C2710.52174,393.233371 2710.87214,392.879121 2711.30435,392.879121 L2712.34783,392.879121 Z" transform="translate(-2692 -376)"/></svg>