<svg xmlns="http://www.w3.org/2000/svg" width="24" height="21" viewBox="0 0 24 21"><path fill="#2C2825" fill-rule="evenodd" d="M2617.07786,378.43189 C2615.83818,377.870441 2614.30842,377.854895 2612.88368,378.394044 C2609.43397,379.699434 2605.50996,381.407915 2602.50753,382.761595 C2602.18988,382.024793 2601.86934,381.31921 2601.58973,380.719017 C2601.00262,379.458722 2599.59587,378.921537 2598.32664,379.412892 C2597.06795,379.900154 2596.29779,381.25967 2596.55082,382.622435 C2596.81097,384.023505 2597.19808,385.929567 2597.63662,387.491528 C2597.65548,387.558722 2597.67736,387.624282 2597.70214,387.688081 C2598.06926,389.00151 2599.33408,389.811912 2600.68561,389.50753 C2601.81032,389.254226 2603.29329,388.915577 2604.95618,388.523995 C2604.8898,388.805416 2604.82727,389.07388 2604.76916,389.325789 C2604.43345,390.781517 2605.36358,392.050622 2606.81515,392.231959 C2608.0488,392.386133 2609.34514,391.719149 2609.96727,390.594324 C2610.523,389.589499 2611.25957,388.22354 2611.97235,386.796976 C2613.74159,386.33809 2615.46426,385.868577 2616.97816,385.417821 C2618.51477,384.960293 2619.68413,383.413492 2619.47283,381.725733 C2619.27199,380.121172 2618.33105,378.999358 2617.07786,378.43189 Z M2597.35217,398.4 C2596.60539,398.4 2596,397.783673 2596,397.023451 C2596,396.263229 2596.60539,395.646902 2597.35217,395.646902 L2618.64782,395.646902 C2619.39459,395.646902 2620,396.263229 2620,397.023451 C2620,397.783673 2619.39459,398.4 2618.64782,398.4 L2597.35217,398.4 Z" transform="translate(-2596 -378)"/></svg>