<svg width="231px" height="41px" viewBox="0 0 231 41" version="1.1" xmlns="http://www.w3.org/2000/svg" xmlns:xlink="http://www.w3.org/1999/xlink">
    <g id="Symbols" stroke="none" stroke-width="1" fill="none" fill-rule="evenodd">
        <g id="Footer" transform="translate(-199.000000, -89.000000)" fill-rule="nonzero">
            <g id="logo" transform="translate(199.884615, 89.709989)">
                <path d="M8.23538124,0 L10.0475859,4.15550046 C11.6259179,3.60063883 13.3249073,3.29865723 15.0948718,3.29865723 C23.4291379,3.29865723 30.1897436,9.99420499 30.1897436,18.2590031 C30.1897436,24.0551418 26.86469,29.0794795 22.003669,31.5638492 L25.423919,39.4053955 L6.54358974,39.4053955 L6.54358974,37.1746262 L22.0163846,37.1740108 L19.9470847,32.4295871 C18.4241513,32.9416627 16.7921439,33.2193489 15.0948718,33.2193489 C6.76060571,33.2193489 0,26.5238012 0,18.2590031 C0,12.5354931 3.24224626,7.56456306 8.00406812,5.04874139 L6.19066894,0.891898536 L8.23538124,0 Z M8.89909194,7.10036334 C4.92343963,9.26655326 2.23076923,13.4526186 2.23076923,18.2590031 C2.23076923,25.2869269 7.98782272,30.9885797 15.0948718,30.9885797 C16.475229,30.9885797 17.8046605,30.7734972 19.0508774,30.3753891 Z M15.0948718,5.52942646 C13.6416661,5.52942646 12.2449031,5.76781003 10.9422586,6.2071722 L21.1096704,29.5143908 C25.1843662,27.3777386 27.9589744,23.1379686 27.9589744,18.2590031 C27.9589744,11.2310793 22.2019209,5.52942646 15.0948718,5.52942646 Z M27.5,0 C28.9819005,0 30,1.11738149 30,2.50564334 C30,3.88261851 28.9932127,5 27.5,5 C25.9728507,5 25,3.86004515 25,2.50564334 C25,1.09480813 26.0294118,0 27.5,0 Z M27.5,0.361173815 C26.2217195,0.361173815 25.4072398,1.36568849 25.4072398,2.50564334 C25.4072398,3.66817156 26.2104072,4.6275395 27.5,4.6275395 C28.8122172,4.6275395 29.6040724,3.66817156 29.6040724,2.50564334 C29.6040724,1.34311512 28.7782805,0.361173815 27.5,0.361173815 Z M27.7828054,1.00451467 C28.3257919,1.00451467 28.7330317,1.4221219 28.7330317,1.95259594 C28.7330317,2.35891648 28.4728507,2.67494357 28.1108597,2.79909707 L28.1108597,2.79909707 L28.7895928,3.86004515 L28.2352941,3.86004515 L27.60181,2.85553047 L27.0248869,2.85553047 L27.0248869,3.86004515 L26.5497738,3.86004515 L26.5497738,1.00451467 Z M27.7828054,1.45598194 L27.0248869,1.45598194 L27.0248869,2.42663657 L27.7488688,2.42663657 C28.0542986,2.42663657 28.2692308,2.2234763 28.2692308,1.94130926 C28.2692308,1.64785553 28.0542986,1.45598194 27.7828054,1.45598194 L27.7828054,1.45598194 Z" id="Combined-Shape" fill="#A28366"></path>
                <path d="M55.7178018,32.2900108 L55.7178018,11.1636449 L63.6944234,11.1636449 L63.6944234,8.92752089 L45.1379314,8.92752089 L45.1379314,11.1636449 L53.3481779,11.1636449 L53.3481779,32.2900108 L55.7178018,32.2900108 Z M68.9342962,32.2900108 L68.9342962,23.4122647 C68.9342962,18.5728917 72.2717947,16.0363928 76.4102929,17.0042674 L76.4102929,14.5345185 C72.7056695,13.9671437 70.0356707,15.535768 68.9342962,18.3392668 L68.9342962,14.6012684 L66.5980472,14.6012684 L66.5980472,32.2900108 L68.9342962,32.2900108 Z M80.7824161,11.4973948 C81.7836656,11.4973948 82.5512903,10.7297701 82.5512903,9.76189553 C82.5512903,8.76064596 81.7836656,7.99302129 80.7824161,7.99302129 C79.8145415,7.99302129 79.0135418,8.76064596 79.0135418,9.76189553 C79.0135418,10.7297701 79.8145415,11.4973948 80.7824161,11.4973948 Z M81.9171656,32.2900108 L81.9171656,14.6012684 L79.5809166,14.6012684 L79.5809166,32.2900108 L81.9171656,32.2900108 Z M88.3585378,39.2987578 L88.3585378,28.6187624 C89.7269122,30.9550114 92.2634111,32.5570107 95.3339098,32.5570107 C100.273408,32.5570107 104.245031,28.5186375 104.245031,23.4122647 C104.245031,18.4393918 100.273408,14.3008936 95.3339098,14.3008936 C92.2300361,14.3008936 89.7269122,15.9028929 88.3585378,18.2057669 L88.3585378,14.6012684 L86.0222888,14.6012684 L86.0222888,39.2987578 L88.3585378,39.2987578 Z M95.1336599,30.4210116 C91.2955365,30.4210116 88.2584129,27.250388 88.2584129,23.4122647 C88.2584129,19.6075163 91.3289115,16.4368927 95.1336599,16.4368927 C99.0051582,16.4368927 101.975532,19.5741413 101.975532,23.4122647 C101.975532,27.317138 98.9384083,30.4210116 95.1336599,30.4210116 Z M109.985529,32.2900108 L109.985529,10.0288954 L117.928775,32.2900108 L122.367648,32.2900108 L130.377645,9.92877046 L130.377645,32.2900108 L132.713894,32.2900108 L132.713894,8.92752089 L128.241646,8.92752089 L120.164899,31.4556362 L112.088153,8.92752089 L107.64928,8.92752089 L107.64928,32.2900108 L109.985529,32.2900108 Z M142.826514,32.5570107 C147.398887,32.5570107 149.501512,29.2528871 150.068886,28.1848876 L150.068886,32.2900108 L152.30501,32.2900108 L152.30501,20.0413911 C152.30501,16.5036426 148.733887,14.3008936 144.428514,14.3008936 C140.59039,14.3008936 137.186142,16.1031428 136.952517,19.5407663 L139.222016,19.5407663 C139.655891,17.0710174 142.159015,16.2700177 144.495264,16.2700177 C147.465637,16.2700177 150.068886,17.6050172 150.068886,20.308391 L150.068886,21.7435154 L144.194889,21.7768904 C138.387641,21.7768904 136.285017,24.3801392 136.385142,27.4172629 C136.485267,30.9216364 139.522391,32.5570107 142.826514,32.5570107 Z M142.993389,30.5545116 C140.85739,30.5545116 138.888266,29.486512 138.721391,27.4840129 C138.521141,25.6817637 139.889516,23.5791396 144.528639,23.5457646 L150.068886,23.5457646 C150.068886,27.383888 146.664638,30.5545116 142.993389,30.5545116 Z M158.379258,39.2987578 L158.379258,28.6187624 C159.747632,30.9550114 162.284131,32.5570107 165.35463,32.5570107 C170.294128,32.5570107 174.265751,28.5186375 174.265751,23.4122647 C174.265751,18.4393918 170.294128,14.3008936 165.35463,14.3008936 C162.250756,14.3008936 159.747632,15.9028929 158.379258,18.2057669 L158.379258,14.6012684 L156.043009,14.6012684 L156.043009,39.2987578 L158.379258,39.2987578 Z M165.15438,30.4210116 C161.316256,30.4210116 158.279133,27.250388 158.279133,23.4122647 C158.279133,19.6075163 161.349631,16.4368927 165.15438,16.4368927 C169.025878,16.4368927 171.996252,19.5741413 171.996252,23.4122647 C171.996252,27.317138 168.959128,30.4210116 165.15438,30.4210116 Z M179.839373,39.2987578 L179.839373,28.6187624 C181.207748,30.9550114 183.744247,32.5570107 186.814745,32.5570107 C191.754243,32.5570107 195.725867,28.5186375 195.725867,23.4122647 C195.725867,18.4393918 191.754243,14.3008936 186.814745,14.3008936 C183.710872,14.3008936 181.207748,15.9028929 179.839373,18.2057669 L179.839373,14.6012684 L177.503124,14.6012684 L177.503124,39.2987578 L179.839373,39.2987578 Z M186.614496,30.4210116 C182.776372,30.4210116 179.739249,27.250388 179.739249,23.4122647 C179.739249,19.6075163 182.809747,16.4368927 186.614496,16.4368927 C190.485994,16.4368927 193.456368,19.5741413 193.456368,23.4122647 C193.456368,27.317138 190.419244,30.4210116 186.614496,30.4210116 Z M207.540612,32.5570107 C210.978235,32.5570107 214.282359,30.6212616 215.717483,27.6842628 L213.548109,27.250388 C212.27986,29.1527622 210.01036,30.4210116 207.540612,30.4210116 C204.002863,30.4210116 201.099239,27.9178877 200.832239,24.2466393 L216.451733,24.2466393 C216.551858,23.6792645 216.518483,22.9783898 216.418358,22.2775151 C215.850983,17.872017 212.179735,14.3008936 207.540612,14.3008936 C202.500989,14.3008936 198.462615,18.3392668 198.462615,23.4122647 C198.462615,28.4185125 202.434239,32.5570107 207.540612,32.5570107 Z M214.115484,22.3776401 L200.832239,22.3776401 C201.165989,19.0735165 203.902738,16.4035177 207.507237,16.4035177 C211.07836,16.4035177 213.748359,19.0735165 214.115484,22.3776401 Z M221.99198,32.2900108 L221.99198,23.4122647 C221.99198,18.5728917 225.329479,16.0363928 229.467977,17.0042674 L229.467977,14.5345185 C225.763354,13.9671437 223.093355,15.535768 221.99198,18.3392668 L221.99198,14.6012684 L219.655731,14.6012684 L219.655731,32.2900108 L221.99198,32.2900108 Z" id="TripMapper" fill="#2C2825"></path>
            </g>
        </g>
    </g>
</svg>