<svg xmlns="http://www.w3.org/2000/svg" width="10" height="9" viewBox="0 0 10 9"><path fill="#FFF" d="M3.73390198,8.92494202 C4.15936788,8.92494202 4.47972616,8.7651825 4.69497681,8.44566345 L9.20066833,1.69662476 C9.27792867,1.58086141 9.33443705,1.46579742 9.37019348,1.3514328 C9.40594991,1.23706818 9.42382812,1.12810771 9.42382812,1.02455139 C9.42382812,0.731379191 9.32198842,0.487327576 9.11830902,0.292396545 C8.91462962,0.0974655151 8.66246541,0 8.36181641,0 C8.15684001,0 7.9828771,0.0405502319 7.83992767,0.121650696 C7.69697825,0.20275116 7.56375631,0.341288249 7.44026184,0.537261963 L3.71437073,6.36039734 L1.86195374,4.18670654 C1.64995829,3.9398702 1.38020833,3.81645203 1.05270386,3.81645203 C0.751291911,3.81645203 0.500488281,3.9151001 0.300292969,4.11239624 C0.100097656,4.30969238 0,4.55495199 0,4.84817505 C0,4.98413086 0.0219980876,5.11029561 0.0659942627,5.22666931 C0.109990438,5.34304301 0.188852946,5.46546936 0.302581787,5.59394836 L2.81425476,8.51448059 C3.05310567,8.78812154 3.35965474,8.92494202 3.73390198,8.92494202 Z" transform="translate(.245 .056)"/></svg>