<?xml version="1.0" encoding="utf-8"?><svg xmlns="http://www.w3.org/2000/svg" xmlns:xlink="http://www.w3.org/1999/xlink"><defs><svg viewBox="0 0 26 26" id="add-after" xmlns="http://www.w3.org/2000/svg"><g fill="none" fill-rule="evenodd"><path fill="#2C2825" d="M24.899 11.146c-.219 2.78-2.516 5.067-5.313 5.296-.793.065-1.597.107-2.41.107-.813 0-1.617-.042-2.41-.107-2.797-.23-5.094-2.516-5.312-5.296a30.232 30.232 0 01-.102-2.371c0-.8.04-1.59.102-2.371.218-2.78 2.515-5.067 5.312-5.296A29.514 29.514 0 0117.176 1c.813 0 1.617.043 2.41.108 2.797.229 5.094 2.516 5.313 5.296.06.78.101 1.571.101 2.37 0 .8-.04 1.591-.101 2.372z" opacity=".2"/><path fill="#FFF" stroke="#2C2825" stroke-linejoin="round" stroke-width="2" d="M16.638 16.544c-1.181-.026-2.343-.134-3.48-.26-1.859-.203-3.356-1.692-3.553-3.54a41.435 41.435 0 01-.243-3.287 24.265 24.265 0 00-.538-.006c-1.368 0-2.71.121-4.017.265-1.86.204-3.357 1.692-3.555 3.54C1.114 14.55 1 15.876 1 17.227c0 1.35.114 2.676.252 3.968.198 1.849 1.695 3.337 3.555 3.541 1.307.144 2.65.265 4.017.265 1.367 0 2.71-.121 4.017-.265 1.86-.204 3.357-1.692 3.554-3.541.138-1.292.253-2.618.253-3.969 0-.228-.004-.455-.01-.681z"/><path stroke="#2C2825" stroke-linecap="round" stroke-width="2" d="M13.404 1.238l-.245.027c-1.86.204-3.357 1.693-3.554 3.541l-.025.234m11.352-3.802c.081.01.163.018.245.027 1.859.204 3.357 1.693 3.554 3.541l.024.234m-3.823 11.268l.245-.026c1.859-.204 3.357-1.693 3.554-3.542l.024-.233"/></g></svg><svg viewBox="0 0 26 25" id="affiliate-details" xmlns="http://www.w3.org/2000/svg"><g fill="none" fill-rule="evenodd" stroke="#2C2825" stroke-linecap="round" stroke-linejoin="round" stroke-width="2"><path d="M12.966 13.677c.797 0 1.444-.64 1.444-1.427 0-.789-.647-1.428-1.444-1.428-.798 0-1.444.64-1.444 1.428 0 .788.646 1.427 1.444 1.427zm3.848-6.832a6.578 6.578 0 012.837 5.404 6.578 6.578 0 01-2.837 5.405M9.117 6.845a6.578 6.578 0 00-2.838 5.404 6.578 6.578 0 002.838 5.405"/><path d="M16.883 1C21.606 2.606 25 7.036 25 12.25s-3.394 9.644-8.117 11.25M9.117 1C4.394 2.606 1 7.036 1 12.25s3.394 9.644 8.117 11.25"/></g></svg><svg viewBox="0 0 26 26" id="brush" xmlns="http://www.w3.org/2000/svg"><g fill="none" stroke="#2C2825" stroke-linecap="round" stroke-linejoin="round" stroke-width="2"><path fill="#2C2825" fill-opacity=".2" d="M17.785 2.532L9.24 13.294l3.551 3.585 10.686-8.61a4.096 4.096 0 001.422-4.097 4.065 4.065 0 00-3.046-3.07 4.034 4.034 0 00-4.067 1.432v-.002z"/><path fill="#FFF" d="M3.134 13.715c2.843-2.864 6.398-2.147 8.53 0 2.132 2.148 2.843 5.731 0 8.595C8.821 25.175 4.642 25.5 1 24.457c2.8-2.82-.965-7.622 2.132-10.742h.002z"/></g></svg><svg viewBox="0 0 25 26" id="calendar" xmlns="http://www.w3.org/2000/svg"><g fill="none" fill-rule="evenodd" stroke="#2C2825"><path stroke-linecap="round" stroke-width="2" d="M8.268 1v4.877M16.719 1v4.877"/><path stroke-width="2" d="M6.605 24.86c1.883.092 3.806.14 5.895.14 2.089 0 4.012-.048 5.895-.14 2.725-.135 4.929-2.33 5.232-5.092.205-1.862.373-3.769.373-5.714 0-1.943-.17-3.851-.373-5.712-.303-2.765-2.507-4.957-5.232-5.092a119.41 119.41 0 00-5.895-.14c-2.089 0-4.012.048-5.895.14-2.725.135-4.929 2.33-5.232 5.092C1.168 10.204 1 12.111 1 14.054c0 1.945.17 3.854.373 5.714.303 2.765 2.507 4.957 5.232 5.092z"/><path stroke-width="2" d="M7.108 11.38a.475.475 0 01-.471-.48c0-.266.21-.48.47-.48m0 .96c.26 0 .472-.215.472-.48 0-.266-.211-.48-.471-.48"/><path stroke-width="2.4" d="M7.107 17.65a.475.475 0 01-.47-.48c0-.265.21-.48.47-.48m0 .96c.26 0 .471-.215.471-.48s-.21-.48-.47-.48M12.5 11.38a.475.475 0 01-.47-.48c0-.265.21-.48.47-.48m0 .96c.26 0 .471-.215.471-.48s-.21-.48-.47-.48M17.892 11.38a.475.475 0 01-.47-.48c0-.265.21-.48.47-.48m0 .96c.26 0 .471-.215.471-.48s-.21-.48-.47-.48"/></g></svg><svg viewBox="0 0 26 26" id="connect" xmlns="http://www.w3.org/2000/svg"><g fill="none" fill-rule="evenodd" stroke="#2C2825" stroke-linecap="round" stroke-linejoin="round" stroke-width="2"><path d="M24.575 6.22c.57 5.223.564 8.264 0 13.538a.956.956 0 01-.16.519.897.897 0 01-.41.336L13.309 24.91l-.32.09-.322-.09-10.696-4.296a.898.898 0 01-.41-.336.957.957 0 01-.16-.519c-.54-5.21-.53-8.362 0-13.611a.93.93 0 01.017-.164.967.967 0 00.143.347c.101.152.244.27.41.336l10.696 4.296h.642l10.696-4.296a.9.9 0 00.41-.336.954.954 0 00.143-.349.853.853 0 01.017.24z"/><path fill="#2C2825" fill-opacity=".2" d="M24.56 5.976a.91.91 0 00-.18-.388.842.842 0 00-.375-.297L13.309 1.07a.774.774 0 00-.642 0L1.971 5.365a.83.83 0 00-.374.223.91.91 0 00-.179.392.951.951 0 00.143.35c.101.152.244.27.41.336l10.696 4.296h.642l10.696-4.296a.9.9 0 00.41-.336.954.954 0 00.144-.354z"/><path d="M12.989 25V10.962"/></g></svg><svg viewBox="0 0 26 26" id="copy" xmlns="http://www.w3.org/2000/svg"><g fill="none" fill-rule="evenodd"><path fill="#2C2825" fill-opacity=".2" d="M1.303 17.084a4.035 4.035 0 003.506 3.582c1.39.17 2.817.315 4.272.315s2.882-.146 4.272-.315a4.035 4.035 0 003.506-3.582c.16-1.602.303-3.25.303-4.933 0-1.683-.142-3.331-.303-4.933a4.035 4.035 0 00-3.506-3.582c-1.39-.17-2.817-.315-4.272-.315s-2.883.146-4.272.315a4.035 4.035 0 00-3.506 3.582C1.143 8.82 1 10.468 1 12.151c0 1.683.142 3.331.303 4.933z"/><path stroke="#2C2825" stroke-linecap="round" stroke-width="2" d="M16.715 6.484a4.04 4.04 0 00-3.362-2.848c-1.39-.17-2.817-.315-4.272-.315s-2.883.146-4.272.315a4.035 4.035 0 00-3.506 3.582C1.143 8.82 1 10.468 1 12.151c0 1.683.142 3.331.303 4.933a4.035 4.035 0 003.506 3.582 53.36 53.36 0 002.047.216"/><path fill="#FFF" stroke="#2C2825" stroke-width="2" d="M4.83 3.516c0 1.366 1.3 2.392 2.663 2.467.52.03 1.05.05 1.588.05.537 0 1.067-.02 1.588-.05 1.364-.075 2.663-1.101 2.663-2.467h0c0-1.365-1.3-2.39-2.663-2.467C10.148 1.021 9.619 1 9.08 1c-.537 0-1.067.02-1.588.05-1.364.075-2.664 1.101-2.664 2.466h0zm6.98 17.706c.175 1.854 1.654 3.371 3.505 3.581.978.111 1.976.197 2.991.197 1.015 0 2.014-.086 2.99-.197 1.852-.21 3.331-1.727 3.507-3.58.11-1.154.197-2.335.197-3.538 0-1.202-.088-2.383-.197-3.537-.176-1.854-1.655-3.37-3.506-3.58-.977-.112-1.976-.197-2.99-.197-1.016 0-2.014.085-2.992.196-1.85.21-3.33 1.727-3.506 3.581-.11 1.154-.197 2.335-.197 3.537 0 1.203.088 2.384.197 3.537z"/><path stroke="#2C2825" stroke-linecap="round" stroke-width="2" d="M20.33 15.611h-4.047M20.33 20.165h-4.047"/></g></svg><svg viewBox="0 0 26 26" id="date" xmlns="http://www.w3.org/2000/svg"><g fill="none" fill-rule="evenodd"><path fill="#FFF" d="M1.39 19.768a5.777 5.777 0 005.459 5.092c1.965.092 3.972.14 6.151.14 2.18 0 4.186-.048 6.151-.14a5.779 5.779 0 005.46-5.092c.214-1.862.389-3.769.389-5.712 0-1.945-.177-3.853-.39-5.714a5.777 5.777 0 00-5.459-5.092c-1.965-.092-3.972-.14-6.151-.14-2.18 0-4.186.048-6.151.14a5.779 5.779 0 00-5.46 5.092C1.175 10.204 1 12.111 1 14.056c0 1.943.177 3.852.39 5.712z"/><path stroke="#2C2825" stroke-linecap="round" stroke-width="2" d="M8.584 1v4.877M17.402 1v4.877"/><path fill="#2C2825" fill-opacity=".2" d="M24.139 12.242H1.861l.31-7.748 10.695-.758 11.271.758v7.748z"/><path stroke="#2C2825" stroke-width="2" d="M1.39 19.768a5.777 5.777 0 005.459 5.092c1.965.092 3.972.14 6.151.14 2.18 0 4.186-.048 6.151-.14a5.779 5.779 0 005.46-5.092c.214-1.862.389-3.769.389-5.712 0-1.945-.177-3.853-.39-5.714a5.777 5.777 0 00-5.459-5.092c-1.965-.092-3.972-.14-6.151-.14-2.18 0-4.186.048-6.151.14a5.779 5.779 0 00-5.46 5.092C1.175 10.204 1 12.111 1 14.056c0 1.943.177 3.852.39 5.712h0zM1.574 11.512h22.97"/></g></svg><svg viewBox="0 0 26 26" id="earth" xmlns="http://www.w3.org/2000/svg"><g fill="none" stroke="#2C2825" stroke-linecap="round" stroke-linejoin="round" stroke-width="2"><path fill="#2C2825" fill-opacity=".2" d="M13 25c6.627 0 12-5.373 12-12S19.627 1 13 1 1 6.373 1 13s5.373 12 12 12z"/><path fill="#FFF" d="M5.154 17.615a3.23 3.23 0 003.23-3.23v-2.77a3.23 3.23 0 013.231-3.23 3.23 3.23 0 003.231-3.231V1.14A12.092 12.092 0 0013 1C6.373 1 1 6.373 1 13c0 1.636.327 3.195.92 4.615h3.234zm19.845-4.8a6.572 6.572 0 00-2.99-.738h-3.932a3.23 3.23 0 000 6.461 2.307 2.307 0 012.307 2.308v1.606h.01A11.979 11.979 0 0025 13.072v-.143l-.001-.114z"/></g></svg><svg viewBox="0 0 26 26" id="grid" xmlns="http://www.w3.org/2000/svg"><path fill="#2C2825" fill-opacity=".2" stroke="#2C2825" stroke-width="2" d="M15.821 8.03a2.325 2.325 0 002.059 2.036c.796.089 1.617.165 2.454.165.835 0 1.656-.076 2.454-.165 1.076-.117 1.942-.973 2.057-2.037.083-.787.155-1.592.155-2.413 0-.822-.072-1.628-.155-2.414-.117-1.063-.98-1.92-2.057-2.039A22.36 22.36 0 0020.334 1c-.837 0-1.656.077-2.456.163-1.076.12-1.942.976-2.057 2.04-.083.785-.155 1.59-.155 2.413 0 .821.072 1.628.155 2.413h0zm-14.666 0a2.325 2.325 0 002.059 2.036c.796.089 1.617.165 2.452.165.837 0 1.656-.076 2.456-.165 1.076-.117 1.942-.973 2.057-2.037.083-.787.155-1.592.155-2.413 0-.822-.072-1.628-.155-2.414-.117-1.063-.98-1.92-2.059-2.039-.813-.1-1.632-.154-2.452-.163-.835 0-1.656.077-2.454.163-1.078.12-1.942.976-2.059 2.04C1.072 3.987 1 4.792 1 5.615c0 .821.072 1.628.155 2.413zm0 14.768c.117 1.063.98 1.92 2.059 2.039.813.1 1.632.154 2.452.163.837 0 1.656-.077 2.456-.163 1.076-.12 1.942-.976 2.057-2.04.083-.785.155-1.59.155-2.413 0-.821-.072-1.628-.155-2.413a2.325 2.325 0 00-2.059-2.037c-.814-.1-1.633-.155-2.454-.165-.835 0-1.656.076-2.454.165-1.076.117-1.942.973-2.057 2.037-.083.785-.155 1.592-.155 2.413 0 .822.072 1.628.155 2.414zm14.666 0c.117 1.063.98 1.92 2.059 2.039.814.1 1.633.154 2.454.163.835 0 1.656-.077 2.454-.163 1.076-.12 1.942-.976 2.057-2.04.083-.785.155-1.59.155-2.413 0-.821-.072-1.628-.155-2.413a2.325 2.325 0 00-2.057-2.037c-.814-.1-1.633-.155-2.454-.165-.837 0-1.656.076-2.456.165-1.076.117-1.942.973-2.057 2.037-.083.785-.155 1.592-.155 2.413 0 .822.072 1.628.155 2.414h0z"/></svg><svg viewBox="0 0 26 21" id="list" xmlns="http://www.w3.org/2000/svg"><g fill="none" fill-rule="evenodd" stroke="#2C2825" stroke-linecap="round" stroke-linejoin="round" stroke-width="2"><path d="M11.8 1.975H25M11.8 10.75H25M11.8 19.525H25M1 1.975h4.8M1 10.75h4.8M1 19.525h4.8"/></g></svg><svg viewBox="0 0 26 26" id="money" xmlns="http://www.w3.org/2000/svg"><g fill="none" fill-rule="evenodd"><path fill="#2C2825" fill-opacity=".2" d="M8.309 1c3.49 0 5.814.734 6.726 2.08.285.423.432.902.432 1.442 0 1.531-1.192 2.607-3.394 3.14l-.002 10.676c-1.224.18-2.483.332-3.764.332-.723 0-1.438-.048-2.145-.122-.44-.048-.878-.103-1.315-.166a4.187 4.187 0 01-3.556-3.778C1.14 12.784 1 10.912 1 8.996c0-1.305.064-2.936.154-4.28a2.6 2.6 0 01-.007-.194C1.147 2.268 3.725 1 8.309 1z"/><path stroke="#2C2825" stroke-linecap="round" stroke-linejoin="round" stroke-width="2" d="M1.19 4.194A70.126 70.126 0 001 8.996c0 1.916.14 3.79.291 5.608a4.187 4.187 0 003.554 3.78c.36.048.719.096 1.082.138"/><path stroke="#2C2825" stroke-linecap="round" stroke-width="2" d="M5.357 13.406C3.057 13.23 1.21 11.84 1 10.15"/><path stroke="#2C2825" stroke-linecap="round" stroke-linejoin="round" stroke-width="2" d="M5.755 7.886c-2.976-.402-4.608-1.572-4.608-3.364C1.147 2.268 3.725 1 8.309 1c3.49 0 5.814.734 6.726 2.08"/><path stroke="#2C2825" stroke-linejoin="round" stroke-width="2" d="M10.578 10.524a70.126 70.126 0 00-.191 4.802c0 1.916.14 3.79.29 5.608a4.187 4.187 0 003.555 3.78v-.002c1.13.16 2.287.288 3.461.288 1.177 0 2.332-.128 3.462-.288a4.187 4.187 0 003.554-3.778c.152-1.82.291-3.692.291-5.608 0-1.634-.1-3.238-.225-4.802"/><path stroke="#2C2825" stroke-linecap="round" stroke-width="2" d="M25 16.48c-.207 1.69-2.056 3.08-4.357 3.256a38.54 38.54 0 01-2.95.128c-.998 0-1.983-.054-2.95-.128-2.298-.176-4.147-1.566-4.356-3.256"/><path fill="#2C2825" fill-opacity=".3" stroke="#2C2825" stroke-linecap="round" stroke-linejoin="round" stroke-width="2" d="M17.693 14.372c4.582 0 7.16-1.268 7.16-3.52 0-2.254-2.578-3.52-7.16-3.52-4.582 0-7.16 1.266-7.16 3.52 0 2.252 2.578 3.52 7.16 3.52z"/></g></svg><svg viewBox="0 0 23 26" id="payments" xmlns="http://www.w3.org/2000/svg"><g fill="none" fill-rule="evenodd" stroke="#2C2825" stroke-width="2"><path stroke-linecap="round" d="M11.5 25c2.24 0 4.428-.279 6.545-.559a4.011 4.011 0 003.449-3.574c.249-2.539.506-5.17.506-7.867 0-1.586-.089-3.149-.213-4.684-.298-3.693-3.232-6.778-6.9-7.135A34.958 34.958 0 0011.5 1c-2.24 0-4.428.279-6.545.559a4.011 4.011 0 00-3.449 3.574"/><path fill="#2C2825" fill-opacity=".2" stroke-linejoin="round" d="M13.497 4.84v4.194h4.685c2.084 0 3.778 1.678 3.817 3.765a59.017 59.017 0 00-.212-4.483c-.298-3.693-3.232-6.778-6.9-7.135A34.958 34.958 0 0011.5 1c-.447 0-.891.011-1.333.031a3.833 3.833 0 013.33 3.809z"/><path stroke-linecap="round" stroke-linejoin="round" d="M13.051 19.399h3.779M13.051 14.719h3.779M7.205 13.051s-1.167-1.341-3.058-1.173c-1.892.167-2.804 1.366-2.804 2.568 0 3.506 5.862 1.076 5.862 4.672 0 1.853-3.889 3.161-6.205.98"/><path stroke-linecap="round" d="M4.378 9.52v2.343M4.378 21.217v2.343"/></g></svg><svg viewBox="0 0 26 24" id="people" xmlns="http://www.w3.org/2000/svg"><g fill="none" fill-rule="evenodd" stroke="#2C2825" stroke-width="2"><path stroke-linecap="round" stroke-linejoin="round" d="M17.608 12.016c2.226.001 4.136-1.604 4.538-3.815.402-2.211-.818-4.397-2.9-5.194"/><path fill="#D5D4D3" stroke-linecap="round" stroke-linejoin="round" d="M9.846 11.093c2.76 0 4.999-2.26 4.999-5.047S12.607 1 9.845 1c-2.76 0-4.998 2.26-4.998 5.046 0 2.787 2.238 5.047 4.999 5.047h0z"/><path fill="#D5D4D3" stroke-linejoin="round" d="M17.506 18.185c2.445 1.644.794 4.813-2.146 4.813H4.328c-2.938 0-4.59-3.17-2.144-4.813a13.682 13.682 0 017.662-2.335c2.832 0 5.468.86 7.662 2.335h-.002z"/><path stroke-linecap="round" d="M14.935 23h6.995c2.71 0 4.233-2.927 1.978-4.445a12.69 12.69 0 00-1.98-1.087"/></g></svg><svg viewBox="0 0 25 26" id="share" xmlns="http://www.w3.org/2000/svg"><g fill="none" fill-rule="evenodd" stroke="#2C2825" stroke-linecap="round" stroke-linejoin="round" stroke-width="2"><path fill="#2C2825" fill-opacity=".2" d="M5.204 17.105c2.321 0 4.203-1.838 4.203-4.105 0-2.267-1.882-4.105-4.203-4.105C2.882 8.895 1 10.733 1 13c0 2.267 1.882 4.105 4.204 4.105zM19.796 9.21c1.502 0 2.89-.782 3.64-2.053.752-1.27.752-2.834 0-4.105A4.223 4.223 0 0019.797 1c-2.321 0-4.203 1.838-4.203 4.105 0 2.267 1.882 4.105 4.203 4.105h0zm0 15.79C22.118 25 24 23.162 24 20.895c0-2.267-1.882-4.105-4.204-4.105-2.321 0-4.203 1.838-4.203 4.105 0 2.267 1.882 4.105 4.203 4.105z"/><path d="M7.152 9.406c3.84-2.112 4.072-2.131 8.44-3.335m-8.44 10.523c3.84 2.112 4.072 2.131 8.44 3.335"/></g></svg><svg viewBox="0 0 26 26" id="star-square" xmlns="http://www.w3.org/2000/svg"><g fill="#2C2825"><path fill-opacity=".2" stroke="#2C2825" stroke-width="2" d="M1.403 19.276c.296 2.766 2.52 4.99 5.285 5.299C8.742 24.803 10.85 25 13 25c2.15 0 4.258-.197 6.312-.425 2.764-.309 4.99-2.533 5.285-5.3.218-2.041.403-4.138.403-6.275 0-2.137-.185-4.234-.403-6.276-.296-2.766-2.52-4.99-5.285-5.299C17.258 1.197 15.15 1 13 1c-2.15 0-4.258.197-6.312.425-2.764.309-4.99 2.533-5.285 5.3C1.184 8.765 1 10.862 1 13c0 2.137.184 4.234.403 6.276z"/><path d="M12.212 7.54a.844.844 0 011.576 0l1.196 2.985 3.238.29c.76.068 1.055 1.045.466 1.54l-1.977 1.662a.882.882 0 00-.292.857l.648 3.068c.161.766-.67 1.344-1.305.908L13 16.96l-2.762 1.89c-.636.436-1.466-.142-1.305-.908l.648-3.068a.882.882 0 00-.292-.857l-1.977-1.661c-.59-.496-.294-1.473.466-1.54l3.238-.291 1.196-2.985z"/></g></svg></defs></svg>