<svg xmlns="http://www.w3.org/2000/svg" width="4" height="15" viewBox="0 0 4 15"><path fill="#2C2825" d="M287.522752,100 C287.807621,100 288.065298,99.9320513 288.295782,99.7961538 C288.526267,99.6602564 288.710137,99.4794872 288.847392,99.2538462 C288.984647,99.0282051 289.053274,98.7769231 289.053274,98.5 C289.053274,98.0846154 288.90566,97.7307692 288.610433,97.4384615 C288.315205,97.1461538 287.952645,97 287.522752,97 C287.243063,97 286.987976,97.0666667 286.757492,97.2 C286.527007,97.3333333 286.343137,97.5141026 286.205882,97.7423077 C286.068627,97.9705128 286,98.2230769 286,98.5 C286,98.7769231 286.068627,99.0282051 286.205882,99.2538462 C286.343137,99.4794872 286.527007,99.6602564 286.757492,99.7961538 C286.987976,99.9320513 287.243063,100 287.522752,100 Z M293,100 C293.279689,100 293.533481,99.9320513 293.761376,99.7961538 C293.989271,99.6602564 294.171846,99.4794872 294.309101,99.2538462 C294.446356,99.0282051 294.514983,98.7769231 294.514983,98.5 C294.514983,98.0846154 294.36737,97.7307692 294.072142,97.4384615 C293.776915,97.1461538 293.419534,97 293,97 C292.720311,97 292.466519,97.0666667 292.238624,97.2 C292.010729,97.3333333 291.828154,97.5141026 291.690899,97.7423077 C291.553644,97.9705128 291.485017,98.2230769 291.485017,98.5 C291.485017,98.7769231 291.553644,99.0282051 291.690899,99.2538462 C291.828154,99.4794872 292.010729,99.6602564 292.238624,99.7961538 C292.466519,99.9320513 292.720311,100 293,100 Z M298.477248,100 C298.756937,100 299.012024,99.9320513 299.242508,99.7961538 C299.472993,99.6602564 299.656863,99.4794872 299.794118,99.2538462 C299.931373,99.0282051 300,98.7769231 300,98.5 C300,98.0846154 299.852386,97.7307692 299.557159,97.4384615 C299.261931,97.1461538 298.901961,97 298.477248,97 C298.192379,97 297.933407,97.0666667 297.700333,97.2 C297.467259,97.3333333 297.283389,97.5141026 297.148724,97.7423077 C297.014058,97.9705128 296.946726,98.2230769 296.946726,98.5 C296.946726,98.7769231 297.014058,99.0282051 297.148724,99.2538462 C297.283389,99.4794872 297.467259,99.6602564 297.700333,99.7961538 C297.933407,99.9320513 298.192379,100 298.477248,100 Z" transform="rotate(90 193 -92.5)"/></svg>