<svg xmlns="http://www.w3.org/2000/svg" width="139" height="25" viewBox="0 0 139 25"><g fill="none" fill-rule="evenodd" transform="translate(1 1.344)"><polyline stroke="#A28366" stroke-linecap="square" stroke-width="1.5" points="3.786 0 13.424 22.336 3.786 22.336"/><ellipse cx="8.433" cy="10.481" stroke="#A28366" stroke-width="1.5" rx="8.433" ry="8.419"/><g fill="#2C2825" fill-rule="nonzero" transform="translate(26.568 3.978)"><polygon points="4.786 14.678 6.528 14.678 6.528 2.303 11.174 2.303 11.174 .661 0 .661 0 2.303 4.786 2.303"/><path d="M12.9161194 14.6783187 14.6182437 14.6783187 14.6182437 9.33164599C14.6182437 6.62827215 16.6207429 5.22652275 18.9636668 5.82727249L18.9636668 4.02502327C16.7809428 3.68459842 15.2590434 4.60574802 14.6182437 6.14767236L14.6182437 4.06507325 12.9161194 4.06507325 12.9161194 14.6783187ZM21.7070907 2.38297398C22.3879404 2.38297398 22.9085901 1.8623242 22.9085901 1.20149948 22.9085901.520649776 22.3879404 0 21.7070907 0 21.0462659 0 20.5055912.520649776 20.5055912 1.20149948 20.5055912 1.8623242 21.0462659 2.38297398 21.7070907 2.38297398ZM20.825991 14.6783187 22.5281153 14.6783187 22.5281153 4.06507325 20.825991 4.06507325 20.825991 14.6783187ZM24.9311143 18.8835669 26.6332385 18.8835669 26.6332385 12.7358945C27.4342382 13.977444 28.8560126 14.8385186 30.5581369 14.8385186 33.5018106 14.8385186 35.8847846 12.4154947 35.8847846 9.35167098 35.8847846 6.36794726 33.5018106 3.88484833 30.5581369 3.88484833 28.8359876 3.88484833 27.4342382 4.74592296 26.6332385 5.96744743L26.6332385 4.06507325 24.9311143 4.06507325 24.9311143 18.8835669ZM30.4179619 13.2965943C28.2552628 13.2965943 26.5331136 11.4943451 26.5331136 9.35167098 26.5331136 7.22902189 28.2752878 5.44679766 30.4179619 5.44679766 32.600686 5.44679766 34.2627603 7.2089969 34.2627603 9.35167098 34.2627603 11.534395 32.560636 13.2965943 30.4179619 13.2965943Z"/><polygon points="37.887 14.678 39.589 14.678 39.589 1.522 43.915 14.678 47.099 14.678 51.464 1.442 51.464 14.678 53.166 14.678 53.166 .661 49.942 .661 45.517 14.017 41.091 .661 37.887 .661"/><path d="M59.2339245 14.8385186C61.7370484 14.8385186 62.9986229 13.1163694 63.3390478 12.4955946L63.3390478 14.6783187 64.9610721 14.6783187 64.9610721 7.32914685C64.9610721 5.20649776 62.798373 3.88484833 60.2151491 3.88484833 57.8321751 3.88484833 55.769601 5.02627284 55.6494511 7.12889693L57.3115254 7.10887194C57.5718502 5.74717253 58.9535746 5.30662272 60.2551991 5.30662272 61.9172734 5.30662272 63.3390478 6.02752241 63.3390478 7.52939676L63.3390478 8.31037143 59.9147742 8.33039642C56.6507006 8.33039642 55.2890012 9.75217081 55.3290512 11.694595 55.3691012 13.937394 57.3515753 14.8385186 59.2339245 14.8385186ZM59.3540745 13.3967192C58.232675 13.3967192 57.1313004 12.8760695 57.0311755 11.734645 56.9310505 10.7133704 57.7120252 9.61199587 60.1951241 9.59197087L63.3390478 9.59197087C63.3390478 11.694595 61.3765986 13.3967192 59.3540745 13.3967192ZM67.1638211 18.8835669 68.8659454 18.8835669 68.8659454 12.7358945C69.666945 13.977444 71.0887194 14.8385186 72.7908437 14.8385186 75.7345174 14.8385186 78.1174914 12.4154947 78.1174914 9.35167098 78.1174914 6.36794726 75.7345174 3.88484833 72.7908437 3.88484833 71.0686944 3.88484833 69.666945 4.74592296 68.8659454 5.96744743L68.8659454 4.06507325 67.1638211 4.06507325 67.1638211 18.8835669ZM72.6506688 13.2965943C70.4879697 13.2965943 68.7658204 11.4943451 68.7658204 9.35167098 68.7658204 7.22902189 70.5079947 5.44679766 72.6506688 5.44679766 74.8333928 5.44679766 76.4954671 7.2089969 76.4954671 9.35167098 76.4954671 11.534395 74.7933428 13.2965943 72.6506688 13.2965943ZM80.0198656 18.8835669 81.7219899 18.8835669 81.7219899 12.7358945C82.5229895 13.977444 83.9447639 14.8385186 85.6468882 14.8385186 88.5905619 14.8385186 90.9735359 12.4154947 90.9735359 9.35167098 90.9735359 6.36794726 88.5905619 3.88484833 85.6468882 3.88484833 83.9247389 3.88484833 82.5229895 4.74592296 81.7219899 5.96744743L81.7219899 4.06507325 80.0198656 4.06507325 80.0198656 18.8835669ZM85.5067132 13.2965943C83.3440142 13.2965943 81.6218649 11.4943451 81.6218649 9.35167098 81.6218649 7.22902189 83.3640391 5.44679766 85.5067132 5.44679766 87.6894373 5.44679766 89.3515116 7.2089969 89.3515116 9.35167098 89.3515116 11.534395 87.6493873 13.2965943 85.5067132 13.2965943ZM98.0223328 14.8385186C100.064882 14.8385186 102.087406 13.6970941 102.948481 11.9549199L101.406556 11.59447C100.665632 12.6357696 99.3840323 13.2965943 98.0223328 13.2965943 96.0799087 13.2965943 94.4779094 11.9749448 94.2776595 9.97244571L103.369006 9.97244571C103.449106 9.55192089 103.429081 9.05129611 103.348981 8.59072131 102.968506 5.96744743 100.765757 3.88484833 98.0223328 3.88484833 95.0185841 3.88484833 92.5755352 6.30787229 92.5755352 9.35167098 92.5755352 12.3554197 94.9585092 14.8385186 98.0223328 14.8385186ZM94.2776595 8.63077129C94.4979344 6.86857205 95.9998087 5.40674767 98.0023079 5.40674767 99.984782 5.40674767 101.446606 6.86857205 101.686906 8.63077129L94.2776595 8.63077129ZM105.27138 14.6783187 106.973504 14.6783187 106.973504 9.33164599C106.973504 6.62827215 108.976003 5.22652275 111.318927 5.82727249L111.318927 4.02502327C109.136203 3.68459842 107.614304 4.60574802 106.973504 6.14767236L106.973504 4.06507325 105.27138 4.06507325 105.27138 14.6783187Z"/></g></g></svg>