<svg xmlns="http://www.w3.org/2000/svg" width="16" height="5" viewBox="0 0 16 5"><defs><clipPath id="a"><path d="M1800,0 L1800,1200 L0,1200 L0,0 L1800,0 Z"/></clipPath><clipPath id="b"><path d="M1.80932617,0 C2.32755534,0 2.75830078,0.171610514 3.1015625,0.514831543 C3.44482422,0.858052572 3.61645508,1.28694661 3.61645508,1.80151367 C3.61645508,2.12158203 3.53312174,2.41851807 3.36645508,2.69232178 C3.19978841,2.96612549 2.97947184,3.18721517 2.70550537,3.35559082 C2.4315389,3.52396647 2.1328125,3.6081543 1.80932617,3.6081543 C1.47916667,3.6081543 1.17671712,3.52396647 0.901977539,3.35559082 C0.627237956,3.18721517 0.40822347,2.96612549 0.244934082,2.69232178 C0.081644694,2.41851807 0,2.12158203 0,1.80151367 C0,1.46972656 0.081644694,1.16731771 0.244934082,0.894287109 C0.40822347,0.62125651 0.627237956,0.403951009 0.901977539,0.242370605 C1.17671712,0.0807902018 1.47916667,0 1.80932617,0 Z M7.41833496,0 C7.93290202,0 8.36134847,0.171610514 8.70367432,0.514831543 C9.04600016,0.858052572 9.21716309,1.28694661 9.21716309,1.80151367 C9.21716309,2.12158203 9.13382975,2.41851807 8.96716309,2.69232178 C8.80049642,2.96612549 8.58026123,3.18721517 8.30645752,3.35559082 C8.03265381,3.52396647 7.73661296,3.6081543 7.41833496,3.6081543 C7.08475749,3.6081543 6.78190104,3.52396647 6.50976562,3.35559082 C6.23763021,3.18721517 6.01991781,2.96612549 5.85662842,2.69232178 C5.69333903,2.41851807 5.61169434,2.12158203 5.61169434,1.80151367 C5.61169434,1.46972656 5.69333903,1.16731771 5.85662842,0.894287109 C6.01991781,0.62125651 6.23763021,0.403951009 6.50976562,0.242370605 C6.78190104,0.0807902018 7.08475749,0 7.41833496,0 Z M13.0195312,0 C13.5359701,0 13.9666341,0.171610514 14.3115234,0.514831543 C14.6564128,0.858052572 14.8288574,1.28694661 14.8288574,1.80151367 C14.8288574,2.12158203 14.7446899,2.41851807 14.576355,2.69232178 C14.40802,2.96612549 14.1873169,3.18721517 13.9142456,3.35559082 C13.6411743,3.52396647 13.3429362,3.6081543 13.0195312,3.6081543 C12.6892904,3.6081543 12.387207,3.52396647 12.1132812,3.35559082 C11.8393555,3.18721517 11.6207479,2.96612549 11.4574585,2.69232178 C11.2941691,2.41851807 11.2125244,2.12158203 11.2125244,1.80151367 C11.2125244,1.46972656 11.2941691,1.16731771 11.4574585,0.894287109 C11.6207479,0.62125651 11.8393555,0.403951009 12.1132812,0.242370605 C12.387207,0.0807902018 12.6892904,0 13.0195312,0 Z"/></clipPath></defs><g clip-path="url(#a)" transform="translate(-1557 -412)"><g clip-path="url(#b)" transform="translate(1557.85 412.87)"><polygon fill="#2C2824" points="0 0 14.829 0 14.829 3.608 0 3.608 0 0"/></g></g></svg>